<svg width="60" height="60" viewBox="0 0 60 60" fill="none" xmlns="http://www.w3.org/2000/svg">
<rect width="60" height="60" rx="8" fill="#8E1537"/>
<path d="M20.997 16C18.2456 16 16 18.2456 16 20.997V41.005C16 43.7561 18.2456 46 20.997 46H41.005C43.7561 46 46 43.7561 46 41.005V20.997C46 18.2456 43.7561 16 41.0048 16H20.997ZM27.2334 21.3669C27.4873 21.3694 27.729 21.4746 27.9037 21.6584C28.0787 21.8423 28.1715 22.0892 28.1611 22.3429C28.1507 22.5963 28.0378 22.8348 27.8485 23.0038L24.1809 26.3602H24.1811C24.0059 26.5188 23.7773 26.6054 23.541 26.6027C23.3047 26.6 23.0783 26.5082 22.9068 26.3456L21.191 24.7268C20.9487 24.4954 20.848 24.1524 20.9272 23.827C21.0061 23.5014 21.2528 23.2428 21.5745 23.1485C21.896 23.0543 22.2432 23.1386 22.4857 23.37L23.5569 24.388L26.5817 21.6196C26.737 21.4745 26.9372 21.3867 27.1493 21.3704C27.1773 21.3679 27.2055 21.3669 27.2334 21.3669L27.2334 21.3669ZM30.6502 23.0461H40.1604V23.0459C40.4125 23.0402 40.6565 23.1364 40.8369 23.3129C41.0173 23.4893 41.119 23.731 41.119 23.9834C41.119 24.2356 41.0173 24.4773 40.8369 24.6538C40.6565 24.8302 40.4126 24.9265 40.1604 24.9208H30.6502C30.398 24.9265 30.154 24.8302 29.9736 24.6538C29.7932 24.4773 29.6915 24.2356 29.6915 23.9834C29.6915 23.731 29.7932 23.4893 29.9736 23.3129C30.154 23.1364 30.398 23.0402 30.6502 23.0459V23.0461ZM27.2388 28.3818V28.3815C27.4925 28.385 27.734 28.4909 27.9081 28.6755C28.0824 28.8599 28.1742 29.1071 28.163 29.3604C28.1519 29.6138 28.0383 29.8518 27.8485 30.0204L24.1809 33.3767L24.1811 33.3765C24.0062 33.5353 23.7778 33.6224 23.5414 33.62C23.3051 33.6175 23.0785 33.5262 22.9067 33.3638L21.1909 31.7453V31.745C21.0098 31.5735 20.9041 31.337 20.8974 31.0876C20.8908 30.8379 20.9835 30.5961 21.1555 30.415C21.3272 30.2341 21.5638 30.1287 21.8135 30.1223C22.0629 30.1158 22.3047 30.2089 22.4855 30.3811L23.5567 31.4045L26.5815 28.6378C26.759 28.47 26.9948 28.378 27.2388 28.3814L27.2388 28.3818ZM30.6502 30.0627H40.1604V30.0624C40.4125 30.0568 40.6565 30.153 40.8369 30.3294C41.0173 30.5059 41.119 30.7476 41.119 30.9998C41.119 31.2522 41.0173 31.4939 40.8369 31.6704C40.6565 31.8465 40.4126 31.943 40.1604 31.9373H30.6502C30.398 31.943 30.154 31.8465 29.9736 31.6704C29.7932 31.4939 29.6915 31.2522 29.6915 30.9998C29.6915 30.7476 29.7932 30.5059 29.9736 30.3294C30.154 30.153 30.398 30.0567 30.6502 30.0624V30.0627ZM27.2537 35.3947V35.3945C27.5073 35.3999 27.7479 35.5083 27.9203 35.6941C28.0928 35.8802 28.1826 36.1281 28.169 36.3815C28.1556 36.6349 28.0401 36.872 27.8486 37.0388L24.1809 40.3877H24.1812C24.007 40.5473 23.7788 40.6352 23.5425 40.6337C23.3062 40.6324 23.079 40.5419 22.9068 40.3803L21.191 38.7617V38.7615C21.0099 38.59 20.9042 38.3534 20.8975 38.1037C20.8909 37.8543 20.9836 37.6126 21.1556 37.4315C21.3273 37.2506 21.5639 37.1452 21.8136 37.1387C22.063 37.1323 22.3048 37.2253 22.4856 37.3973L23.5568 38.4153L26.5816 35.654V35.6542C26.736 35.5065 26.9362 35.4162 27.1493 35.3979C27.1839 35.3947 27.2188 35.3937 27.2537 35.3944L27.2537 35.3947ZM30.5606 37.0811L30.5603 37.0808C30.5903 37.0793 30.6202 37.0793 30.6502 37.0808H40.1604C40.4126 37.0751 40.6565 37.1714 40.8369 37.3478C41.0173 37.5242 41.119 37.766 41.119 38.0181C41.119 38.2705 41.0173 38.5123 40.8369 38.6887C40.6566 38.8652 40.4126 38.9614 40.1604 38.9557H30.6502C30.3198 38.9641 30.0096 38.7983 29.8329 38.519C29.6564 38.2398 29.6396 37.8882 29.7886 37.5935C29.9378 37.2986 30.231 37.1038 30.5604 37.0808L30.5606 37.0811Z" fill="white"/>
</svg>
