<svg width="60" height="60" viewBox="0 0 60 60" fill="none" xmlns="http://www.w3.org/2000/svg">
<rect width="60" height="60" rx="8" fill="#8E1537"/>
<path d="M46 30C46 21.1638 38.8368 14 30 14C21.1638 14 14 21.1632 14 30C14 38.8362 21.1632 46 30 46C38.8362 46 46 38.8368 46 30ZM32.8879 41.4205L30.7544 43.554C30.3378 43.9707 29.6627 43.9707 29.246 43.554C28.8293 43.1374 28.8293 42.4622 29.246 42.0455L29.5799 41.7117C23.3073 41.4876 18.2679 36.3266 18.2679 29.9999C18.2679 26.9082 19.4593 23.9899 21.6237 21.7855C22.0364 21.3671 22.711 21.3609 23.1322 21.7731C23.5511 22.1858 23.5573 22.8603 23.1446 23.2815C21.3759 25.0839 20.4008 27.4712 20.4008 29.9999C20.4008 35.1256 24.4475 39.2883 29.5089 39.5501L29.246 39.2871C28.8293 38.8705 28.8293 38.1954 29.246 37.7787C29.4549 37.5703 29.7274 37.4662 30.0005 37.4662C30.2736 37.4662 30.5461 37.5703 30.7545 37.7787L32.8879 39.9121C33.3046 40.3288 33.3046 41.0039 32.8879 41.4206L32.8879 41.4205ZM35.0214 26.4872L30.755 30.7536C30.5546 30.954 30.2837 31.0661 30.0005 31.0661H25.7341C25.1446 31.0661 24.6677 30.5892 24.6677 29.9997C24.6677 29.4101 25.1446 28.9332 25.7341 28.9332H29.559L33.5129 24.9793C33.9295 24.5627 34.6047 24.5627 35.0213 24.9793C35.438 25.3954 35.438 26.0706 35.0213 26.4872L35.0214 26.4872ZM37.6172 38.5328C37.3486 38.5328 37.0777 38.4308 36.8694 38.2265C36.4505 37.8137 36.4443 37.1392 36.857 36.718C38.6257 34.9162 39.6002 32.5289 39.6002 29.9996C39.6002 24.8739 35.5535 20.7112 30.492 20.4494L30.755 20.7124C31.1717 21.1291 31.1717 21.8042 30.755 22.2209C30.5467 22.4292 30.2736 22.5334 30.0005 22.5334C29.7274 22.5334 29.4549 22.4292 29.2465 22.2209L27.1131 20.0874C26.6964 19.6707 26.6964 18.9956 27.1131 18.5789L29.2465 16.4454C29.6632 16.0288 30.3383 16.0288 30.755 16.4454C31.1717 16.8621 31.1717 17.5372 30.755 17.9539L30.4211 18.2884C36.6943 18.5119 41.7335 23.6729 41.7335 29.9995C41.7335 33.0912 40.5421 36.0096 38.3777 38.214C38.1688 38.4263 37.894 38.5327 37.617 38.5327L37.6172 38.5328Z" fill="white"/>
</svg>
