<svg width="60" height="60" viewBox="0 0 60 60" fill="none" xmlns="http://www.w3.org/2000/svg">
<rect width="60" height="60" rx="8" fill="#8E1537"/>
<path d="M32.2352 20.0105C32.7278 19.5179 32.7278 18.6843 32.2352 18.1917L28.0668 14.0233C27.5742 13.5307 26.7406 13.5307 26.248 14.0233C25.7554 14.5159 25.7554 15.3495 26.248 15.8421L28.2566 17.8507H22.5722C19.3891 17.8507 16.8123 20.4275 16.8123 23.6106V30.659C16.8123 31.3789 17.3808 31.9475 18.1007 31.9475C18.8206 31.9475 19.3891 31.3789 19.3891 30.659V23.5725C19.3891 21.8294 20.8291 20.3894 22.5723 20.3894H28.2567L26.2481 22.398C25.7555 22.8906 25.7555 23.7242 26.2481 24.2168C26.5134 24.4821 26.8166 24.5956 27.1576 24.5956C27.4986 24.5956 27.8018 24.4818 28.0672 24.2168L32.2352 20.0105Z" fill="white"/>
<path d="M41.8989 28.0064C41.1791 28.0064 40.6105 28.575 40.6105 29.2949V36.3433C40.6105 38.0865 39.1705 39.5265 37.4273 39.5265H31.7429L33.7515 37.5179C34.2441 37.0253 34.2441 36.1917 33.7515 35.6991C33.2589 35.2065 32.4253 35.2065 31.9327 35.6991L27.764 39.9053C27.2714 40.3979 27.2714 41.2315 27.764 41.7241L31.9702 45.9303C32.2355 46.1956 32.5387 46.3091 32.8797 46.3091C33.2207 46.3091 33.5239 46.1953 33.7893 45.9303C34.2819 45.4377 34.2819 44.604 33.7893 44.1115L31.7429 42.1032H37.4273C40.6105 42.1032 43.1873 39.5264 43.1873 36.3432V29.2948C43.1873 28.5749 42.6187 28.0063 41.8988 28.0063L41.8989 28.0064Z" fill="white"/>
<path d="M41.8991 13C38.5265 13 35.7981 15.7284 35.7981 19.101C35.7981 22.4736 38.5265 25.202 41.8991 25.202C45.2717 25.202 48.0001 22.4736 48.0001 19.101C48.0001 15.7284 45.2717 13 41.8991 13V13Z" fill="white"/>
<path d="M18.101 34.7515C14.7284 34.7515 12 37.4799 12 40.8525C12 44.225 14.7284 46.9535 18.101 46.9535C21.4736 46.9535 24.202 44.225 24.202 40.8525C24.202 37.4799 21.4736 34.7515 18.101 34.7515V34.7515Z" fill="white"/>
</svg>
