<svg width="60" height="60" viewBox="0 0 60 60" fill="none" xmlns="http://www.w3.org/2000/svg">
<rect width="60" height="60" rx="8" fill="#8E1537"/>
<path d="M18.8029 29.0588H17.8697V28.1176C17.8697 26.8693 18.3611 25.6726 19.2362 24.79C20.1109 23.9077 21.2978 23.4116 22.535 23.4116H27.2006V16.8235C27.2006 15.8147 27.7344 14.8827 28.6003 14.3782C29.4665 13.8739 30.5337 13.8739 31.3995 14.3782C32.2658 14.8828 32.7996 15.8147 32.7996 16.8235V23.4116H37.4652H37.4648C38.7024 23.4116 39.8889 23.9077 40.764 24.79C41.6391 25.6726 42.1305 26.8693 42.1305 28.1176V29.0588H18.8029ZM42.2618 30.941H17.7389L16.0033 44.9458C15.9822 45.2105 16.0622 45.4733 16.2273 45.6798C16.409 45.882 16.666 45.9981 16.9366 46H21.005L21.1728 44.1179L21.6023 39.3176C21.6538 38.7978 22.1133 38.4186 22.6286 38.4706C23.1439 38.5226 23.5199 38.9861 23.4683 39.5058L23.0392 44.1175L22.8715 45.9996H34.33L34.0502 44.1175L32.8183 35.7787H32.818C32.7806 35.533 32.8422 35.2823 32.9892 35.0824C33.1362 34.8829 33.3564 34.7505 33.6003 34.7152C33.8447 34.6803 34.0925 34.7451 34.2892 34.8953C34.4858 35.0455 34.6144 35.2687 34.6471 35.5152L35.9347 44.1174L36.2145 45.9995H39.2004L38.8645 44.1174L38.4165 41.4632V41.4636C38.3672 41.2183 38.4188 40.9633 38.5597 40.7576C38.7005 40.5514 38.9183 40.4121 39.1631 40.3717C39.4059 40.3244 39.6572 40.3779 39.8608 40.5192C40.0644 40.6609 40.2029 40.8791 40.2456 41.1248L40.7682 44.1174L41.0853 45.9995L43.0637 45.9999C43.3339 45.998 43.5913 45.8819 43.7726 45.6797C43.9377 45.4732 44.0181 45.2104 43.9966 44.9457L42.2618 30.941Z" fill="white"/>
</svg>
