<svg width="28" height="32" viewBox="0 0 28 32" fill="none" xmlns="http://www.w3.org/2000/svg">
<path d="M2.8029 15.0588H1.86968V14.1176C1.86968 12.8693 2.36111 11.6726 3.23621 10.79C4.11093 9.90768 5.29778 9.41163 6.53495 9.41163H11.2006V2.82348C11.2006 1.81471 11.7344 0.882744 12.6003 0.378157C13.4665 -0.126052 14.5337 -0.126052 15.3995 0.378157C16.2658 0.882754 16.7996 1.81471 16.7996 2.82348V9.41163H21.4652H21.4648C22.7024 9.41163 23.8889 9.90769 24.764 10.79C25.6391 11.6726 26.1305 12.8693 26.1305 14.1176V15.0588H2.8029ZM26.2618 16.941H1.73891L0.00333837 30.9458C-0.0178271 31.2105 0.0622173 31.4733 0.227306 31.6798C0.408952 31.882 0.666013 31.9981 0.936551 32H5.00501L5.1728 30.1179L5.60227 25.3176C5.65384 24.7978 6.11333 24.4186 6.62862 24.4706C7.14392 24.5226 7.5199 24.9861 7.46833 25.5058L7.03923 30.1175L6.87145 31.9996H18.33L18.0502 30.1175L16.8183 21.7787H16.818C16.7806 21.533 16.8422 21.2823 16.9892 21.0824C17.1362 20.8829 17.3563 20.7505 17.6003 20.7152C17.8447 20.6803 18.0925 20.7451 18.2892 20.8953C18.4858 21.0455 18.6144 21.2687 18.6471 21.5152L19.9347 30.1174L20.2145 31.9995H23.2004L22.8645 30.1174L22.4165 27.4632V27.4636C22.3672 27.2183 22.4188 26.9633 22.5597 26.7576C22.7005 26.5514 22.9183 26.4121 23.1631 26.3717C23.4059 26.3244 23.6572 26.3779 23.8608 26.5192C24.0644 26.6609 24.2029 26.8791 24.2456 27.1248L24.7682 30.1174L25.0853 31.9995L27.0637 31.9999C27.3339 31.998 27.5913 31.8819 27.7726 31.6797C27.9377 31.4732 28.0181 31.2104 27.9966 30.9457L26.2618 16.941Z" fill="white"/>
</svg>
