<svg width="60" height="60" viewBox="0 0 60 60" fill="none" xmlns="http://www.w3.org/2000/svg">
<rect y="-0.000976562" width="60" height="60" rx="8" fill="#8E1537"/>
<path d="M16.3253 17.2036C15.7888 17.3362 15.3786 17.6832 15.1325 18.2197L15 18.5036V28.6955V38.8873L15.1515 39.2218C15.3408 39.6446 15.7699 40.0233 16.1864 40.1495C16.4578 40.2315 17.3287 40.2441 22.2005 40.2441H27.8991L27.9181 41.5252C27.937 42.699 27.9496 42.8189 28.0758 43.0587C28.2652 43.4121 28.5744 43.7087 28.9152 43.8665C29.1992 43.999 29.2307 43.999 36.4565 43.999H43.7138L44.0357 43.8286C44.408 43.633 44.6541 43.3679 44.8435 42.9578C44.976 42.6738 44.976 42.6422 44.9949 34.2805C45.0075 29.661 44.9949 25.7925 44.976 25.6726C44.9444 25.5022 44.7299 25.2435 44.0104 24.5052C43.4993 23.9814 42.559 22.9843 41.9153 22.2964C41.2716 21.6085 40.6847 21.0216 40.6026 20.9901C40.5206 20.9585 38.3939 20.9333 35.8696 20.927L31.2817 20.9207L30.4108 19.9993C29.9375 19.4881 29.1234 18.6362 28.6123 18.1061L27.6846 17.1468L22.0996 17.1531C19.0262 17.1531 16.4325 17.1784 16.3253 17.2036ZM27.0851 20.0435C27.0851 21.9304 27.0914 22.0629 27.205 22.2017L27.3249 22.3532L29.2559 22.3721L31.187 22.3911V24.7828V27.1809H28.9467H26.7064V26.1838C26.7064 25.0984 26.6685 24.9595 26.353 24.8838C26.2457 24.8522 26.1321 24.8775 26.0185 24.9469C25.4695 25.3066 21.5064 28.4367 21.4496 28.5503C21.4054 28.6513 21.4054 28.7397 21.4559 28.8469C21.5127 28.9732 25.6462 32.2358 26.0375 32.463C26.2394 32.5829 26.3783 32.5577 26.5486 32.3873C26.7001 32.2358 26.7064 32.2106 26.7064 31.2513V30.2732H28.9467H31.187V30.5824V30.8979L29.6661 30.9169C28.1579 30.9358 28.1453 30.9358 28.0254 31.0873C27.9181 31.2198 27.9055 31.346 27.9055 32.4882C27.9055 33.662 27.9118 33.7504 28.0317 33.8703C28.1516 33.9902 28.2399 33.9965 29.6725 33.9965H31.187V36.3757C31.187 38.6538 31.1807 38.7674 31.0608 38.9694C30.8084 39.3796 31.206 39.3606 23.5069 39.3606C16.685 39.3606 16.5083 39.3543 16.3126 39.2344C16.199 39.1713 16.0602 39.0388 15.9971 38.9378C15.8898 38.7737 15.8835 38.2941 15.8835 28.6892V18.6046L16.016 18.4279C16.0854 18.3333 16.2432 18.2007 16.3631 18.1439C16.5651 18.0366 16.9563 18.0303 21.8345 18.0303H27.0851V20.0435ZM29.5652 20.3842C30.1079 20.9522 30.556 21.4381 30.556 21.4634C30.556 21.4823 29.9754 21.5012 29.2623 21.5012H27.9686V20.0939L27.9749 18.693L28.2715 19.0148C28.4356 19.1978 29.0161 19.81 29.5652 20.3842ZM39.9716 23.8299C39.9905 25.7042 39.9968 25.8493 40.1104 25.9756C40.224 26.1018 40.2934 26.1081 42.1614 26.1207L44.0925 26.1396V34.3562C44.0925 42.5665 44.0925 42.5728 43.96 42.7495C43.8905 42.8442 43.7328 42.9767 43.6129 43.0335C43.4109 43.1408 42.9376 43.1471 36.4376 43.1471C28.7195 43.1471 29.1676 43.1723 28.9089 42.7432C28.8016 42.5728 28.789 42.4087 28.789 41.3927V40.2441H29.6914C30.7074 40.2441 30.9283 40.2 31.3574 39.9097C31.5783 39.7582 31.7108 39.6067 31.8623 39.3101L32.0705 38.9063V36.4514V33.9965H32.6701H33.2696V34.981C33.2696 35.5489 33.2948 36.0159 33.339 36.0854C33.44 36.281 33.6924 36.3504 33.9006 36.2494C33.9953 36.199 35.0681 35.3849 36.2924 34.4446C38.5958 32.6586 38.6842 32.5703 38.4886 32.2737C38.4065 32.1475 34.7021 29.2382 34.071 28.8028C33.7618 28.5945 33.623 28.5882 33.4273 28.7901C33.2759 28.9416 33.2696 28.9668 33.2696 29.9261V30.9042H32.6701H32.0705V26.3605V21.8168H36.0147H39.9526L39.9716 23.8299ZM43.31 25.0479L43.4362 25.2246H42.1425H40.8425V23.8488L40.8488 22.4794L42.0163 23.6784C42.6536 24.3348 43.2405 24.9532 43.31 25.0479ZM25.9681 27.9193C26.069 28.0265 26.2836 28.0329 28.6312 28.0518L31.187 28.0707V28.727V29.3897H28.6059H26.0185L25.9239 29.5285C25.8482 29.6358 25.8229 29.844 25.8229 30.4183C25.8229 30.8285 25.7977 31.1567 25.7724 31.144C25.6778 31.1062 22.6107 28.727 22.6107 28.6955C22.6107 28.6765 23.3302 28.1149 24.201 27.4396L25.7914 26.2217L25.8229 27.0168C25.8482 27.6668 25.8734 27.8309 25.9681 27.9193ZM35.7812 31.2261C36.6395 31.8887 37.3463 32.4504 37.3526 32.4756C37.3589 32.4945 36.6458 33.0625 35.7749 33.7315L34.1846 34.9557L34.1531 34.1606C34.1278 33.5106 34.1026 33.3465 34.0079 33.2581C33.907 33.1509 33.6924 33.1446 31.3448 33.1256L28.789 33.1067V32.4504V31.7877H31.37H33.9574L34.0521 31.6489C34.1278 31.5416 34.1531 31.3334 34.1531 30.7654C34.1531 30.3552 34.1657 30.0207 34.1846 30.0207C34.2036 30.0207 34.923 30.5635 35.7812 31.2261Z" fill="white"/>
<path d="M17.9082 24.9766C17.7063 25.1343 17.6873 25.4183 17.8704 25.6013C17.9903 25.7212 18.0786 25.7275 20.2558 25.7275C22.332 25.7275 22.5277 25.7212 22.6223 25.6139C22.8243 25.3931 22.7549 25.0018 22.5024 24.9071C22.4141 24.8693 21.4296 24.844 20.2116 24.844C18.148 24.844 18.0723 24.8503 17.9082 24.9766Z" fill="white"/>
<path d="M17.9101 28.3848C17.7018 28.5488 17.6955 28.8139 17.8912 28.9969C18.03 29.1294 18.0931 29.1357 19.2227 29.1357C20.3902 29.1357 20.4028 29.1357 20.5543 28.978C20.6426 28.8959 20.7121 28.7634 20.7121 28.694C20.7121 28.6183 20.6426 28.492 20.5543 28.41C20.4028 28.2522 20.3902 28.2522 19.2417 28.2522C18.1625 28.2522 18.0679 28.2585 17.9101 28.3848Z" fill="white"/>
<path d="M17.8704 31.7867C17.6873 31.9697 17.7063 32.2537 17.9082 32.4114C18.0723 32.5376 18.148 32.5439 20.2684 32.5439C22.3068 32.5439 22.4709 32.5376 22.6097 32.4304C22.7044 32.3483 22.7485 32.241 22.7485 32.1022C22.7485 31.9634 22.7044 31.8561 22.6097 31.774C22.4709 31.6668 22.3068 31.6604 20.2306 31.6604C18.0786 31.6604 17.9903 31.6668 17.8704 31.7867Z" fill="white"/>
<path d="M37.3654 28.7467C37.2707 28.8287 37.2266 28.936 37.2266 29.0748C37.2266 29.2137 37.2707 29.321 37.3654 29.403C37.5042 29.5103 37.6683 29.5166 39.7319 29.5166H41.9596L42.0921 29.3715C42.2815 29.1695 42.2688 28.9234 42.0669 28.7656C41.9028 28.6394 41.8271 28.6331 39.7067 28.6331C37.6683 28.6331 37.5042 28.6394 37.3654 28.7467Z" fill="white"/>
<path d="M39.4229 32.1991C39.3346 32.2811 39.2651 32.4073 39.2651 32.4831C39.2651 32.5525 39.3346 32.685 39.4229 32.767C39.5744 32.9248 39.587 32.9248 40.7355 32.9248C41.8147 32.9248 41.9093 32.9185 42.0671 32.7923C42.2754 32.6282 42.2817 32.3631 42.086 32.1801C41.9472 32.0476 41.8841 32.0413 40.7545 32.0413C39.587 32.0413 39.5744 32.0413 39.4229 32.1991Z" fill="white"/>
<path d="M37.3537 35.5568C37.2338 35.7019 37.2085 35.8155 37.2653 36.0238C37.341 36.3141 37.4799 36.333 39.777 36.333H41.9226L42.0741 36.1752C42.2634 35.9922 42.276 35.7461 42.1056 35.5757C41.9857 35.4558 41.8974 35.4495 39.7202 35.4495C37.644 35.4495 37.4483 35.4558 37.3537 35.5568Z" fill="white"/>
</svg>
