<svg width="60" height="60" viewBox="0 0 60 60" fill="none" xmlns="http://www.w3.org/2000/svg">
<rect width="60" height="60" rx="8" fill="#8E1537"/>
<path d="M44.7171 15H15.2819C15.2069 15 15.1357 15.0297 15.0824 15.0827C15.0291 15.1357 15 15.2072 15 15.2822V39.523C15 39.6788 15.1261 39.8055 15.2822 39.8055H26.631V41.7815H22.3372C22.1814 41.7815 22.0547 41.9082 22.0547 42.064V44.0966C22.0547 44.2529 22.1814 44.379 22.3372 44.379H37.6628C37.8186 44.379 37.945 44.2529 37.945 44.0966V42.064C37.945 41.9082 37.8189 41.7815 37.6628 41.7815H33.3687V39.8055H44.7176C44.8739 39.8055 45 39.6788 45 39.523V15.2822C44.9997 15.1264 44.8736 15 44.7176 15H44.7171ZM42.4021 37.2081H17.5971V17.5975H42.4021L42.4024 37.2081H42.4021Z" fill="white"/>
<path d="M22.411 30.1324H27.2439V34.2877C27.2439 34.3501 27.2796 34.4059 27.3359 34.4325C27.3574 34.4424 27.3805 34.4476 27.4035 34.4476C27.4401 34.4476 27.4766 34.4353 27.506 34.4111L32.654 30.1326H37.5886C37.6771 30.1326 37.7482 30.0609 37.7482 29.973V20.5134C37.7482 20.4252 37.6771 20.3535 37.5886 20.3535L22.4106 20.3538C22.3224 20.3538 22.251 20.4255 22.251 20.5137V29.9726C22.2507 30.0605 22.3224 30.1322 22.4106 30.1322L22.411 30.1324ZM24.9686 22.8574H35.0317C35.1496 22.8574 35.2449 22.9531 35.2449 23.0706C35.2449 23.1885 35.1496 23.2838 35.0317 23.2838H24.9686C24.8508 23.2838 24.7554 23.1882 24.7554 23.0706C24.7554 22.9528 24.8505 22.8574 24.9686 22.8574ZM24.9686 25.0296H35.0317C35.1496 25.0296 35.2449 25.1253 35.2449 25.2429C35.2449 25.3607 35.1496 25.4561 35.0317 25.4561H24.9686C24.8508 25.4561 24.7554 25.3604 24.7554 25.2429C24.7554 25.125 24.8505 25.0296 24.9686 25.0296ZM24.9686 27.2019H35.0317C35.1496 27.2019 35.2449 27.2975 35.2449 27.4151C35.2449 27.5329 35.1496 27.6283 35.0317 27.6283H24.9686C24.8508 27.6283 24.7554 27.5327 24.7554 27.4151C24.7554 27.2972 24.8505 27.2019 24.9686 27.2019Z" fill="white"/>
</svg>
