<svg width="60" height="60" viewBox="0 0 60 60" fill="none" xmlns="http://www.w3.org/2000/svg">
<rect width="60" height="60" rx="8" fill="#8E1537"/>
<path fill-rule="evenodd" clip-rule="evenodd" d="M38.1516 26.4481L37.8224 24.8035C37.7295 24.336 37.3185 23.9995 36.8421 23.9995H35.1578C34.6814 23.9995 34.2704 24.336 34.1775 24.8035L33.8483 26.4481C33.5168 26.5566 33.1964 26.6902 32.8894 26.8462L31.4934 25.9155C31.097 25.651 30.5683 25.7031 30.2315 26.0401L29.0403 27.2311C28.7035 27.5681 28.6515 28.0966 28.9159 28.4933L29.8464 29.8888C29.6904 30.1963 29.5574 30.5167 29.4484 30.8482L27.804 31.1766C27.3365 31.2703 27 31.6807 27 32.1577V33.8417C27 34.3181 27.3365 34.7288 27.804 34.8223L29.4484 35.1512C29.5569 35.4827 29.6904 35.8034 29.8464 36.1103L28.9159 37.5063C28.6515 37.9028 28.7035 38.4313 29.0403 38.7683L30.2315 39.9592C30.5683 40.2963 31.097 40.3483 31.4934 40.0838L32.8894 39.1534C33.1964 39.3094 33.5169 39.4421 33.8483 39.5511L34.1775 41.1958C34.2704 41.6633 34.6814 41.9998 35.1578 41.9998H36.8421C37.3185 41.9998 37.7295 41.6632 37.8224 41.1958L38.1516 39.5511C38.4831 39.4427 38.8035 39.3094 39.1105 39.1534L40.5065 40.0838C40.9029 40.3483 41.4316 40.2963 41.7684 39.9592L42.9596 38.7683C43.2964 38.4312 43.3484 37.9028 43.084 37.5063L42.1535 36.1103C42.3095 35.8033 42.4425 35.4827 42.5515 35.1512L44.1959 34.8223C44.6634 34.7288 44.9999 34.3181 44.9999 33.8417V32.1577C44.9999 31.6807 44.6634 31.2703 44.1959 31.1766L42.5515 30.8482C42.443 30.5167 42.3095 30.1962 42.1535 29.8888L43.084 28.4933C43.3484 28.0966 43.2964 27.5682 42.9596 27.2311L41.7684 26.0401C41.4316 25.7031 40.9029 25.6511 40.5065 25.9155L39.1105 26.8462C38.8035 26.6902 38.483 26.5572 38.1516 26.4481V26.4481ZM36.0001 30.4995C34.6199 30.4995 33.5 31.6197 33.5 32.9996C33.5 34.3796 34.6199 35.4998 36.0001 35.4998C37.38 35.4998 38.4999 34.3796 38.4999 32.9996C38.4999 31.6197 37.38 30.4995 36.0001 30.4995Z" fill="white"/>
<path fill-rule="evenodd" clip-rule="evenodd" d="M29.5242 40.6661L28.3338 39.4754C27.6597 38.8021 27.5552 37.745 28.0838 36.9521L28.7039 36.0224L27.6077 35.8036C26.6733 35.6165 26.0002 34.7956 26.0002 33.842V32.158C26.0002 31.2046 26.1108 30.8464 26.1108 30.8464C25.8038 30.6904 25.4831 30.5574 25.1516 30.4484L24.8228 28.804C24.7298 28.3365 24.3186 28 23.8422 28H22.1582C21.6817 28 21.2707 28.3365 21.1776 28.804L20.8487 30.4484C20.5172 30.5569 20.1967 30.6904 19.8898 30.8464L18.4938 29.9159C18.0971 29.6515 17.5687 29.7035 17.2315 30.0405L16.0406 31.2315C15.7035 31.5685 15.6515 32.097 15.916 32.4934L16.8467 33.8894C16.6907 34.1964 16.5577 34.5169 16.4486 34.8483L14.804 35.1775C14.3365 35.2704 14 35.6814 14 36.1581V37.8421C14 38.3185 14.3365 38.7295 14.804 38.8224L16.4486 39.1515C16.5571 39.4831 16.6907 39.8035 16.8467 40.1104L15.916 41.5065C15.6515 41.9029 15.7035 42.4316 16.0406 42.7684L17.2315 43.9596C17.5686 44.2967 18.0971 44.3487 18.4938 44.0839L19.8898 43.1535C20.1968 43.3095 20.5172 43.4425 20.8487 43.5515L21.1776 45.1959C21.2707 45.6637 21.6817 46.0002 22.1582 46.0002H23.8422C24.3186 46.0002 24.7298 45.6636 24.8228 45.1959L25.1516 43.5515C25.4831 43.443 25.8038 43.3095 26.1108 43.1535L27.5068 44.0839C27.9033 44.3487 28.4317 44.2967 28.7688 43.9596L29.9597 42.7684C30.2968 42.4316 30.3488 41.9029 30.0843 41.5065L29.5242 40.6661ZM23.0002 34.5C21.6202 34.5 20.5 35.6199 20.5 37.0001C20.5 38.38 21.6202 39.5 23.0002 39.5C24.3801 39.5 25.5003 38.38 25.5003 37.0001C25.5003 35.6199 24.3801 34.5 23.0002 34.5Z" fill="white"/>
<path fill-rule="evenodd" clip-rule="evenodd" d="M29.9999 45.9999H42.5005C43.0527 45.9999 43.5006 45.5525 43.5006 45.0001V41.4998C43.5006 40.9479 43.0522 40.5 42.5005 40.5C41.9486 40.5 41.5004 40.9479 41.5004 41.4998V44H29.9998C29.4479 44 29.0002 44.4479 29.0002 45.0001C29.0002 45.552 29.4479 45.9999 29.9998 45.9999H29.9999Z" fill="white"/>
<path fill-rule="evenodd" clip-rule="evenodd" d="M17.5 23.0001H41.4999V24.4999C41.4999 25.0521 41.9478 25.5 42.5 25.5C43.0519 25.5 43.4999 25.0521 43.4999 24.4999V16.0001C43.4999 15.4477 43.0525 15 42.5 15H16.4994C15.9469 15 15.4993 15.4477 15.4993 16.0001V28.4109C15.4993 28.9628 15.9475 29.411 16.4994 29.411C17.0513 29.411 17.4995 28.9628 17.4995 28.4109L17.5 23.0001ZM19.5 20.0001H20.5001C21.052 20.0001 21.5 19.5519 21.5 19C21.5 18.4481 21.0521 17.9999 20.5001 17.9999H19.5C18.9481 17.9999 18.4999 18.4481 18.4999 19C18.4999 19.5519 18.9481 20.0001 19.5 20.0001V20.0001ZM23.4999 20.0001H24.5C25.0519 20.0001 25.5001 19.5519 25.5001 19C25.5001 18.4481 25.0519 17.9999 24.5 17.9999H23.4999C22.948 17.9999 22.5 18.4481 22.5 19C22.5 19.5519 22.9479 20.0001 23.4999 20.0001ZM27.5 20.0001H39.4999C40.0519 20.0001 40.4998 19.5519 40.4998 19C40.4998 18.4481 40.0519 17.9999 39.4999 17.9999H27.5C26.9481 17.9999 26.4999 18.4481 26.4999 19C26.4999 19.5519 26.9481 20.0001 27.5 20.0001V20.0001Z" fill="white"/>
</svg>
