<svg width="31" height="31" viewBox="0 0 31 31" fill="none" xmlns="http://www.w3.org/2000/svg">
<path fill-rule="evenodd" clip-rule="evenodd" d="M24.1516 11.4481L23.8224 9.80347C23.7295 9.33602 23.3185 8.99951 22.8421 8.99951H21.1578C20.6814 8.99951 20.2704 9.33605 20.1775 9.80347L19.8483 11.4481C19.5168 11.5566 19.1964 11.6902 18.8894 11.8462L17.4934 10.9155C17.097 10.651 16.5683 10.7031 16.2315 11.0401L15.0403 12.2311C14.7035 12.5681 14.6515 13.0966 14.9159 13.4933L15.8464 14.8888C15.6904 15.1963 15.5574 15.5167 15.4484 15.8482L13.804 16.1766C13.3365 16.2703 13 16.6807 13 17.1577V18.8417C13 19.3181 13.3365 19.7288 13.804 19.8223L15.4484 20.1512C15.5569 20.4827 15.6904 20.8034 15.8464 21.1103L14.9159 22.5063C14.6515 22.9028 14.7035 23.4313 15.0403 23.7683L16.2315 24.9592C16.5683 25.2963 17.097 25.3483 17.4934 25.0838L18.8894 24.1534C19.1964 24.3094 19.5169 24.4421 19.8483 24.5511L20.1775 26.1958C20.2704 26.6633 20.6814 26.9998 21.1578 26.9998H22.8421C23.3185 26.9998 23.7295 26.6632 23.8224 26.1958L24.1516 24.5511C24.4831 24.4427 24.8035 24.3094 25.1105 24.1534L26.5065 25.0838C26.9029 25.3483 27.4316 25.2963 27.7684 24.9592L28.9596 23.7683C29.2964 23.4312 29.3484 22.9028 29.084 22.5063L28.1535 21.1103C28.3095 20.8033 28.4425 20.4827 28.5515 20.1512L30.1959 19.8223C30.6634 19.7288 30.9999 19.3181 30.9999 18.8417V17.1577C30.9999 16.6807 30.6634 16.2703 30.1959 16.1766L28.5515 15.8482C28.443 15.5167 28.3095 15.1962 28.1535 14.8888L29.084 13.4933C29.3484 13.0966 29.2964 12.5682 28.9596 12.2311L27.7684 11.0401C27.4316 10.7031 26.9029 10.6511 26.5065 10.9155L25.1105 11.8462C24.8035 11.6902 24.483 11.5572 24.1516 11.4481ZM22.0001 15.4995C20.6199 15.4995 19.5 16.6197 19.5 17.9996C19.5 19.3796 20.6199 20.4998 22.0001 20.4998C23.38 20.4998 24.4999 19.3796 24.4999 17.9996C24.4999 16.6197 23.38 15.4995 22.0001 15.4995Z" fill="white"/>
<path fill-rule="evenodd" clip-rule="evenodd" d="M15.5242 25.6661L14.3338 24.4754C13.6597 23.8021 13.5552 22.745 14.0838 21.9521L14.7039 21.0224L13.6077 20.8036C12.6733 20.6165 12.0002 19.7956 12.0002 18.842V17.158C12.0002 16.2046 12.1108 15.8464 12.1108 15.8464C11.8038 15.6904 11.4831 15.5574 11.1516 15.4484L10.8228 13.804C10.7298 13.3365 10.3186 13 9.84216 13H8.15816C7.68173 13 7.27075 13.3365 7.17757 13.804L6.84868 15.4484C6.51717 15.5569 6.19673 15.6904 5.88978 15.8464L4.49377 14.9159C4.09705 14.6515 3.56865 14.7035 3.23154 15.0405L2.0406 16.2315C1.70354 16.5685 1.65154 17.097 1.91602 17.4934L2.84667 18.8894C2.69068 19.1964 2.55765 19.5169 2.44864 19.8483L0.80396 20.1775C0.336504 20.2704 0 20.6814 0 21.1581V22.8421C0 23.3185 0.336538 23.7295 0.80396 23.8224L2.44864 24.1515C2.55712 24.4831 2.69068 24.8035 2.84667 25.1104L1.91602 26.5065C1.65154 26.9029 1.70354 27.4316 2.0406 27.7684L3.23154 28.9596C3.56861 29.2967 4.09706 29.3487 4.49377 29.0839L5.88978 28.1535C6.19676 28.3095 6.51719 28.4425 6.84868 28.5515L7.17757 30.1959C7.27074 30.6637 7.68171 31.0002 8.15816 31.0002H9.84216C10.3186 31.0002 10.7298 30.6636 10.8228 30.1959L11.1516 28.5515C11.4831 28.443 11.8038 28.3095 12.1108 28.1535L13.5068 29.0839C13.9033 29.3487 14.4317 29.2967 14.7688 28.9596L15.9597 27.7684C16.2968 27.4316 16.3488 26.9029 16.0843 26.5065L15.5242 25.6661ZM9.00015 19.5C7.62022 19.5 6.50003 20.6199 6.50003 22.0001C6.50003 23.38 7.62022 24.5 9.00015 24.5C10.3801 24.5 11.5003 23.38 11.5003 22.0001C11.5003 20.6199 10.3801 19.5 9.00015 19.5Z" fill="white"/>
<path fill-rule="evenodd" clip-rule="evenodd" d="M15.9999 30.9999H28.5005C29.0527 30.9999 29.5006 30.5525 29.5006 30.0001V26.4998C29.5006 25.9479 29.0522 25.5 28.5005 25.5C27.9486 25.5 27.5004 25.9479 27.5004 26.4998V29H15.9998C15.4479 29 15.0002 29.4479 15.0002 30.0001C15.0002 30.552 15.4479 30.9999 15.9998 30.9999H15.9999Z" fill="white"/>
<path fill-rule="evenodd" clip-rule="evenodd" d="M3.50004 8.00014H27.4999V9.49987C27.4999 10.0521 27.9478 10.5 28.5 10.5C29.0519 10.5 29.4999 10.0521 29.4999 9.49987V1.00012C29.4999 0.447671 29.0525 0 28.5 0H2.49939C1.94694 0 1.49927 0.447657 1.49927 1.00012V13.4109C1.49927 13.9628 1.94745 14.411 2.49939 14.411C3.05132 14.411 3.4995 13.9628 3.4995 13.4109L3.50004 8.00014ZM5.50001 5.00012H6.50013C7.05205 5.00012 7.49997 4.55193 7.49997 4C7.49997 3.44808 7.05205 2.99988 6.50013 2.99988H5.50001C4.94809 2.99988 4.49989 3.44807 4.49989 4C4.49989 4.55192 4.94808 5.00012 5.50001 5.00012ZM9.49987 5.00012H10.5C11.0519 5.00012 11.5001 4.55193 11.5001 4C11.5001 3.44808 11.0519 2.99988 10.5 2.99988H9.49987C8.94795 2.99988 8.50003 3.44807 8.50003 4C8.50003 4.55192 8.94795 5.00012 9.49987 5.00012ZM13.5 5.00012H25.4999C26.0519 5.00012 26.4998 4.55193 26.4998 4C26.4998 3.44808 26.0519 2.99988 25.4999 2.99988H13.5C12.9481 2.99988 12.4999 3.44807 12.4999 4C12.4999 4.55192 12.9481 5.00012 13.5 5.00012Z" fill="white"/>
</svg>
