<svg width="60" height="60" viewBox="0 0 60 60" fill="none" xmlns="http://www.w3.org/2000/svg">
<rect width="60" height="60" rx="8" fill="#8E1537"/>
<path d="M23.994 15.1105C23.6877 15.2105 23.1627 15.748 23.0689 16.0668C23.0189 16.2356 22.9939 16.7981 22.9939 17.6669V19.0108L22.2001 19.0483C21.2938 19.092 20.5875 19.2108 19.8812 19.442C15.3809 20.9359 12.9495 25.7237 14.4371 30.1865C15.3184 32.8304 17.3873 34.8493 20.0562 35.6618L20.4937 35.7931V36.7682C20.5 37.4432 20.525 37.8245 20.5875 37.9932L20.675 38.237L20.4062 38.537C20.25 38.7058 20.1062 38.9495 20.0624 39.1058C20.0062 39.2996 19.9937 40.0371 20.0062 41.756L20.0249 44.1311L20.2562 44.6062C20.5375 45.1749 20.9 45.525 21.4813 45.8C21.8626 45.9812 21.9563 46 22.4939 46C23.0314 46 23.1251 45.9812 23.5064 45.8C24.0877 45.525 24.4502 45.1749 24.7315 44.6062L24.9628 44.1311L24.9815 41.756C24.994 40.0371 24.9815 39.2996 24.9253 39.1058C24.8815 38.9495 24.7378 38.7058 24.5815 38.537L24.3127 38.237L24.4002 37.9932C24.4627 37.8245 24.4877 37.4432 24.494 36.7682V35.7868L24.8503 35.6868C26.5191 35.1993 28.1442 34.093 29.2255 32.6991L29.4568 32.3929L29.6318 32.7491L29.8131 33.1054L29.5693 33.6742L29.3255 34.243L28.6568 34.4555L27.9942 34.6618V36.5306V38.3995L28.6568 38.6058L29.3255 38.8183L29.5693 39.3871L29.8131 39.9559L29.4943 40.5997L29.1693 41.2372L30.4819 42.5435L31.7882 43.8561L32.4257 43.5311L33.0695 43.2123L33.6383 43.4561L34.2071 43.6999L34.4196 44.3686L34.6259 45.0312H36.4948H38.3636L38.5699 44.3686L38.7824 43.6999L39.3512 43.4561L39.92 43.2123L40.5638 43.5311L41.2013 43.8561L42.5077 42.5435L43.8202 41.2372L43.4952 40.5997L43.1764 39.9559L43.4202 39.3933L43.664 38.8245L44.3265 38.612L44.9953 38.3995V36.5306V34.6618L44.3328 34.4555L43.664 34.243L43.4202 33.6742L43.1764 33.1054L43.4952 32.4616L43.8202 31.8241L42.5077 30.5177L41.2013 29.2052L40.5638 29.5302L39.92 29.849L39.3824 29.6177C38.7699 29.3614 38.7762 29.3614 38.7137 29.1677L38.6762 29.0302H41.1888C42.9764 29.0302 43.7765 29.0114 43.9577 28.9551C44.3015 28.8551 44.8203 28.3364 44.9203 27.9926C45.0266 27.6238 45.0266 16.4356 44.9203 16.0793C44.8828 15.9418 44.7265 15.6918 44.5765 15.5293C44.089 14.9855 44.9891 15.0292 33.9696 15.0355C27.0442 15.0417 24.1502 15.0605 23.994 15.1105ZM43.839 16.1856L43.9952 16.3356V22.0297V27.7238L43.839 27.8738L43.689 28.0301H33.9946H24.3002L24.1502 27.8738L23.994 27.7238V22.0297V16.3356L24.1502 16.1856L24.3002 16.0293H33.9946H43.689L43.839 16.1856ZM22.9939 20.5296V21.0296H22.5314C21.1875 21.0296 19.7937 21.4734 18.7124 22.2485C18.2748 22.561 17.4185 23.4298 17.1373 23.8486C15.8059 25.8049 15.6372 28.3239 16.6935 30.4302C17.0248 31.099 17.2435 31.4053 17.7998 31.9866C18.3811 32.5929 18.8749 32.9679 19.5249 33.2992C22.1188 34.6055 25.1065 34.1242 27.1254 32.0741C27.8317 31.3553 28.4442 30.3177 28.713 29.3864L28.813 29.0302H29.313C29.7256 29.0302 29.8068 29.0489 29.8068 29.1302C29.8068 29.3427 29.3506 30.5803 29.113 31.0303C28.013 33.0617 26.1191 34.4618 23.8377 34.9118C23.5877 34.9618 23.0126 34.9993 22.4939 34.9993C21.5125 34.9993 21.0188 34.9243 20.1687 34.6493C18.2936 34.043 16.6872 32.6554 15.7809 30.8553C15.5122 30.324 15.2371 29.5052 15.1121 28.8739C14.9809 28.2301 14.9996 26.6925 15.1434 26.03C15.6309 23.7611 17.106 21.8547 19.1686 20.8171C19.7499 20.5234 20.575 20.2546 21.1813 20.1546C21.4375 20.1171 21.6938 20.0733 21.7438 20.0608C21.7938 20.0546 22.1001 20.0421 22.4189 20.0358L22.9939 20.0296V20.5296ZM22.9939 24.8799C22.9939 26.9363 23.0126 27.8051 23.0689 27.9926C23.1689 28.3364 23.6877 28.8551 24.0315 28.9551C24.2065 29.0052 24.844 29.0302 26.0253 29.0302H27.7567L27.7192 29.1989C27.5504 29.8865 26.7816 31.0865 26.1566 31.6303C23.9314 33.5679 20.6812 33.4742 18.6186 31.4053C16.4622 29.2552 16.4622 25.8049 18.6186 23.6548C19.6562 22.611 20.9938 22.0485 22.4814 22.0359L22.9939 22.0297V24.8799ZM34.2759 29.1677C34.2134 29.3614 34.2196 29.3614 33.6071 29.6177L33.0695 29.849L32.4257 29.5302L31.7882 29.2052L31.1069 29.8865C30.6069 30.3865 30.4444 30.5115 30.4944 30.3802C30.5319 30.2802 30.6194 29.974 30.6881 29.6927C30.7569 29.4114 30.8256 29.1489 30.8381 29.1052C30.8569 29.0489 31.2632 29.0302 32.5883 29.0302H34.3134L34.2759 29.1677ZM37.8198 29.6302L37.9949 30.1927L38.4511 30.3365C38.6949 30.4177 39.1262 30.5928 39.395 30.7303L39.895 30.9803L40.445 30.7115L41.0013 30.4427L41.7889 31.2365L42.5827 32.0241L42.3139 32.5804L42.0451 33.1304L42.2951 33.6304C42.4326 33.8992 42.6077 34.3305 42.6889 34.5743L42.8327 35.0305L43.3952 35.2056L43.964 35.3806V36.5306V37.6807L43.389 37.862L42.8202 38.037L42.6827 38.4808C42.6077 38.7308 42.4326 39.1558 42.2951 39.4308L42.0451 39.9309L42.3139 40.4809L42.5827 41.0372L41.7889 41.8247L41.0013 42.6185L40.445 42.3498L39.895 42.081L39.395 42.331C39.1262 42.4685 38.6949 42.6435 38.4511 42.7248L37.9949 42.8685L37.8198 43.4311L37.6448 43.9999H36.4948H35.3447L35.1634 43.4248L34.9884 42.856L34.5696 42.7248C34.3384 42.656 33.9133 42.481 33.6196 42.3435L33.0883 42.081L32.5383 42.3498L31.9882 42.6185L31.2007 41.8247L30.4069 41.0372L30.6756 40.4809L30.9444 39.9309L30.6944 39.4308C30.5569 39.1621 30.3819 38.7308 30.3006 38.487L30.1569 38.0307L29.5943 37.8557L29.0255 37.6807V36.5306V35.3806L29.5943 35.2056L30.1569 35.0305L30.3006 34.5743C30.3819 34.3305 30.5569 33.8992 30.6944 33.6304L30.9444 33.1304L30.6756 32.5804L30.4069 32.0241L31.2007 31.2365L31.9882 30.4427L32.5383 30.7115L33.0883 30.974L33.6821 30.699C34.0071 30.5428 34.4384 30.3677 34.6384 30.3052L34.9947 30.1927L35.1259 29.7552C35.2009 29.5114 35.2822 29.2489 35.3134 29.1739L35.3697 29.0302L36.5073 29.0427L37.6448 29.0614L37.8198 29.6302ZM23.4939 36.8619C23.4939 37.6932 23.4877 37.7307 23.3377 37.8745C23.1939 38.0245 23.1439 38.0307 22.4939 38.0307C21.8438 38.0307 21.7938 38.0245 21.6501 37.8745C21.5 37.7307 21.4938 37.6932 21.4938 36.8619V35.9994H22.4939H23.4939V36.8619ZM23.8377 39.1871L23.994 39.3371V41.5372C23.994 43.0811 23.969 43.8124 23.9189 43.9936C23.7564 44.5312 23.0689 45.0312 22.4939 45.0312C21.9188 45.0312 21.2313 44.5312 21.0688 43.9936C21.0188 43.8124 20.9938 43.0811 20.9938 41.5372V39.3371L21.15 39.1871C21.3 39.0308 21.3125 39.0308 22.4939 39.0308C23.6752 39.0308 23.6877 39.0308 23.8377 39.1871Z" fill="white"/>
<path d="M28.5255 17.0858C27.9505 17.2358 27.4442 17.6546 27.1817 18.1859C27.0629 18.4296 27.0317 18.6046 27.0317 18.9984C27.0254 19.5859 27.2004 20.0485 27.5879 20.4297C27.8005 20.6485 27.813 20.6735 27.7505 20.861C27.7129 20.9673 27.4192 21.7236 27.1067 22.5424C26.6316 23.7862 26.5191 24.03 26.4129 24.03C25.9128 24.03 25.219 24.5675 25.069 25.0675C24.894 25.6551 25.019 26.1239 25.4628 26.5614C26.0941 27.1989 26.8941 27.1989 27.5254 26.5614C28.1005 25.9926 28.1567 25.2613 27.6754 24.6425C27.5754 24.5175 27.4942 24.3925 27.4942 24.3675C27.4942 24.3425 27.7755 23.5862 28.1255 22.6861L28.7568 21.0485L29.1193 21.011C29.3318 20.9923 29.6381 20.9048 29.8506 20.8048C30.0506 20.711 30.2444 20.6298 30.2881 20.636C30.3256 20.636 30.8694 21.011 31.4944 21.4673L32.6258 22.2924L32.5758 22.4924C32.5508 22.5986 32.5258 22.8862 32.532 23.1237C32.532 23.4987 32.5695 23.6237 32.7445 23.955C32.9758 24.3925 33.1696 24.58 33.6446 24.83C33.9133 24.9675 34.0446 24.9925 34.4946 24.9925C34.9822 24.9988 35.0572 24.98 35.4197 24.7863C35.8572 24.5488 36.0447 24.3488 36.2948 23.88C36.4323 23.605 36.4573 23.4799 36.4635 23.0112V22.4611L37.5386 21.8298L38.6137 21.2048L38.8887 21.4298C39.0387 21.5486 39.3262 21.7298 39.5325 21.8236C39.8512 21.9736 39.9762 21.9986 40.495 21.9986C41.0326 21.9986 41.1263 21.9798 41.5076 21.7986C42.0889 21.5236 42.4514 21.1735 42.7327 20.6048C42.9514 20.1547 42.9639 20.0985 42.9639 19.5297C42.9639 18.9609 42.9514 18.9046 42.7327 18.4546C42.4514 17.8858 42.0889 17.5358 41.5076 17.2608C41.1263 17.0795 41.0326 17.0608 40.495 17.0608C39.9575 17.0608 39.8637 17.0795 39.4825 17.2608C38.9074 17.5296 38.5386 17.8858 38.2636 18.4484C38.0574 18.8671 38.0324 18.9672 38.0324 19.4234C38.0261 19.7047 38.0511 20.0235 38.0761 20.136C38.1324 20.3485 38.2324 20.2797 36.451 21.3111L35.9385 21.6048L35.7635 21.4798C35.3072 21.161 35.0384 21.0673 34.5259 21.0673C34.0946 21.061 33.9759 21.086 33.6508 21.2423C33.4446 21.3486 33.2446 21.4298 33.2008 21.4236C33.1633 21.4236 32.6195 21.0485 31.9945 20.5923L30.8632 19.7672L30.9132 19.5672C30.9382 19.4609 30.9632 19.1734 30.9569 18.9359C30.9507 18.2109 30.5881 17.6358 29.9381 17.2858C29.5318 17.0733 28.913 16.9795 28.5255 17.0858ZM29.3881 18.1171C30.0318 18.3859 30.1881 19.2234 29.6881 19.7235C28.988 20.4297 27.838 19.7985 28.0192 18.8109C28.1317 18.2234 28.8193 17.8733 29.3881 18.1171ZM40.9576 18.1046C41.4951 18.2671 41.9951 18.9547 41.9951 19.5297C41.9951 20.3047 41.2701 21.0298 40.495 21.0298C40.1012 21.0298 39.7825 20.886 39.4637 20.561C38.8262 19.9297 38.8262 19.1297 39.4637 18.4984C39.9012 18.0546 40.37 17.9358 40.9576 18.1046ZM34.8884 22.1174C35.5322 22.3861 35.6885 23.2237 35.1884 23.7237C34.4884 24.43 33.3383 23.7987 33.5196 22.8112C33.6321 22.2236 34.3196 21.8736 34.8884 22.1174ZM26.8379 25.1863C27.1504 25.4926 26.9316 26.0301 26.4941 26.0301C26.2379 26.0301 25.9941 25.7863 25.9941 25.5301C25.9941 25.2738 26.2379 25.03 26.4941 25.03C26.6129 25.03 26.7441 25.0863 26.8379 25.1863Z" fill="white"/>
<path d="M37.9949 24.5298V25.0298H40.495H42.9952V24.5298V24.0297H40.495H37.9949V24.5298Z" fill="white"/>
<path d="M37.9949 26.5302V27.0303H38.4949H38.9949V26.5302V26.0302H38.4949H37.9949V26.5302Z" fill="white"/>
<path d="M39.9949 26.5302V27.0303H40.4949H40.9949V26.5302V26.0302H40.4949H39.9949V26.5302Z" fill="white"/>
<path d="M41.9951 26.5302V27.0303H42.4951H42.9952V26.5302V26.0302H42.4951H41.9951V26.5302Z" fill="white"/>
<path d="M18.0249 27.9803C18.1249 29.0179 18.5561 29.9054 19.3374 30.6867C20.1187 31.468 21.0063 31.8993 22.0439 31.9993L22.4939 32.0493V31.5493V31.0493L22.1189 31.0055C20.5563 30.8242 19.2687 29.5867 19.0437 28.0366L18.9687 27.5303H18.4749H17.9749L18.0249 27.9803Z" fill="white"/>
<path d="M35.4696 31.1305C33.282 31.5243 31.4756 33.3556 31.0881 35.562C30.4381 39.3123 33.6945 42.5937 37.4198 41.9437C40.4137 41.4187 42.4263 38.5685 41.9076 35.5995C41.3763 32.5743 38.5073 30.5805 35.4696 31.1305ZM37.8385 32.2431C38.5448 32.4681 39.0761 32.7993 39.6512 33.3744C40.2199 33.9432 40.5512 34.4682 40.7887 35.187C40.9325 35.6308 40.9512 35.787 40.9512 36.5308C40.9512 37.2746 40.9325 37.4309 40.7887 37.8747C40.5512 38.5935 40.2199 39.1185 39.6512 39.6873C39.0824 40.2561 38.5573 40.5873 37.8385 40.8249C37.3948 40.9686 37.2385 40.9874 36.4947 40.9874C35.7509 40.9874 35.5946 40.9686 35.1509 40.8249C34.4383 40.5873 33.9133 40.2623 33.3383 39.6873C32.7695 39.1185 32.4382 38.5935 32.2007 37.8747C32.0569 37.4309 32.0382 37.2746 32.0382 36.5308C32.0319 35.7933 32.0569 35.6245 32.1944 35.2058C32.4382 34.462 32.7695 33.9307 33.332 33.3681C34.0195 32.6806 34.8071 32.2618 35.7134 32.093C36.2634 31.993 37.276 32.068 37.8385 32.2431Z" fill="white"/>
<path d="M38.97 36.8683C38.9138 37.3059 38.6325 37.8934 38.3012 38.2434C37.9825 38.5935 37.3074 38.9435 36.8386 38.9997L36.4949 39.0435V39.5435V40.0498L36.8761 40.0061C37.6574 39.9185 38.4137 39.5498 38.9638 38.9872C39.5201 38.4247 39.8826 37.6747 39.9701 36.9059L40.0139 36.5308H39.5076H39.0075L38.97 36.8683Z" fill="white"/>
</svg>
