<svg width="60" height="60" viewBox="0 0 60 60" fill="none" xmlns="http://www.w3.org/2000/svg">
<rect width="60" height="60" rx="8" fill="#8E1537"/>
<path d="M16.4474 46.6316C15.7947 46.6316 15.2237 46.3868 14.7342 45.8974C14.2447 45.4079 14 44.8368 14 44.1842V16.4474C14 15.7947 14.2447 15.2237 14.7342 14.7342C15.2237 14.2447 15.7947 14 16.4474 14H30.3158L40.1053 23.7895V34.8026H37.6579V25.4211H28.6842V16.4474H16.4474V44.1842H33.1711V46.6316H16.4474ZM43.2868 46.6724L38.0658 41.4513V46.55H35.6184V37.25H44.9184V39.6974H39.7789L45 44.9184L43.2868 46.6724Z" fill="white"/>
<path d="M20.143 24.1571C19.8872 24.413 19.8345 24.6914 19.985 25.0075C20.2183 25.5041 20.0377 25.4891 25.9824 25.4665L31.3327 25.4439L31.551 25.1956C31.852 24.8645 31.852 24.4958 31.551 24.1948L31.3327 23.9765H25.8244H20.3236L20.143 24.1571Z" fill="white"/>
<path d="M20.4064 28.5218C20.1957 28.597 19.9624 28.8604 19.9172 29.0786C19.857 29.3571 20.0527 29.7785 20.301 29.8913C20.4365 29.9515 22.0167 29.9741 25.9072 29.9741H31.3327L31.5509 29.7559C31.9046 29.4022 31.7993 28.7626 31.3553 28.5594C31.2123 28.4917 29.8127 28.4691 25.8394 28.4766C22.9122 28.4766 20.4666 28.4992 20.4064 28.5218Z" fill="white"/>
<path d="M20.158 33.1546C19.7742 33.5083 19.8194 34.0125 20.2558 34.3135L20.5117 34.479L25.9222 34.464L31.3327 34.4414L31.5509 34.1931C31.8519 33.862 31.8519 33.4932 31.5509 33.1922L31.3327 32.974H25.8394H20.3536L20.158 33.1546Z" fill="white"/>
<path d="M20.2558 37.6444C19.8194 37.9454 19.7742 38.4496 20.158 38.8033L20.3536 38.9839H25.8394H31.3327L31.5509 38.7657C31.8519 38.4647 31.8519 38.0959 31.5509 37.7648L31.3327 37.5165L25.9222 37.4939L20.5117 37.4789L20.2558 37.6444Z" fill="white"/>
</svg>
