<svg width="30" height="36" viewBox="0 0 30 36" fill="none" xmlns="http://www.w3.org/2000/svg">
<path fill-rule="evenodd" clip-rule="evenodd" d="M0 9.99983C0 4.47691 4.47699 0 9.99983 0C15.5227 0 19.9997 4.47733 19.9997 9.99983C19.9997 15.5231 15.5223 20.0005 9.99983 20.0005C4.47657 20.0005 0 15.5232 0 9.99983ZM9.99983 2.49991C5.8574 2.49991 2.49958 5.85774 2.49958 9.99983C2.49958 14.1423 5.8574 17.5001 9.99983 17.5001C14.1419 17.5001 17.5001 14.1423 17.5001 9.99983C17.5001 5.85774 14.1419 2.49991 9.99983 2.49991Z" fill="white"/>
<path d="M7.49976 20.9722V28.7512C7.49976 32.2031 10.2983 35.0013 13.7502 35.0013H23.75C27.2018 35.0013 30.0001 32.2031 30.0001 28.7512V6.25057C30.0001 4.17923 28.3213 2.50049 26.25 2.50049H18.3852C19.0563 3.25012 19.6281 4.09012 20.0804 5.00049H26.25C26.9406 5.00049 27.5002 5.56007 27.5002 6.25066V28.7513C27.5002 30.8227 25.8211 32.5014 23.7501 32.5014H13.7503C11.6789 32.5014 10.0002 30.8227 10.0002 28.7513V21.2511C9.14066 21.2511 8.30395 21.1547 7.49984 20.9723L7.49976 20.9722Z" fill="white"/>
<path d="M11.8911 21.0927C12.0713 21.1934 12.2791 21.2508 12.5002 21.2508H16.2503C16.9405 21.2508 17.5004 20.6912 17.5004 20.001V18.3862C15.955 19.7693 14.0251 20.7315 11.8911 21.0927L11.8911 21.0927Z" fill="white"/>
<path fill-rule="evenodd" clip-rule="evenodd" d="M20.6609 13.6029C20.8364 13.697 21.037 13.7501 21.2502 13.7501H25.0003C25.6905 13.7501 26.2501 13.1905 26.2501 12.5003V8.75017C26.2501 8.0596 25.6905 7.5 25.0003 7.5H21.2502C21.1565 7.5 21.0654 7.51023 20.978 7.52969C21.1561 8.32486 21.2502 9.15134 21.2502 9.99996C21.2502 11.26 21.043 12.4719 20.6609 13.6029V13.6029ZM22.4999 11.2502V9.99998H23.7501V11.2502H22.4999Z" fill="white"/>
<path fill-rule="evenodd" clip-rule="evenodd" d="M12.4999 22.5005C11.8097 22.5005 11.2498 23.0601 11.2498 23.7507V27.5007C11.2498 28.191 11.8097 28.7506 12.4999 28.7506H16.25C16.9402 28.7506 17.5002 28.191 17.5002 27.5007V23.7507C17.5002 23.0601 16.9403 22.5005 16.25 22.5005H12.4999ZM13.7501 26.2506V25.0004H14.9999V26.2506H13.7501Z" fill="white"/>
<path fill-rule="evenodd" clip-rule="evenodd" d="M21.2507 15.0005C20.5601 15.0005 20.0005 15.5601 20.0005 16.2507V20.0007C20.0005 20.691 20.5601 21.2506 21.2507 21.2506H25.0007C25.691 21.2506 26.2506 20.691 26.2506 20.0007V16.2507C26.2506 15.5601 25.691 15.0005 25.0007 15.0005H21.2507ZM22.5005 18.7506V17.5004H23.7507V18.7506H22.5005Z" fill="white"/>
<path fill-rule="evenodd" clip-rule="evenodd" d="M21.2507 22.5005C20.5601 22.5005 20.0005 23.0601 20.0005 23.7507V27.5007C20.0005 28.191 20.5601 28.7506 21.2507 28.7506H25.0007C25.691 28.7506 26.2506 28.191 26.2506 27.5007V23.7507C26.2506 23.0601 25.691 22.5005 25.0007 22.5005H21.2507ZM22.5005 26.2506V25.0004H23.7507V26.2506H22.5005Z" fill="white"/>
</svg>
