<svg width="31" height="34" viewBox="0 0 31 34" fill="none" xmlns="http://www.w3.org/2000/svg">
<path d="M15.1935 27.4229H13.6721C13.419 27.4229 13.1763 27.3222 12.9973 27.1431C12.8186 26.9645 12.7179 26.7215 12.7182 26.4686V23.6076C12.7182 23.0807 13.1452 22.6538 13.6721 22.6538H15.8737H15.8733C16.8737 20.4313 18.7549 18.7263 21.0645 17.9479V15.6587V15.659C21.0645 15.1321 21.4914 14.7051 22.0184 14.7051H24.8794C25.1325 14.7048 25.3752 14.8055 25.5542 14.9842C25.7329 15.1632 25.8336 15.4059 25.8336 15.659V17.7228V17.7225C27.5071 18.1134 29.0282 18.99 30.2052 20.2425V11.9229H0V28.6148C0 29.6687 0.418556 30.6796 1.16406 31.4251C1.9092 32.1703 2.92008 32.5892 3.97439 32.5892H17.8582C16.4047 31.223 15.4637 29.3991 15.1934 27.4228L15.1935 27.4229ZM12.7183 15.6588C12.7183 15.1318 13.1452 14.7049 13.6721 14.7049H16.5335C17.0604 14.7049 17.4874 15.1318 17.4874 15.6588V18.5198C17.4874 18.7729 17.387 19.0156 17.208 19.1946C17.0293 19.3733 16.7866 19.474 16.5335 19.474H13.6721C13.419 19.474 13.1763 19.3733 12.9972 19.1946C12.8186 19.0156 12.7179 18.7729 12.7182 18.5198L12.7183 15.6588ZM9.14149 26.4686C9.14149 26.7218 9.04114 26.9645 8.8621 27.1435C8.68307 27.3225 8.44041 27.4229 8.18724 27.4229H5.32624C5.07308 27.4229 4.8304 27.3222 4.65137 27.1435C4.47269 26.9645 4.37234 26.7218 4.37234 26.4686V23.6073C4.37234 23.0803 4.79928 22.6534 5.32621 22.6534H8.18721C8.44037 22.6531 8.68305 22.7538 8.86208 22.9325C9.04076 23.1115 9.14147 23.3541 9.14147 23.6073L9.14149 26.4686ZM9.14149 18.5199C9.14149 18.7731 9.04114 19.0158 8.8621 19.1948C8.68307 19.3738 8.44041 19.4742 8.18724 19.4742H5.32624C5.07308 19.4742 4.8304 19.3738 4.65137 19.1948C4.47269 19.0158 4.37234 18.7731 4.37234 18.5199V15.6586C4.37234 15.1316 4.79928 14.7047 5.32621 14.7047H8.18721C8.44037 14.7044 8.68305 14.8051 8.86208 14.9838C9.04076 15.1628 9.14147 15.4054 9.14147 15.6586L9.14149 18.5199Z" fill="white"/>
<path d="M26.2307 3.17969H25.4359V4.7693C25.4359 5.90534 24.8299 6.95509 23.8459 7.52298C22.8623 8.09084 21.6504 8.09084 20.6667 7.52298C19.6827 6.95511 19.0767 5.90543 19.0767 4.7693V3.17969H11.128V4.7693C11.128 5.90534 10.522 6.95509 9.53839 7.52298C8.55475 8.09086 7.34285 8.09084 6.35881 7.52298C5.37521 6.95511 4.76919 5.90543 4.76919 4.7693V3.17969H3.97439C2.92053 3.18074 1.91026 3.59999 1.16549 4.34518C0.420346 5.09032 0.00107418 6.10049 0 7.15408V10.3337H30.2052V7.15408C30.2038 6.10049 29.7849 5.0903 29.0397 4.34518C28.2945 3.60003 27.2844 3.18076 26.2308 3.17969H26.2307Z" fill="white"/>
<path d="M7.94923 0C8.82725 0 9.53885 0.878022 9.53885 1.58962V4.7692C9.53885 5.64722 8.82727 6.35882 7.94923 6.35882C7.07121 6.35882 6.35962 5.4808 6.35962 4.7692V1.58962C6.35962 0.711595 7.07119 0 7.94923 0Z" fill="white"/>
<path d="M22.2561 0C23.1341 0 23.8457 0.878022 23.8457 1.58962V4.7692C23.8457 5.64722 23.1342 6.35882 22.2561 6.35882C21.3781 6.35882 20.6665 5.4808 20.6665 4.7692V1.58962C20.6665 0.711595 21.3781 0 22.2561 0Z" fill="white"/>
<path d="M23.8462 19.0767C21.9489 19.0767 20.1295 19.8302 18.7878 21.1719C17.4462 22.5135 16.6926 24.3328 16.6926 26.2302C16.6926 28.1275 17.4462 29.9471 18.7878 31.2889C20.1295 32.6306 21.9488 33.3841 23.8462 33.3841C25.7434 33.3841 27.5631 32.6305 28.9049 31.2889C30.2466 29.9472 31.0001 28.1276 31.0001 26.2302C31.0001 24.3329 30.2465 22.5135 28.9049 21.1719C27.5632 19.8302 25.7435 19.0767 23.8462 19.0767ZM26.2309 27.0254H23.8462C23.6353 27.0254 23.4332 26.9418 23.2842 26.7925C23.1349 26.6435 23.0514 26.4411 23.0514 26.2302V22.2559C23.0514 21.8171 23.4073 21.4611 23.8462 21.4611C24.2853 21.4611 24.6413 21.8171 24.6413 22.2559V25.4355H26.2309C26.6698 25.4355 27.0257 25.7915 27.0257 26.2303C27.0257 26.6695 26.6698 27.0254 26.2309 27.0254L26.2309 27.0254Z" fill="white"/>
</svg>
