<svg width="60" height="60" viewBox="0 0 60 60" fill="none" xmlns="http://www.w3.org/2000/svg">
<rect width="60" height="60" rx="8" fill="#8E1537"/>
<path d="M26.8831 16.0335C26.8831 15.4626 26.4208 15 25.8496 15H24.8162C24.2453 15 23.7827 15.4623 23.7827 16.0335V16.55H26.8827L26.8831 16.0335Z" fill="white"/>
<path d="M21.2004 22.7505H19.1338V27.9171H31.5337L31.5334 22.7505H29.4668V24.3005C29.4668 25.155 28.7713 25.8505 27.9168 25.8505L22.7501 25.8502C21.8956 25.8502 21.2001 25.1547 21.2001 24.3002L21.2004 22.7505Z" fill="white"/>
<path d="M22.2329 21.7173H28.433V22.7507H22.2329V21.7173Z" fill="white"/>
<path d="M22.751 24.8171H27.9176C28.2023 24.8171 28.4342 24.585 28.4342 24.3005V23.784L22.2344 23.7837V24.3003C22.2344 24.585 22.4662 24.8171 22.751 24.8171H22.751Z" fill="white"/>
<path d="M22.2329 19.6504H28.433V20.6838H22.2329V19.6504Z" fill="white"/>
<path d="M28.4327 18.1003C28.4327 17.8156 28.2006 17.5838 27.9161 17.5838L22.7495 17.5835C22.4647 17.5835 22.2329 17.8156 22.2329 18.1001V18.6167H28.433L28.4327 18.1003Z" fill="white"/>
<path d="M34.1168 43.4165H16.55C15.6955 43.4165 15 44.112 15 44.9665V45.4831H35.6669V44.9665C35.6669 44.112 34.9714 43.4165 34.1169 43.4165H34.1168Z" fill="white"/>
<path d="M45.9998 32.0499V31.0165H43.9332V30.4999H41.8666C40.9065 30.4999 40.1041 31.1607 39.8733 32.0499H39.2831C38.9984 32.0499 38.7666 31.8183 38.7666 31.5333V28.4333C38.7666 27.5788 38.071 26.8833 37.2165 26.8833C36.3621 26.8833 35.6665 27.5788 35.6665 28.4333V35.667C35.6665 35.9523 35.4344 36.1836 35.15 36.1836H33.6V22.2336C33.6 21.3791 32.9045 20.6836 32.05 20.6836H29.4665V21.717H31.5331C32.1029 21.717 32.5666 22.1804 32.5666 22.7505V27.9171C32.5666 28.4869 32.1032 28.9506 31.5331 28.9506L19.1332 28.9503C18.5635 28.9503 18.0998 28.4869 18.0998 27.9169V22.7505C18.0998 22.1807 18.5632 21.7171 19.1332 21.7171H21.1999V20.6836H18.6164C17.7619 20.6836 17.0664 21.3791 17.0664 22.2336V42.3839H33.5998L33.6001 37.2172H35.1501C36.0046 37.2172 36.7001 36.5217 36.7001 35.6672V28.4335C36.7001 28.1488 36.9322 27.917 37.2167 27.917C37.5014 27.917 37.7333 28.1491 37.7333 28.4335V31.5336C37.7333 32.388 38.4288 33.0836 39.2833 33.0836H39.8732C40.1042 33.9727 40.9067 34.6336 41.8665 34.6336H43.9331V34.117H45.9997V33.0835H43.9331V32.0501L45.9998 32.0499ZM27.9164 31.5333C27.9164 30.9625 28.3787 30.4999 28.9498 30.4999H29.9833C30.5541 30.4999 31.0167 30.9622 31.0167 31.5333V33.6C31.0167 34.1708 30.5544 34.6334 29.9833 34.6334H28.9498C28.3789 34.6334 27.9164 34.1711 27.9164 33.6V31.5333ZM19.65 31.5333C19.65 30.9625 20.1123 30.4999 20.6834 30.4999H21.7169C22.2878 30.4999 22.7503 30.9622 22.7503 31.5333V33.6C22.7503 34.1708 22.288 34.6334 21.7169 34.6334H20.6834C20.1126 34.6334 19.65 34.1711 19.65 33.6V31.5333ZM32.0499 40.8338H18.6166V38.7672H32.0499V40.8338Z" fill="white"/>
<path d="M44.2099 36.9768L43.4792 36.2461C42.8748 36.8505 41.8915 36.8505 41.2868 36.2461L40.5562 36.9768C41.0599 37.4806 41.7214 37.7323 42.383 37.7323C43.0455 37.732 43.7061 37.4805 44.2099 36.9768V36.9768Z" fill="white"/>
<path d="M39.8259 37.708L39.0952 38.4387C40.0015 39.3456 41.1924 39.7987 42.3832 39.7987C43.574 39.7987 44.7645 39.3456 45.6712 38.4387L44.941 37.708C43.5307 39.1181 41.2366 39.1181 39.8259 37.708Z" fill="white"/>
<path d="M40.5562 28.1566L41.2869 28.8873C41.8913 28.2834 42.8745 28.2834 43.4792 28.8873L44.2099 28.1566C43.2026 27.1496 41.5637 27.1496 40.5562 28.1566V28.1566Z" fill="white"/>
<path d="M42.3832 26.3669C43.3493 26.3669 44.2572 26.7431 44.9407 27.426L45.6714 26.6953C44.7929 25.8171 43.6253 25.3335 42.3832 25.3335C41.1411 25.3335 39.9734 25.8171 39.0952 26.6953L39.8259 27.426C40.5091 26.7431 41.4171 26.3669 42.3832 26.3669Z" fill="white"/>
</svg>
