<svg width="30" height="30" viewBox="0 0 30 30" fill="none" xmlns="http://www.w3.org/2000/svg">
<path d="M29.7171 0H0.281896C0.206888 0 0.135728 0.0296734 0.082427 0.0827018C0.0291251 0.135729 0 0.207163 0 0.28217V24.523C0 24.6788 0.126114 24.8055 0.28217 24.8055H11.631V26.7815H7.33716C7.18138 26.7815 7.05472 26.9082 7.05472 27.064V29.0966C7.05472 29.2529 7.18138 29.379 7.33716 29.379H22.6628C22.8186 29.379 22.945 29.2529 22.945 29.0966V27.064C22.945 26.9082 22.8189 26.7815 22.6628 26.7815H18.3687V24.8055H29.7176C29.8739 24.8055 30 24.6788 30 24.523V0.28217C29.9997 0.126388 29.8736 0 29.7176 0H29.7171ZM27.4021 22.2081H2.5971V2.59754H27.4021L27.4024 22.2081H27.4021Z" fill="white"/>
<path d="M7.41099 15.1324H12.2439V19.2877C12.2439 19.3501 12.2796 19.4059 12.3359 19.4325C12.3574 19.4424 12.3805 19.4476 12.4035 19.4476C12.4401 19.4476 12.4766 19.4353 12.506 19.4111L17.654 15.1326H22.5886C22.6771 15.1326 22.7482 15.0609 22.7482 14.973V5.51342C22.7482 5.42522 22.6771 5.35352 22.5886 5.35352L7.41061 5.35379C7.32241 5.35379 7.25098 5.4255 7.25098 5.51369V14.9726C7.2507 15.0605 7.32241 15.1322 7.41061 15.1322L7.41099 15.1324ZM9.96865 7.85743H20.0317C20.1496 7.85743 20.2449 7.95305 20.2449 8.07064C20.2449 8.18851 20.1496 8.28384 20.0317 8.28384H9.96865C9.85078 8.28384 9.75544 8.18823 9.75544 8.07064C9.75544 7.95277 9.85051 7.85743 9.96865 7.85743ZM9.96865 10.0296H20.0317C20.1496 10.0296 20.2449 10.1253 20.2449 10.2429C20.2449 10.3607 20.1496 10.4561 20.0317 10.4561H9.96865C9.85078 10.4561 9.75544 10.3604 9.75544 10.2429C9.75544 10.125 9.85051 10.0296 9.96865 10.0296ZM9.96865 12.2019H20.0317C20.1496 12.2019 20.2449 12.2975 20.2449 12.4151C20.2449 12.5329 20.1496 12.6283 20.0317 12.6283H9.96865C9.85078 12.6283 9.75544 12.5327 9.75544 12.4151C9.75544 12.2972 9.85051 12.2019 9.96865 12.2019Z" fill="white"/>
</svg>
