<svg width="60" height="60" viewBox="0 0 60 60" fill="none" xmlns="http://www.w3.org/2000/svg">
<rect width="60" height="60" rx="8" fill="#8E1537"/>
<path d="M21.4637 18.2735C21.9099 18.5556 22.5004 18.4266 22.788 17.9842C24.3177 15.4738 27.0448 13.942 29.9846 13.942C32.9243 13.942 35.652 15.4737 37.1815 17.9842C37.3092 18.2128 37.5247 18.3795 37.7784 18.4461C38.0316 18.5127 38.3014 18.4733 38.525 18.3371C38.749 18.2005 38.9076 17.9791 38.9644 17.7233C39.0217 17.4675 38.9721 17.1999 38.8274 16.9814C36.9529 13.894 33.6055 12.0064 29.9939 12C26.3822 11.9932 23.028 13.8686 21.142 16.9491C20.8655 17.4035 21.0097 17.9961 21.4636 18.2735L21.4637 18.2735Z" fill="white"/>
<path d="M34.1789 20.6907C34.2679 20.935 34.452 21.1327 34.6892 21.2396C34.9263 21.3461 35.1965 21.3525 35.4383 21.257C35.6801 21.1616 35.8735 20.9728 35.9741 20.7327C36.0746 20.493 36.0738 20.2228 35.9724 19.9836C35.3352 18.378 34.0791 17.0965 32.4867 16.4275C30.8942 15.7585 29.0998 15.7585 27.5074 16.4275C25.9149 17.0965 24.6585 18.378 24.0217 19.9836C23.8422 20.4748 24.087 21.0195 24.5736 21.2112C25.0601 21.403 25.6107 21.1722 25.8152 20.6907C26.2628 19.5705 27.1417 18.6766 28.2544 18.2104C29.3671 17.7442 30.6201 17.7442 31.7328 18.2104C32.8455 18.6766 33.7244 19.5704 34.1724 20.6907L34.1789 20.6907Z" fill="white"/>
<path d="M32.8094 24.0204C32.8094 25.579 31.5457 26.8426 29.9872 26.8426C28.4287 26.8426 27.165 25.5789 27.165 24.0204C27.165 22.4619 28.4288 21.1982 29.9872 21.1982C31.5458 21.1982 32.8094 22.462 32.8094 24.0204Z" fill="white"/>
<path d="M36.088 22.4839H33.5165C34.0361 23.6763 33.9203 25.0503 33.2072 26.1388C32.4946 27.2269 31.2814 27.8827 29.9808 27.8827C28.6798 27.8827 27.4666 27.2269 26.7538 26.1388C26.0412 25.0503 25.925 23.6763 26.445 22.4839H23.9121C23.1397 22.4839 22.399 22.7906 21.8531 23.337C21.3067 23.8829 21 24.6236 21 25.396V44.6435C21 45.4155 21.3067 46.1566 21.8531 46.7025C22.399 47.2485 23.1397 47.5556 23.9121 47.5556H36.0879C36.8599 47.5556 37.601 47.2485 38.1469 46.7025C38.6933 46.1566 39 45.4155 39 44.6435V25.396C39 24.6236 38.6933 23.8829 38.1469 23.337C37.601 22.7906 36.8599 22.4839 36.0879 22.4839H36.088ZM26.1431 43.9619C25.623 43.9619 25.1543 43.6488 24.9549 43.1682C24.756 42.688 24.8663 42.1348 25.2336 41.7671C25.6014 41.3993 26.1546 41.2894 26.6347 41.4884C27.1153 41.6873 27.4288 42.1565 27.4288 42.6762C27.4288 43.0173 27.2931 43.3443 27.0521 43.5857C26.8108 43.8266 26.4837 43.962 26.1431 43.962V43.9619ZM26.1431 40.1046V40.105C25.623 40.105 25.1543 39.7915 24.9549 39.3113C24.756 38.8307 24.8663 38.2775 25.2336 37.9098C25.6014 37.5424 26.1546 37.4321 26.6347 37.6311C27.1153 37.8304 27.4288 38.2992 27.4288 38.8192C27.4288 39.1603 27.2931 39.4869 27.0521 39.7283C26.8108 39.9692 26.4837 40.105 26.1431 40.105V40.1046ZM26.1431 36.2473V36.2477C25.623 36.2477 25.1543 35.9342 24.9549 35.454C24.756 34.9734 24.8663 34.4207 25.2336 34.0529C25.6014 33.6851 26.1546 33.5753 26.6347 33.7742C27.1153 33.9732 27.4288 34.4419 27.4288 34.962C27.4288 35.3031 27.2931 35.6301 27.0521 35.8711C26.8108 36.1125 26.4837 36.2478 26.1431 36.2478V36.2473ZM30.0004 43.9618H30C29.4799 43.9618 29.0111 43.6487 28.8121 43.1681C28.6132 42.6879 28.7231 42.1347 29.0908 41.767C29.4586 41.3992 30.0118 41.2893 30.4919 41.4883C30.9726 41.6872 31.2856 42.1564 31.2856 42.6761C31.2856 43.0172 31.1503 43.3442 30.9094 43.5856C30.668 43.8265 30.3409 43.9618 29.9999 43.9618L30.0004 43.9618ZM30.0004 40.1045L30 40.1049C29.4799 40.1049 29.0111 39.7914 28.8121 39.3112C28.6132 38.8306 28.7231 38.2774 29.0908 37.9097C29.4586 37.5423 30.0118 37.432 30.4919 37.631C30.9726 37.8303 31.2856 38.2991 31.2856 38.8191C31.2856 39.1602 31.1503 39.4868 30.9094 39.7282C30.668 39.9691 30.3409 40.1049 29.9999 40.1049L30.0004 40.1045ZM30.0004 36.2472L30 36.2476C29.4799 36.2476 29.0111 35.9341 28.8121 35.4539C28.6132 34.9733 28.7231 34.4205 29.0908 34.0528C29.4586 33.685 30.0118 33.5752 30.4919 33.7741C30.9726 33.973 31.2856 34.4418 31.2856 34.9619C31.2856 35.303 31.1503 35.63 30.9094 35.871C30.668 36.1124 30.3409 36.2477 29.9999 36.2477L30.0004 36.2472ZM30 32.1269H26.1431C25.433 32.1269 24.8573 31.5513 24.8573 30.8412C24.8573 30.131 25.433 29.5554 26.1431 29.5554H30.0004H30C30.7101 29.5554 31.2857 30.131 31.2857 30.8412C31.2857 31.5513 30.7101 32.1269 30 32.1269H30ZM33.8573 43.9617V43.9612C33.3372 43.9612 32.8684 43.6482 32.6694 43.1676C32.4705 42.6874 32.5804 42.1342 32.9481 41.7665C33.3159 41.3987 33.8687 41.2888 34.3492 41.4878C34.8299 41.6867 35.1429 42.1559 35.1429 42.6756C35.1429 43.0166 35.0076 43.3437 34.7662 43.5851C34.5253 43.826 34.1982 43.9613 33.8572 43.9613L33.8573 43.9617ZM33.8573 40.1043C33.3372 40.1043 32.8684 39.7909 32.6694 39.3107C32.4705 38.83 32.5804 38.2769 32.9481 37.9091C33.3159 37.5418 33.8687 37.4315 34.3492 37.6304C34.8299 37.8298 35.1429 38.2985 35.1429 38.8186C35.1429 39.1596 35.0076 39.4863 34.7662 39.7276C34.5253 39.9686 34.1982 40.1043 33.8572 40.1043L33.8573 40.1043ZM33.8573 36.247C33.3372 36.247 32.8684 35.9336 32.6694 35.4534C32.4705 34.9727 32.5804 34.42 32.9481 34.0523C33.3159 33.6845 33.8687 33.5746 34.3492 33.7736C34.8299 33.9725 35.1429 34.4413 35.1429 34.9614C35.1429 35.3024 35.0076 35.6295 34.7662 35.8704C34.5253 36.1118 34.1982 36.2471 33.8572 36.2471L33.8573 36.247Z" fill="white"/>
</svg>
