<svg width="36" height="34" viewBox="0 0 36 34" fill="none" xmlns="http://www.w3.org/2000/svg">
<path d="M20.2352 7.01048C20.7278 6.51788 20.7278 5.68428 20.2352 5.19169L16.0668 1.02326C15.5742 0.530658 14.7406 0.530658 14.248 1.02326C13.7554 1.51586 13.7554 2.34947 14.248 2.84206L16.2566 4.85065H10.5722C7.38906 4.85065 4.81226 7.42745 4.81226 10.6106V17.659C4.81226 18.3789 5.38082 18.9475 6.1007 18.9475C6.82057 18.9475 7.38914 18.3789 7.38914 17.659V10.5725C7.38914 8.82936 8.82913 7.38937 10.5723 7.38937H16.2567L14.2481 9.39796C13.7555 9.89057 13.7555 10.7242 14.2481 11.2168C14.5134 11.4821 14.8166 11.5956 15.1576 11.5956C15.4986 11.5956 15.8018 11.4818 16.0672 11.2168L20.2352 7.01048Z" fill="white"/>
<path d="M29.8989 15.0064C29.1791 15.0064 28.6105 15.575 28.6105 16.2949V23.3433C28.6105 25.0865 27.1705 26.5265 25.4273 26.5265H19.7429L21.7515 24.5179C22.2441 24.0253 22.2441 23.1917 21.7515 22.6991C21.2589 22.2065 20.4253 22.2065 19.9327 22.6991L15.764 26.9053C15.2714 27.3979 15.2714 28.2315 15.764 28.7241L19.9702 32.9303C20.2355 33.1956 20.5387 33.3091 20.8797 33.3091C21.2207 33.3091 21.5239 33.1953 21.7893 32.9303C22.2819 32.4377 22.2819 31.604 21.7893 31.1115L19.7429 29.1032H25.4273C28.6105 29.1032 31.1873 26.5264 31.1873 23.3432V16.2948C31.1873 15.5749 30.6187 15.0063 29.8988 15.0063L29.8989 15.0064Z" fill="white"/>
<path d="M29.8991 0C26.5265 0 23.7981 2.72843 23.7981 6.10101C23.7981 9.47358 26.5265 12.202 29.8991 12.202C33.2717 12.202 36.0001 9.47358 36.0001 6.10101C36.0001 2.72843 33.2717 0 29.8991 0Z" fill="white"/>
<path d="M6.10101 21.7515C2.72843 21.7515 0 24.4799 0 27.8525C0 31.225 2.72843 33.9535 6.10101 33.9535C9.47358 33.9535 12.202 31.225 12.202 27.8525C12.202 24.4799 9.47358 21.7515 6.10101 21.7515Z" fill="white"/>
</svg>
