<svg width="17" height="33" viewBox="0 0 17 33" fill="none" xmlns="http://www.w3.org/2000/svg">
<path d="M0.430196 5.82261C0.844383 6.08444 1.39243 5.96475 1.65933 5.5541C3.07906 3.22413 5.61021 1.80238 8.33871 1.80238C11.0671 1.80238 13.5988 3.22403 15.0184 5.5541C15.1369 5.76631 15.3369 5.92103 15.5723 5.98285C15.8074 6.04466 16.0578 6.00805 16.2653 5.88167C16.4732 5.75489 16.6204 5.54937 16.6732 5.31197C16.7263 5.07456 16.6802 4.82613 16.546 4.62337C14.8061 1.7579 11.6994 0.00596367 8.3473 1.70406e-05C4.99522 -0.00628235 1.88211 1.73432 0.131685 4.59343C-0.125018 5.0151 0.00883931 5.56511 0.430113 5.82257L0.430196 5.82261Z" fill="white"/>
<path d="M12.2317 8.06601C12.3144 8.29279 12.4853 8.47626 12.7054 8.57547C12.9254 8.6743 13.1762 8.68021 13.4006 8.59162C13.6251 8.50303 13.8046 8.32783 13.8979 8.10499C13.9912 7.88255 13.9904 7.63175 13.8963 7.4097C13.305 5.91951 12.1391 4.73009 10.6612 4.10922C9.18317 3.48833 7.51771 3.48833 6.03972 4.10922C4.56173 4.73011 3.39559 5.91951 2.80456 7.4097C2.63802 7.86561 2.86519 8.37115 3.31677 8.54913C3.76836 8.72709 4.2794 8.51291 4.46921 8.06605C4.88457 7.02629 5.70036 6.19669 6.73306 5.76399C7.76576 5.3313 8.92877 5.3313 9.96147 5.76399C10.9942 6.19669 11.81 7.02619 12.2257 8.06605L12.2317 8.06601Z" fill="white"/>
<path d="M10.9608 11.1564C10.9608 12.603 9.78795 13.7758 8.3415 13.7758C6.89496 13.7758 5.72217 12.6029 5.72217 11.1564C5.72217 9.7099 6.89506 8.53711 8.3415 8.53711C9.78805 8.53711 10.9608 9.71 10.9608 11.1564Z" fill="white"/>
<path d="M14.0036 9.73047H11.6169C12.0992 10.8371 11.9917 12.1124 11.3299 13.1227C10.6684 14.1326 9.54245 14.7413 8.33529 14.7413C7.12782 14.7413 6.00179 14.1326 5.3403 13.1227C4.67887 12.1124 4.57099 10.8371 5.05368 9.73047H2.70284C1.98589 9.73047 1.29843 10.0151 0.791758 10.5222C0.284662 11.0289 0 11.7164 0 12.4333V30.2974C0 31.0139 0.284652 31.7018 0.791758 32.2085C1.29846 32.7152 1.98592 33.0002 2.70284 33.0002H14.0035C14.72 33.0002 15.4079 32.7152 15.9145 32.2085C16.4216 31.7018 16.7063 31.0139 16.7063 30.2974V12.4333C16.7063 11.7164 16.4216 11.0289 15.9145 10.5222C15.4078 10.0151 14.72 9.73047 14.0035 9.73047H14.0036ZM4.77343 29.6648C4.29073 29.6648 3.85568 29.3742 3.67068 28.9281C3.48603 28.4825 3.58839 27.9691 3.92935 27.6277C4.2707 27.2864 4.7841 27.1844 5.22975 27.3691C5.67582 27.5537 5.96677 27.9892 5.96677 28.4715C5.96677 28.7881 5.84079 29.0916 5.61715 29.3156C5.39313 29.5393 5.08958 29.6649 4.77343 29.6649V29.6648ZM4.77343 26.0847V26.0851C4.29073 26.0851 3.85568 25.7941 3.67068 25.3485C3.48603 24.9024 3.58839 24.389 3.92935 24.0477C4.2707 23.7067 4.7841 23.6043 5.22975 23.789C5.67582 23.974 5.96677 24.4091 5.96677 24.8917C5.96677 25.2083 5.84079 25.5114 5.61715 25.7355C5.39313 25.9591 5.08958 26.0851 4.77343 26.0851V26.0847ZM4.77343 22.5046V22.505C4.29073 22.505 3.85568 22.2141 3.67068 21.7684C3.48603 21.3223 3.58839 20.8093 3.92935 20.468C4.2707 20.1266 4.7841 20.0247 5.22975 20.2093C5.67582 20.394 5.96677 20.829 5.96677 21.3118C5.96677 21.6283 5.84079 21.9319 5.61715 22.1555C5.39313 22.3795 5.08958 22.5051 4.77343 22.5051V22.5046ZM8.3535 29.6647H8.35311C7.87041 29.6647 7.43536 29.3741 7.25066 28.928C7.06601 28.4824 7.16798 27.969 7.50933 27.6276C7.85068 27.2863 8.36408 27.1843 8.80973 27.369C9.25581 27.5536 9.54636 27.9891 9.54636 28.4714C9.54636 28.788 9.42077 29.0915 9.19714 29.3155C8.97312 29.5392 8.66957 29.6648 8.35302 29.6648L8.3535 29.6647ZM8.3535 26.0846L8.35311 26.085C7.87041 26.085 7.43536 25.794 7.25066 25.3484C7.06601 24.9023 7.16798 24.3889 7.50933 24.0476C7.85068 23.7066 8.36408 23.6042 8.80973 23.7889C9.25581 23.9739 9.54636 24.409 9.54636 24.8916C9.54636 25.2082 9.42077 25.5113 9.19714 25.7354C8.97312 25.959 8.66957 26.085 8.35302 26.085L8.3535 26.0846ZM8.3535 22.5045L8.35311 22.5049C7.87041 22.5049 7.43536 22.214 7.25066 21.7683C7.06601 21.3222 7.16798 20.8092 7.50933 20.4679C7.85068 20.1265 8.36408 20.0246 8.80973 20.2092C9.25581 20.3939 9.54636 20.8289 9.54636 21.3117C9.54636 21.6282 9.42077 21.9318 9.19714 22.1554C8.97312 22.3794 8.66957 22.505 8.35302 22.505L8.3535 22.5045ZM8.35311 18.6804H4.77344C4.11436 18.6804 3.58008 18.1462 3.58008 17.4871C3.58008 16.828 4.11435 16.2937 4.77344 16.2937H8.35351H8.35312C9.01219 16.2937 9.54647 16.828 9.54647 17.4871C9.54647 18.1462 9.0122 18.6804 8.35312 18.6804H8.35311ZM11.9332 29.6646V29.6642C11.4505 29.6642 11.0154 29.3736 10.8307 28.9275C10.6461 28.4819 10.7481 27.9685 11.0894 27.6271C11.4307 27.2858 11.9438 27.1838 12.3898 27.3685C12.8359 27.5531 13.1264 27.9886 13.1264 28.4709C13.1264 28.7875 13.0008 29.091 12.7768 29.315C12.5532 29.5387 12.2496 29.6643 11.9331 29.6643L11.9332 29.6646ZM11.9332 26.0845C11.4505 26.0845 11.0154 25.7936 10.8307 25.3479C10.6461 24.9018 10.7481 24.3884 11.0894 24.0471C11.4307 23.7061 11.9438 23.6038 12.3898 23.7884C12.8359 23.9734 13.1264 24.4085 13.1264 24.8911C13.1264 25.2077 13.0008 25.5108 12.7768 25.7349C12.5532 25.9585 12.2496 26.0845 11.9331 26.0845L11.9332 26.0845ZM11.9332 22.5044C11.4505 22.5044 11.0154 22.2135 10.8307 21.7678C10.6461 21.3217 10.7481 20.8087 11.0894 20.4674C11.4307 20.1261 11.9438 20.0241 12.3898 20.2087C12.8359 20.3934 13.1264 20.8284 13.1264 21.3112C13.1264 21.6277 13.0008 21.9313 12.7768 22.1549C12.5532 22.3789 12.2496 22.5045 11.9331 22.5045L11.9332 22.5044Z" fill="white"/>
</svg>
