<svg width="32" height="32" viewBox="0 0 32 32" fill="none" xmlns="http://www.w3.org/2000/svg">
<path d="M32 16C32 7.16382 24.8368 0 16 0C7.16382 0 0 7.16324 0 16C0 24.8362 7.16324 32 16 32C24.8362 32 32 24.8368 32 16ZM18.8879 27.4205L16.7544 29.554C16.3378 29.9707 15.6627 29.9707 15.246 29.554C14.8293 29.1374 14.8293 28.4622 15.246 28.0455L15.5799 27.7117C9.3073 27.4876 4.26788 22.3266 4.26788 15.9999C4.26788 12.9082 5.45932 9.98985 7.6237 7.78546C8.03643 7.36711 8.71098 7.36091 9.13217 7.77307C9.55108 8.1858 9.55728 8.86035 9.14455 9.28154C7.3759 11.0839 6.40077 13.4712 6.40077 15.9999C6.40077 21.1256 10.4475 25.2883 15.509 25.5501L15.246 25.2871C14.8293 24.8705 14.8293 24.1954 15.246 23.7787C15.4549 23.5703 15.7274 23.4662 16.0005 23.4662C16.2736 23.4662 16.5461 23.5703 16.7545 23.7787L18.8879 25.9121C19.3046 26.3288 19.3046 27.0039 18.8879 27.4206L18.8879 27.4205ZM21.0214 12.4872L16.755 16.7536C16.5546 16.954 16.2837 17.0661 16.0005 17.0661H11.7341C11.1446 17.0661 10.6677 16.5892 10.6677 15.9997C10.6677 15.4101 11.1446 14.9332 11.7341 14.9332H15.559L19.5129 10.9793C19.9295 10.5627 20.6047 10.5627 21.0213 10.9793C21.438 11.3954 21.438 12.0706 21.0213 12.4872L21.0214 12.4872ZM23.6172 24.5328C23.3486 24.5328 23.0777 24.4308 22.8694 24.2264C22.4505 23.8137 22.4443 23.1392 22.857 22.718C24.6257 20.9162 25.6002 18.5289 25.6002 15.9996C25.6002 10.8739 21.5535 6.71121 16.492 6.44944L16.755 6.71239C17.1717 7.12905 17.1717 7.80417 16.755 8.22086C16.5467 8.42919 16.2736 8.53336 16.0005 8.53336C15.7274 8.53336 15.4549 8.42919 15.2465 8.22086L13.1131 6.08738C12.6964 5.67072 12.6964 4.9956 13.1131 4.57891L15.2465 2.44543C15.6632 2.02877 16.3383 2.02877 16.755 2.44543C17.1717 2.8621 17.1717 3.53721 16.755 3.9539L16.4211 4.28836C22.6943 4.5119 27.7335 9.67287 27.7335 15.9995C27.7335 19.0912 26.5421 22.0096 24.3777 24.214C24.1688 24.4263 23.894 24.5327 23.617 24.5327L23.6172 24.5328Z" fill="white"/>
</svg>
