<svg width="31" height="36" viewBox="0 0 31 36" fill="none" xmlns="http://www.w3.org/2000/svg">
<path d="M29.2401 5.77657L15.5829 0.106987C15.2264 -0.0356622 14.8696 -0.0356622 14.5131 0.106987L0.855893 5.77657C0.320875 5.9904 0 6.48983 0 7.06045V13.9427C0 23.4277 5.74104 31.9505 14.5134 35.552C14.8342 35.6946 15.2266 35.6946 15.5831 35.552C24.3551 31.9504 30.0964 23.4277 30.0964 13.9427L30.0967 7.06045C30.0967 6.48984 29.74 5.99071 29.2408 5.77657H29.2401ZM20.4327 19.5769H16.7597V23.2496C16.7597 24.2123 15.9752 24.997 15.0123 24.997C14.0496 24.997 13.2649 24.2126 13.2649 23.2496L13.2652 19.5769H9.62798C8.66531 19.5769 7.88058 18.7924 7.88058 17.8295C7.88058 16.8668 8.66501 16.0821 9.62798 16.0821H13.3007V12.4452C13.3007 11.4825 14.0851 10.6978 15.0481 10.6978C16.0108 10.6978 16.7955 11.4822 16.7955 12.4452V16.1179H20.4682C21.4309 16.1179 22.2156 16.9023 22.2156 17.8653C22.1797 18.7924 21.3953 19.5768 20.4326 19.5768L20.4327 19.5769Z" fill="white"/>
</svg>
