<svg width="18" height="36" viewBox="0 0 18 36" fill="none" xmlns="http://www.w3.org/2000/svg">
<path d="M0.463659 6.27351C0.90992 6.5556 1.50041 6.42665 1.78798 5.9842C3.31765 3.4738 6.04481 1.94195 8.98459 1.94195C11.9243 1.94195 14.652 3.47369 16.1815 5.9842C16.3092 6.21285 16.5247 6.37955 16.7784 6.44615C17.0316 6.51275 17.3014 6.4733 17.525 6.33713C17.749 6.20054 17.9076 5.9791 17.9644 5.72332C18.0217 5.46752 17.9721 5.19986 17.8274 4.98139C15.9529 1.89403 12.6055 0.00642548 8.99385 1.83602e-05C5.38219 -0.00676885 2.02801 1.86862 0.142032 4.94914C-0.134549 5.40346 0.00967342 5.99607 0.463569 6.27346L0.463659 6.27351Z" fill="white"/>
<path d="M13.1789 8.6907C13.2679 8.93504 13.452 9.13272 13.6892 9.23962C13.9263 9.34609 14.1965 9.35246 14.4383 9.25701C14.6801 9.16157 14.8735 8.9728 14.9741 8.7327C15.0746 8.49303 15.0738 8.22282 14.9724 7.98357C14.3352 6.37799 13.0791 5.09646 11.4867 4.42751C9.89424 3.75854 8.0998 3.75854 6.50736 4.42751C4.91492 5.09648 3.65847 6.37799 3.02167 7.98357C2.84224 8.47479 3.087 9.01947 3.57355 9.21124C4.06011 9.40297 4.61072 9.17221 4.81523 8.69074C5.26276 7.57047 6.14172 6.67662 7.25439 6.21042C8.36706 5.74422 9.62014 5.74422 10.7328 6.21042C11.8455 6.67662 12.7244 7.57036 13.1724 8.69074L13.1789 8.6907Z" fill="white"/>
<path d="M11.8094 12.0204C11.8094 13.579 10.5457 14.8426 8.98721 14.8426C7.42865 14.8426 6.16504 13.5789 6.16504 12.0204C6.16504 10.4619 7.42876 9.19824 8.98721 9.19824C10.5458 9.19824 11.8094 10.462 11.8094 12.0204Z" fill="white"/>
<path d="M15.088 10.4839H12.5165C13.0361 11.6763 12.9203 13.0503 12.2072 14.1388C11.4946 15.2269 10.2814 15.8827 8.98075 15.8827C7.67978 15.8827 6.46656 15.2269 5.75385 14.1388C5.04119 13.0503 4.92496 11.6763 5.44502 10.4839H2.91215C2.13968 10.4839 1.39898 10.7906 0.85307 11.337C0.306706 11.8829 0 12.6236 0 13.396V32.6435C0 33.4155 0.306695 34.1566 0.85307 34.7025C1.39901 35.2485 2.13971 35.5556 2.91215 35.5556H15.0879C15.8599 35.5556 16.601 35.2485 17.1469 34.7025C17.6933 34.1566 18 33.4155 18 32.6435V13.396C18 12.6236 17.6933 11.8829 17.1469 11.337C16.601 10.7906 15.8599 10.4839 15.0879 10.4839H15.088ZM5.14307 31.9619C4.623 31.9619 4.15426 31.6488 3.95493 31.1682C3.75598 30.688 3.86627 30.1348 4.23363 29.7671C4.60141 29.3993 5.15457 29.2894 5.63473 29.4884C6.11535 29.6873 6.42883 30.1565 6.42883 30.6762C6.42883 31.0173 6.29309 31.3443 6.05213 31.5857C5.81076 31.8266 5.4837 31.962 5.14307 31.962V31.9619ZM5.14307 28.1046V28.105C4.623 28.105 4.15426 27.7915 3.95493 27.3113C3.75598 26.8307 3.86627 26.2775 4.23363 25.9098C4.60141 25.5424 5.15457 25.4321 5.63473 25.6311C6.11535 25.8304 6.42883 26.2992 6.42883 26.8192C6.42883 27.1603 6.29309 27.4869 6.05213 27.7283C5.81076 27.9692 5.4837 28.105 5.14307 28.105V28.1046ZM5.14307 24.2473V24.2477C4.623 24.2477 4.15426 23.9342 3.95493 23.454C3.75598 22.9734 3.86627 22.4207 4.23363 22.0529C4.60141 21.6851 5.15457 21.5753 5.63473 21.7742C6.11535 21.9732 6.42883 22.4419 6.42883 22.962C6.42883 23.3031 6.29309 23.6301 6.05213 23.8711C5.81076 24.1125 5.4837 24.2478 5.14307 24.2478V24.2473ZM9.00038 31.9618H8.99996C8.47988 31.9618 8.01114 31.6487 7.81214 31.1681C7.61319 30.6879 7.72306 30.1347 8.09084 29.767C8.45862 29.3992 9.01178 29.2893 9.49194 29.4883C9.97256 29.6872 10.2856 30.1564 10.2856 30.6761C10.2856 31.0172 10.1503 31.3442 9.90935 31.5856C9.66798 31.8265 9.34092 31.9618 8.99987 31.9618L9.00038 31.9618ZM9.00038 28.1045L8.99996 28.1049C8.47988 28.1049 8.01114 27.7914 7.81214 27.3112C7.61319 26.8306 7.72306 26.2774 8.09084 25.9097C8.45862 25.5423 9.01178 25.432 9.49194 25.631C9.97256 25.8303 10.2856 26.2991 10.2856 26.8191C10.2856 27.1602 10.1503 27.4868 9.90935 27.7282C9.66798 27.9691 9.34092 28.1049 8.99987 28.1049L9.00038 28.1045ZM9.00038 24.2472L8.99996 24.2476C8.47988 24.2476 8.01114 23.9341 7.81214 23.4539C7.61319 22.9733 7.72306 22.4205 8.09084 22.0528C8.45862 21.685 9.01178 21.5752 9.49194 21.7741C9.97256 21.973 10.2856 22.4418 10.2856 22.9619C10.2856 23.303 10.1503 23.63 9.90935 23.871C9.66798 24.1124 9.34092 24.2477 8.99987 24.2477L9.00038 24.2472ZM8.99996 20.1269H5.14308C4.43297 20.1269 3.85731 19.5513 3.85731 18.8412C3.85731 18.131 4.43296 17.5554 5.14308 17.5554H9.00039H8.99997C9.71008 17.5554 10.2857 18.131 10.2857 18.8412C10.2857 19.5513 9.71009 20.1269 8.99997 20.1269H8.99996ZM12.8573 31.9617V31.9612C12.3372 31.9612 11.8684 31.6482 11.6694 31.1676C11.4705 30.6874 11.5804 30.1342 11.9481 29.7665C12.3159 29.3987 12.8687 29.2888 13.3492 29.4878C13.8299 29.6867 14.1429 30.1559 14.1429 30.6756C14.1429 31.0166 14.0076 31.3437 13.7662 31.5851C13.5253 31.826 13.1982 31.9613 12.8572 31.9613L12.8573 31.9617ZM12.8573 28.1043C12.3372 28.1043 11.8684 27.7909 11.6694 27.3107C11.4705 26.83 11.5804 26.2769 11.9481 25.9091C12.3159 25.5418 12.8687 25.4315 13.3492 25.6304C13.8299 25.8298 14.1429 26.2985 14.1429 26.8186C14.1429 27.1596 14.0076 27.4863 13.7662 27.7276C13.5253 27.9686 13.1982 28.1043 12.8572 28.1043L12.8573 28.1043ZM12.8573 24.247C12.3372 24.247 11.8684 23.9336 11.6694 23.4534C11.4705 22.9727 11.5804 22.42 11.9481 22.0523C12.3159 21.6845 12.8687 21.5746 13.3492 21.7736C13.8299 21.9725 14.1429 22.4413 14.1429 22.9614C14.1429 23.3024 14.0076 23.6295 13.7662 23.8704C13.5253 24.1118 13.1982 24.2471 12.8572 24.2471L12.8573 24.247Z" fill="white"/>
</svg>
