<svg width="60" height="60" viewBox="0 0 60 60" fill="none" xmlns="http://www.w3.org/2000/svg">
<rect width="60" height="60" rx="8" fill="#8E1537"/>
<path fill-rule="evenodd" clip-rule="evenodd" d="M12 21.9998C12 16.4769 16.477 12 21.9998 12C27.5227 12 31.9997 16.4773 31.9997 21.9998C31.9997 27.5231 27.5223 32.0005 21.9998 32.0005C16.4766 32.0005 12 27.5232 12 21.9998V21.9998ZM21.9998 14.4999C17.8574 14.4999 14.4996 17.8577 14.4996 21.9998C14.4996 26.1423 17.8574 29.5001 21.9998 29.5001C26.1419 29.5001 29.5001 26.1423 29.5001 21.9998C29.5001 17.8577 26.1419 14.4999 21.9998 14.4999V14.4999Z" fill="white"/>
<path d="M19.4997 32.9719V40.751C19.4997 44.2028 22.2983 47.0011 25.7501 47.0011H35.75C39.2018 47.0011 42 44.2028 42 40.751V18.2503C42 16.179 40.3213 14.5002 38.25 14.5002H30.3852C31.0563 15.2499 31.6281 16.0899 32.0804 17.0002H38.25C38.9405 17.0002 39.5001 17.5598 39.5001 18.2504V40.7511C39.5001 42.8224 37.821 44.5012 35.75 44.5012H25.7502C23.6789 44.5012 22.0001 42.8224 22.0001 40.7511V33.2508C21.1406 33.2508 20.3039 33.1545 19.4998 32.972L19.4997 32.9719Z" fill="white"/>
<path d="M23.891 33.0926C24.0712 33.1932 24.2791 33.2506 24.5001 33.2506H28.2502C28.9404 33.2506 29.5004 32.691 29.5004 32.0008V30.386C27.9549 31.7692 26.025 32.7313 23.891 33.0926L23.891 33.0926Z" fill="white"/>
<path fill-rule="evenodd" clip-rule="evenodd" d="M32.661 25.603C32.8365 25.6971 33.0371 25.7502 33.2503 25.7502H37.0004C37.6906 25.7502 38.2502 25.1906 38.2502 24.5004V20.7503C38.2502 20.0597 37.6906 19.5001 37.0004 19.5001H33.2503C33.1566 19.5001 33.0655 19.5104 32.9781 19.5298C33.1562 20.325 33.2503 21.1515 33.2503 22.0001C33.2503 23.2601 33.0431 24.472 32.661 25.603V25.603ZM34.5001 23.2503V22.0001H35.7502V23.2503H34.5001Z" fill="white"/>
<path fill-rule="evenodd" clip-rule="evenodd" d="M24.5 34.5006C23.8098 34.5006 23.2499 35.0602 23.2499 35.7508V39.5009C23.2499 40.1911 23.8098 40.7507 24.5 40.7507H28.2501C28.9404 40.7507 29.5003 40.1911 29.5003 39.5009V35.7508C29.5003 35.0602 28.9404 34.5006 28.2501 34.5006H24.5ZM25.7502 38.2507V37.0005H27V38.2507H25.7502Z" fill="white"/>
<path fill-rule="evenodd" clip-rule="evenodd" d="M33.2506 27.0002C32.56 27.0002 32.0004 27.5598 32.0004 28.2504V32.0005C32.0004 32.6907 32.56 33.2503 33.2506 33.2503H37.0007C37.6909 33.2503 38.2505 32.6907 38.2505 32.0005V28.2504C38.2505 27.5598 37.6909 27.0002 37.0007 27.0002H33.2506ZM34.5004 30.7503V29.5002H35.7506V30.7503H34.5004Z" fill="white"/>
<path fill-rule="evenodd" clip-rule="evenodd" d="M33.2506 34.5006C32.56 34.5006 32.0004 35.0602 32.0004 35.7508V39.5009C32.0004 40.1911 32.56 40.7507 33.2506 40.7507H37.0007C37.6909 40.7507 38.2505 40.1911 38.2505 39.5009V35.7508C38.2505 35.0602 37.6909 34.5006 37.0007 34.5006H33.2506ZM34.5004 38.2507V37.0005H35.7506V38.2507H34.5004Z" fill="white"/>
<path d="M21.0968 25.3L18 22.2974L18.5945 21.7211L21.0968 24.1472L26.4055 19L27 19.5764L21.0968 25.3Z" fill="white" stroke="white"/>
</svg>
