<svg width="60" height="60" viewBox="0 0 60 60" fill="none" xmlns="http://www.w3.org/2000/svg">
<rect width="60" height="60" rx="8" fill="#8E1537"/>
<path d="M41.5512 19.5368C35.7595 13.6465 26.4663 13.5095 20.5059 19.023L19.1252 17.6189C18.5864 17.0709 17.7785 16.8655 17.0375 17.0709C16.2967 17.3107 15.7243 17.9271 15.5896 18.6804L14.0407 26.0092C13.906 26.7284 14.1079 27.4476 14.6131 27.9611C15.1183 28.4749 15.8255 28.6802 16.5323 28.5432L23.7384 27.0021C24.1425 26.8993 24.5128 26.6939 24.7822 26.42C25.018 26.1801 25.2199 25.872 25.321 25.5296C25.5229 24.7763 25.321 23.9543 24.7822 23.4064L23.469 22.0708C27.8129 18.1671 34.4123 18.3383 38.5539 22.5505C42.8639 26.9338 42.8639 34.0567 38.5539 38.4403C34.244 42.8239 27.2402 42.8239 22.9301 38.4403C21.5494 37.0361 20.5729 35.2897 20.068 33.3719C19.7649 32.2418 18.6201 31.5568 17.5089 31.8652C16.3976 32.1734 15.7241 33.3377 16.0274 34.4679C16.7009 37.1048 18.0813 39.5362 20.0008 41.4539C25.9608 47.5154 35.6246 47.5154 41.585 41.4539C47.4773 35.4265 47.4773 25.5641 41.5512 19.5368L41.5512 19.5368Z" fill="white"/>
</svg>
