<svg width="60" height="60" viewBox="0 0 60 60" fill="none" xmlns="http://www.w3.org/2000/svg">
<rect width="60" height="60" rx="8" fill="#8E1537"/>
<path d="M17.5669 11.0755C17.1981 11.2184 17.1605 11.3915 17.1605 12.8213V14.1607H15.7985H14.4365L14.2182 14.3789L14 14.5972V29.0979C14 38.8955 14.0226 43.6438 14.0753 43.7416C14.2784 44.1179 14.1355 44.1104 20.8102 44.1104C26.6947 44.1104 27.0258 44.1179 26.9882 44.2383C26.8151 44.8553 26.6421 46.7667 26.6421 48.0309C26.6421 49.0016 26.6496 49.0844 26.8151 49.265C27.0334 49.5209 27.4698 49.5961 27.7332 49.423C27.8536 49.3403 28.0568 49.0242 28.2524 48.5953C29.321 46.3001 30.7583 45.1864 33.234 44.7199C34.2725 44.5242 35.4765 44.4114 36.5601 44.4114H37.4029V45.2391C37.4029 46.0217 37.4179 46.0819 37.5835 46.255C37.8017 46.4732 38.0876 46.556 38.336 46.4657C38.5843 46.3829 44.7925 40.9047 44.9279 40.6488C45.0558 40.408 45.0107 40.0694 44.815 39.8361C44.7097 39.7157 43.8292 38.9106 42.8585 38.0452L41.0901 36.48V26.2836V16.0796L38.5467 13.5437L36.0107 11.0002L26.8678 11.0077C21.8411 11.0077 17.6496 11.0378 17.5669 11.0755ZM34.9949 14.5671V16.6289L35.1905 16.8622L35.3862 17.0955H37.4856H39.5851V26.0954C39.5851 34.8997 39.5851 35.0954 39.4422 34.9975C39.3669 34.9373 39.0885 34.7116 38.8251 34.4858C38.3886 34.1171 38.3284 34.087 38.0575 34.1246C37.5007 34.1999 37.448 34.3278 37.4029 35.592L37.3652 36.6982L36.1913 36.7885C33.5425 36.9917 31.8193 37.4808 30.3971 38.4515C30.0885 38.6547 29.7048 38.9632 29.5392 39.1363L29.2382 39.4373L23.9556 39.4448H18.6655V25.975V12.5052H26.8302H34.9949V14.5671ZM37.5157 14.6122L38.494 15.5905H37.4932H36.4999V14.6122C36.4999 14.0704 36.5074 13.634 36.5224 13.634C36.53 13.634 36.9815 14.0704 37.5157 14.6122ZM17.1605 28.0745V40.4908L17.3411 40.7015L17.5217 40.9122L22.8043 40.9348C26.9506 40.9498 28.0793 40.9724 28.0492 41.0477C27.7633 41.7023 27.4773 42.3721 27.4472 42.4699C27.4021 42.5978 27.0484 42.6054 21.4498 42.6054H15.505V29.1355V15.6657H16.3328H17.1605V28.0745ZM41.2256 38.6096C42.4446 39.6932 43.0993 40.3253 43.0542 40.3704C43.0165 40.408 42.0759 41.2433 40.9622 42.2291L38.9455 44.0201L38.8627 43.5987C38.7197 42.8838 38.7423 42.8913 36.4999 42.9365C35.4464 42.959 34.3101 43.0117 33.979 43.0569C31.5634 43.388 30.0058 44.0426 28.6588 45.2993C28.4556 45.4874 28.2976 45.6003 28.2976 45.5627C28.2976 45.5175 28.3502 45.1864 28.4104 44.8177C28.8469 42.2818 29.9079 40.4607 31.5032 39.5126C32.8427 38.7149 34.4455 38.3462 36.9288 38.2634C38.0651 38.2258 38.3435 38.1957 38.5241 38.0828C38.7875 37.9248 38.9079 37.5711 38.9079 36.9766V36.5703L39.1186 36.7509C39.2314 36.8412 40.1796 37.684 41.2256 38.6096Z" fill="white"/>
<path d="M23.143 19.1571C22.8872 19.413 22.8345 19.6914 22.985 20.0075C23.2183 20.5041 23.0377 20.4891 28.9824 20.4665L34.3327 20.4439L34.551 20.1956C34.852 19.8645 34.852 19.4958 34.551 19.1948L34.3327 18.9765H28.8244H23.3236L23.143 19.1571Z" fill="white"/>
<path d="M23.4064 23.7703C23.1957 23.8456 22.9624 24.109 22.9172 24.3272C22.857 24.6056 23.0527 25.027 23.301 25.1399C23.4365 25.2001 25.0167 25.2227 28.9072 25.2227H34.3327L34.5509 25.0044C34.9046 24.6508 34.7993 24.0111 34.3553 23.8079C34.2123 23.7402 32.8127 23.7176 28.8394 23.7252C25.9122 23.7252 23.4666 23.7477 23.4064 23.7703Z" fill="white"/>
<path d="M23.158 28.7142C22.7742 29.0678 22.8194 29.572 23.2558 29.873L23.5117 30.0386L28.9222 30.0235L34.3327 30.0009L34.5509 29.7526C34.8519 29.4215 34.8519 29.0528 34.5509 28.7518L34.3327 28.5336H28.8394H23.3536L23.158 28.7142Z" fill="white"/>
<path d="M23.2558 33.4398C22.8194 33.7408 22.7742 34.245 23.158 34.5987L23.3536 34.7793H28.8394H34.3327L34.5509 34.5611C34.8519 34.2601 34.8519 33.8913 34.5509 33.5602L34.3327 33.3119L28.9222 33.2893L23.5117 33.2743L23.2558 33.4398Z" fill="white"/>
</svg>
