<svg width="31" height="31" viewBox="0 0 31 31" fill="none" xmlns="http://www.w3.org/2000/svg">
<path d="M11.8831 1.03345C11.8831 0.462592 11.4208 0 10.8496 0H9.81617C9.24531 0 8.78271 0.462305 8.78271 1.03345V1.55003H11.8827L11.8831 1.03345Z" fill="white"/>
<path d="M6.20041 7.75049H4.13379V12.9171H16.5337L16.5334 7.75049H14.4668V9.30049C14.4668 10.155 13.7713 10.8505 12.9168 10.8505L7.75014 10.8502C6.89565 10.8502 6.20014 10.1547 6.20014 9.30022L6.20041 7.75049Z" fill="white"/>
<path d="M7.23291 6.71729H13.433V7.75074H7.23291V6.71729Z" fill="white"/>
<path d="M7.75097 9.81712H12.9176C13.2023 9.81712 13.4342 9.58502 13.4342 9.30054V8.78396L7.23438 8.78369V9.30027C7.23438 9.58502 7.46621 9.81712 7.75095 9.81712H7.75097Z" fill="white"/>
<path d="M7.23291 4.65039H13.433V5.68384H7.23291V4.65039Z" fill="white"/>
<path d="M13.4327 3.10035C13.4327 2.8156 13.2006 2.58377 12.9161 2.58377L7.74949 2.5835C7.46474 2.5835 7.23291 2.8156 7.23291 3.10008V3.61665H13.433L13.4327 3.10035Z" fill="white"/>
<path d="M19.1168 28.4165H1.55C0.695508 28.4165 0 29.112 0 29.9665V30.4831H20.6669V29.9665C20.6669 29.112 19.9714 28.4165 19.1169 28.4165H19.1168Z" fill="white"/>
<path d="M30.9998 17.0499V16.0165H28.9332V15.4999H26.8666C25.9065 15.4999 25.1041 16.1607 24.8733 17.0499H24.2831C23.9984 17.0499 23.7666 16.8183 23.7666 16.5333V13.4333C23.7666 12.5788 23.071 11.8833 22.2165 11.8833C21.3621 11.8833 20.6665 12.5788 20.6665 13.4333V20.667C20.6665 20.9523 20.4344 21.1836 20.15 21.1836H18.6V7.2336C18.6 6.3791 17.9045 5.68359 17.05 5.68359H14.4665V6.71705H16.5331C17.1029 6.71705 17.5666 7.18044 17.5666 7.7505V12.9171C17.5666 13.4869 17.1032 13.9506 16.5331 13.9506L4.13324 13.9503C3.56347 13.9503 3.09979 13.4869 3.09979 12.9169V7.7505C3.09979 7.18073 3.56318 6.71705 4.13324 6.71705H6.19987V5.6836H3.61641C2.76191 5.6836 2.06641 6.3791 2.06641 7.2336V27.3839H18.5998L18.6001 22.2172H20.1501C21.0046 22.2172 21.7001 21.5217 21.7001 20.6672V13.4335C21.7001 13.1488 21.9322 12.917 22.2167 12.917C22.5014 12.917 22.7333 13.1491 22.7333 13.4335V16.5336C22.7333 17.388 23.4288 18.0836 24.2833 18.0836H24.8732C25.1042 18.9727 25.9067 19.6336 26.8665 19.6336H28.9331V19.117H30.9997V18.0835H28.9331V17.0501L30.9998 17.0499ZM12.9164 16.5333C12.9164 15.9625 13.3787 15.4999 13.9498 15.4999H14.9833C15.5541 15.4999 16.0167 15.9622 16.0167 16.5333V18.6C16.0167 19.1708 15.5544 19.6334 14.9833 19.6334H13.9498C13.3789 19.6334 12.9164 19.1711 12.9164 18.6V16.5333ZM4.64999 16.5333C4.64999 15.9625 5.1123 15.4999 5.68345 15.4999H6.7169C7.28776 15.4999 7.75035 15.9622 7.75035 16.5333V18.6C7.75035 19.1708 7.28804 19.6334 6.7169 19.6334H5.68345C5.11259 19.6334 4.64999 19.1711 4.64999 18.6V16.5333ZM17.0499 25.8338H3.61661V23.7672H17.0499V25.8338Z" fill="white"/>
<path d="M29.2099 21.9768L28.4792 21.2461C27.8748 21.8505 26.8915 21.8505 26.2868 21.2461L25.5562 21.9768C26.0599 22.4806 26.7214 22.7323 27.383 22.7323C28.0455 22.732 28.7061 22.4805 29.2099 21.9768Z" fill="white"/>
<path d="M24.8259 22.708L24.0952 23.4387C25.0015 24.3456 26.1924 24.7987 27.3832 24.7987C28.574 24.7987 29.7645 24.3456 30.6712 23.4387L29.941 22.708C28.5307 24.1181 26.2366 24.1181 24.8259 22.708Z" fill="white"/>
<path d="M25.5562 13.1566L26.2869 13.8873C26.8913 13.2834 27.8745 13.2834 28.4792 13.8873L29.2099 13.1566C28.2026 12.1496 26.5637 12.1496 25.5562 13.1566Z" fill="white"/>
<path d="M27.3832 11.3669C28.3493 11.3669 29.2572 11.7431 29.9407 12.426L30.6714 11.6953C29.7929 10.8171 28.6253 10.3335 27.3832 10.3335C26.1411 10.3335 24.9734 10.8171 24.0952 11.6953L24.8259 12.426C25.5091 11.7431 26.4171 11.3669 27.3832 11.3669Z" fill="white"/>
</svg>
