<svg width="60" height="60" viewBox="0 0 60 60" fill="none" xmlns="http://www.w3.org/2000/svg">
<rect width="60" height="60" rx="8" fill="#8E1537"/>
<path d="M31.5929 12.5634C28.1724 12.9885 25.3405 14.872 23.7186 17.802C23.7121 17.8085 23.4635 17.7235 23.1627 17.6189C22.3517 17.3311 21.508 17.2134 20.6055 17.2526C20.1935 17.2788 19.7422 17.3246 19.6114 17.3638C19.1013 17.5142 18.9443 18.0374 19.2909 18.4233C19.4806 18.6326 19.4937 18.6391 19.8992 18.6064C20.1281 18.5868 20.6644 18.5803 21.096 18.5803C21.9724 18.5933 22.6918 18.7634 23.4177 19.1296C23.8494 19.3454 24.1633 19.3781 24.3791 19.2277C24.4642 19.1689 24.6669 18.8549 24.837 18.5279C26.0338 16.2127 28.264 14.5516 30.9389 13.9826C31.7106 13.8191 33.4372 13.8191 34.2024 13.9826C36.0467 14.375 37.4921 15.1467 38.7543 16.4155C40.3762 18.0309 41.2003 19.9341 41.3311 22.3474C41.3834 23.3153 41.4227 23.3872 41.9851 23.5507C42.4495 23.6815 42.6522 23.7862 42.953 24.0543C43.1754 24.2505 43.5613 24.7803 43.5613 24.898C43.5613 24.9242 41.9524 24.9503 39.9904 24.9503H36.426L35.8243 24.5514C32.8224 22.5632 29.003 22.0792 25.5956 23.2564C24.6996 23.5704 23.6401 24.087 22.8945 24.5841L22.3517 24.9503L18.8462 24.9372L15.3407 24.9176L15.3211 24.2701C15.3015 23.4657 15.4192 22.7855 15.7266 22.0138C15.8574 21.6999 15.962 21.3729 15.962 21.2879C15.962 21.0851 15.5565 20.6992 15.3473 20.6992C15.0464 20.6992 14.8437 20.8431 14.6736 21.1832C14.242 22.04 14 23.1125 14 24.159C14.0065 25.1204 14.1373 25.8398 14.3597 26.0556L14.5232 26.2256L17.6952 26.2453L20.8671 26.2649L20.3243 26.932C20.03 27.2982 19.6703 27.7822 19.5264 28.0111C19.389 28.2334 19.2582 28.3969 19.2321 28.3708C19.2059 28.3446 19.1209 28.1288 19.0359 27.8934C18.7939 27.2001 18.4407 26.9712 17.9895 27.2067C17.5513 27.4356 17.5578 27.6318 18.0941 29.2014C18.5715 30.5944 18.7154 30.8364 19.1078 30.8364C19.219 30.8364 19.9123 30.6467 20.6578 30.4113C22.1882 29.9339 22.3386 29.8423 22.3386 29.391C22.3386 29.1687 22.2994 29.0902 22.1228 28.9332C21.8612 28.6978 21.7304 28.6978 20.9979 28.9332C20.6774 29.0379 20.4093 29.1033 20.4093 29.0902C20.4093 29.0706 20.5728 28.8155 20.769 28.5212C23.2869 24.7868 27.937 23.0995 32.2469 24.3421C34.5228 24.9961 36.7072 26.5788 37.9695 28.482C38.3553 29.064 38.9113 30.0974 39.0094 30.4244C39.114 30.7579 39.6372 30.9476 39.9708 30.771C40.1212 30.686 40.2912 30.3721 40.2912 30.1693C40.2912 29.947 39.5849 28.5408 39.1271 27.8476C38.9113 27.5206 38.5385 27.0235 38.2965 26.7554L37.8648 26.2583H41.1807C44.1499 26.2583 44.5096 26.2453 44.6731 26.1472C45.0132 25.951 45.0851 25.5585 44.902 24.8588C44.6535 23.9039 43.8817 22.9425 43.0511 22.5501L42.6587 22.367L42.6195 21.8111C42.3448 18.3317 40.2062 15.1729 37.0669 13.5902C36.3345 13.2239 35.1442 12.825 34.3724 12.6876C33.8034 12.583 32.0572 12.5045 31.5929 12.5634Z" fill="white"/>
<path d="M16.9039 18.5346C16.7077 18.6196 16.4854 18.9205 16.4854 19.1101C16.4854 19.1952 16.5311 19.3521 16.5835 19.4568C16.8712 20.0127 17.6887 19.8492 17.7738 19.2213C17.7999 18.9924 17.7803 18.9205 17.6233 18.7439C17.4206 18.5281 17.1263 18.4431 16.9039 18.5346Z" fill="white"/>
<path d="M26.256 27.043C25.9356 27.1738 25.9029 27.3111 25.9029 28.6519V29.9076L24.8041 29.9337C23.555 29.9533 23.4111 30.0057 23.2934 30.4242C23.2476 30.5877 23.2214 32.02 23.2214 34.4202C23.2214 38.5274 23.2214 38.5143 23.6073 38.7105C23.7643 38.7956 24.0259 38.8152 24.8565 38.8152H25.9029V40.097V41.3789L26.0925 41.5686C26.4653 41.9414 27.067 41.7517 27.1717 41.2285C27.1913 41.1108 27.2109 40.5287 27.2109 39.9205V38.8152H27.963H28.7151V40.0316C28.7151 40.7968 28.7413 41.2939 28.7871 41.3854C28.9963 41.7975 29.513 41.889 29.8335 41.5686L30.0231 41.3789V40.097V38.8152H30.808H31.5928V40.097V41.3789L31.7824 41.5686C31.9263 41.7059 32.0375 41.7582 32.2141 41.7582C32.8223 41.7582 32.9008 41.5555 32.9008 40.0316V38.8217L34.0191 38.8021L35.1375 38.7825L35.3272 38.5667L35.5168 38.3574V34.3745C35.5168 30.4635 35.5168 30.3915 35.386 30.228C35.1898 29.9795 34.8824 29.9206 33.836 29.9206H32.9073L32.8877 28.6388L32.8681 27.3569L32.6523 27.1673C32.5345 27.0626 32.3645 26.9776 32.2729 26.9776C32.0571 26.9776 31.7432 27.1411 31.6582 27.2981C31.6189 27.3765 31.5928 27.9455 31.5928 28.6715V29.9206H30.808H30.0231V28.6715C30.0231 27.9455 29.997 27.3765 29.9577 27.2981C29.8727 27.1411 29.5588 26.9776 29.343 26.9776C29.2514 26.9776 29.0814 27.0626 28.9636 27.1673L28.7478 27.3569L28.7282 28.6388L28.7086 29.9206H27.963H27.224L27.1978 28.6388L27.1782 27.3569L26.9624 27.1673C26.7466 26.9711 26.5242 26.9318 26.256 27.043ZM34.2088 34.3679V37.5072L29.3888 37.4941L24.5622 37.4745L24.5425 34.4333C24.536 32.759 24.5425 31.3529 24.5622 31.3071C24.5818 31.2483 25.6151 31.2287 29.4018 31.2287H34.2088V34.3679Z" fill="white"/>
<path d="M18.781 37.8736C18.5521 38.0371 18.454 38.3314 18.5259 38.6127C18.6502 39.0639 19.1668 40.0515 19.69 40.8297C20.5599 42.1378 21.8614 43.4 23.189 44.2241C28.65 47.6315 35.8179 45.9899 39.2776 40.5485L39.5262 40.1561L39.742 40.7774C39.8793 41.1829 40.0101 41.4445 40.1279 41.5426C40.5072 41.8696 41.1416 41.6015 41.1416 41.111C41.1416 40.8951 40.3437 38.3707 40.1736 38.0502C40.0494 37.8213 39.7355 37.7363 39.3823 37.8278C38.3228 38.1091 36.5962 38.7173 36.4523 38.8546C36.2234 39.0835 36.243 39.4825 36.4916 39.7375C36.7335 39.9795 36.8905 39.9795 37.6753 39.731C38.0154 39.6264 38.3032 39.5479 38.3163 39.561C38.349 39.6002 38.0285 40.0973 37.6099 40.6466C37.1783 41.2091 36.1973 42.177 35.6021 42.6283C33.1627 44.4857 29.8795 45.1397 26.8515 44.3745C23.8365 43.6158 21.3185 41.5426 19.9778 38.7042C19.7881 38.3053 19.5658 37.9325 19.4808 37.8736C19.2911 37.7363 18.9772 37.7428 18.781 37.8736Z" fill="white"/>
</svg>
