<svg width="30" height="30" viewBox="0 0 30 30" fill="none" xmlns="http://www.w3.org/2000/svg">
<path d="M4.99697 0C2.24557 0 0 2.24557 0 4.99697V25.005C0 27.7561 2.24557 30 4.99697 30H25.005C27.7561 30 30 27.7561 30 25.005V4.99697C30 2.24557 27.7561 0 25.0048 0H4.99697ZM11.2334 5.36691C11.4873 5.36939 11.729 5.47455 11.9037 5.65841C12.0787 5.84226 12.1715 6.08922 12.1611 6.34287C12.1507 6.59626 12.0378 6.83479 11.8485 7.00383L8.18089 10.3602H8.18114C8.00595 10.5188 7.7773 10.6054 7.54102 10.6027C7.30471 10.6 7.07829 10.5082 6.90679 10.3456L5.19099 8.72676C4.94874 8.4954 4.84802 8.15243 4.92721 7.82705C5.00614 7.50141 5.25285 7.24282 5.57455 7.14854C5.89598 7.05426 6.24317 7.13864 6.48566 7.37001L7.55685 8.38799L10.5817 5.61955C10.737 5.47455 10.9372 5.3867 11.1493 5.37037C11.1773 5.3679 11.2055 5.36691 11.2334 5.36691L11.2334 5.36691ZM14.6502 7.0461H24.1604V7.04586C24.4125 7.04017 24.6565 7.13642 24.8369 7.31285C25.0173 7.48928 25.119 7.73104 25.119 7.98344C25.119 8.23559 25.0173 8.47734 24.8369 8.65377C24.6565 8.8302 24.4126 8.92646 24.1604 8.92076H14.6502C14.398 8.92646 14.154 8.8302 13.9736 8.65377C13.7932 8.47734 13.6915 8.23558 13.6915 7.98344C13.6915 7.73104 13.7932 7.48928 13.9736 7.31285C14.154 7.13642 14.398 7.04016 14.6502 7.04586V7.0461ZM11.2388 12.3818V12.3815C11.4925 12.385 11.734 12.4909 11.9081 12.6755C12.0824 12.8599 12.1742 13.1071 12.163 13.3604C12.1519 13.6138 12.0383 13.8518 11.8485 14.0204L8.18087 17.3767L8.18112 17.3765C8.00617 17.5353 7.77778 17.6224 7.54145 17.62C7.30513 17.6175 7.07847 17.5262 6.90671 17.3638L5.19091 15.7453V15.745C5.00977 15.5735 4.90412 15.337 4.89743 15.0876C4.89075 14.8379 4.98355 14.5961 5.15552 14.415C5.32725 14.2341 5.56381 14.1287 5.8135 14.1223C6.06293 14.1158 6.30469 14.2089 6.48555 14.3811L7.55674 15.4045L10.5815 12.6378C10.759 12.47 10.9948 12.378 11.2388 12.3814L11.2388 12.3818ZM14.6502 14.0627H24.1604V14.0624C24.4125 14.0568 24.6565 14.153 24.8369 14.3294C25.0173 14.5059 25.119 14.7476 25.119 14.9998C25.119 15.2522 25.0173 15.4939 24.8369 15.6704C24.6565 15.8465 24.4126 15.943 24.1604 15.9373H14.6502C14.398 15.943 14.154 15.8465 13.9736 15.6704C13.7932 15.4939 13.6915 15.2522 13.6915 14.9998C13.6915 14.7476 13.7932 14.5059 13.9736 14.3294C14.154 14.153 14.398 14.0567 14.6502 14.0624V14.0627ZM11.2537 19.3947V19.3945C11.5073 19.3999 11.7479 19.5083 11.9203 19.6941C12.0928 19.8802 12.1826 20.1281 12.169 20.3815C12.1556 20.6349 12.0401 20.872 11.8486 21.0388L8.18091 24.3877H8.18116C8.00695 24.5473 7.7788 24.6352 7.5425 24.6337C7.30618 24.6324 7.07903 24.5419 6.90681 24.3803L5.19101 22.7617V22.7615C5.00987 22.59 4.90422 22.3534 4.89754 22.1037C4.89085 21.8543 4.98365 21.6126 5.15562 21.4315C5.32735 21.2506 5.56391 21.1452 5.8136 21.1387C6.06303 21.1323 6.30479 21.2253 6.48565 21.3973L7.55684 22.4153L10.5816 19.654V19.6542C10.736 19.5065 10.9362 19.4162 11.1493 19.3979C11.1839 19.3947 11.2188 19.3937 11.2537 19.3944L11.2537 19.3947ZM14.5606 21.0811L14.5603 21.0808C14.5903 21.0793 14.6202 21.0793 14.6502 21.0808H24.1604C24.4126 21.0751 24.6565 21.1714 24.8369 21.3478C25.0173 21.5242 25.119 21.766 25.119 22.0181C25.119 22.2705 25.0173 22.5123 24.8369 22.6887C24.6566 22.8652 24.4126 22.9614 24.1604 22.9557H14.6502C14.3198 22.9641 14.0096 22.7983 13.8329 22.519C13.6564 22.2398 13.6396 21.8882 13.7886 21.5935C13.9378 21.2986 14.231 21.1038 14.5604 21.0808L14.5606 21.0811Z" fill="white"/>
</svg>
