<svg width="57" height="39" viewBox="0 0 57 39" fill="none" xmlns="http://www.w3.org/2000/svg">
<path fill-rule="evenodd" clip-rule="evenodd" d="M11.0729 2.85921C11.9808 1.7611 13.796 1.21231 15.1572 1.02934C24.2335 -0.343115 32.7658 -0.343115 41.8421 1.02934C43.113 1.21228 45.019 1.7611 45.8357 2.85921C46.8343 6.15301 47.7417 9.44693 48.6496 12.8322C49.1033 12.4663 49.6482 12.2834 50.2833 12.2834H54.1861C55.8199 12.2834 57 13.5645 57 15.1199C57 16.5839 55.7291 17.865 54.1861 17.865H52.3708C52.9153 19.0545 53.3695 20.7015 53.3695 23.1716C53.4602 27.9295 53.4602 32.6868 53.4602 37.4446C53.4602 38.3598 52.7343 39 51.9172 39H44.8376C44.021 39 43.2946 38.3597 43.2946 37.4446V35.5232H13.7054V37.4446C13.7054 38.3598 12.9795 39 12.0716 39H5.08281C4.17494 39 3.44905 38.3597 3.44905 37.4446C3.44905 32.6867 3.53979 27.9293 3.53979 23.1716C3.53979 20.7015 3.99349 19.0545 4.5384 17.865H2.72314C1.27088 17.865 0 16.5839 0 15.1199C0 13.5645 1.18009 12.2834 2.72314 12.2834H6.71667C7.26111 12.2834 7.80603 12.4663 8.25969 12.8322C9.16756 9.44693 10.0743 6.15301 11.0729 2.85921ZM22.0552 27.8369H34.9434C35.76 27.8369 36.3956 28.4772 36.3956 29.3009C36.3956 30.1241 35.7604 30.7648 34.9434 30.7648H22.0552C21.2386 30.7648 20.603 30.1245 20.603 29.3009C20.603 28.4776 21.2382 27.8369 22.0552 27.8369ZM13.7048 4.14043C12.9789 6.88547 12.2525 9.7215 11.4358 12.558C22.5089 11.3684 34.3992 11.3684 45.4723 12.558C44.7464 9.7215 43.9293 6.88547 43.2033 4.14043C33.4913 2.40204 23.5081 2.40204 13.7048 4.14043ZM44.9273 19.6036C43.2028 19.6036 41.7504 20.9761 41.7504 22.7146C41.7504 24.453 43.2027 25.917 44.9273 25.917C46.6518 25.917 48.0135 24.4531 48.0135 22.7146C48.0135 20.9762 46.652 19.6036 44.9273 19.6036ZM12.0703 19.6036C13.7948 19.6036 15.1565 20.9761 15.1565 22.7146C15.1565 24.453 13.795 25.917 12.0703 25.917C10.3457 25.917 8.98418 24.4531 8.98418 22.7146C8.98418 20.9762 10.3457 19.6036 12.0703 19.6036Z" fill="white"/>
</svg>
