<svg width="15" height="20" viewBox="0 0 15 20" fill="none" xmlns="http://www.w3.org/2000/svg">
<path d="M9.48148 15.8145H4.54102V17.9141H6.01187V19.0903H8.01121V17.9141H9.48144L9.48148 15.8145Z" fill="#7D7D7D"/>
<path d="M14.0227 5.86278H11.2102L11.2104 0.926506C11.2104 0.414924 10.7956 0.000163228 10.284 0.000163228C9.77244 0.000163228 9.35769 0.414912 9.35769 0.926506V5.86278L4.66431 5.86261V0.926342C4.66431 0.41476 4.24956 0 3.73797 0C3.22605 0 2.81162 0.414748 2.81162 0.926342V5.86261L0 5.86245V7.96373H1.02434L1.0245 11.7523C1.0245 13.6558 2.56764 15.199 4.47079 15.199H9.55137C11.4549 15.199 12.9977 13.6558 12.9977 11.7523V7.96402H14.0227V5.86241L14.0227 5.86278ZM5.75892 13.8199L6.36015 11.226H5.5164L6.1173 8.63216L8.3654 8.6551L7.36993 11.226H8.50569L5.75892 13.8199Z" fill="#7D7D7D"/>
</svg>
