<svg width="47" height="46" viewBox="0 0 47 46" fill="none" xmlns="http://www.w3.org/2000/svg">
<path d="M39.2363 30.3524C37.8435 30.355 36.4772 30.7324 35.2803 31.4448C34.0838 32.1573 33.1011 33.1787 32.435 34.4022C31.3457 36.406 31.1937 38.7881 32.0199 40.9137C32.8461 43.0399 34.5663 44.6943 36.723 45.4369C38.8796 46.1795 41.2537 45.9346 43.2136 44.7678C45.1735 43.6004 46.5198 41.6298 46.8947 39.3802C47.2695 37.1302 46.6346 34.8291 45.1592 33.09C43.6837 31.3504 41.5173 30.3493 39.2362 30.3523L39.2363 30.3524ZM38.507 43.0894L34.624 38.8351L36.2008 37.4005L38.408 39.8367L43.206 34.0622L44.8385 35.4285L38.507 43.0894Z" fill="white"/>
<path d="M29.3634 38.118C29.37 35.2748 30.5996 32.5714 32.739 30.6986C28.834 27.627 23.936 26.0986 18.9769 26.4036C14.0178 26.7085 9.34425 28.8261 5.84544 32.3531C2.34664 35.8801 0.265684 40.5701 0 45.5315H32.7203C30.5896 43.6569 29.3665 40.9569 29.363 38.1184L29.3634 38.118Z" fill="white"/>
<path d="M20.2309 22.7905C23.2527 22.7869 26.1488 21.5838 28.2837 19.4455C30.4181 17.3071 31.6159 14.4083 31.614 11.3866C31.6114 8.36533 30.4094 5.46866 28.272 3.33274C26.1341 1.19747 23.2358 -0.00104378 20.2146 6.82081e-07C17.1929 0.00102073 14.2957 1.20204 12.1594 3.33888C10.0236 5.47571 8.82349 8.37343 8.82349 11.3952C8.82349 14.4194 10.0255 17.3197 12.1655 19.4571C14.3049 21.5944 17.2067 22.7935 20.2309 22.7904V22.7905Z" fill="white"/>
</svg>
