<svg width="52" height="41" viewBox="0 0 52 41" fill="none" xmlns="http://www.w3.org/2000/svg">
<path d="M27.0389 10.3544C27.0389 15.6378 22.7559 19.9204 17.4729 19.9204C12.19 19.9204 7.90698 15.6378 7.90698 10.3544C7.90698 5.07145 12.19 0.788452 17.4729 0.788452C22.7559 0.788452 27.0389 5.07145 27.0389 10.3544Z" fill="white"/>
<path d="M26.4903 10.3542C26.4738 14.0798 24.1149 17.5393 20.5905 18.8246C18.8009 19.4754 16.8323 19.5565 14.9942 19.0362C13.2262 18.5374 11.6593 17.4907 10.4876 16.0805C8.06919 13.1683 7.79258 8.90047 9.74467 5.67957C11.6913 2.46372 15.5635 0.750264 19.2566 1.50926C22.9441 2.26868 25.8073 5.28888 26.3876 8.99803C26.4632 9.44324 26.4902 9.89897 26.4902 10.3542C26.4957 11.0536 27.5803 11.0536 27.5748 10.3542C27.5638 8.27198 26.9294 6.20031 25.7093 4.50843C24.5106 2.838 22.8461 1.56378 20.9155 0.853332C16.9622 -0.600052 12.3421 0.663706 9.67959 3.91711C8.35636 5.53852 7.55386 7.50712 7.39123 9.59486C7.22863 11.672 7.73292 13.7978 8.81202 15.5763C9.85312 17.2953 11.4205 18.7105 13.2535 19.5406C15.2002 20.4191 17.3748 20.6738 19.4736 20.2565C23.5355 19.454 26.8163 16.0486 27.4397 11.9597C27.5213 11.4284 27.5698 10.8916 27.5698 10.3547C27.5803 9.65486 26.4957 9.65486 26.4902 10.3543L26.4903 10.3542Z" fill="white"/>
<path d="M46.2448 13.9049C46.2448 17.8495 43.0469 21.0469 39.1027 21.0469C35.1581 21.0469 31.9607 17.8494 31.9607 13.9049C31.9607 9.96075 35.1583 6.76331 39.1027 6.76331C43.0469 6.76331 46.2448 9.96087 46.2448 13.9049Z" fill="white"/>
<path d="M45.7027 13.9063C45.6862 16.6284 43.9672 19.1663 41.3863 20.0993C38.7562 21.0483 35.8006 20.2404 34.0056 18.0982C32.2321 15.978 32.0264 12.8487 33.4523 10.4898C34.8621 8.15247 37.6822 6.88376 40.3718 7.42607C43.0833 7.96838 45.182 10.1646 45.6262 12.8922C45.6862 13.2284 45.7027 13.5701 45.7027 13.9062C45.7082 14.6057 46.7929 14.6057 46.7874 13.9062C46.7709 10.6849 44.7322 7.78926 41.7115 6.67767C38.7233 5.58206 35.2148 6.5366 33.1977 8.99851C31.153 11.4929 30.8443 15.0885 32.5198 17.865C34.1952 20.6417 37.4926 22.068 40.6594 21.4281C43.7232 20.8152 46.2125 18.2288 46.6844 15.132C46.7439 14.7253 46.7819 14.3131 46.7874 13.9009C46.7925 13.2069 45.7079 13.2069 45.7028 13.9064L45.7027 13.9063Z" fill="white"/>
<path d="M33.8588 34.1118V38.0215C33.8588 39.2633 32.8283 40.2667 31.5865 40.2667H3.35019C2.10845 40.2667 1.10498 39.2637 1.10498 38.0219V34.1121C1.10498 28.0872 5.99126 23.1849 12.0157 23.1849H22.9265C25.4104 23.1849 27.7092 24.0199 29.5478 25.4192C32.1563 27.4149 33.8593 30.5652 33.8593 34.1118H33.8588Z" fill="white"/>
<path d="M33.2908 34.1107V37.6737C33.2908 37.8363 33.3018 38.0044 33.2853 38.1725C33.2473 38.6282 33.0141 39.0565 32.6615 39.3491C32.3308 39.6203 31.924 39.7289 31.5008 39.7289C29.9659 39.7344 28.4315 39.7289 26.8967 39.7289H18.0902H9.02854H3.65448H3.35081C2.50483 39.7179 1.76739 39.1 1.6533 38.2485C1.58826 37.7712 1.64231 37.256 1.64231 36.7787V34.5609C1.64231 33.9046 1.6478 33.2541 1.74536 32.6034C1.90246 31.5728 2.20614 30.5537 2.66188 29.6152C3.56741 27.7607 5.00465 26.1932 6.78318 25.1522C8.38314 24.2142 10.2052 23.7425 12.0542 23.7425H14.7982H22.6992C24.6839 23.7425 26.5985 24.2142 28.3009 25.2553C30.3075 26.4755 31.8854 28.395 32.6718 30.6128C33.09 31.7359 33.2851 32.9126 33.2906 34.1108C33.2961 34.8102 34.3807 34.8102 34.3752 34.1108C34.3642 31.5078 33.4802 29.0024 31.8643 26.9637C30.2319 24.8975 27.846 23.4282 25.2646 22.9019C24.0389 22.6522 22.8188 22.6577 21.5825 22.6577H17.163H12.9601C11.7184 22.6577 10.4872 22.6902 9.26705 22.9884C4.89657 24.0515 1.42604 27.7827 0.715589 32.2401C0.482449 33.6989 0.55849 35.2008 0.55849 36.6761C0.55849 37.1969 0.520473 37.7282 0.569482 38.2485C0.678035 39.4473 1.56203 40.5098 2.76029 40.7484C3.24855 40.846 3.76338 40.8135 4.25717 40.8135H6.9632H15.5966H25.0811H31.0734H31.5452C32.3261 40.808 33.0961 40.5043 33.6274 39.9185C34.2077 39.2841 34.3703 38.5192 34.3703 37.6897V35.5099V34.1106C34.3754 33.4112 33.2908 33.4112 33.2908 34.1106L33.2908 34.1107Z" fill="white"/>
<path d="M51.3212 31.2585V34.9246C51.3212 35.6135 50.7954 36.1988 50.1225 36.2533L36.3544 36.2529V33.7965C36.3544 29.8703 34.5378 26.3673 31.7017 24.084C32.6127 23.7098 33.6052 23.5092 34.6518 23.5092H43.5614C47.8453 23.5092 51.3213 26.9746 51.3213 31.2586L51.3212 31.2585Z" fill="white"/>
<path d="M50.7782 31.261C50.7782 32.4756 50.8162 33.7013 50.7782 34.9216C50.7617 35.3989 50.4039 35.697 49.9487 35.697H48.761H39.1735H36.3483L36.8906 36.2394C36.8906 35.0737 36.9447 33.886 36.8416 32.7253C36.6465 30.4696 35.8816 28.2677 34.5803 26.4077C33.8754 25.3936 33.0349 24.4826 32.0749 23.7017C31.9934 24.0053 31.9178 24.3035 31.8363 24.6072C32.7583 24.233 33.7179 24.0489 34.7105 24.0489H35.8061H40.063H43.3875C45.0254 24.0489 46.5923 24.5151 47.91 25.5076C49.7155 26.852 50.7677 29.0157 50.7782 31.2609C50.7837 31.9603 51.8683 31.9603 51.8628 31.2609C51.8518 29.0211 50.9463 26.8468 49.3303 25.2905C47.7849 23.7991 45.7023 22.9641 43.555 22.9586C41.1256 22.9476 38.6908 22.9586 36.2614 22.9586H34.7865C33.6804 22.9586 32.5903 23.1432 31.5597 23.555C31.2235 23.6905 30.9683 24.1733 31.321 24.4605C32.9314 25.7673 34.2277 27.4647 34.9816 29.4063C35.3668 30.3989 35.638 31.4455 35.7461 32.5081C35.8166 33.1695 35.8111 33.8313 35.8111 34.4983V36.2388C35.8111 36.5315 36.0607 36.7811 36.3534 36.7811H38.7233H43.8316H48.5874H49.8996C50.5935 36.7811 51.2444 36.4885 51.6076 35.8701C51.9708 35.2518 51.8622 34.4278 51.8622 33.7334V31.418V31.266C51.8627 30.5611 50.7781 30.5611 50.7781 31.2609L50.7782 31.261Z" fill="white"/>
</svg>
