<svg width="47" height="41" viewBox="0 0 47 41" fill="none" xmlns="http://www.w3.org/2000/svg">
<path d="M29 18.6952V7.92509C29 7.56933 28.8504 7.21399 28.6013 6.96006L21.5758 0.355757C21.3267 0.152531 21.0275 0 20.7287 0H1.29541C0.597539 0 0 0.558983 0 1.2701V36.7299C0 37.441 0.598002 38 1.29541 38H21.1264C21.2259 38 21.276 38 21.3755 37.9493L23.8172 37.3903C21.8243 32.615 21.8243 30.786 21.8243 29.973C21.8239 24.9945 24.7639 20.6256 28.9991 18.6955L29 18.6952ZM8.71972 2.99702C8.71972 2.74308 8.91905 2.53986 9.16812 2.53986H12.0081C12.2572 2.53986 12.4565 2.74308 12.4565 2.99702V5.8925C12.4565 6.14643 12.2572 6.34966 12.0081 6.34966H9.16812C8.91905 6.34966 8.71972 6.14643 8.71972 5.8925V2.99702ZM8.71972 9.39815C8.71972 9.14421 8.91905 8.94098 9.16812 8.94098H12.0081C12.2572 8.94098 12.4565 9.14421 12.4565 9.39815V12.2936C12.4565 12.5476 12.2572 12.7508 12.0081 12.7508H9.16812C8.91905 12.7508 8.71972 12.5476 8.71972 12.2936V9.39815ZM8.71972 15.7481C8.71972 15.4942 8.91905 15.2909 9.16812 15.2909H12.0081C12.2572 15.2909 12.4565 15.4942 12.4565 15.7481V18.6436C12.4565 18.8975 12.2572 19.1007 12.0081 19.1007H9.16812C8.91905 19.1007 8.71972 18.8975 8.71972 18.6436V15.7481ZM8.71972 22.0985C8.71972 21.8446 8.91905 21.6413 9.16812 21.6413H12.0081C12.2572 21.6413 12.4565 21.8446 12.4565 22.0985V24.994C12.4565 25.2479 12.2572 25.4511 12.0081 25.4511H9.16812C8.91905 25.4511 8.71972 25.2479 8.71972 24.994V22.0985ZM2.49107 2.99659C2.49107 2.74265 2.6904 2.53943 2.93947 2.53943H5.77944C6.02851 2.53943 6.22784 2.74265 6.22784 2.99659V5.89207C6.22784 6.146 6.02851 6.34923 5.77944 6.34923H2.93947C2.6904 6.34923 2.49107 6.146 2.49107 5.89207V2.99659ZM2.49107 9.39772C2.49107 9.14378 2.6904 8.94056 2.93947 8.94056H5.77944C6.02851 8.94056 6.22784 9.14378 6.22784 9.39772V12.2932C6.22784 12.5471 6.02851 12.7504 5.77944 12.7504H2.93947C2.6904 12.7504 2.49107 12.5471 2.49107 12.2932V9.39772ZM2.49107 15.7477C2.49107 15.4937 2.6904 15.2905 2.93947 15.2905H5.77944C6.02851 15.2905 6.22784 15.4937 6.22784 15.7477V18.6432C6.22784 18.8971 6.02851 19.1003 5.77944 19.1003H2.93947C2.6904 19.1003 2.49107 18.8971 2.49107 18.6432V15.7477ZM2.49107 24.9935V22.0981C2.49107 21.8441 2.6904 21.6409 2.93947 21.6409H5.77944C6.02851 21.6409 6.22784 21.8441 6.22784 22.0981V24.9935C6.22784 25.2475 6.02851 25.4507 5.77944 25.4507H2.93947C2.6904 25.4511 2.49107 25.2479 2.49107 24.9935ZM10.0152 35.1031C10.0152 35.357 9.81591 35.5602 9.56684 35.5602H6.12882C5.87976 35.5602 5.68042 35.357 5.68042 35.1031V28.448C5.68042 28.1941 5.87976 27.9909 6.12882 27.9909H9.56684C9.81591 27.9909 10.0152 28.1941 10.0152 28.448V35.1031ZM15.546 35.1031C15.546 35.357 15.3467 35.5602 15.0976 35.5602L11.6596 35.5606C11.4105 35.5606 11.2112 35.3574 11.2112 35.1035V28.448C11.2112 28.1941 11.4105 27.9909 11.6596 27.9909H15.0976C15.3467 27.9909 15.546 28.1941 15.546 28.448V35.1031ZM18.7353 24.9935C18.7353 25.2475 18.536 25.4507 18.2869 25.4507H15.4469C15.1978 25.4507 14.9985 25.2475 14.9985 24.9935L14.9981 22.0981C14.9981 21.8441 15.1974 21.6409 15.4465 21.6409H18.2865C18.5355 21.6409 18.7349 21.8441 18.7349 22.0981L18.7353 24.9935ZM18.7353 18.5928C18.7353 18.8468 18.536 19.05 18.2869 19.05H15.4469C15.1978 19.05 14.9985 18.8468 14.9985 18.5928V15.6974C14.9985 15.4434 15.1978 15.2402 15.4469 15.2402H18.2869C18.536 15.2402 18.7353 15.4434 18.7353 15.6974V18.5928ZM18.7353 12.2425C18.7353 12.4964 18.536 12.6996 18.2869 12.6996H15.4469C15.1978 12.6996 14.9985 12.4964 14.9985 12.2425L14.9981 9.39761C14.9981 9.14367 15.1974 8.94045 15.4465 8.94045H18.2865C18.5355 8.94045 18.7349 9.14367 18.7349 9.39761L18.7353 12.2425ZM18.7353 5.89207C18.7353 6.146 18.536 6.34923 18.2869 6.34923H15.4469C15.1978 6.34923 14.9985 6.146 14.9985 5.89207L14.9981 2.99659C14.9981 2.74265 15.1974 2.53943 15.4465 2.53943H18.2865C18.5355 2.53943 18.7349 2.74265 18.7349 2.99659L18.7353 5.89207Z" fill="white"/>
<path d="M35.5142 18.787C33.5191 18.7907 31.562 19.3313 29.8474 20.3518C28.1335 21.3724 26.7258 22.8356 25.7717 24.5882C24.2112 27.4586 23.9935 30.8709 25.177 33.9157C26.3605 36.9613 28.8246 39.3313 31.914 40.395C35.0033 41.4588 38.4041 41.108 41.2116 39.4365C44.0191 37.7643 45.9477 34.9416 46.4846 31.719C47.0216 28.496 46.112 25.1997 43.9986 22.7085C41.8851 20.2166 38.7817 18.7826 35.5141 18.7869L35.5142 18.787ZM34.4696 37.0324L28.9072 30.9382L31.1661 28.8832L34.3278 32.373L41.2007 24.1012L43.5392 26.0583L34.4696 37.0324Z" fill="white"/>
</svg>
