<svg width="47" height="51" viewBox="0 0 47 51" fill="none" xmlns="http://www.w3.org/2000/svg">
<path d="M31 19.6791V8.3422C31 7.96772 30.8401 7.59368 30.5738 7.32638L23.0638 0.374481C22.7975 0.160559 22.4777 0 22.1583 0H1.38475C0.638749 0 0 0.588403 0 1.33695V38.6631C0 39.4116 0.639244 40 1.38475 40H22.5834C22.6897 40 22.7433 40 22.8497 39.9466L25.4598 39.3582C23.3295 34.3316 23.3295 32.4063 23.3295 31.5505C23.329 26.31 26.4717 21.7112 30.999 19.6795L31 19.6791ZM9.32108 3.15475C9.32108 2.88746 9.53416 2.67353 9.8004 2.67353H12.8362C13.1025 2.67353 13.3156 2.88746 13.3156 3.15475V6.20263C13.3156 6.46993 13.1025 6.68385 12.8362 6.68385H9.8004C9.53416 6.68385 9.32108 6.46993 9.32108 6.20263V3.15475ZM9.32108 9.89278C9.32108 9.62549 9.53416 9.41156 9.8004 9.41156H12.8362C13.1025 9.41156 13.3156 9.62549 13.3156 9.89278V12.9407C13.3156 13.208 13.1025 13.4219 12.8362 13.4219H9.8004C9.53416 13.4219 9.32108 13.208 9.32108 12.9407V9.89278ZM9.32108 16.577C9.32108 16.3097 9.53416 16.0957 9.8004 16.0957H12.8362C13.1025 16.0957 13.3156 16.3097 13.3156 16.577V19.6248C13.3156 19.8921 13.1025 20.1061 12.8362 20.1061H9.8004C9.53416 20.1061 9.32108 19.8921 9.32108 19.6248V16.577ZM9.32108 23.2616C9.32108 22.9943 9.53416 22.7804 9.8004 22.7804H12.8362C13.1025 22.7804 13.3156 22.9943 13.3156 23.2616V26.3095C13.3156 26.5767 13.1025 26.7907 12.8362 26.7907H9.8004C9.53416 26.7907 9.32108 26.5767 9.32108 26.3095V23.2616ZM2.66287 3.1543C2.66287 2.887 2.87595 2.67308 3.14219 2.67308H6.17803C6.44427 2.67308 6.65735 2.887 6.65735 3.1543V6.20218C6.65735 6.46948 6.44427 6.6834 6.17803 6.6834H3.14219C2.87595 6.6834 2.66287 6.46948 2.66287 6.20218V3.1543ZM2.66287 9.89233C2.66287 9.62503 2.87595 9.41111 3.14219 9.41111H6.17803C6.44427 9.41111 6.65735 9.62503 6.65735 9.89233V12.9402C6.65735 13.2075 6.44427 13.4214 6.17803 13.4214H3.14219C2.87595 13.4214 2.66287 13.2075 2.66287 12.9402V9.89233ZM2.66287 16.5765C2.66287 16.3092 2.87595 16.0953 3.14219 16.0953H6.17803C6.44427 16.0953 6.65735 16.3092 6.65735 16.5765V19.6244C6.65735 19.8917 6.44427 20.1056 6.17803 20.1056H3.14219C2.87595 20.1056 2.66287 19.8917 2.66287 19.6244V16.5765ZM2.66287 26.309V23.2611C2.66287 22.9938 2.87595 22.7799 3.14219 22.7799H6.17803C6.44427 22.7799 6.65735 22.9938 6.65735 23.2611V26.309C6.65735 26.5763 6.44427 26.7902 6.17803 26.7902H3.14219C2.87595 26.7907 2.66287 26.5767 2.66287 26.309ZM10.7059 36.9506C10.7059 37.2179 10.4929 37.4318 10.2266 37.4318H6.5515C6.28526 37.4318 6.07218 37.2179 6.07218 36.9506V29.9453C6.07218 29.678 6.28526 29.4641 6.5515 29.4641H10.2266C10.4929 29.4641 10.7059 29.678 10.7059 29.9453V36.9506ZM16.6181 36.9506C16.6181 37.2179 16.4051 37.4318 16.1388 37.4318L12.4637 37.4323C12.1974 37.4323 11.9844 37.2183 11.9844 36.951V29.9453C11.9844 29.678 12.1974 29.4641 12.4637 29.4641H16.1388C16.4051 29.4641 16.6181 29.678 16.6181 29.9453V36.9506ZM20.0274 26.309C20.0274 26.5763 19.8143 26.7902 19.5481 26.7902H16.5122C16.246 26.7902 16.0329 26.5763 16.0329 26.309L16.0325 23.2611C16.0325 22.9938 16.2455 22.7799 16.5118 22.7799H19.5476C19.8139 22.7799 20.0269 22.9938 20.0269 23.2611L20.0274 26.309ZM20.0274 19.5714C20.0274 19.8387 19.8143 20.0526 19.5481 20.0526H16.5122C16.246 20.0526 16.0329 19.8387 16.0329 19.5714V16.5235C16.0329 16.2562 16.246 16.0423 16.5122 16.0423H19.5481C19.8143 16.0423 20.0274 16.2562 20.0274 16.5235V19.5714ZM20.0274 12.8868C20.0274 13.1541 19.8143 13.368 19.5481 13.368H16.5122C16.246 13.368 16.0329 13.1541 16.0329 12.8868L16.0325 9.89222C16.0325 9.62492 16.2455 9.411 16.5118 9.411H19.5476C19.8139 9.411 20.0269 9.62492 20.0269 9.89222L20.0274 12.8868ZM20.0274 6.20218C20.0274 6.46948 19.8143 6.6834 19.5481 6.6834H16.5122C16.246 6.6834 16.0329 6.46948 16.0329 6.20218L16.0325 3.1543C16.0325 2.887 16.2455 2.67308 16.5118 2.67308H19.5476C19.8139 2.67308 20.0269 2.887 20.0269 3.1543L20.0274 6.20218Z" fill="white"/>
<path d="M37.0001 22C31.4567 22 27 26.3811 27 31.8314C27 35.6785 32.0543 44.8681 34.9891 49.8379C35.9129 51.3874 38.1413 51.3874 39.0109 49.8379C41.9458 44.8688 47 35.6787 47 31.8314C46.9996 26.3811 42.4887 22 36.9999 22H37.0001ZM37.0001 36.3724C34.4458 36.3724 32.3263 34.3421 32.3263 31.7775C32.3263 29.2663 34.3915 27.1826 37.0001 27.1826C39.5543 27.1826 41.6738 29.213 41.6738 31.7775C41.6738 34.3421 39.5543 36.3724 37.0001 36.3724Z" fill="white"/>
</svg>
