<svg width="17" height="17" viewBox="0 0 17 17" fill="none" xmlns="http://www.w3.org/2000/svg">
<path d="M3.70694 13.2458H10.2V11.8292H3.70694V13.2458ZM3.70694 9.20833H13.2931V7.79167H3.70694V9.20833ZM3.70694 5.17083H13.2931V3.75417H3.70694V5.17083ZM1.41667 17C1.03889 17 0.708333 16.8583 0.425 16.575C0.141667 16.2917 0 15.9611 0 15.5833V1.41667C0 1.03889 0.141667 0.708333 0.425 0.425C0.708333 0.141667 1.03889 0 1.41667 0H15.5833C15.9611 0 16.2917 0.141667 16.575 0.425C16.8583 0.708333 17 1.03889 17 1.41667V15.5833C17 15.9611 16.8583 16.2917 16.575 16.575C16.2917 16.8583 15.9611 17 15.5833 17H1.41667ZM1.41667 15.5833H15.5833V1.41667H1.41667V15.5833ZM1.41667 1.41667V15.5833V1.41667Z" fill="#0062A6"/>
</svg>
