<?xml version="1.0" encoding="UTF-8"?>
<svg version="1.1" xmlns="http://www.w3.org/2000/svg" width="768" height="71">
<path d="M0 0 C1.08667969 -0.01160156 1.08667969 -0.01160156 2.1953125 -0.0234375 C5.99388493 -0.00942063 7.76837084 0.09558056 11 2.25 C10.67 4.23 10.34 6.21 10 8.25 C14.3965017 10.08377511 14.3965017 10.08377511 19 11.25 C19.33 10.92 19.66 10.59 20 10.25 C22.6875 9.625 22.6875 9.625 26 10.25 C30.60711393 15.04139849 33.08587135 20.73683339 34 27.25 C33.34 27.91 32.68 28.57 32 29.25 C30.68 29.25 29.36 29.25 28 29.25 C28.495 34.2 28.495 34.2 29 39.25 C30.32 39.58 31.64 39.91 33 40.25 C34.19234985 43.12689064 34.02291478 44.18988906 32.890625 47.16015625 C32.34921875 48.20042969 31.8078125 49.24070313 31.25 50.3125 C30.71890625 51.35535156 30.1878125 52.39820313 29.640625 53.47265625 C28.23941762 55.84470018 27.14682851 57.55452627 25 59.25 C22.3813454 59.51857996 20.49155168 59.41897089 18 58.5625 C15.82924253 58.05255571 15.82924253 58.05255571 13.25 59.3125 C10.64379084 61.10580227 10.64379084 61.10580227 10.6875 64.4375 C10.8421875 65.8296875 10.8421875 65.8296875 11 67.25 C7.49308963 69.41073695 4.63838074 69.518848 0.5625 69.5 C-0.54996094 69.50515625 -1.66242188 69.5103125 -2.80859375 69.515625 C-5.947009 69.25441051 -8.16835425 68.58378454 -11 67.25 C-10.896875 66.321875 -10.79375 65.39375 -10.6875 64.4375 C-10.66710677 61.17295735 -10.66710677 61.17295735 -12.9375 59.3125 C-16.22430505 58.17217988 -17.16557587 58.37716454 -20.4375 59.0625 C-22.78125 59.4375 -22.78125 59.4375 -25 59.25 C-27.6786902 56.97992356 -29.32435676 54.31010914 -31 51.25 C-31.57041016 50.24259766 -31.57041016 50.24259766 -32.15234375 49.21484375 C-33.43250857 46.24745709 -33.12247446 43.43433595 -33 40.25 C-31.02 39.755 -31.02 39.755 -29 39.25 C-28.67 35.95 -28.34 32.65 -28 29.25 C-29.65 28.92 -31.3 28.59 -33 28.25 C-33.77244836 22.22490278 -31.27564322 18.0942611 -28 13.25 C-25.45332683 10.29533268 -25.45332683 10.29533268 -22.5 10 C-20 10.25 -20 10.25 -17 11.25 C-15.30485863 10.29906703 -13.63631892 9.29892238 -12 8.25 C-11.34 8.25 -10.68 8.25 -10 8.25 C-10.33 6.27 -10.66 4.29 -11 2.25 C-7.26332113 -0.24111925 -4.32129024 -0.04613477 0 0 Z M-13.390625 24.82421875 C-16.37244052 29.32844007 -17.04950961 33.97530948 -16 39.25 C-14.27151402 43.32327639 -12.07498721 46.34933504 -8.6875 49.1875 C-3.42492846 51.26805154 0.34109887 51.75610543 5.6875 50.125 C10.46494236 47.42078734 13.88825091 44.35726982 16 39.25 C16.70077817 34.31195847 16.55558401 30.36116802 14.3125 25.875 C10.0524578 21.03927642 6.81088802 18.53585302 0.3125 17.875 C-5.37856799 17.96932709 -9.66688341 20.6088596 -13.390625 24.82421875 Z " fill="#8F1839" transform="translate(330,0.75)"/>
<path d="M0 0 C4.95 0 9.9 0 15 0 C18.3383568 7.2203451 21.09434667 14.56698335 23.75 22.0625 C24.16121094 23.21427734 24.57242188 24.36605469 24.99609375 25.55273438 C26.00049776 28.36740143 27.00172189 31.18315573 28 34 C31.18753161 26.53923438 34.13535176 19.05479641 36.75 11.375 C37.347819 9.63242122 37.94672232 7.89021393 38.546875 6.1484375 C38.80307617 5.39739746 39.05927734 4.64635742 39.32324219 3.87255859 C40 2 40 2 41 0 C45.95 0 50.9 0 56 0 C56 17.49 56 34.98 56 53 C52.04 53 48.08 53 44 53 C44 43.1 44 33.2 44 23 C38.555 37.85 38.555 37.85 33 53 C30.03 53 27.06 53 24 53 C19.5863331 42.80992112 15.80045999 32.43263528 12 22 C12 32.23 12 42.46 12 53 C8.04 53 4.08 53 0 53 C0 35.51 0 18.02 0 0 Z " fill="#313E49" transform="translate(664,6)"/>
<path d="M0 0 C2.97 0 5.94 0 9 0 C9.44653931 1.71884399 9.44653931 1.71884399 9.90209961 3.47241211 C11.00377482 7.70932334 12.10995664 11.94504688 13.2175293 16.18041992 C13.6969579 18.01635997 14.17515108 19.85262309 14.65209961 21.68920898 C15.33646025 24.3236066 16.02520395 26.95682391 16.71484375 29.58984375 C17.03520851 30.82890724 17.03520851 30.82890724 17.36204529 32.09300232 C18.08521433 35.84940889 18.08521433 35.84940889 20 39 C23.96 26.13 27.92 13.26 32 0 C35.63 0 39.26 0 43 0 C46.18949043 8.1187029 48.62106839 16.44699118 51.12695312 24.796875 C51.63838867 26.48296875 51.63838867 26.48296875 52.16015625 28.203125 C52.61853882 29.72921387 52.61853882 29.72921387 53.08618164 31.28613281 C53.88811765 33.66773065 54.80766741 35.79360911 56 38 C56.44653931 36.32659546 56.44653931 36.32659546 56.90209961 34.61938477 C58.0038199 30.49427748 59.10998831 26.37037413 60.2175293 22.24682617 C60.69694175 20.45939316 61.17513498 18.67163268 61.65209961 16.88354492 C62.33650217 14.3186344 63.02523075 11.75492006 63.71484375 9.19140625 C64.03520851 7.98515343 64.03520851 7.98515343 64.36204529 6.75453186 C65.88612829 1.11387171 65.88612829 1.11387171 67 0 C68.51928038 -0.07179964 70.04167482 -0.08392007 71.5625 -0.0625 C72.38878906 -0.05347656 73.21507812 -0.04445313 74.06640625 -0.03515625 C74.70449219 -0.02355469 75.34257812 -0.01195312 76 0 C72.69398734 11.74606849 69.2944788 23.46257274 65.7963562 35.152771 C65.39040944 36.50939945 64.98507501 37.86621129 64.58035278 39.22320557 C64.0074044 41.14289523 63.43149758 43.06170116 62.85546875 44.98046875 C62.52184326 46.09317139 62.18821777 47.20587402 61.84448242 48.35229492 C61 51 61 51 60 53 C57.03 53 54.06 53 51 53 C46.61867374 39.3481597 42.24520938 25.69488218 38 12 C35.8119358 16.8860687 34.05977975 21.73354364 32.5546875 26.8671875 C32.33934357 27.58738068 32.12399963 28.30757385 31.90213013 29.04959106 C31.22248776 31.32357826 30.54821406 33.59910213 29.875 35.875 C29.19429203 38.17220924 28.51235388 40.46901649 27.82644653 42.76467896 C27.40150777 44.18715009 26.97959865 45.61053046 26.56100464 47.03488159 C25.11248307 51.88751693 25.11248307 51.88751693 24 53 C22.48071962 53.07179964 20.95832518 53.08392007 19.4375 53.0625 C18.61121094 53.05347656 17.78492188 53.04445312 16.93359375 53.03515625 C16.29550781 53.02355469 15.65742188 53.01195312 15 53 C11.05647516 40.8314624 7.23521388 28.62813306 3.5625 16.375 C3.20865234 15.20799561 2.85480469 14.04099121 2.49023438 12.83862305 C2.16474609 11.74461182 1.83925781 10.65060059 1.50390625 9.5234375 C1.06800171 8.0681665 1.06800171 8.0681665 0.62329102 6.58349609 C0 4 0 4 0 0 Z " fill="#8F1839" transform="translate(221,7)"/>
<path d="M0 0 C3.05712176 3.74743958 3.53347548 7.24144988 4 12 C0.04 12 -3.92 12 -8 12 C-8.45375 11.030625 -8.9075 10.06125 -9.375 9.0625 C-10.65786221 5.92920418 -10.65786221 5.92920418 -13 5 C-18.32967208 4.65907959 -18.32967208 4.65907959 -23 7 C-23.2502157 10.08365871 -23.2502157 10.08365871 -23 13 C-22.45472656 13.17015625 -21.90945313 13.3403125 -21.34765625 13.515625 C-2.98239615 19.41762312 -2.98239615 19.41762312 2 26 C3.91690979 30.62043992 4.71281279 35.10320551 2.9375 39.875 C-0.11686473 44.80139473 -3.56803093 47.18157259 -9 49 C-16.52781044 49.74217849 -23.2417342 49.49981622 -30 46 C-35.3046327 41.38727591 -37.21146592 37.96538435 -38 31 C-34.04 31 -30.08 31 -26 31 C-25.67 31.94875 -25.34 32.8975 -25 33.875 C-22.91351831 37.13512764 -22.59979927 37.51656624 -19.125 38.5 C-15.54459071 39.14618805 -13.12256778 39.08171185 -10 37 C-8.75225614 35.17576488 -8.75225614 35.17576488 -9 33 C-12.5275292 28.54370362 -17.1737401 27.18166556 -22.3359375 25.37695312 C-27.76170316 23.36963861 -32.3800397 20.79811324 -35.375 15.625 C-36.46494805 11.04721819 -36.43772265 7.36788329 -35 2.875 C-31.77158409 -1.76584786 -27.54608866 -4.20788353 -22.1875 -5.875 C-13.68103293 -6.20858694 -6.64554197 -5.78015198 0 0 Z " fill="#313E49" transform="translate(764,11)"/>
<path d="M0 0 C8.971875 -0.0928125 8.971875 -0.0928125 18.125 -0.1875 C20.00203613 -0.21481201 21.87907227 -0.24212402 23.81298828 -0.27026367 C25.31542316 -0.27903275 26.81786521 -0.28667569 28.3203125 -0.29296875 C29.47261353 -0.3159906 29.47261353 -0.3159906 30.64819336 -0.33947754 C36.65724339 -0.34238046 40.77501468 0.9554189 45.3125 5.125 C47.62021234 9.05665806 48.18673134 12.46398461 48 17 C46.75138121 21.48033801 45.72380278 23.43019781 42.0625 26.3125 C37.28070175 28.94736842 37.28070175 28.94736842 35 30 C35.85851562 30.64453125 36.71703125 31.2890625 37.6015625 31.953125 C41.64359913 35.32267699 44.42525449 39.4309899 47.375 43.75 C47.92027344 44.52988281 48.46554687 45.30976562 49.02734375 46.11328125 C53 51.83828712 53 51.83828712 53 53 C48.63123222 54.18514445 45.33781008 54.40008593 41 53 C37.14093179 49.28348312 34.47893526 44.64418755 31.69140625 40.109375 C29.13946116 35.98579959 26.3822024 33.1911012 22 31 C19.795636 30.77049681 17.58607827 30.58924067 15.375 30.4375 C13.27125 30.293125 11.1675 30.14875 9 30 C9 37.59 9 45.18 9 53 C6.03 53 3.06 53 0 53 C0 35.51 0 18.02 0 0 Z M9 6 C9 11.61 9 17.22 9 23 C12.188022 23.08143481 15.37393474 23.14070764 18.5625 23.1875 C19.45775391 23.21263672 20.35300781 23.23777344 21.27539062 23.26367188 C27.80212537 23.33539423 32.96865715 22.74715445 38 18.1875 C39.43308504 15.05262648 39.0359583 13.24600267 38 10 C34.75876344 6.64300499 31.13647566 6.10091023 26.59643555 5.88647461 C25.784729 5.89171143 24.97302246 5.89694824 24.13671875 5.90234375 C23.25048828 5.90556641 22.36425781 5.90878906 21.45117188 5.91210938 C20.0831543 5.92467773 20.0831543 5.92467773 18.6875 5.9375 C17.75615234 5.94201172 16.82480469 5.94652344 15.86523438 5.95117188 C13.57679513 5.96290746 11.28838914 5.98084139 9 6 Z " fill="#8F1839" transform="translate(368,7)"/>
<path d="M0 0 C4.6886352 3.23739097 8.06765519 7.29100476 9.625 12.8125 C9.625 14.4625 9.625 16.1125 9.625 17.8125 C5.665 17.8125 1.705 17.8125 -2.375 17.8125 C-2.7153125 16.141875 -2.7153125 16.141875 -3.0625 14.4375 C-3.9955684 10.76022141 -3.9955684 10.76022141 -6.5625 9.3125 C-10.14249121 8.67605712 -12.84437708 8.96253522 -16.375 9.8125 C-18.95955285 11.70783875 -19.33775506 12.70076517 -20.375 15.8125 C-20.62757326 19.09977925 -20.60624619 22.39151724 -20.625 25.6875 C-20.645625 26.58597656 -20.66625 27.48445313 -20.6875 28.41015625 C-20.71663376 33.34104522 -20.67783016 36.85231044 -17.375 40.8125 C-14.17749299 42.41125351 -10.84541009 42.31416324 -7.375 41.8125 C-3.8810929 39.30405387 -3.44067427 38.07519708 -2.375 33.8125 C1.585 33.8125 5.545 33.8125 9.625 33.8125 C9.22379957 39.62990621 8.56359349 43.25202333 4.625 47.8125 C-2.43746311 52.84792359 -8.93377462 53.41466264 -17.375 52.8125 C-23.61395526 51.38484717 -27.59407198 47.42028746 -31.125 42.25 C-35.46319531 33.79051914 -34.86604719 20.30029609 -32.43359375 11.34765625 C-29.44416302 5.11577088 -25.65349066 1.5750692 -19.25 -1 C-12.70514832 -2.99951228 -6.38523527 -2.24665686 0 0 Z " fill="#313E49" transform="translate(648.375,7.1875)"/>
<path d="M0 0 C4.59590167 2.93311478 7.76030291 6.34087364 9.0625 11.75 C9.124375 12.61625 9.18625 13.4825 9.25 14.375 C6.28 14.705 3.31 15.035 0.25 15.375 C-0.141875 14.446875 -0.53375 13.51875 -0.9375 12.5625 C-2.96068286 9.00448877 -4.11946752 8.11580694 -7.75 6.375 C-10.69924807 5.90417564 -10.69924807 5.90417564 -13.75 6 C-14.760625 5.99226562 -15.77125 5.98453125 -16.8125 5.9765625 C-20.17322345 6.43240531 -22.08440612 7.29204959 -24.75 9.375 C-25.16746608 12.50135209 -25.16746608 12.50135209 -24.75 15.375 C-18.84962646 18.72726477 -12.75002458 19.91981664 -6.18164062 21.3046875 C0.26167803 22.78523842 5.68846143 24.73789828 9.6640625 30.3828125 C11.21710533 35.66315812 10.97259593 40.74915917 8.75 45.75 C4.43009982 50.28589519 -1.46352413 53.15276756 -7.75390625 53.578125 C-24.92101482 53.80425596 -24.92101482 53.80425596 -30.8828125 48.46484375 C-35.21670424 43.63088758 -36.89290354 40.94856267 -36.75 34.375 C-31.566613 33.67216786 -31.566613 33.67216786 -28.75 34.375 C-27.21223663 36.26525927 -26.220375 38.24348036 -25.08203125 40.39453125 C-23.14808402 43.26993079 -21.11765433 44.03337638 -17.859375 44.9765625 C-11.44292775 46.18855809 -6.4881894 45.47362228 -0.75 42.375 C1.49621573 39.62894157 1.49621573 39.62894157 1.1875 36.875 C-0.11869126 33.39182331 -1.38624014 33.01267532 -4.75 31.375 C-9.30116864 30.01732812 -13.93096017 28.95161035 -18.55859375 27.88867188 C-24.76900193 26.32973268 -29.57585114 24.41114765 -33.75 19.375 C-35.30806622 14.70080133 -35.24692753 10.86578259 -33.6875 6.1875 C-27.22244836 -3.19725238 -9.95611495 -4.62316706 0 0 Z " fill="#8F1839" transform="translate(521.75,7.625)"/>
<path d="M0 0 C2.64 0 5.28 0 8 0 C8.33 7.92 8.66 15.84 9 24 C11.64 21.36 14.28 18.72 17 16 C18.94625775 14.27348103 20.8934494 12.547024 22.88671875 10.875 C25.09434806 8.97621608 25.09434806 8.97621608 27.26953125 6.5625 C33.36028357 0.26511473 33.36028357 0.26511473 38.52734375 -0.5703125 C41.73492557 -0.56334707 44.81962234 -0.40377835 48 0 C44.44387545 3.60179955 40.79849585 7.08450572 37.0625 10.5 C36.31323242 11.19029297 36.31323242 11.19029297 35.54882812 11.89453125 C32.11690888 15.03861211 28.59444378 18.04302091 25 21 C27.2979012 25.13011479 30.10148673 28.63382844 33.1875 32.1875 C34.17022041 33.33512505 35.15198225 34.48357158 36.1328125 35.6328125 C36.6165332 36.1990332 37.10025391 36.76525391 37.59863281 37.34863281 C39.6179916 39.72823958 41.59800622 42.13746555 43.5625 44.5625 C44.18253906 45.32691406 44.80257812 46.09132812 45.44140625 46.87890625 C46.89467694 48.85666561 47.98432862 50.77158668 49 53 C44.72591999 53.93985005 41.25390313 54.12385853 37 53 C32.92721519 49.7480561 30.12863734 45.13821345 27.25634766 40.84765625 C25.4388192 38.17469563 23.45205207 35.6513572 21.4375 33.125 C20.81746094 32.32320312 20.19742187 31.52140625 19.55859375 30.6953125 C19.04425781 30.13585937 18.52992188 29.57640625 18 29 C14.7590123 29 12.9846347 30.41186523 10.5546875 32.46875 C6.97494579 38.29707319 7.95124396 46.35524829 8 53 C5.36 53 2.72 53 0 53 C0 35.51 0 18.02 0 0 Z " fill="#8F1839" transform="translate(430,7)"/>
<path d="M0 0 C1.37478516 0.01740234 1.37478516 0.01740234 2.77734375 0.03515625 C3.69644531 0.04417969 4.61554687 0.05320312 5.5625 0.0625 C6.27277344 0.07410156 6.98304687 0.08570313 7.71484375 0.09765625 C13.97777545 12.96797138 20.04758305 25.91241149 25.90234375 38.97265625 C26.19378265 39.62124603 26.48522156 40.26983582 26.78549194 40.93807983 C31.71484375 51.91899869 31.71484375 51.91899869 31.71484375 53.09765625 C28.08484375 53.09765625 24.45484375 53.09765625 20.71484375 53.09765625 C18.73484375 48.14765625 16.75484375 43.19765625 14.71484375 38.09765625 C6.79484375 37.76765625 -1.12515625 37.43765625 -9.28515625 37.09765625 C-10.27515625 40.39765625 -11.26515625 43.69765625 -12.28515625 47.09765625 C-13.22884308 49.12483537 -14.20360122 51.14055668 -15.28515625 53.09765625 C-18.25515625 53.09765625 -21.22515625 53.09765625 -24.28515625 53.09765625 C-23.67765106 49.57927021 -22.75101237 46.51290563 -21.3515625 43.23144531 C-20.95445068 42.29407532 -20.55733887 41.35670532 -20.14819336 40.39093018 C-19.71901611 39.39180603 -19.28983887 38.39268188 -18.84765625 37.36328125 C-18.40752197 36.32951355 -17.9673877 35.29574585 -17.51391602 34.23065186 C-16.58478297 32.05107637 -15.65333254 29.87248751 -14.71972656 27.69482422 C-13.2854624 24.34837057 -11.85896095 20.99868894 -10.43359375 17.6484375 C-9.5304023 15.53235808 -8.62677171 13.41646604 -7.72265625 11.30078125 C-7.293479 10.29356018 -6.86430176 9.28633911 -6.42211914 8.24859619 C-6.02500732 7.32383484 -5.62789551 6.39907349 -5.21875 5.44628906 C-4.86868896 4.62864075 -4.51862793 3.81099243 -4.15795898 2.96856689 C-2.82949619 0.12091864 -2.82949619 0.12091864 0 0 Z M1.71484375 9.09765625 C-0.92515625 16.02765625 -3.56515625 22.95765625 -6.28515625 30.09765625 C-0.34515625 30.09765625 5.59484375 30.09765625 11.71484375 30.09765625 C10.43145123 26.78172814 9.13863347 23.4700477 7.83984375 20.16015625 C7.29263672 18.74186523 7.29263672 18.74186523 6.734375 17.29492188 C6.37988281 16.39580078 6.02539062 15.49667969 5.66015625 14.5703125 C5.33547363 13.73765869 5.01079102 12.90500488 4.67626953 12.04711914 C3.87403291 9.92542954 3.87403291 9.92542954 1.71484375 9.09765625 Z " fill="#313E49" transform="translate(24.28515625,6.90234375)"/>
<path d="M0 0 C3.25682156 2.99485983 5.59489743 5.7846923 7 10 C7 13.3 7 16.6 7 20 C-3.23 20 -13.46 20 -24 20 C-21.69823449 26.555228 -21.69823449 26.555228 -17 30 C-12.91551368 31.0589409 -10.68259681 31.24470452 -6.6875 29.8125 C-4.00069557 28.00046911 -3.03903412 27.01319894 -2 24 C0.64 24 3.28 24 6 24 C7 27 7 27 5.9375 29.375 C2.80375499 33.62071904 -0.63502063 37.06064441 -6 38 C-13.7526376 38.68438624 -20.35390368 38.31784601 -27 34 C-31.72375019 29.51849341 -32.80036392 24.47548743 -33.3125 18.125 C-33.12220486 12.66987269 -32.03914103 7.41504328 -28.453125 3.16796875 C-20.5878303 -3.98388108 -9.30221389 -5.60868779 0 0 Z M-21.875 7.4375 C-23.32369674 9.24636053 -23.32369674 9.24636053 -24 13 C-16.41 13 -8.82 13 -1 13 C-2.99040118 8.02399706 -3.71934228 6.78740503 -8 4 C-13.20551767 1.94519039 -17.60862053 4.16660907 -21.875 7.4375 Z " fill="#313E49" transform="translate(181,23)"/>
<path d="M0 0 C2.80778666 2.71721289 3.46842971 5.17269388 4 9 C-1.27172612 10.14220733 -1.27172612 10.14220733 -4 10 C-6.125 7.625 -6.125 7.625 -8 5 C-12.51564185 3.59513365 -16.3951689 4.1711304 -21 5 C-20.67 6.65 -20.34 8.3 -20 10 C-19.42032471 10.15557373 -18.84064941 10.31114746 -18.2434082 10.47143555 C-15.59471543 11.19284362 -12.95390371 11.93986393 -10.3125 12.6875 C-9.40048828 12.93177734 -8.48847656 13.17605469 -7.54882812 13.42773438 C-2.18295599 14.9692031 1.56515224 16.32321349 5 21 C6.17922566 25.27743967 5.5280554 28.98789383 3.5 32.875 C-2.40020225 37.89017191 -8.58069319 38.56583846 -16.09375 38.34765625 C-22.09089973 37.63025527 -25.70127059 35.59094353 -29.5 30.9375 C-31 28 -31 28 -31 25 C-28.13879744 23.56939872 -26.15989415 23.61307419 -23 24 C-21.96210419 25.64333504 -20.96432076 27.31243867 -20 29 C-15.07978585 31.51731887 -11.24824264 31.04964853 -6 30 C-5.34 29.34 -4.68 28.68 -4 28 C-4.00352657 25.9224143 -4.00352657 25.9224143 -5 24 C-6.80546136 22.96027071 -6.80546136 22.96027071 -9.078125 22.4375 C-9.90957031 22.19773437 -10.74101563 21.95796875 -11.59765625 21.7109375 C-12.47292969 21.47632812 -13.34820312 21.24171875 -14.25 21 C-25.19111048 18.01456955 -25.19111048 18.01456955 -29 14 C-30.51431754 10.3379725 -30.32519426 6.95390317 -29.0625 3.25 C-21.31736667 -5.19923636 -9.71046967 -4.85523484 0 0 Z " fill="#313E49" transform="translate(91,23)"/>
<path d="M0 0 C2.74583491 3.3464863 3 4.5933055 3 9 C0.36 9.33 -2.28 9.66 -5 10 C-5.556875 8.7934375 -5.556875 8.7934375 -6.125 7.5625 C-7.78504901 4.77996789 -7.78504901 4.77996789 -10.75 4.0625 C-14.51120718 3.99016909 -17.45331406 4.79412678 -21 6 C-20.83410494 7.97517142 -20.83410494 7.97517142 -20 10 C-18.09286789 11.01071129 -18.09286789 11.01071129 -15.703125 11.4921875 C-14.8265625 11.72292969 -13.95 11.95367187 -13.046875 12.19140625 C-11.19883388 12.64309228 -9.34988421 13.09107893 -7.5 13.53515625 C-1.41871735 15.14438455 1.61527591 16.59839908 5 22 C5.67780715 26.21746671 5.28753561 28.37700618 3.5 32.25 C-0.4346483 36.57811313 -4.28562846 37.70448374 -9.90625 38.31640625 C-16.3787554 38.56974926 -21.78795071 38.09697143 -27 34 C-31 29.1 -31 29.1 -31 25 C-28.13879744 23.56939872 -26.15989415 23.61307419 -23 24 C-21.4375 26.375 -21.4375 26.375 -20 29 C-15.53512185 31.8890388 -10.98798873 30.80416376 -6 30 C-5.34 28.35 -4.68 26.7 -4 25 C-9.49707212 22.44322227 -15.06862921 20.76383213 -20.9140625 19.16015625 C-24.83229069 17.68710084 -28.08384117 15.83231766 -30 12 C-30.51671306 7.52182011 -30.33961854 5.52940536 -27.875 1.6875 C-20.35572544 -5.34138709 -8.73841858 -4.52525248 0 0 Z " fill="#313E49" transform="translate(135,23)"/>
<path d="M0 0 C0 4.29 0 8.58 0 13 C2.31 13 4.62 13 7 13 C7 14.98 7 16.96 7 19 C4.69 19 2.38 19 0 19 C0.33 27.25 0.66 35.5 1 44 C2.98 44.33 4.96 44.66 7 45 C7.33 47.31 7.66 49.62 8 52 C2.0695344 53.09384143 -1.71205964 53.43716124 -7 50 C-8 49 -8 49 -8.11352539 46.13256836 C-8.10828857 44.88096924 -8.10305176 43.62937012 -8.09765625 42.33984375 C-8.0962413 41.67537735 -8.09482635 41.01091095 -8.09336853 40.3263092 C-8.08775518 38.19666101 -8.07520054 36.06711661 -8.0625 33.9375 C-8.05748671 32.49674631 -8.05292351 31.05599097 -8.04882812 29.61523438 C-8.03778145 26.07678898 -8.02050792 22.53840461 -8 19 C-9.98 19 -11.96 19 -14 19 C-14 17.02 -14 15.04 -14 13 C-12.02 13 -10.04 13 -8 13 C-8.05800781 12.31292969 -8.11601562 11.62585937 -8.17578125 10.91796875 C-8.31157397 8.2059942 -8.35570073 5.69378239 -8 3 C-5.16973341 0.39921448 -3.82254857 0 0 0 Z " fill="#313E49" transform="translate(209,8)"/>
<path d="M0 0 C0.99 0.33 1.98 0.66 3 1 C3 23.77 3 46.54 3 70 C1.515 70.495 1.515 70.495 0 71 C0 47.57 0 24.14 0 0 Z " fill="#313E49" transform="translate(571,0)"/>
</svg>
