<svg width="205" height="214" viewBox="0 0 205 214" fill="none" xmlns="http://www.w3.org/2000/svg">
<g filter="url(#filter0_d_3057_2)">
<path fill-rule="evenodd" clip-rule="evenodd" d="M181.391 52.5117C192.578 50.2452 201 40.3561 201 28.5C201 14.969 190.031 4 176.5 4C163.685 4 153.168 13.8393 152.091 26.3756C137.526 17.8723 120.582 13 102.5 13C48.1 13 4 57.1 4 111.5C4 165.9 48.1 210 102.5 210C156.9 210 201 165.9 201 111.5C201 89.3757 193.706 68.9551 181.391 52.5117Z" fill="white"/>
</g>
<path d="M173.549 15L171.902 18.2353H166.305C165.028 18.2353 164 19.2453 164 20.5V34.7353C164 35.99 165.028 37 166.305 37H188.695C189.972 37 191 35.99 191 34.7353V20.5C191 19.2453 189.972 18.2353 188.695 18.2353H183.098L181.451 15H173.549ZM177.5 20.1763C181.663 20.1763 185.072 23.5269 185.072 27.6171C185.072 31.7072 181.662 35.0578 177.5 35.0578C173.337 35.0578 169.927 31.7072 169.927 27.6171C169.927 23.5269 173.337 20.1763 177.5 20.1763ZM177.5 23.4116C175.116 23.4116 173.219 25.2756 173.219 27.6174C173.219 29.9593 175.116 31.8232 177.5 31.8232C179.883 31.8232 181.78 29.9593 181.78 27.6174C181.78 25.2756 179.883 23.4116 177.5 23.4116Z" fill="#70787F"/>
<defs>
<filter id="filter0_d_3057_2" x="0" y="0" width="205" height="214" filterUnits="userSpaceOnUse" color-interpolation-filters="sRGB">
<feFlood flood-opacity="0" result="BackgroundImageFix"/>
<feColorMatrix in="SourceAlpha" type="matrix" values="0 0 0 0 0 0 0 0 0 0 0 0 0 0 0 0 0 0 127 0" result="hardAlpha"/>
<feOffset/>
<feGaussianBlur stdDeviation="2"/>
<feComposite in2="hardAlpha" operator="out"/>
<feColorMatrix type="matrix" values="0 0 0 0 0.479167 0 0 0 0 0.47717 0 0 0 0 0.47717 0 0 0 0.25 0"/>
<feBlend mode="normal" in2="BackgroundImageFix" result="effect1_dropShadow_3057_2"/>
<feBlend mode="normal" in="SourceGraphic" in2="effect1_dropShadow_3057_2" result="shape"/>
</filter>
</defs>
</svg>
