<svg width="17" height="17" viewBox="0 0 17 17" fill="none" xmlns="http://www.w3.org/2000/svg">
<path d="M16.61 5.76562C16.5533 5.93302 16.4728 6.09152 16.3712 6.2363L10.0993 15.3665H10.0995C9.88949 15.6718 9.60066 15.9147 9.26367 16.0689L9.0249 15.2612L9.43922 13.8566L11.7499 5.79367L16.61 5.76562Z" fill="white"/>
<path d="M6.62308 4.36128H0C0.0504229 4.19964 0.118642 4.0441 0.203732 3.89784L1.93852 1.03932C2.11537 0.754211 2.35562 0.513786 2.64074 0.336914L3.68014 1.4045L6.62308 4.36128Z" fill="white"/>
<path d="M16.6451 4.36088H10.022L12.9647 1.40408L14.0323 0.350586C14.3174 0.527439 14.5578 0.767874 14.7347 1.05299L16.4695 3.91151V3.91133C16.5438 4.05462 16.6026 4.20515 16.645 4.36087L16.6451 4.36088Z" fill="white"/>
<path d="M12.3962 0L8.32253 4.07351L4.24902 0H12.3962Z" fill="white"/>
<path d="M7.5777 15.2613L7.34598 16.0619C7.02342 15.9003 6.74778 15.6583 6.54533 15.3595L0.273432 6.22928C0.172031 6.0845 0.0915782 5.92619 0.034668 5.75879H4.88096L7.14945 13.7652L7.5777 15.2613Z" fill="white"/>
<path d="M10.3029 5.76562L8.30846 12.7048L6.3418 5.76562H10.3029Z" fill="white"/>
</svg>
