<svg width="16" height="21" viewBox="0 0 16 21" fill="none" xmlns="http://www.w3.org/2000/svg">
<path d="M10.4296 17.3965H4.99512V19.7061H6.61306V21H8.81234V19.7061H10.4296L10.4296 17.3965Z" fill="white"/>
<path d="M15.4249 6.44905H12.3312L12.3314 1.01916C12.3314 0.456417 11.8752 0.00017955 11.3124 0.00017955C10.7497 0.00017955 10.2935 0.456403 10.2935 1.01916V6.44905L5.13074 6.44887V1.01898C5.13074 0.456236 4.67452 0 4.11176 0C3.54865 0 3.09279 0.456222 3.09279 1.01898V6.44887L0 6.44869V8.7601H1.12677L1.12695 12.9276C1.12695 15.0214 2.8244 16.7188 4.91787 16.7188H10.5065C12.6003 16.7188 14.2974 15.0214 14.2974 12.9276V8.76043H15.4249V6.44865L15.4249 6.44905ZM6.33481 15.2019L6.99616 12.3486H6.06804L6.72903 9.49537L9.20194 9.52061L8.10692 12.3486H9.35625L6.33481 15.2019Z" fill="white"/>
</svg>
