<svg width="20" height="22" viewBox="0 0 20 22" fill="none" xmlns="http://www.w3.org/2000/svg">
<path d="M0.55006 8.24982H4.95012C5.25389 8.24982 5.50018 8.55359 5.50018 8.79988V13.1999C5.50018 13.5037 5.25389 13.75 4.95012 13.75H0.55006C0.246287 13.75 0 13.4462 0 13.1999V8.79988C0 8.4961 0.246287 8.24982 0.55006 8.24982Z" fill="white"/>
<path d="M14.8506 0H19.2507C19.5544 0 19.8007 0.303773 19.8007 0.55006V4.95012C19.8007 5.25389 19.5544 5.50018 19.2507 5.50018H14.8506C14.5468 5.50018 14.3005 5.19641 14.3005 4.95012V0.55006C14.3005 0.246287 14.5468 0 14.8506 0Z" fill="white"/>
<path d="M14.8506 16.4998H19.2507C19.5544 16.4998 19.8007 16.8036 19.8007 17.0499V21.4499C19.8007 21.7537 19.5544 22 19.2507 22H14.8506C14.5468 22 14.3005 21.6962 14.3005 21.4499V17.0499C14.3005 16.7461 14.5468 16.4998 14.8506 16.4998Z" fill="white"/>
<path d="M14.8506 8.24982H19.2507C19.5544 8.24982 19.8007 8.55359 19.8007 8.79988V13.1999C19.8007 13.5037 19.5544 13.75 19.2507 13.75H14.8506C14.5468 13.75 14.3005 13.4462 14.3005 13.1999V8.79988C14.3005 8.4961 14.5468 8.24982 14.8506 8.24982Z" fill="white"/>
<path d="M12.6503 3.30026C12.9541 3.30026 13.2004 3.05397 13.2004 2.75019C13.2004 2.44642 12.9541 2.20013 12.6503 2.20013H10.4503C10.1465 2.20013 9.90026 2.44642 9.90026 2.75019V10.4504H7.1504C6.84663 10.4504 6.60034 10.6965 6.60034 11.0003C6.60034 11.3041 6.84663 11.5503 7.1504 11.5503H9.90048L9.90026 19.2506C9.90026 19.3965 9.95819 19.5363 10.0614 19.6395C10.1646 19.7425 10.3044 19.8006 10.4503 19.8006H12.6504C12.9541 19.8006 13.2004 19.5544 13.2004 19.2506C13.2004 18.9468 12.9541 18.7005 12.6504 18.7005H11.0004V11.5505H12.6504C12.9541 11.5505 13.2004 11.3042 13.2004 11.0004C13.2004 10.6967 12.9541 10.4506 12.6504 10.4506H11.0004V3.30057L12.6503 3.30026Z" fill="white"/>
</svg>
