<svg width="16" height="15" viewBox="0 0 16 15" fill="none" xmlns="http://www.w3.org/2000/svg">
<path fill-rule="evenodd" clip-rule="evenodd" d="M0.533397 0H12.1286C12.4227 0 12.6619 0.247391 12.6619 0.551454V9.02367C12.6619 9.32774 12.4227 9.57683 12.1286 9.57683H4.92295L2.08016 12.0247L1.39727 11.7223V9.57684H0.533363C0.240917 9.57684 0 9.32774 0 9.02368V0.551458C0 0.247391 0.240955 0 0.533397 0ZM14.6026 12.5522V14.6976L13.9197 15L11.0769 12.5522H3.87131C3.61545 12.5522 3.39948 12.3632 3.34794 12.1107L5.24034 10.4822H12.1288C12.9064 10.4822 13.5394 9.82773 13.5394 9.02378V2.9753H15.4666C15.7591 2.9753 16 3.22439 16 3.52846V12.0007C16 12.3047 15.7591 12.5521 15.4666 12.5521L14.6026 12.5522ZM6.88688 6.44893H5.70066C5.69737 6.27196 5.69573 6.16555 5.69573 6.12602C5.69573 5.23792 5.9964 4.83253 6.64777 4.2863C7.00505 3.98733 7.50347 3.66274 7.50347 3.13874C7.50347 2.5048 6.93022 2.19054 6.377 2.19054C5.63767 2.19054 5.23229 2.66291 5.08441 3.37749L3.88816 3.2212C3.96956 1.87955 5.10606 1.1616 6.32216 1.1616C7.48688 1.1616 8.77452 1.82982 8.77452 3.17829C8.77452 4.02689 8.06504 4.61092 7.48852 5.10572C6.95022 5.56776 6.87362 5.72405 6.88688 6.44893ZM5.70066 8.25433V6.90926H6.88688V8.25433H5.70066Z" fill="white"/>
</svg>
