<svg width="18" height="20" viewBox="0 0 18 20" fill="none" xmlns="http://www.w3.org/2000/svg">
<path d="M11.8939 7.52056V3.18804C11.8939 3.04493 11.8326 2.90199 11.7304 2.79984L8.84898 0.143111C8.74682 0.0613588 8.62411 0 8.50156 0H0.531294C0.245072 0 0 0.224863 0 0.510926V14.7754C0 15.0615 0.245261 15.2863 0.531294 15.2863H8.66468C8.70547 15.2863 8.72604 15.2863 8.76683 15.266L9.76827 15.0411C8.95092 13.1201 8.95092 12.3844 8.95092 12.0573C8.95075 10.0546 10.1565 8.29713 11.8935 7.52068L11.8939 7.52056ZM3.57626 1.20562C3.57626 1.10347 3.65801 1.02171 3.76016 1.02171H4.92494C5.02709 1.02171 5.10884 1.10347 5.10884 1.20562V2.37039C5.10884 2.47254 5.02709 2.55429 4.92494 2.55429H3.76016C3.65801 2.55429 3.57626 2.47254 3.57626 2.37039V1.20562ZM3.57626 3.78061C3.57626 3.67846 3.65801 3.59671 3.76016 3.59671H4.92494C5.02709 3.59671 5.10884 3.67846 5.10884 3.78061V4.94539C5.10884 5.04754 5.02709 5.12929 4.92494 5.12929H3.76016C3.65801 5.12929 3.57626 5.04754 3.57626 4.94539V3.78061ZM3.57626 6.33503C3.57626 6.23288 3.65801 6.15112 3.76016 6.15112H4.92494C5.02709 6.15112 5.10884 6.23288 5.10884 6.33503V7.4998C5.10884 7.60195 5.02709 7.6837 4.92494 7.6837H3.76016C3.65801 7.6837 3.57626 7.60195 3.57626 7.4998V6.33503ZM3.57626 8.88961C3.57626 8.78746 3.65801 8.70571 3.76016 8.70571H4.92494C5.02709 8.70571 5.10884 8.78746 5.10884 8.88961V10.0544C5.10884 10.1565 5.02709 10.2383 4.92494 10.2383H3.76016C3.65801 10.2383 3.57626 10.1565 3.57626 10.0544V8.88961ZM1.02167 1.20544C1.02167 1.10329 1.10343 1.02154 1.20558 1.02154H2.37035C2.4725 1.02154 2.55425 1.10329 2.55425 1.20544V2.37022C2.55425 2.47237 2.4725 2.55412 2.37035 2.55412H1.20558C1.10343 2.55412 1.02167 2.47237 1.02167 2.37022V1.20544ZM1.02167 3.78044C1.02167 3.67829 1.10343 3.59654 1.20558 3.59654H2.37035C2.4725 3.59654 2.55425 3.67829 2.55425 3.78044V4.94521C2.55425 5.04736 2.4725 5.12912 2.37035 5.12912H1.20558C1.10343 5.12912 1.02167 5.04736 1.02167 4.94521V3.78044ZM1.02167 6.33485C1.02167 6.2327 1.10343 6.15095 1.20558 6.15095H2.37035C2.4725 6.15095 2.55425 6.2327 2.55425 6.33485V7.49963C2.55425 7.60178 2.4725 7.68353 2.37035 7.68353H1.20558C1.10343 7.68353 1.02167 7.60178 1.02167 7.49963V6.33485ZM1.02167 10.0542V8.88944C1.02167 8.78729 1.10343 8.70554 1.20558 8.70554H2.37035C2.4725 8.70554 2.55425 8.78729 2.55425 8.88944V10.0542C2.55425 10.1564 2.4725 10.2381 2.37035 10.2381H1.20558C1.10343 10.2383 1.02167 10.1565 1.02167 10.0542ZM4.1076 14.121C4.1076 14.2231 4.02584 14.3049 3.92369 14.3049H2.51364C2.41149 14.3049 2.32974 14.2231 2.32974 14.121V11.4439C2.32974 11.3417 2.41149 11.2599 2.51364 11.2599H3.92369C4.02584 11.2599 4.1076 11.3417 4.1076 11.4439V14.121ZM6.37595 14.121C6.37595 14.2231 6.2942 14.3049 6.19205 14.3049L4.782 14.3051C4.67985 14.3051 4.59809 14.2233 4.59809 14.1212V11.4438C4.59809 11.3417 4.67985 11.2599 4.782 11.2599H6.19205C6.2942 11.2599 6.37595 11.3417 6.37595 11.4438V14.121ZM7.68399 10.0542C7.68399 10.1564 7.60224 10.2381 7.50009 10.2381H6.33532C6.23317 10.2381 6.15141 10.1564 6.15141 10.0542L6.15124 8.88944C6.15124 8.78729 6.233 8.70554 6.33515 8.70554H7.49992C7.60207 8.70554 7.68382 8.78729 7.68382 8.88944L7.68399 10.0542ZM7.68399 7.47939C7.68399 7.58154 7.60224 7.66329 7.50009 7.66329H6.33532C6.23317 7.66329 6.15141 7.58154 6.15141 7.47939V6.31462C6.15141 6.21246 6.23317 6.13071 6.33532 6.13071H7.50009C7.60224 6.13071 7.68399 6.21246 7.68399 6.31462V7.47939ZM7.68399 4.9248C7.68399 5.02695 7.60224 5.10871 7.50009 5.10871H6.33532C6.23317 5.10871 6.15141 5.02695 6.15141 4.9248L6.15124 3.7804C6.15124 3.67825 6.233 3.59649 6.33515 3.59649H7.49992C7.60207 3.59649 7.68382 3.67825 7.68382 3.7804L7.68399 4.9248ZM7.68399 2.37022C7.68399 2.47237 7.60224 2.55412 7.50009 2.55412H6.33532C6.23317 2.55412 6.15141 2.47237 6.15141 2.37022L6.15124 1.20544C6.15124 1.10329 6.233 1.02154 6.33515 1.02154H7.49992C7.60207 1.02154 7.68382 1.10329 7.68382 1.20544L7.68399 2.37022Z" fill="white"/>
<path d="M13.9786 8.33777C11.8941 8.33777 10.2183 10.0135 10.2183 12.0981C10.2183 13.5695 12.1188 17.0844 13.2224 18.9853C13.5698 19.5779 14.4078 19.5779 14.7348 18.9853C15.8384 17.0847 17.7389 13.5696 17.7389 12.0981C17.7388 10.0135 16.0425 8.33777 13.9786 8.33777H13.9786ZM13.9786 13.835C13.0181 13.835 12.2211 13.0584 12.2211 12.0775C12.2211 11.117 12.9977 10.32 13.9786 10.32C14.9391 10.32 15.7361 11.0966 15.7361 12.0775C15.7361 13.0584 14.9391 13.835 13.9786 13.835Z" fill="white"/>
</svg>
