<svg width="18" height="15" viewBox="0 0 18 15" fill="none" xmlns="http://www.w3.org/2000/svg">
<path d="M9.17574 3.4976C9.17574 5.32747 7.69236 6.81069 5.86265 6.81069C4.03294 6.81069 2.54956 5.32747 2.54956 3.4976C2.54956 1.66789 4.03294 0.184509 5.86265 0.184509C7.69236 0.184509 9.17574 1.66789 9.17574 3.4976Z" fill="white"/>
<path d="M8.986 3.4976C8.98029 4.78792 8.16331 5.98609 6.94264 6.43123C6.32284 6.65665 5.64103 6.68473 5.00442 6.50452C4.39209 6.33176 3.84942 5.96927 3.4436 5.48085C2.606 4.47224 2.5102 2.9941 3.18629 1.87857C3.86051 0.764781 5.20159 0.171339 6.48066 0.434211C7.75782 0.697229 8.74945 1.74325 8.95043 3.02789C8.97661 3.18208 8.98597 3.33992 8.98597 3.49759C8.98787 3.73982 9.36352 3.73982 9.36161 3.49759C9.35781 2.77642 9.1381 2.05892 8.7155 1.47295C8.30034 0.89441 7.72387 0.453095 7.05522 0.207036C5.68603 -0.296332 4.0859 0.14136 3.16375 1.26815C2.70546 1.82971 2.42752 2.51152 2.3712 3.23459C2.31488 3.95401 2.48954 4.69024 2.86327 5.30622C3.22385 5.90157 3.7667 6.39174 4.40156 6.67922C5.07578 6.98348 5.82894 7.07169 6.55583 6.92717C7.96262 6.64924 9.0989 5.46978 9.31483 4.05365C9.34307 3.86963 9.35988 3.68371 9.35988 3.49777C9.36353 3.25537 8.98788 3.25537 8.98598 3.49761L8.986 3.4976Z" fill="white"/>
<path d="M15.828 4.7277C15.828 6.09388 14.7205 7.20129 13.3544 7.20129C11.9883 7.20129 10.8809 6.09384 10.8809 4.7277C10.8809 3.36168 11.9883 2.25427 13.3544 2.25427C14.7205 2.25427 15.828 3.36172 15.828 4.7277Z" fill="white"/>
<path d="M15.6402 4.7277C15.6345 5.67047 15.0392 6.54945 14.1453 6.87259C13.2344 7.20128 12.2107 6.92145 11.589 6.17953C10.9748 5.44521 10.9036 4.36139 11.3974 3.54443C11.8857 2.7349 12.8624 2.29549 13.7939 2.48332C14.733 2.67114 15.4599 3.43178 15.6138 4.37646C15.6345 4.4929 15.6403 4.61124 15.6403 4.72768C15.6422 4.96991 16.0178 4.96991 16.0159 4.72768C16.0102 3.61198 15.3041 2.6091 14.2579 2.22412C13.223 1.84466 12.0078 2.17526 11.3092 3.02792C10.6011 3.89183 10.4942 5.13715 11.0744 6.09877C11.6547 7.06043 12.7967 7.55442 13.8935 7.3328C14.9547 7.12055 15.8168 6.22474 15.9802 5.15222C16.0009 5.01135 16.014 4.86858 16.0159 4.72581C16.0177 4.48547 15.642 4.48547 15.6403 4.72771L15.6402 4.7277Z" fill="white"/>
<path d="M11.5384 11.7257V13.0798C11.5384 13.5099 11.1814 13.8574 10.7514 13.8574H0.971947C0.541881 13.8574 0.194336 13.51 0.194336 13.0799V11.7258C0.194336 9.63913 1.88666 7.94128 3.97319 7.94128H7.75204C8.61234 7.94128 9.40851 8.23048 10.0453 8.71512C10.9487 9.40631 11.5385 10.4974 11.5385 11.7257H11.5384Z" fill="white"/>
<path d="M11.3414 11.7257V12.9598C11.3414 13.0161 11.3452 13.0743 11.3395 13.1325C11.3264 13.2904 11.2456 13.4387 11.1235 13.54C11.0089 13.634 10.8681 13.6715 10.7215 13.6715C10.1899 13.6735 9.65848 13.6715 9.12688 13.6715H6.07683H2.9384H1.07714H0.971966C0.678969 13.6677 0.423561 13.4537 0.384047 13.1588C0.361521 12.9935 0.38024 12.8151 0.38024 12.6498V11.8817C0.38024 11.6544 0.382143 11.4291 0.415932 11.2037C0.470342 10.8468 0.57552 10.4938 0.733361 10.1688C1.04698 9.52647 1.54476 8.98359 2.16074 8.62305C2.71487 8.29816 3.34592 8.13479 3.98631 8.13479H4.93668H7.67314C8.36051 8.13479 9.0236 8.29818 9.61323 8.65874C10.3082 9.08134 10.8547 9.74617 11.1271 10.5143C11.2719 10.9033 11.3395 11.3108 11.3414 11.7258C11.3433 11.968 11.7189 11.968 11.717 11.7258C11.7132 10.8243 11.4071 9.95653 10.8474 9.25044C10.282 8.53484 9.45567 8.02595 8.56163 7.84365C8.13713 7.75719 7.71453 7.7591 7.28637 7.7591H5.75572H4.30008C3.87001 7.7591 3.4436 7.77036 3.02101 7.87363C1.50733 8.24182 0.305338 9.53408 0.0592782 11.0779C-0.0214678 11.5831 0.00486822 12.1033 0.00486822 12.6143C0.00486822 12.7946 -0.00829854 12.9787 0.00867546 13.1589C0.0462719 13.574 0.352436 13.942 0.767443 14.0247C0.93655 14.0585 1.11485 14.0472 1.28588 14.0472H2.22309H5.2132H8.49807H10.5735H10.7369C11.0073 14.0453 11.274 13.9401 11.458 13.7372C11.659 13.5175 11.7153 13.2526 11.7153 12.9653V12.2103V11.7257C11.7171 11.4835 11.3414 11.4835 11.3414 11.7257L11.3414 11.7257Z" fill="white"/>
<path d="M17.5861 10.7381V12.0078C17.5861 12.2464 17.404 12.4491 17.1709 12.468L12.4024 12.4678V11.6171C12.4024 10.2573 11.7733 9.04403 10.791 8.25322C11.1065 8.12362 11.4503 8.05414 11.8128 8.05414H14.8985C16.3822 8.05414 17.5861 9.25438 17.5861 10.7381L17.5861 10.7381Z" fill="white"/>
<path d="M17.3979 10.7381C17.3979 11.1587 17.4111 11.5832 17.3979 12.0059C17.3922 12.1712 17.2683 12.2744 17.1106 12.2744H16.6993H13.3787H12.4003L12.5881 12.4623C12.5881 12.0585 12.6068 11.6472 12.5711 11.2452C12.5035 10.4639 12.2386 9.70136 11.7879 9.05715C11.5438 8.70594 11.2527 8.39041 10.9202 8.11994C10.892 8.22512 10.8658 8.32839 10.8376 8.43357C11.1569 8.30396 11.4892 8.24019 11.833 8.24019H12.2125H13.6868H14.8382C15.4055 8.24019 15.9482 8.40168 16.4046 8.74543C17.0299 9.21103 17.3943 9.96041 17.3979 10.738C17.3998 10.9803 17.7755 10.9803 17.7736 10.738C17.7698 9.96228 17.4562 9.20924 16.8965 8.67022C16.3612 8.15369 15.64 7.8645 14.8963 7.86259C14.0548 7.85879 13.2116 7.86259 12.3702 7.86259H11.8594C11.4762 7.86259 11.0987 7.92652 10.7418 8.06913C10.6253 8.11609 10.537 8.28329 10.6591 8.38276C11.2168 8.83536 11.6658 9.42324 11.9269 10.0957C12.0603 10.4395 12.1542 10.802 12.1917 11.17C12.2161 11.399 12.2142 11.6283 12.2142 11.8593V12.4621C12.2142 12.5635 12.3007 12.6499 12.402 12.6499H13.2228H14.9921H16.6392H17.0936C17.334 12.6499 17.5594 12.5485 17.6852 12.3344C17.811 12.1202 17.7734 11.8348 17.7734 11.5943V10.7924V10.7398C17.7735 10.4956 17.3979 10.4956 17.3979 10.738L17.3979 10.7381Z" fill="white"/>
</svg>
