<svg width="18" height="18" viewBox="0 0 18 18" fill="none" xmlns="http://www.w3.org/2000/svg">
<path d="M9 18C13.9633 18 18 13.9622 18 8.99956C18 4.03757 13.9636 0 9 0C4.03574 0 0 4.03749 0 8.99956C0 13.9622 4.03601 18 9 18ZM9.77623 10.3636C9.61795 10.1805 9.33759 10.0074 8.93896 9.84427C8.54068 9.68255 8.17135 9.51704 7.83274 9.34945C7.49446 9.1829 7.20445 8.98946 6.95996 8.76946C6.71547 8.54946 6.52857 8.29499 6.3965 8.00603C6.26614 7.71708 6.20304 7.36673 6.20304 6.95504C6.20304 6.26677 6.43374 5.69916 6.89927 5.25399C7.36239 4.8071 7.98245 4.54849 8.75585 4.47401V3.18538H9.72692V4.49917C10.4725 4.60883 11.058 4.91502 11.4832 5.41846C11.9088 5.92121 12.1226 6.55984 12.1226 7.33392H10.0552C10.0552 6.91013 9.97593 6.58462 9.81248 6.35637C9.64902 6.12776 9.41798 6.01431 9.11694 6.01431C8.84659 6.01431 8.6383 6.09844 8.49037 6.26706C8.34105 6.43637 8.26656 6.66878 8.26656 6.96705C8.26656 7.26843 8.35312 7.5067 8.5245 7.68428C8.69417 7.86186 8.97004 8.03083 9.34763 8.19151C9.7273 8.35289 10.0852 8.52013 10.4207 8.69288C10.7566 8.86564 11.0466 9.06253 11.2908 9.28184C11.5366 9.50184 11.7273 9.75872 11.8656 10.0518C12.0046 10.3449 12.0739 10.6973 12.0739 11.1084C12.0739 11.8049 11.8515 12.3739 11.4108 12.8129C10.969 13.2536 10.3656 13.5091 9.60557 13.5825V14.8111H8.63451V13.5767C7.7459 13.4826 7.06483 13.1791 6.59104 12.6629C6.11585 12.1488 5.87895 11.4694 5.87895 10.6257H7.93795C7.93795 11.0902 8.03968 11.4429 8.24521 11.686C8.45212 11.9281 8.74281 12.0495 9.12317 12.0495C9.40076 12.0495 9.61801 11.9674 9.77663 11.8022C9.93491 11.6371 10.0149 11.4098 10.0149 11.1209C10.0146 10.7998 9.93486 10.5477 9.77623 10.3636Z" fill="white"/>
</svg>
