<svg width="19" height="13" viewBox="0 0 19 13" fill="none" xmlns="http://www.w3.org/2000/svg">
<path fill-rule="evenodd" clip-rule="evenodd" d="M3.69097 0.953069C3.99359 0.587032 4.59868 0.404102 5.0524 0.343115C8.07784 -0.114372 10.9219 -0.114372 13.9474 0.343115C14.371 0.404094 15.0063 0.587032 15.2786 0.953069C15.6114 2.051 15.9139 3.14898 16.2165 4.27741C16.3678 4.15545 16.5494 4.09447 16.7611 4.09447H18.062C18.6066 4.09447 19 4.5215 19 5.03997C19 5.52795 18.5764 5.95499 18.062 5.95499H17.4569C17.6384 6.35151 17.7898 6.90049 17.7898 7.72386C17.8201 9.30982 17.8201 10.8956 17.8201 12.4815C17.8201 12.7866 17.5781 13 17.3057 13H14.9459C14.6737 13 14.4315 12.7866 14.4315 12.4815V11.8411H4.56846V12.4815C4.56846 12.7866 4.32649 13 4.02387 13H1.69427C1.39165 13 1.14968 12.7866 1.14968 12.4815C1.14968 10.8956 1.17993 9.30978 1.17993 7.72386C1.17993 6.90049 1.33116 6.35149 1.5128 5.95499H0.907713C0.423626 5.95499 0 5.52795 0 5.03997C0 4.5215 0.393364 4.09447 0.907713 4.09447H2.23889C2.42037 4.09447 2.60201 4.15545 2.75323 4.27741C3.05585 3.14898 3.35809 2.051 3.69097 0.953069ZM7.35175 9.27898H11.6478C11.92 9.27898 12.1319 9.4924 12.1319 9.76696C12.1319 10.0414 11.9201 10.2549 11.6478 10.2549H7.35175C7.07952 10.2549 6.86766 10.0415 6.86766 9.76696C6.86766 9.49255 7.07938 9.27898 7.35175 9.27898ZM4.56827 1.38014C4.3263 2.29516 4.08418 3.2405 3.81193 4.18601C7.50296 3.78948 11.4664 3.78948 15.1574 4.18601C14.9155 3.2405 14.6431 2.29516 14.4011 1.38014C11.1638 0.800682 7.83603 0.800682 4.56827 1.38014ZM14.9758 6.53455C14.4009 6.53455 13.9168 6.99203 13.9168 7.57153C13.9168 8.15099 14.4009 8.63901 14.9758 8.63901C15.5506 8.63901 16.0045 8.15103 16.0045 7.57153C16.0045 6.99207 15.5507 6.53455 14.9758 6.53455ZM4.02344 6.53455C4.59828 6.53455 5.05215 6.99203 5.05215 7.57153C5.05215 8.15099 4.59832 8.63901 4.02344 8.63901C3.44856 8.63901 2.99473 8.15103 2.99473 7.57153C2.99473 6.99207 3.44856 6.53455 4.02344 6.53455Z" fill="white"/>
</svg>
