<svg width="25" height="27" viewBox="0 0 25 27" fill="none" xmlns="http://www.w3.org/2000/svg">
<path d="M9.66896 16.8816H8.38079L6.62744 19.4878H8.14996L7.47668 21.7716L10.024 18.8141H8.2379L9.66896 16.8816Z" fill="white"/>
<path d="M23.8453 10.5427V8.30391C23.8453 8.00061 23.5998 7.75502 23.2965 7.75502C22.9932 7.75502 22.7476 8.00061 22.7476 8.30391V10.5427H21.4767V8.30391C21.4767 8.00061 21.2311 7.75502 20.9278 7.75502C20.6245 7.75502 20.3789 8.00061 20.3789 8.30391V10.5427H19.2234C19.2234 12.8087 20.2302 14.6934 21.5626 15.1069V21.3748C21.5626 21.3748 21.7358 23.6279 20.2338 23.6279C18.7318 23.6279 18.6163 22.7612 18.6163 21.3171V15.1357C18.6163 15.1357 18.4719 12.3628 16.0166 12.3628H14.7601V1.64666C14.7601 0.737238 14.0229 0.000249836 13.1137 0.000249836L3.58141 0C2.67199 0 1.935 0.737244 1.935 1.64641V24.8702C1.935 24.8999 1.94225 24.9274 1.94375 24.9569H0.981882C0.439487 24.9569 0 25.3966 0 25.9388C0 26.4809 0.43971 26.9206 0.981882 26.9206H15.7133C16.2557 26.9206 16.6952 26.4809 16.6952 25.9388C16.6952 25.3966 16.2555 24.9569 15.7133 24.9569H14.7515C14.753 24.9274 14.7602 24.8999 14.7602 24.8702L14.76 13.4601H15.843C15.843 13.4601 17.4927 13.3447 17.4927 15.6554V21.7788C17.4927 21.7788 17.4894 24.7187 20.089 24.7187C22.371 24.7187 22.6468 22.5298 22.6468 21.4898L22.6471 15.1103C23.9862 14.7055 25 12.8163 25 10.5428L23.8453 10.5427ZM8.32594 22.5495C6.46092 22.5495 4.94889 21.0378 4.94889 19.1725C4.94889 17.3075 6.46067 15.7959 8.32594 15.7959C10.1912 15.7959 11.703 17.3077 11.703 19.1725C11.7027 21.0378 10.1907 22.5495 8.32594 22.5495ZM13.3304 11.5251H3.3651V1.55916H13.3304V11.5251Z" fill="white"/>
</svg>
