<svg width="12" height="14" viewBox="0 0 12 14" fill="none" xmlns="http://www.w3.org/2000/svg">
<path d="M12 1.74999V2.45003C12 2.64326 11.832 2.79991 11.625 2.79991H0.375011C0.167844 2.79991 0 2.64325 0 2.45003V1.74999C0 1.55663 0.167851 1.39997 0.375011 1.39997H3.7499V0.699937C3.7499 0.313327 4.08574 0 4.49992 0H7.49994C7.91415 0 8.24986 0.313331 8.24986 0.699937V1.39997H11.6249C11.8319 1.39997 11.9999 1.55664 11.9999 1.74999H12ZM1.40249 12.6979C1.45775 13.4326 2.11334 14.0018 2.90257 14H9.11228C9.90137 14.0018 10.5571 13.4326 10.6124 12.6979L11.2498 4.20005H0.749776L1.40249 12.6979Z" fill="#70787F"/>
</svg>
