<svg width="19" height="23" viewBox="0 0 19 23" fill="none" xmlns="http://www.w3.org/2000/svg">
<path fill-rule="evenodd" clip-rule="evenodd" d="M4.075 8.15083H10.5957V4.07549H4.075V8.15083ZM3.26181 9.78122H11.4089C11.861 9.78122 12.2261 9.41681 12.2261 8.96803V3.25817C12.2261 2.80904 11.8603 2.44498 11.4089 2.44498H3.26181C2.81033 2.44498 2.44458 2.80939 2.44458 3.25817V8.96803C2.44458 9.41716 2.81033 9.78122 3.26181 9.78122Z" fill="#0062A6"/>
<path fill-rule="evenodd" clip-rule="evenodd" d="M17.1295 18.1112C16.6632 18.7547 15.4917 18.8582 14.6715 18.8249V10.7068C15.2635 12.1244 15.8488 13.2159 16.2296 13.9256L16.3967 14.2382C17.3601 16.0582 17.6207 17.4342 17.1295 18.1112V18.1112ZM12.2234 21.1932H2.4471C1.9963 21.1932 1.62954 20.8284 1.62954 20.3803V12.2269H13.041V20.3803C13.041 20.8284 12.6742 21.1932 12.2234 21.1932ZM2.4471 1.63019H12.2234C12.6742 1.63019 13.041 1.9946 13.041 2.44237V10.5965H1.62954V2.44237C1.62954 1.9946 1.9963 1.63019 2.4471 1.63019ZM17.8379 13.4754L17.6662 13.1547C16.9431 11.8063 15.4434 9.0074 14.6719 5.21235V2.44228C14.6719 1.09287 13.5764 0 12.2239 0H2.44761C1.0908 0 0 1.09321 0 2.44228V20.3805C0 21.7306 1.09588 22.8234 2.44761 22.8234H12.2239C13.5549 22.8234 14.6259 21.7715 14.6679 20.4602C14.7643 20.4632 14.8642 20.4662 14.9697 20.4662C16.069 20.4662 17.6023 20.2326 18.4467 19.0725C19.351 17.8307 19.1459 15.9472 17.8379 13.4756" fill="#0062A6"/>
<path fill-rule="evenodd" clip-rule="evenodd" d="M9.36046 16.6499C9.32751 16.0129 8.76241 15.8804 8.24702 15.8804H6.60854C6.81192 15.4733 7.01598 15.0666 7.21936 14.6592C7.42779 14.2427 7.8564 13.6651 7.69336 13.177C7.44022 12.4169 6.4751 12.5016 6.15505 13.1423C5.93082 13.5898 5.70727 14.0379 5.48305 14.4853C5.22755 14.9966 4.97207 15.5079 4.71624 16.0189C4.53774 16.3762 4.35822 16.7353 4.59892 17.1242C4.85911 17.5414 5.29882 17.5105 5.72277 17.5105H7.23113L6.28551 19.4021C6.107 19.7594 6.00783 20.1437 6.3003 20.4856C6.69564 20.9488 7.40564 20.8076 7.66546 20.2879C7.99121 19.6364 8.31695 18.9845 8.64266 18.3334C8.81679 17.9848 8.99127 17.6368 9.1654 17.2882C9.26693 17.0855 9.37887 16.8861 9.36038 16.6498C9.35904 16.6192 9.36172 16.6653 9.36038 16.6498" fill="#0062A6"/>
</svg>
