<svg width="52" height="45" viewBox="0 0 52 45" fill="none" xmlns="http://www.w3.org/2000/svg">
<path d="M15.0004 24.0002V24.7502C15.0004 25.9929 13.9929 27.0005 12.7502 27.0005H5.25006C4.00741 27.0005 3.00028 25.9929 3.00028 24.7502V24.0002H1.50014C0.671424 24.0002 0 23.3288 0 22.5001C0 21.6718 0.671392 21.0003 1.50014 21.0003H3.00028V20.2503C3.00028 19.0076 4.00737 18.0001 5.25006 18.0001H12.7502C13.9929 18.0001 15.0004 19.0076 15.0004 20.2503V21.0003C17.4857 21.0003 19.5003 23.0149 19.5003 25.5002V39.7499C19.5003 40.9926 20.5078 42.0001 21.7505 42.0001C22.9932 42.0001 24.0007 40.9926 24.0007 39.7499V5.24995C24.0007 2.35026 26.351 0 29.2507 0C32.15 0 34.5006 2.35026 34.5006 5.24995V19.4997C34.5006 20.328 35.1724 20.9998 36.0008 20.9998V20.2498C36.0008 19.0071 37.0083 17.9995 38.251 17.9995H45.7507C46.9934 17.9995 48.0009 19.0071 48.0009 20.2498V20.9998H49.5011C50.3294 20.9998 51.0012 21.6712 51.0012 22.4995C51.0012 23.3282 50.3294 23.9997 49.5011 23.9997H48.0009V24.7497C48.0009 25.9924 46.9934 26.9999 45.7507 26.9999H38.251C37.0083 26.9999 36.0008 25.9924 36.0008 24.7497V23.9997C33.5155 23.9997 31.5009 21.9851 31.5009 19.4998V5.25006C31.5009 4.00741 30.4934 2.99985 29.2507 2.99985C28.008 2.99985 27.0005 4.00736 27.0005 5.25006V39.75C27.0005 42.6497 24.6502 45 21.7505 45C18.8508 45 16.5006 42.6497 16.5006 39.75V25.5003C16.5006 24.672 15.8288 24.0002 15.0004 24.0002Z" fill="white"/>
</svg>
