<svg width="40" height="36" viewBox="0 0 40 36" fill="none" xmlns="http://www.w3.org/2000/svg">
<path d="M38.7847 4.32031V0.471704H37.5024V4.32031H34.3464V0.471704H33.073V4.32031H31.6783V8.09136C31.6783 9.93512 32.9467 11.4688 34.6674 11.9698L34.6651 26.5909C34.6651 28.3548 33.1904 29.7853 31.3734 29.7853C29.5608 29.7853 28.0983 28.3548 28.0832 26.5909V18.3513C28.0832 15.356 25.5932 12.9124 22.5128 12.9124C22.1351 12.9124 21.7228 12.9493 21.3501 13.0221V1.93382C21.3501 0.864841 20.4661 0 19.3662 0L3.2244 0.000542906C2.11954 0.000542906 1.23338 0.865398 1.23338 1.93436V32.401H0V36H22.666V32.401H21.3481V15.3658C21.7208 15.2311 22.1052 15.1437 22.5108 15.1437C24.335 15.1437 25.7908 16.5829 25.8126 18.3517V26.5914C25.8126 29.5887 28.305 32.0232 31.372 32.0232C34.4596 32.0232 36.9591 29.5887 36.9591 26.5914V11.9828C38.706 11.5045 40 9.95614 40 8.09125V4.3202H38.7839L38.7847 4.32031ZM15.5562 21.7336L7.27423 31.9891L9.82111 23.9855H6.23785L10.2991 16.8393H15.5558L11.6542 21.7341H15.5562V21.7336ZM18.7962 13.1203H3.71262L3.71317 2.66403H18.7968L18.7962 13.1203ZM35.8424 9.91996C34.8087 9.91996 33.9647 9.10073 33.9647 8.09205C33.9647 7.08062 34.8087 6.25705 35.8424 6.25705C36.8766 6.25705 37.716 7.08064 37.716 8.09205C37.716 9.10077 36.876 9.91996 35.8424 9.91996Z" fill="white"/>
</svg>
