<svg width="28" height="35" viewBox="0 0 28 35" fill="none" xmlns="http://www.w3.org/2000/svg">
<path d="M26.8781 0H0.66215C0.296545 0 0 0.296553 0 0.662149V34.0751C0 34.4407 0.296553 34.7373 0.66215 34.7373H26.8781C27.244 34.7373 27.5402 34.4407 27.5402 34.0751V0.662149C27.5402 0.296545 27.2439 0 26.8781 0ZM13.5746 1.56323H13.9654C14.2743 1.56323 14.5245 1.81336 14.5245 2.12223C14.5245 2.43082 14.2743 2.68124 13.9654 2.68124H13.5746C13.266 2.68124 13.0156 2.43082 13.0156 2.12223C13.0156 1.81336 13.266 1.56323 13.5746 1.56323ZM15.7456 32.9239H11.8163C11.5074 32.9239 11.2573 32.6735 11.2573 32.3649C11.2573 32.056 11.5074 31.8056 11.8163 31.8056H15.7241C16.033 31.8056 16.2831 32.056 16.2831 32.3649C16.2831 32.6735 16.033 32.9239 15.7241 32.9239H15.7456ZM25.8738 28.2235C25.8723 28.6908 25.6861 29.1387 25.3554 29.4693C25.0251 29.7996 24.5773 29.9859 24.1097 29.9873H3.45733C2.98543 29.9933 2.53041 29.8102 2.19403 29.4787C1.85766 29.1475 1.66769 28.6956 1.66626 28.2235V5.96992C1.67628 5.50346 1.86997 5.05965 2.20549 4.73559C2.54101 4.41125 2.99085 4.23246 3.45728 4.23848H24.1368C24.6041 4.23991 25.0519 4.42615 25.3825 4.75651C25.7129 5.08716 25.8994 5.53497 25.9006 6.00229L25.8738 28.2235Z" fill="white"/>
<path d="M3.17679 5.7373H23.894C24.2484 5.7373 24.5354 6.08337 24.5354 6.36359V28.111C24.5354 28.4571 24.2481 28.7373 23.894 28.7373H3.17679C2.82238 28.7373 2.5354 28.3912 2.5354 28.111V6.36359C2.5354 6.01753 2.82266 5.7373 3.17679 5.7373Z" fill="white"/>
</svg>
