<?xml version="1.0" encoding="utf-8"?>
<!-- Generator: Adobe Illustrator 15.1.0, SVG Export Plug-In . SVG Version: 6.00 Build 0)  -->
<!DOCTYPE svg PUBLIC "-//W3C//DTD SVG 1.1//EN" "http://www.w3.org/Graphics/SVG/1.1/DTD/svg11.dtd">
<svg version="1.1" id="Layer_1" xmlns="http://www.w3.org/2000/svg" xmlns:xlink="http://www.w3.org/1999/xlink" x="0px" y="0px"
	 width="1000px" height="996px" viewBox="0 0 1000 996" enable-background="new 0 0 1000 996" xml:space="preserve">
<g transform="translate(0.000000,996.000000) scale(0.100000,-0.100000)">
	<path fill="#FFFFFF" d="M5285,9938.998C4719.003,9889.999,4140,9721,3643.999,9461c-97.998-52.002-145-78.003-268.999-153.999
		c-31.001-19.004-215-142.002-280-188.003c-140-97.998-287.998-226.001-278.999-241.001c2.998-5,0-6.997-7.002-5.996
		c-6.997,1.997-26.001-24.004-42.998-56.001c-27.002-52.002-31.001-70-31.001-141.001c0-68.999,3.999-88.999,30-140
		c17.002-32.998,35-58.999,42.002-57.998c6.997,1.997,10-3.003,6.997-11.001c-7.998-21.001,81.001-83.999,143.999-102.002
		c37.002-11.001,77.002-15,121.001-11.997c68.999,5.996,145,33.999,133.999,50.996c-2.998,6.001-0.996,7.002,5,3.003
		c13.003-8.003,124.004,71.997,117.002,82.998c-2.002,3.999,1.001,8.003,7.998,8.003c14.004,0,227.002,158.999,221.001,165
		c-1.997,2.998,2.002,5,8.999,5c19.004,0,68.003,33.999,62.002,42.998c-2.998,3.999,2.998,7.002,12.998,6.001
		c9.004,0,16.001,5,14.004,11.997c-1.001,8.003,1.997,11.001,6.997,8.003c5-3.003,56.001,21.997,113.003,56.001
		c55.996,33.999,173.999,95.996,260,137.998c87.002,42.002,153.994,81.001,150,85c-4.004,5-2.002,5,3.994,2.002
		c6.006-4.004,76.006,17.998,155,47.998c268.008,100,545,170,839.004,211.001c177.998,23.999,635.996,30,827.002,10
		c687.002-73.003,1317.998-318.003,1847.001-718.999c42.998-32.002,85.996-60,95-62.002c8.994-1.001,15.996-7.002,15.996-12.002
		c0-5.996,55.996-60,125-120c132.998-115.996,259.004-245,367.002-373.999c35.996-42.998,68.994-76.001,73.994-73.999
		c4.004,2.998,11.006,0,15-6.001c4.004-7.998,3.008-8.999-3.994-5c-22.002,13.003-12.002-6.001,25.996-52.998
		c21.006-25,72.998-95,114.004-156.001c367.002-533.999,578.994-1122.001,637.998-1765c15.996-169.004,12.998-530.996-5-702.998
		c-55.996-530-225.996-1044.004-494.004-1495c-32.998-57.002-57.998-107.998-55-112.998c3.008-5,0-8.008-7.998-7.002
		c-7.002,2.002-12.002-5-12.002-14.004c1.006-10-1.992-15.996-5.996-12.998c-9.004,5-62.998-74.004-62.998-92.002
		c0-7.002-2.002-10.996-5-7.998c-7.002,7.002-102.002-122.998-100-137.002c2.002-7.002-2.998-12.002-10-12.998
		c-17.002,0-42.998-35-36.006-47.002c3.008-5,1.006-7.002-3.994-5.996c-19.004,5-100-101.006-122.002-159.004
		c-29.004-75.996-25-187.002,10-257.998c70-144.004,245.996-219.004,392.998-165.996c77.002,26.992,130,70.996,225,188.994
		c112.998,140,262.002,355,257.002,370c-2.998,7.002-0.996,10,5,7.002c10.996-7.002,147.998,222.002,229.004,384.004
		C10044.003,4685,10134.999,5860,9784.999,6950c-62.002,192.001-152.002,412.998-237.998,585
		c-109.004,217.998-239.004,440-262.002,443.999c-5,2.002-12.002,5-15,8.003c-2.998,3.999,0.996,2.998,9.004-2.002
		c8.994-5,11.992-2.998,8.994,6.001c-2.998,7.998-10.996,12.998-17.002,11.001c-6.992-1.001-10,1.997-5.996,7.998
		c9.004,13.999-134.004,212.002-147.002,202.998c-7.002-2.998-7.998-0.996-3.994,6.001c22.998,37.002-485,576.001-719.004,762.002
		c-185.996,146.997-262.998,201.001-275.996,192.998c-7.002-3.999-9.004-2.998-6.006,3.003c7.002,10.996-38.994,45.996-60,45.996
		c-7.002,0-10.996,3.003-7.998,5c9.004,9.004-35,33.003-47.002,26.001c-7.002-3.999-7.998-2.998-3.994,3.999
		c7.998,13.003-191.005,134.004-374.003,226.001c-497.998,253.003-1050.996,408.999-1615,456.001
		C5862.998,9952.001,5427.001,9951,5285,9938.998z"/>
	<path fill="#FFFFFF" d="M5325,8772.997c-519.004-45-959.004-178.999-1390-423.999c-160-91.001-361.001-230-357.998-246.997
		c1.997-6.001-3.003-9.004-10-7.002c-6.001,2.998-32.002-12.002-57.002-33.999c-112.002-96.001-141.001-285-63.999-418.003
		c31.001-52.998,112.998-125.996,132.998-117.998c8.003,2.998,12.002,2.998,8.003-1.001c-11.001-11.001,47.998-32.998,107.998-40
		c33.999-3.999,70-1.001,106.001,8.999c61.997,19.004,173.003,93.003,163.003,109.004c-4.004,5.996-2.002,7.998,3.994,3.999
		c6.006-3.003,47.998,21.001,94.004,53.999c180.996,130,447.998,262.998,677.998,338.999c252.998,83.003,465,120,740,128.003
		C5917.001,8141,6332.001,8049.999,6717.998,7856c62.002-31.001,117.998-53.999,124.004-50c5.996,3.999,7.998,2.998,5-3.999
		c-9.004-13.003,78.994-65,95-56.001c5.996,3.999,7.998,2.998,5-3.003c-4.004-5.996,25.996-31.997,65.996-57.998
		c121.006-80,236.006-173.999,357.998-292.002c64.004-61.997,119.004-108.999,123.008-105c3.994,4.004,5.996,2.002,3.994-5
		c-3.994-15.996,112.002-153.999,125-145.996c5,2.998,7.002,0.996,2.998-5c-2.998-6.001,22.002-50,57.002-99.003
		c35-47.998,76.006-108.999,91.006-135.996c15.996-26.006,32.998-44.004,37.998-40c7.002,2.998,7.998,0.996,3.994-6.006
		c-3.994-5.996,1.006-25.996,12.002-43.994c46.005-74.004,136.005-265,177.998-379.004c55-147.002,115-377.998,140-542.998
		c26.006-167.998,26.006-570.996,1.006-735c-67.998-440.996-226.006-820.996-494.003-1192.002
		C7555.996,3824.003,7530,3765,7530,3680c0-162.002,122.998-300,282.998-317.002c69.003-7.002,150,4.004,141.005,19.004
		c-4.004,7.002-2.002,7.998,5,3.994c32.998-20.996,146.992,82.002,252.998,230c312.002,437.002,510,943.008,585,1494.004
		c25,190,25,620,0,810c-77.998,577.002-290,1102.998-622.998,1546c-50,66.997-90,111.997-96.006,107.998
		c-7.002-3.999-7.998-1.997-3.994,3.999c10.996,19.004-225,279.004-243.007,267.002c-6.992-2.998-7.998,0-5,8.999
		c3.008,8.999,1.006,17.002-5,17.002c-5.996,1.001-15,1.997-20.996,2.998c-5,0-10,6.001-10.996,11.001
		c-1.006,15-18.008,32.998-92.002,97.002c-37.002,31.997-72.998,55-79.004,51.997c-5.996-3.999-7.998-2.998-5,3.003
		c7.998,11.997-102.998,100-252.998,200c-532.002,355-1175.996,546.997-1817.002,540.996
		C5445,8777.001,5347.001,8774.999,5325,8772.997z"/>
	<path fill="#FFFFFF" d="M771.001,8138.998C560,8112.001,343.999,7991,205,7822.997C142.002,7746,56.001,7581,35,7494.999
		c-7.998-32.998-18.999-91.001-25-130c-6.001-45-10-1204.003-10-3305C0,1267.998,2.002,812.002,15,727.998
		C63.999,402.998,296.001,125,607.002,20.996L668.999,0h3423.999C7405,0,7519.003,0.996,7570.996,19.004
		c285,97.998,495,320.996,581.005,616.992c22.002,79.004,22.002,82.002,25.996,862.002l2.998,782.002h-325.996h-325v-717.998
		c0-777.002,0-774.004-54.004-844.004c-13.994-18.994-47.998-47.002-75-60.996L7352.001,630H4094.003
		C941.001,630,833.999,630.996,795,649.004c-48.999,22.998-98.999,73.994-118.999,122.998C662.002,805.996,660,1145.996,660,4060
		c0,2913.999,2.002,3253.999,16.001,3287.998C695,7393.998,743.999,7446,792.002,7471c35.996,17.998,67.998,18.999,782.998,18.999
		h745v330v330l-742.002-1.001C1168.999,8147.997,806.001,8143.998,771.001,8138.998z"/>
	<path fill="#FFFFFF" d="M5390,7668.998c-285-21.001-605.996-113.999-849.004-245c-202.998-110-326.992-210-305-246.001
		c4.004-6.997,3.008-7.998-3.994-3.999c-15,8.999-42.002-83.999-42.002-145c0-60,10-110,20.996-102.998
		c5,2.998,6.006-2.002,3.008-10c-14.004-36.001,75-145.005,148.994-181.997c117.998-61.006,207.998-52.002,344.004,31.992
		C4965.996,6926,5165.996,6996,5440,7021c285.996,26.001,610.996-47.002,862.998-193.003c27.002-15.996,52.998-25.996,57.998-22.002
		c5,3.008,8.008,1.006,7.002-3.994c-2.002-6.006,31.006-34.004,72.002-62.998c102.002-72.002,282.998-256.006,354.004-361.006
		c32.998-47.998,63.994-83.994,68.994-80.996c6.006,2.998,7.002,0.996,4.004-4.004c-4.004-5.996,17.998-62.002,47.002-123.994
		c90-188.008,126.992-324.004,146.992-536.006c11.006-130,1.006-292.002-25.996-425
		c-32.002-152.002-107.998-343.994-182.002-462.002c-13.994-20.996-43.994-75.996-65.996-120
		c-37.998-75-42.002-86.992-42.002-160.996c0-67.002,4.004-89.004,27.998-137.002c32.998-67.002,90-120.996,164.004-155
		c48.994-22.002,65-25,142.002-20.996c93.994,3.994,148.994,25,205,75.996c40.996,37.998,137.998,191.006,130,204.004
		c-4.004,5.996-3.008,7.998,2.998,5c12.002-7.002,85.996,130.996,135.996,252.998c109.004,265.996,160,527.002,160,825
		c0,245-28.994,437.002-102.998,670c-42.002,132.002-120,305.996-132.998,297.998c-6.006-2.998-7.002-0.996-2.998,6.006
		c15,22.998-175,327.998-196.006,315c-7.002-4.004-7.998-3.008-3.994,5c25,40-466.006,509.995-506.006,483.994
		c-7.002-3.999-7.998-0.996-2.998,7.002c5.996,10,4.004,12.002-7.998,7.002c-9.004-3.003-16.006-2.002-14.004,2.998
		c2.998,15-97.998,77.002-238.994,146.001C6165.996,7622.001,5770,7697.997,5390,7668.998z"/>
	<path fill="#FFFFFF" d="M5500,6435c-117.998-24.004-287.002-95-275-115c2.998-5,0-7.002-7.998-4.004
		c-7.998,3.008-47.002-20.996-90-55c-71.006-56.992-104.004-95-99.004-113.994c1.006-5-2.002-6.006-7.002-2.998
		c-18.994,11.992-117.998-145-105-166.006c4.004-5.996,3.008-7.998-2.998-5c-17.002,10-60.996-112.002-78.994-215.996
		c-29.004-162.998-5-342.998,63.994-491.006c41.006-87.998,110-187.998,124.004-180c7.002,4.004,7.998,2.002,3.994-5
		c-8.994-13.994,76.006-97.998,152.002-150c82.998-55.996,150-86.992,249.004-116.992c113.994-35,305-39.004,422.998-10
		c125,30,350.996,150,334.004,176.992c-3.008,5-2.002,8.008,2.998,7.002c35.996-10,158.994,139.004,218.994,267.002
		c62.002,132.002,78.008,207.002,79.004,355c0,160-20.996,250.996-85.996,380c-89.004,172.998-214.004,295.996-390,380
		C5859.003,6442.001,5660,6467.001,5500,6435z"/>
	<path fill="#FFFFFF" d="M1280,2065.996V1150h220h220v300v300.996l101.001-2.998l101.997-2.998l163.003-289.004
		c88.999-157.998,166.001-291.992,171.001-296.992s118.999-8.008,260.996-7.002l251.001,2.998L2565,1495l-205,340l67.002,34.004
		c40.996,20,90.996,56.992,127.998,95c102.002,102.998,145,220,145,393.994c0,117.002-17.002,196.006-60,287.002
		c-77.002,159.004-247.998,272.998-475,315c-33.999,7.002-237.998,14.004-472.002,17.002L1280,2982.998V2065.996z M2156.001,2545
		c62.998-40,95-95,101.997-180.996c6.001-81.006-10.996-142.002-53.999-193.008c-52.998-60.996-95-70.996-306.001-70.996H1720
		v240.996v241.006l192.998-4.004l194.004-2.998L2156.001,2545z"/>
	<path fill="#FFFFFF" d="M2977.002,2972.998c-4.004-2.998-7.002-415-7.002-915V1150h220h220v330v330h340h340l-2.002,202.998
		L4085,2215l-337.002,2.998L3410,2220v175v175h435h435v205v205h-647.998C3275,2980,2980,2977.002,2977.002,2972.998z"/>
	<path fill="#FFFFFF" d="M4530,2060v-920h215h215v920v920h-215h-215V2060z"/>
	<path fill="#FFFFFF" d="M5264.003,2970.996c-2.002-1.992-4.004-412.998-4.004-912.998v-908.994l492.998,2.998l492.002,3.994
		l92.998,27.002C6675,1280,6895,1495.996,6977.001,1809.004c20,77.998,25,121.992,25.996,230.996c1.006,137.998-7.998,205-45,320
		c-90,282.998-323.994,495.996-637.998,582.002c-82.002,22.002-102.998,22.998-567.998,27.998
		C5485.996,2972.998,5265.996,2972.998,5264.003,2970.996z M6185,2550c192.998-49.004,327.002-180.996,370-362.002
		c29.004-122.998,14.004-270-37.002-375.996c-35-72.998-120.996-157.998-202.002-197.002c-107.998-52.998-180-65-412.998-65H5700
		v510v510h202.998C6074.003,2570,6119.003,2567.002,6185,2550z"/>
</g>
</svg>
