<svg width="35" height="36" viewBox="0 0 35 36" fill="none" xmlns="http://www.w3.org/2000/svg">
<path d="M0.935579 9.90863V1.06316H3.48716V5.57095C4.96112 3.84183 6.71235 2.48098 8.73916 1.48842C10.766 0.495857 12.9135 0 15.1819 0C19.4626 0 23.1054 1.47396 26.1112 4.42274C29.1161 7.37066 30.6189 10.9718 30.6189 15.2244V15.6497H28.0674V15.0968C28.0674 11.5816 26.806 8.61158 24.2825 6.18758C21.7599 3.76358 18.726 2.55158 15.1819 2.55158C13.2537 2.55158 11.4464 2.9913 9.75979 3.86989C8.07319 4.74934 6.60604 5.91116 5.35831 7.35705H9.82358V9.90863H0.935579ZM0 15.2669H2.55158C2.55158 18.8111 3.77038 21.8296 6.20884 24.3242C8.6473 26.8188 11.6377 28.0674 15.1819 28.0674H15.6922L17.1381 30.4914C16.826 30.5475 16.507 30.5841 16.1813 30.5977C15.8555 30.6121 15.5221 30.6189 15.1819 30.6189C10.9573 30.6189 7.37066 29.1237 4.42274 26.1324C1.47396 23.142 0 19.5196 0 15.2669ZM26.1537 35.2968L25.7284 32.4901C25.2181 32.3481 24.7367 32.1567 24.2825 31.916C23.8292 31.6753 23.4039 31.3563 23.0067 30.9592L20.6678 31.4695L19.6046 29.6834L21.6042 27.8122C21.5183 27.472 21.4766 27.1173 21.4766 26.749C21.4766 26.3799 21.5192 26.0252 21.6042 25.6859L19.6046 23.8147L20.6678 22.0286L23.0067 22.5389C23.4039 22.1417 23.8292 21.8228 24.2825 21.5821C24.7367 21.3414 25.2189 21.15 25.7284 21.008L26.1537 18.2013H28.4501L28.8754 21.008C29.3857 21.15 29.8679 21.3414 30.3213 21.5821C30.7746 21.8228 31.1999 22.1417 31.597 22.5389L33.936 22.0286L34.9992 23.8147L33.0004 25.6859C33.0863 26.0252 33.128 26.3799 33.128 26.749C33.128 27.1173 33.0855 27.472 33.0004 27.8122L35 29.6834L33.936 31.4695L31.597 30.9592C31.1999 31.3563 30.7746 31.6753 30.3213 31.916C29.8679 32.1567 29.3848 32.3481 28.8754 32.4901L28.4501 35.2968H26.1537V35.2968ZM27.3019 30.1512C28.3225 30.1512 29.145 29.8399 29.7684 29.2147C30.3918 28.5921 30.704 27.7697 30.704 26.749C30.704 25.7284 30.3927 24.906 29.7684 24.2825C29.1441 23.6591 28.3225 23.3469 27.3019 23.3469C26.2821 23.3469 25.4596 23.6582 24.8362 24.2825C24.2128 24.9068 23.8998 25.7284 23.8998 26.749C23.8998 27.7697 24.2119 28.5921 24.8362 29.2147C25.4596 29.8399 26.2813 30.1512 27.3019 30.1512Z" fill="white"/>
<path d="M14.775 23L14.4 20.6375C14.1625 20.55 13.9125 20.4313 13.65 20.2812C13.3875 20.1312 13.1563 19.975 12.9563 19.8125L10.7437 20.825L9 17.75L11.025 16.2687C11 16.1562 10.9844 16.0281 10.9781 15.8844C10.9719 15.7406 10.9688 15.6125 10.9688 15.5C10.9688 15.3875 10.9719 15.2594 10.9781 15.1156C10.9844 14.9719 11 14.8438 11.025 14.7313L9 13.25L10.7437 10.175L12.9563 11.1875C13.1563 11.025 13.3875 10.8688 13.65 10.7188C13.9125 10.5687 14.1625 10.4563 14.4 10.3813L14.775 8H18.225L18.6 10.3625C18.8375 10.45 19.0906 10.5656 19.3594 10.7094C19.6281 10.8531 19.8563 11.0125 20.0438 11.1875L22.2562 10.175L24 13.25L21.975 14.6938C22 14.8188 22.0156 14.9531 22.0219 15.0969C22.0281 15.2406 22.0312 15.375 22.0312 15.5C22.0312 15.625 22.0281 15.7562 22.0219 15.8937C22.0156 16.0312 22 16.1625 21.975 16.2875L24 17.75L22.2562 20.825L20.0438 19.8125C19.8438 19.975 19.6156 20.1344 19.3594 20.2906C19.1031 20.4469 18.85 20.5625 18.6 20.6375L18.225 23H14.775ZM16.5 17.9375C17.175 17.9375 17.75 17.7 18.225 17.225C18.7 16.75 18.9375 16.175 18.9375 15.5C18.9375 14.825 18.7 14.25 18.225 13.775C17.75 13.3 17.175 13.0625 16.5 13.0625C15.825 13.0625 15.25 13.3 14.775 13.775C14.3 14.25 14.0625 14.825 14.0625 15.5C14.0625 16.175 14.3 16.75 14.775 17.225C15.25 17.7 15.825 17.9375 16.5 17.9375ZM16.5 16.8125C16.1375 16.8125 15.8281 16.6844 15.5719 16.4281C15.3156 16.1719 15.1875 15.8625 15.1875 15.5C15.1875 15.1375 15.3156 14.8281 15.5719 14.5719C15.8281 14.3156 16.1375 14.1875 16.5 14.1875C16.8625 14.1875 17.1719 14.3156 17.4281 14.5719C17.6844 14.8281 17.8125 15.1375 17.8125 15.5C17.8125 15.8625 17.6844 16.1719 17.4281 16.4281C17.1719 16.6844 16.8625 16.8125 16.5 16.8125ZM15.675 21.875H17.325L17.5875 19.775C18 19.675 18.3906 19.5188 18.7594 19.3063C19.1281 19.0938 19.4625 18.8375 19.7625 18.5375L21.75 19.4L22.5 18.05L20.7375 16.7563C20.7875 16.5438 20.8281 16.3344 20.8594 16.1281C20.8906 15.9219 20.9062 15.7125 20.9062 15.5C20.9062 15.2875 20.8938 15.0781 20.8688 14.8719C20.8438 14.6656 20.8 14.4562 20.7375 14.2437L22.5 12.95L21.75 11.6L19.7625 12.4625C19.475 12.1375 19.15 11.8656 18.7875 11.6469C18.425 11.4281 18.025 11.2875 17.5875 11.225L17.325 9.125H15.675L15.4125 11.225C14.9875 11.3125 14.5906 11.4625 14.2219 11.675C13.8531 11.8875 13.525 12.15 13.2375 12.4625L11.25 11.6L10.5 12.95L12.2625 14.2437C12.2125 14.4562 12.1719 14.6656 12.1406 14.8719C12.1094 15.0781 12.0938 15.2875 12.0938 15.5C12.0938 15.7125 12.1094 15.9219 12.1406 16.1281C12.1719 16.3344 12.2125 16.5438 12.2625 16.7563L10.5 18.05L11.25 19.4L13.2375 18.5375C13.5375 18.8375 13.8719 19.0938 14.2406 19.3063C14.6094 19.5188 15 19.675 15.4125 19.775L15.675 21.875Z" fill="white"/>
</svg>
