<svg width="34" height="33" viewBox="0 0 34 33" fill="none" xmlns="http://www.w3.org/2000/svg">
<path d="M33.9283 11.7773C33.8124 12.1193 33.6481 12.443 33.4406 12.7388L20.6293 31.3886H20.6296C20.2006 32.0123 19.6106 32.5083 18.9223 32.8234L18.4346 31.1735L19.2809 28.3043L24.0009 11.8346L33.9283 11.7773Z" fill="white"/>
<path d="M13.5286 8.91032H0C0.102996 8.58013 0.242344 8.26242 0.416154 7.96366L3.95971 2.12472C4.32096 1.54233 4.81171 1.05123 5.3941 0.689941L7.51723 2.87065L13.5286 8.91032Z" fill="white"/>
<path d="M34.0001 8.90988H20.4714L26.4823 2.87018L28.6631 0.718262C29.2454 1.07951 29.7365 1.57063 30.0978 2.15304L33.6414 7.99198V7.9916C33.7932 8.28431 33.9133 8.59178 34 8.90986L34.0001 8.90988Z" fill="white"/>
<path d="M25.3211 0L16.9999 8.32074L8.6792 0H25.3211Z" fill="white"/>
<path d="M15.4786 31.1715L15.0052 32.8069C14.3464 32.4767 13.7833 31.9825 13.3698 31.3721L0.558513 12.7223C0.351386 12.4265 0.187048 12.1032 0.0708008 11.7612H9.97008L14.6038 28.1156L15.4786 31.1715Z" fill="white"/>
<path d="M21.0453 11.7773L16.9713 25.9516L12.9541 11.7773H21.0453Z" fill="white"/>
</svg>
