<svg width="20" height="22" viewBox="0 0 20 22" fill="none" xmlns="http://www.w3.org/2000/svg">
<path d="M9.48148 15.8145H4.54102V17.9141H6.01187V19.0903H8.01121V17.9141H9.48144L9.48148 15.8145Z" fill="#7D7D7D"/>
<path d="M14.0227 5.86278H11.2102L11.2104 0.926506C11.2104 0.414924 10.7956 0.000163228 10.284 0.000163228C9.77244 0.000163228 9.35769 0.414912 9.35769 0.926506V5.86278L4.66431 5.86261V0.926342C4.66431 0.41476 4.24956 0 3.73797 0C3.22605 0 2.81162 0.414748 2.81162 0.926342V5.86261L0 5.86245V7.96373H1.02434L1.0245 11.7523C1.0245 13.6558 2.56764 15.199 4.47079 15.199H9.55137C11.4549 15.199 12.9977 13.6558 12.9977 11.7523V7.96402H14.0227V5.86241L14.0227 5.86278ZM5.75892 13.8199L6.36015 11.226H5.5164L6.1173 8.63216L8.3654 8.6551L7.36993 11.226H8.50569L5.75892 13.8199Z" fill="#7D7D7D"/>
<path d="M15.4546 12.7266C15.1271 12.7266 14.8618 12.9919 14.8618 13.3194V16.6791H11.5021C11.1746 16.6791 10.9092 16.9445 10.9092 17.272C10.9092 17.5995 11.1746 17.8649 11.5021 17.8649H14.8618V21.2246C14.8618 21.5521 15.1271 21.8175 15.4546 21.8175C15.7821 21.8175 16.0475 21.5521 16.0475 21.2246V17.8649H19.4072C19.7347 17.8649 20.0001 17.5995 20.0001 17.272C20.0001 16.9445 19.7347 16.6791 19.4072 16.6791H16.0475V13.3194C16.0475 12.9919 15.7821 12.7266 15.4546 12.7266Z" fill="#7D7D7D"/>
</svg>
