<svg width="43" height="40" viewBox="0 0 43 40" fill="none" xmlns="http://www.w3.org/2000/svg">
<g clip-path="url(#clip0_288_96)">
<path d="M40.487 5.99756V3.30866H38.9926V5.99756H36.0149V3.30866H34.5205V5.99756H32.7922V10.7374C32.7922 12.2439 34.0694 13.4691 35.6392 13.4691H36.7566V27.8612C36.7566 29.4912 35.3746 30.8181 33.6749 30.8181C31.9761 30.8181 30.5932 29.4912 30.5932 27.8612L30.5936 19.3946C30.5936 18.0221 29.4299 16.9051 27.9995 16.9051H25.267L25.2665 2.94708C25.2665 1.72881 24.2333 0.738197 22.964 0.738197L6.0029 0.737793C4.73319 0.737793 3.70075 1.7284 3.70075 2.94668V33.4535L2.98428 33.4539C1.71457 33.4539 0.682129 34.4454 0.682129 35.6632V39.2365H28.2853V35.6632C28.2853 34.445 27.252 33.4539 25.9827 33.4539H25.2671L25.2667 18.3395H27.9992C28.6055 18.3395 29.099 18.813 29.099 19.3951V27.8621C29.099 30.2834 31.1517 32.2528 33.675 32.2528C36.1985 32.2528 38.2511 30.2833 38.2511 27.8621L38.2516 13.47H39.369C40.9391 13.47 42.216 12.2445 42.216 10.7384V5.99807L40.487 5.99756ZM17.1844 24.0303L12.3453 28.7379L10.9267 27.3953L14.3665 24.0489L11.848 21.666L16.6135 17.0295L18.0326 18.3716L14.666 21.6474L17.1844 24.0303ZM8.91066 12.4325C8.40875 12.4325 8.00024 12.0401 8.00024 11.5586V5.93018C8.00024 5.4486 8.40876 5.05664 8.91066 5.05664H20.0482C20.5501 5.05664 20.9591 5.44861 20.9591 5.93018V11.5582C20.9591 12.0397 20.5501 12.4321 20.0482 12.4321L8.91066 12.4325Z" fill="#5B6670"/>
</g>
<defs>
<clipPath id="clip0_288_96">
<rect width="43" height="40" fill="white"/>
</clipPath>
</defs>
</svg>
