<svg width="38" height="34" viewBox="0 0 38 34" fill="none" xmlns="http://www.w3.org/2000/svg">
<g clip-path="url(#clip0_288_98)">
<path d="M34.0716 0.712851H4.04992C1.95057 0.712851 0.247559 2.37237 0.247559 4.4181V24.2943C0.247559 26.34 1.95057 27.9996 4.04992 27.9996H6.54519L7.93132 25.6839H4.04992C3.2577 25.6839 2.6239 25.0663 2.6239 24.2943V9.35761H35.5376V24.2552C35.5376 25.0272 34.9038 25.6448 34.1116 25.6448H30.2302L31.6163 27.9604H34.1116C36.2109 27.9604 37.9139 26.3009 37.9139 24.2552V4.41728C37.8744 2.37188 36.1709 0.712851 34.0716 0.712851ZM5.87144 6.34794C5.11908 6.34794 4.52479 5.76886 4.52479 5.03568C4.52479 4.30249 5.11904 3.72342 5.87144 3.72342C6.62381 3.72342 7.2181 4.30249 7.2181 5.03568C7.2181 5.76886 6.62385 6.34794 5.87144 6.34794ZM9.83187 6.34794C9.07951 6.34794 8.48522 5.76886 8.48522 5.03568C8.48522 4.30249 9.07947 3.72342 9.83187 3.72342C10.5843 3.72342 11.1785 4.30249 11.1785 5.03568C11.1785 5.76886 10.5846 6.34794 9.83187 6.34794ZM13.8322 6.34794C13.0798 6.34794 12.4855 5.76886 12.4855 5.03568C12.4855 4.30249 13.0798 3.72342 13.8322 3.72342C14.5846 3.72342 15.1789 4.30249 15.1789 5.03568C15.1789 5.76886 14.5849 6.34794 13.8322 6.34794ZM31.6552 6.00062H25.7535C25.1992 6.00062 24.7633 5.57595 24.7633 5.0357C24.7633 4.49545 25.1991 4.07078 25.7535 4.07078H31.6548C32.2092 4.07078 32.6451 4.49545 32.6451 5.0357C32.6454 5.57593 32.2096 6.00062 31.6552 6.00062Z" fill="#5B6670"/>
<path d="M20.764 14.9935C20.4076 14.3759 19.7738 14.0286 19.061 14.0286C18.3482 14.0286 17.7144 14.3759 17.358 14.9935L8.12913 30.3931C7.77271 31.0107 7.77271 31.7053 8.12913 32.3229C8.48555 32.9405 9.11934 33.2878 9.83214 33.2878H28.2489C28.9618 33.2878 29.5956 32.9405 29.9519 32.3229C30.3083 31.7053 30.3083 31.0107 29.9519 30.3931L20.764 14.9935ZM19.0607 18.8916C19.8529 18.8916 20.5262 19.5477 20.4867 20.3197L20.2093 25.6459C20.1698 26.225 19.6945 26.6878 19.1002 26.6878C18.506 26.6878 17.9911 26.2246 17.9911 25.6459L17.7137 20.3197C17.5954 19.5477 18.2689 18.8916 19.0607 18.8916ZM19.0607 30.6247C18.2289 30.6247 17.5556 29.9686 17.5556 29.1581C17.5556 28.3476 18.2289 27.6915 19.0607 27.6915C19.8924 27.6915 20.5657 28.3476 20.5657 29.1581C20.5657 29.9686 19.8924 30.6247 19.0607 30.6247Z" fill="#5B6670"/>
</g>
<defs>
<clipPath id="clip0_288_98">
<rect width="38" height="34" fill="white"/>
</clipPath>
</defs>
</svg>
