<svg width="52" height="43" viewBox="0 0 52 43" fill="none" xmlns="http://www.w3.org/2000/svg">
<path d="M19.2249 20.7274V26.198L16.6554 23.8635L19.2249 20.7274ZM11.8999 12.3607L15.1001 13.2171L10.7969 18.5403L8.55238 16.5035L11.8999 12.3607ZM9.18015 8.18094L5.03829 13.3095L2.73391 11.2177C2.4134 10.92 1.98298 10.7644 1.54671 10.7848C0.0914673 10.8597 -0.539285 12.6588 0.550166 13.6237L28.9129 39.383L27.7082 40.8985C27.2272 41.7312 27.824 42.7748 28.7865 42.7748H50.3997C51.6321 42.7709 52.4 41.4402 51.7815 40.3756L42.6437 28.8829C42.2508 28.3878 41.7493 28.1529 41.2513 28.1597C40.7527 28.1631 40.2581 28.4087 39.8792 28.8829L37.7192 31.5992H37.0203C35.2116 31.5992 34.823 31.9479 34.1498 32.7903L30.9355 36.8368L23.9743 30.5147L23.9753 14.0262C23.9753 13.2349 23.5974 12.5496 23.132 12.1254L21.0202 10.2043C20.6822 9.90031 20.2994 9.69604 19.9079 9.58953L11.6359 7.37517C10.6646 7.11643 9.83155 7.37663 9.18025 8.18155L9.18015 8.18094Z" fill="white"/>
<path d="M7.79015 22.29C7.63306 22.505 7.50126 22.72 7.40739 22.9656L1.22187 39.1665C-0.0713865 42.3949 4.82872 44.2611 6.01291 40.9922L10.8755 28.2552L15.7275 32.6567L16.8568 40.4438C17.1875 44.0267 22.6211 43.2379 21.9207 39.7094L21.1601 34.4309L7.79015 22.29Z" fill="white"/>
<path fill-rule="evenodd" clip-rule="evenodd" d="M31.4315 7.24821C30.2915 9.88664 27.2348 11.0972 24.5928 9.96209C21.9621 8.82936 20.755 5.76769 21.8911 3.14047C23.0297 0.503402 26.0841 -0.708551 28.7153 0.424714C31.3562 1.56084 32.5643 4.61862 31.4315 7.24833V7.24821Z" fill="white"/>
</svg>
