<svg width="41" height="39" viewBox="0 0 41 39" fill="none" xmlns="http://www.w3.org/2000/svg">
<path d="M29.1359 8.3184C28.6357 8.3184 28.2267 7.90936 28.2267 7.40921L28.2271 0.909186C28.2271 0.409046 28.6361 0 29.1362 0C29.6364 0 30.0454 0.409037 30.0454 0.909186V7.40921C30.0451 7.90935 29.636 8.3184 29.1359 8.3184Z" fill="white"/>
<path d="M11.8633 8.3184C11.3631 8.3184 10.9541 7.90936 10.9541 7.40921L10.9545 0.909186C10.9545 0.409046 11.3635 0 11.8637 0C12.3638 0 12.7728 0.409037 12.7728 0.909186V7.40921C12.7725 7.90935 12.3634 8.3184 11.8633 8.3184H11.8633Z" fill="white"/>
<path d="M6.13635 26.3184H11.2728V31.4548H6.13635V26.3184Z" fill="white"/>
<path d="M29.7272 26.3184H34.8636V31.4548H29.7272V26.3184Z" fill="white"/>
<path d="M6.13635 14.5906H11.2728V19.727H6.13635V14.5906Z" fill="white"/>
<path d="M17.9542 26.3184H23.0453V31.4548H17.9542V26.3184Z" fill="white"/>
<path d="M29.7272 14.5906H34.8636V19.727H29.7272V14.5906Z" fill="white"/>
<path d="M17.9542 14.5906H23.0453V19.727H17.9542V14.5906Z" fill="white"/>
<path d="M37.3632 2.59131H31.8635V7.40939C31.8635 8.90946 30.6364 10.1366 29.1363 10.1366C27.6363 10.1366 26.4092 8.90946 26.4092 7.40939L26.4088 2.59131H14.5908V7.40939C14.5908 8.90946 13.3637 10.1366 11.8636 10.1366C10.3636 10.1366 9.13648 8.90946 9.13648 7.40939L9.13611 2.59131H3.63638C1.63655 2.59131 0 4.22786 0 6.22769V34.4543C0 36.4542 1.63655 38.0907 3.63638 38.0907H37.3636C39.3634 38.0907 41 36.4542 41 34.4543L40.9996 6.22769C40.9996 4.22747 39.3635 2.59131 37.3632 2.59131H37.3632ZM12.9997 33.1368H4.40919V24.5459H13.0001L12.9997 33.1368ZM12.9997 21.4551H4.40919V12.8642H13.0001L12.9997 21.4551ZM24.7726 33.1368H16.1817V24.5459H24.7726V33.1368ZM24.7726 21.4551H16.1817V12.8642H24.7726V21.4551ZM36.5906 33.1368H27.9996V24.5459H36.5906V33.1368ZM36.5906 21.4551H27.9996V12.8642H36.5906V21.4551Z" fill="white"/>
</svg>
