<svg width="41" height="50" viewBox="0 0 41 50" fill="none" xmlns="http://www.w3.org/2000/svg">
<path d="M32.7429 34.0001C31.3501 34.0027 29.9838 34.3801 28.7868 35.0925C27.5904 35.805 26.6077 36.8264 25.9416 38.0499C24.8523 40.0537 24.7003 42.4358 25.5265 44.5614C26.3527 46.6876 28.0729 48.342 30.2295 49.0846C32.3862 49.8272 34.7603 49.5824 36.7202 48.4155C38.6801 47.2481 40.0264 45.2776 40.4013 43.0279C40.7761 40.7779 40.1412 38.4768 38.6658 36.7377C37.1903 34.9981 35.0239 33.997 32.7428 34L32.7429 34.0001ZM32.0136 46.7372L28.1305 42.4828L29.7074 41.0483L31.9146 43.4845L36.7126 37.7099L38.3451 39.0762L32.0136 46.7372Z" fill="white"/>
<path d="M16.7359 31.6523C16.5596 31.4163 16.3143 31.1989 16 31V34C16.6666 33.9628 17 33.5094 17 32.6397C17.0003 32.2179 16.9122 31.889 16.7359 31.6522L16.7359 31.6523Z" fill="white"/>
<path d="M31.9998 9.87087V0H7.31442C3.28132 0 0 3.2698 0 7.28914V41H32L31.9998 9.87087ZM5.33286 6.07454H19.0467C19.4673 6.07454 19.8084 6.41447 19.8084 6.83353C19.8084 7.25258 19.4673 7.59251 19.0467 7.59251H5.33286C4.91235 7.59251 4.57125 7.25258 4.57125 6.83353C4.57125 6.41447 4.91235 6.07454 5.33286 6.07454ZM5.33286 10.6297H26.665C27.0855 10.6297 27.4266 10.9697 27.4266 11.3887C27.4266 11.8078 27.0855 12.1477 26.665 12.1477L5.33286 12.1484C4.91235 12.1484 4.57125 11.8085 4.57125 11.3894C4.57125 10.9697 4.91235 10.6297 5.33286 10.6297V10.6297ZM5.33286 15.185H26.665C27.0855 15.185 27.4266 15.5249 27.4266 15.9439C27.4266 16.363 27.0855 16.7029 26.665 16.7029L5.33286 16.7036C4.91235 16.7036 4.57125 16.3637 4.57125 15.9446C4.57125 15.5249 4.91235 15.185 5.33286 15.185V15.185ZM6.85678 31.9865H3.80898V28.9492H6.85678V31.9865ZM20.2233 34.5111C19.9803 34.9956 19.6495 35.3933 19.2325 35.7036C18.8147 36.0146 18.3286 36.2472 17.7741 36.402C17.2197 36.5576 16.6362 36.647 16.0258 36.6725V38.7224H14.9044V36.654C14.0317 36.5914 13.181 36.4145 12.3523 36.1228C11.523 35.831 10.7724 35.4491 10.0992 34.9771L11.2399 32.76C11.3393 32.8591 11.5113 32.9898 11.7543 33.1508C11.9974 33.3125 12.2902 33.4708 12.6333 33.6256C12.9758 33.7811 13.3563 33.927 13.774 34.0633C14.1918 34.2002 14.6247 34.2931 15.0736 34.3426V31.1382C14.9617 31.1134 14.8491 31.0859 14.7366 31.0542C14.624 31.0233 14.5122 30.9889 14.4003 30.9517C13.7644 30.7783 13.2127 30.5884 12.7452 30.3833C12.2778 30.1783 11.8883 29.936 11.5769 29.6567C11.2655 29.3773 11.0314 29.0546 10.8761 28.6878C10.72 28.3211 10.642 27.8834 10.642 27.3742C10.642 26.7536 10.7511 26.1976 10.9693 25.707C11.1875 25.2164 11.4865 24.7973 11.8669 24.4491C12.2474 24.1016 12.699 23.8278 13.2224 23.6289C13.7458 23.43 14.3071 23.3062 14.9051 23.2559L14.9044 21.3568H16.0258V23.2388C16.8488 23.3008 17.6056 23.4687 18.2976 23.7419C18.9895 24.015 19.5971 24.3323 20.1204 24.6921L18.9797 26.7792C18.9051 26.6925 18.765 26.5865 18.5592 26.4627C18.3534 26.3388 18.1104 26.2108 17.83 26.0808C17.5497 25.95 17.241 25.8324 16.9048 25.7264C16.5678 25.6211 16.2191 25.5496 15.858 25.5124V28.7362L16.3254 28.8477C16.9731 29.0218 17.5621 29.2083 18.0924 29.4065C18.622 29.6053 19.0708 29.8537 19.4382 30.1517C19.8055 30.4496 20.0893 30.8068 20.2889 31.2231C20.4884 31.6394 20.5878 32.1513 20.5878 32.7603C20.5878 33.4436 20.4663 34.0271 20.2233 34.5115L20.2233 34.5111ZM28.1895 31.9865H25.1417V28.9492H28.1895V31.9865Z" fill="white"/>
<path d="M13 26.9513C13 27.5111 13.1649 27.9351 13.4946 28.2223C13.8243 28.5104 14.3266 28.7703 15 29V25C13.6664 25.0994 13 25.7504 13 26.9512L13 26.9513Z" fill="white"/>
</svg>
