<svg width="17" height="18" viewBox="0 0 17 18" fill="none" xmlns="http://www.w3.org/2000/svg">
<path d="M17 10.7709C17 10.1415 16.4787 9.64559 15.8608 9.64559C15.4553 9.64559 15.0885 9.85546 14.8953 10.1797V10.1416C14.8953 9.51219 14.3741 9.01633 13.7561 9.01633C13.3506 9.01633 12.9839 9.2262 12.7907 9.55045L12.7908 9.51207C12.7908 8.88262 12.2696 8.38676 11.6516 8.38676C11.2461 8.38676 10.8794 8.59662 10.6862 8.92088V5.12534C10.6862 4.82014 10.5704 4.53411 10.3579 4.32424C10.1455 4.11438 9.85593 4 9.54692 4C8.90971 4 8.40773 4.51491 8.40773 5.12531V12.5068C8.40773 12.5641 8.36918 12.6212 8.31121 12.6594C8.25324 12.6784 8.19543 12.6784 8.13746 12.6213L6.97897 11.477C6.59276 11.0955 5.97497 11.0383 5.51152 11.3434C5.24125 11.515 5.06748 11.8012 5.00955 12.1255C4.971 12.4497 5.04809 12.774 5.26054 13.0219L8.13746 16.4551C8.94845 17.4278 10.1649 18 11.4391 18H13.2348C14.2388 18 15.185 17.6185 15.8995 16.9129C16.6139 16.2072 17 15.2727 17 14.2808L17 10.7709Z" fill="white"/>
<path d="M7.60733 4.81059C7.60733 3.60363 8.69963 2.62394 10.0456 2.62394C10.6893 2.62394 11.2939 2.85134 11.7621 3.25376C12.2303 3.67362 12.4839 4.21586 12.4839 4.79315V5.98264H13.8686C14.4929 5.98264 15 5.52787 15 4.96801V1.01463C15 0.454808 14.4929 0 13.8686 0H1.13138C0.507142 0 0 0.454771 0 1.01463L0.000160889 4.98537C0.000160889 5.54519 0.507261 6 1.13154 6H7.60745L7.60733 4.81059ZM6.2224 2.44905L4.36946 4.2333C4.27196 4.33819 4.1159 4.39071 3.95984 4.39071C3.80377 4.39071 3.66718 4.33819 3.55022 4.2333L2.5749 3.28866C2.36027 3.07873 2.3799 2.7639 2.61383 2.57142C2.84792 2.39654 3.19898 2.39654 3.41361 2.60634L3.97928 3.16616L5.42278 1.76672C5.6374 1.55678 5.98845 1.55678 6.22256 1.7318C6.41739 1.92428 6.43702 2.23909 6.2224 2.44905H6.2224Z" fill="white"/>
</svg>
