<svg width="19" height="18" viewBox="0 0 19 18" fill="none" xmlns="http://www.w3.org/2000/svg">
<path d="M8.91175 0.000459832C8.78873 0.000459832 8.66536 0.00258074 8.54198 0.00717641C7.88454 0.0320984 7.22218 0.132492 6.57464 0.308541C1.85189 1.59211 -0.962484 6.54062 0.303071 11.3311C1.56849 16.1216 6.44706 18.9763 11.1698 17.6926C15.8925 16.409 18.7069 11.4605 17.4414 6.67003V6.66986C17.3935 6.43973 17.2544 6.23982 17.0568 6.1166C16.8592 5.99358 16.6205 5.95823 16.3964 6.01886C16.1724 6.07966 15.9827 6.23114 15.872 6.43776C15.7612 6.64438 15.7391 6.88812 15.8107 7.11187C16.8396 11.0075 14.5744 14.9946 10.7337 16.0385C6.89337 17.0822 2.96243 14.7844 1.9333 10.8888C0.90435 6.99314 3.16964 3.00602 7.01024 1.96214C9.10806 1.39191 11.3492 1.81578 13.1038 3.11385L13.104 3.11402C13.3481 3.29467 13.6687 3.32948 13.945 3.20523C14.2213 3.08115 14.4113 2.8169 14.4435 2.5122C14.4756 2.20748 14.3451 1.9084 14.1009 1.72777C12.5776 0.600811 10.7586 0.00796374 8.91202 0L8.91175 0.000459832ZM18.1146 0.636609C17.8952 0.648982 17.6892 0.747432 17.5402 0.911105C15.3127 3.27498 10.8609 8.15947 8.39005 10.802L5.41918 8.14345V8.14363C5.19283 7.94019 4.87656 7.87479 4.58973 7.972C4.3029 8.06921 4.0889 8.31437 4.02863 8.61485C3.96817 8.9155 4.07045 9.22589 4.29681 9.42932L7.88818 12.6437H7.88836C8.05268 12.7913 8.26719 12.8682 8.48656 12.8583C8.70595 12.8482 8.91279 12.7521 9.06336 12.59C11.4262 10.0824 16.4296 4.56472 18.7613 2.09007H18.7615C18.9197 1.92464 19.0056 1.7014 18.9997 1.47089C18.9938 1.24041 18.8966 1.02212 18.73 0.865151C18.5634 0.708193 18.3416 0.626003 18.1145 0.636962L18.1146 0.636609Z" fill="#7D7D7D"/>
</svg>
