<svg width="59" height="47" viewBox="0 0 59 47" fill="none" xmlns="http://www.w3.org/2000/svg">
<path d="M43.5345 17.2289C42.691 16.2439 42.1283 14.9781 42.1283 13.7122L41.8475 10.7583C41.5667 7.664 39.1755 5.27273 36.2217 5.13254L33.2678 4.85176C32.002 4.71137 30.7362 4.28906 29.7511 3.44557L27.5003 1.47667C25.2495 -0.492223 21.7328 -0.492223 19.4832 1.47667L17.2324 3.44557C16.2474 4.28903 14.9816 4.85176 13.7157 4.85176L10.7618 5.13254C7.66747 5.41331 5.2762 7.80452 5.13601 10.7583L4.85523 13.7122C4.71485 14.978 4.29253 16.2438 3.44904 17.2289L1.47667 19.4797C-0.492223 21.7306 -0.492223 25.2472 1.47667 27.4968L3.44557 29.7476C4.28903 30.7327 4.85175 31.9985 4.85175 33.2643L5.13253 36.2182C5.4133 39.3126 7.80452 41.7038 10.7583 41.844L13.7122 42.1248C14.978 42.2652 16.2438 42.6875 17.2289 43.531L19.4797 45.4999C21.7306 47.4688 25.2472 47.4688 27.4968 45.4999L29.7476 43.531C30.7327 42.6875 31.9985 42.1248 33.2643 42.1248L36.2182 41.844C39.3126 41.5632 41.7038 39.172 41.844 36.2182L42.1248 33.2643C42.2652 31.9985 42.6875 30.7327 43.531 29.7476L45.4999 27.4968C47.4688 25.246 47.4688 21.7293 45.4999 19.4797L43.5345 17.2289ZM25.1078 32.9824V35.3736C25.1078 35.6544 24.9675 35.7959 24.6855 35.7959H22.2943C22.0135 35.7959 21.872 35.6555 21.872 35.3736V32.9824C19.4807 32.842 17.5118 31.0135 17.2299 28.6222C17.2299 28.3414 17.3703 28.0595 17.6522 28.0595H20.0435C20.1838 28.0595 20.4658 28.1999 20.4658 28.3403C20.6062 29.0434 21.3092 29.6061 22.0135 29.6061H24.124C25.3897 29.6061 26.5152 28.7626 26.6555 27.4956C26.7959 26.0894 25.6705 24.964 24.2643 24.964H22.7166C19.7627 24.964 17.0908 22.8536 16.8086 19.8996C16.5279 16.8053 18.7775 14.1321 21.7314 13.7109V11.3197C21.7314 11.0389 21.8718 10.8974 22.1537 10.8974H24.5449C24.8257 10.8974 24.9673 11.0378 24.9673 11.3197L24.9661 13.8525C27.3573 13.9929 29.3263 15.8214 29.6082 18.2127C29.6082 18.4934 29.4678 18.7754 29.1859 18.7754H26.7946C26.6542 18.7754 26.3723 18.635 26.3723 18.4946C26.2319 17.7915 25.5288 17.2288 24.8246 17.2288H22.7141C21.4483 17.2288 20.3229 18.0723 20.1825 19.3393C20.0422 20.7454 21.1676 21.8708 22.5738 21.8708H24.4023C27.6371 21.8708 30.3102 24.6844 30.028 28.0595C29.7484 30.5911 27.6391 32.5611 25.1077 32.9822L25.1078 32.9824Z" fill="white"/>
<path d="M50.7429 27.0001C49.3501 27.0027 47.9838 27.3801 46.7868 28.0925C45.5904 28.805 44.6077 29.8264 43.9416 31.0499C42.8523 33.0537 42.7003 35.4358 43.5265 37.5614C44.3527 39.6876 46.0729 41.342 48.2295 42.0846C50.3862 42.8272 52.7603 42.5824 54.7202 41.4155C56.6801 40.2481 58.0264 38.2776 58.4013 36.0279C58.7761 33.7779 58.1412 31.4768 56.6658 29.7377C55.1903 27.9981 53.0239 26.997 50.7428 27L50.7429 27.0001ZM50.0136 39.7372L46.1305 35.4828L47.7074 34.0483L49.9146 36.4845L54.7126 30.7099L56.3451 32.0762L50.0136 39.7372Z" fill="white"/>
</svg>
