<svg width="14" height="15" viewBox="0 0 14 15" fill="none" xmlns="http://www.w3.org/2000/svg">
<path d="M12.6579 11.7836C8.9998 11.8928 5.3414 11.8928 1.68332 11.7836C0.788847 11.7539 0.253153 10.718 0.81768 10.067C1.21232 9.60995 1.61243 9.14891 2.01588 8.68448C2.09672 8.59131 2.14031 8.47247 2.13906 8.34893C2.10765 7.0033 2.28075 3.05044 2.42219 2.47425C2.63976 1.48283 3.5901 0.502898 4.59695 0.268518C5.20916 0.135287 6.03929 0.00229857 7.17045 0C8.3016 0.00229913 9.13151 0.134925 9.7442 0.268518C10.7511 0.50291 11.7014 1.48283 11.919 2.47425C12.0604 3.05013 12.2336 7.00293 12.2021 8.34893C12.2006 8.47248 12.2442 8.59131 12.3253 8.68448C12.729 9.14891 13.1288 9.61032 13.5235 10.067C14.088 10.718 13.5523 11.7539 12.6578 11.7836H12.6579Z" fill="white"/>
<path d="M8.479 14.6141C8.7019 14.572 8.91748 14.3734 8.96653 14.1568C8.99447 14.0253 9.02217 13.8465 9.02241 13.6021C9.02217 13.358 8.99447 13.1789 8.96653 13.0474C8.91748 12.8308 8.70191 12.6322 8.479 12.5901C8.34315 12.5637 7.42074 12.5311 7.17014 12.5337C6.91967 12.5312 5.9969 12.5639 5.86128 12.5901C5.63838 12.6322 5.4228 12.8308 5.37375 13.0474C5.34581 13.1789 5.31812 13.3577 5.31787 13.6021C5.31812 13.8462 5.34581 14.0253 5.37375 14.1568C5.4228 14.3734 5.63838 14.5717 5.86128 14.6141C5.99713 14.6405 6.91954 14.6731 7.17014 14.6705C7.42061 14.673 8.34339 14.6404 8.479 14.6141Z" fill="white"/>
</svg>
