<svg width="30" height="23" viewBox="0 0 30 23" fill="none" xmlns="http://www.w3.org/2000/svg">
<path d="M6.33488 19.1326C6.33488 20.4621 5.25694 21.5396 3.92752 21.5396C2.59811 21.5396 1.52051 20.4621 1.52051 19.1326C1.52051 17.8032 2.59811 16.7256 3.92752 16.7256C5.25694 16.7256 6.33488 17.8032 6.33488 19.1326Z" fill="#0062A6"/>
<path d="M5.34264 19.133C5.33459 19.5478 5.18803 19.8812 4.88719 20.174C4.75707 20.3041 4.89524 20.1901 4.75707 20.2877C4.71649 20.3122 4.43175 20.4748 4.5213 20.4339C4.26104 20.5476 4.13896 20.556 3.91962 20.556C3.13081 20.556 2.50469 19.9134 2.50469 19.141C2.50469 18.3603 3.13889 17.718 3.91962 17.7261C4.28552 17.7261 4.65142 17.8807 4.88724 18.1084C5.18841 18.3767 5.33463 18.7182 5.34269 19.1331C5.37522 20.4018 7.34325 20.4018 7.31071 19.1331C7.27818 17.6936 6.39985 16.4333 5.04184 15.9372C3.75698 15.4656 2.21996 15.8802 1.34997 16.9293C0.439104 18.0354 0.260348 19.6291 1.0166 20.8734C1.76483 22.1176 3.22039 22.7193 4.62734 22.443C6.1969 22.1421 7.27012 20.6866 7.31107 19.1331C7.34327 17.8644 5.37524 17.8644 5.3427 19.1331L5.34264 19.133Z" fill="#0062A6"/>
<path d="M11.7348 7.39878C11.7348 8.72819 10.6568 9.80579 9.32777 9.80579C7.99835 9.80579 6.92041 8.72819 6.92041 7.39878C6.92041 6.06936 7.99835 4.99176 9.32777 4.99176C10.6568 4.99176 11.7348 6.06936 11.7348 7.39878Z" fill="#0062A6"/>
<path d="M10.7435 7.39831C10.7355 7.81317 10.5889 8.14654 10.2881 8.43933C10.1579 8.56946 10.2961 8.45543 10.1579 8.55302C10.1174 8.57751 9.83262 8.74017 9.92217 8.69925C9.66192 8.81294 9.53984 8.82133 9.3205 8.82133C8.53168 8.82133 7.90557 8.17873 7.90557 7.40639C7.90557 6.62562 8.53977 5.98339 9.3205 5.99146C9.6864 5.99146 10.0523 6.14608 10.2881 6.3738C10.589 6.65015 10.7352 6.9919 10.7436 7.39842C10.7761 8.66714 12.7441 8.66714 12.7116 7.39842C12.6791 5.95893 11.8007 4.69863 10.4427 4.20255C9.15786 3.731 7.62084 4.14553 6.75084 5.19463C5.83998 6.30073 5.66123 7.89442 6.41748 9.13875C7.16571 10.383 8.62127 10.9847 10.0282 10.7083C11.5978 10.4075 12.671 8.95193 12.712 7.39842C12.7438 6.1297 10.7761 6.1297 10.7436 7.39842L10.7435 7.39831Z" fill="#0062A6"/>
<path d="M21.7626 15.578C21.7626 16.9074 20.6847 17.985 19.3556 17.985C18.0262 17.985 16.9482 16.9074 16.9482 15.578C16.9482 14.2486 18.0262 13.171 19.3556 13.171C20.6847 13.171 21.7626 14.2486 21.7626 15.578Z" fill="#0062A6"/>
<path d="M20.7777 15.5799C20.7697 15.9948 20.6231 16.3282 20.3223 16.6209C20.1921 16.7511 20.3303 16.637 20.1921 16.7346C20.1515 16.7591 19.8668 16.9218 19.9564 16.8809C19.6961 16.9945 19.574 17.0029 19.3547 17.0029C18.5659 17.0029 17.9397 16.3603 17.9397 15.588C17.9397 14.8072 18.574 14.165 19.3547 14.1731C19.7206 14.1731 20.0865 14.3277 20.3223 14.5554C20.6151 14.8318 20.7697 15.1732 20.7777 15.58C20.8103 16.8487 22.7783 16.8487 22.7458 15.58C22.7132 14.1405 21.8349 12.8802 20.4769 12.3842C19.192 11.9126 17.655 12.3271 16.785 13.3762C15.8742 14.4823 15.6954 16.076 16.4517 17.3204C17.1999 18.5646 18.6554 19.1663 20.0624 18.8899C21.632 18.5891 22.7052 17.1335 22.7461 15.58C22.7783 14.3113 20.8022 14.3113 20.7778 15.58L20.7777 15.5799Z" fill="#0062A6"/>
<path d="M29.0152 3.38947C29.0152 4.71889 27.9376 5.79648 26.6082 5.79648C25.2788 5.79648 24.2012 4.71889 24.2012 3.38947C24.2012 2.06005 25.2788 0.982452 26.6082 0.982452C27.9376 0.982452 29.0152 2.06005 29.0152 3.38947Z" fill="#0062A6"/>
<path d="M28.0316 3.389C28.0236 3.80386 27.877 4.13723 27.5762 4.43002C27.446 4.56015 27.5842 4.44612 27.446 4.54371C27.4055 4.5682 27.1207 4.73086 27.2103 4.68994C26.95 4.80363 26.8279 4.81202 26.6086 4.81202C25.8198 4.81202 25.1937 4.16943 25.1937 3.39709C25.1937 2.61632 25.8279 1.97408 26.6086 1.98216C26.9745 1.98216 27.3404 2.13677 27.5762 2.36449C27.8693 2.63279 28.0236 2.98259 28.0317 3.38911C28.0642 4.65783 30.0322 4.65783 29.9997 3.38911C29.9671 1.94963 29.0888 0.689322 27.7308 0.193237C26.4459 -0.278309 24.9089 0.136222 24.0389 1.18532C23.1281 2.29142 22.9493 3.88511 23.7056 5.12944C24.4538 6.37369 25.9094 6.97538 27.3163 6.69901C28.8859 6.39817 29.9591 4.94262 30 3.38911C30.0322 2.1204 28.0561 2.1204 28.0317 3.38911L28.0316 3.389Z" fill="#0062A6"/>
<path d="M5.97686 17.5469C6.9528 15.4407 7.9284 13.3346 8.90443 11.2202C9.04261 10.9113 9.18917 10.6102 9.32735 10.3013C9.54702 9.82138 9.46553 9.23616 8.97755 8.95137C8.55463 8.69916 7.85539 8.82124 7.62761 9.30117C6.65167 11.4073 5.67607 13.5135 4.70004 15.6278C4.56186 15.9367 4.4153 16.2379 4.27712 16.5468C4.05745 17.0267 4.13894 17.6119 4.62692 17.8967C5.0495 18.1486 5.74908 18.0265 5.97686 17.5469Z" fill="#0062A6"/>
<path d="M10.4256 9.69133C12.239 11.2204 14.0608 12.757 15.8742 14.2861C16.1345 14.5058 16.3947 14.7251 16.655 14.9448C17.0615 15.2862 17.6471 15.3432 18.0454 14.9448C18.3952 14.595 18.4519 13.8957 18.0454 13.5543C16.232 12.0253 14.4102 10.4886 12.5968 8.95956C12.3366 8.73988 12.0763 8.52054 11.8161 8.30087C11.4096 7.95944 10.824 7.90243 10.4256 8.30087C10.0758 8.65033 10.0191 9.34962 10.4256 9.69133Z" fill="#0062A6"/>
<path d="M21.8425 14.3193C23.1844 11.9042 24.5179 9.49686 25.8597 7.08177C26.0469 6.74035 26.2421 6.3986 26.4289 6.05715C27.047 4.95105 25.3472 3.95098 24.7292 5.06506C23.3873 7.48015 22.0538 9.88751 20.712 12.3026C20.5248 12.644 20.3296 12.9858 20.1428 13.3272C19.5251 14.4333 21.2245 15.4254 21.8425 14.3193Z" fill="#0062A6"/>
</svg>
