<svg width="17" height="21" viewBox="0 0 17 21" fill="none" xmlns="http://www.w3.org/2000/svg">
<path d="M11.1376 17.2938H5.63232V19.5737H7.27133V20.851H9.49925V19.5737H11.1376L11.1376 17.2938Z" fill="white"/>
<path d="M16.1985 6.48701H13.0645L13.0647 1.12691C13.0647 0.5714 12.6026 0.121027 12.0325 0.121027C11.4624 0.121027 11.0002 0.571386 11.0002 1.12691V6.48701L5.7703 6.48683V1.12673C5.7703 0.571222 5.30814 0.12085 4.73806 0.12085C4.16761 0.12085 3.70581 0.571208 3.70581 1.12673V6.48683L0.572754 6.48666V8.76836H1.7142L1.71438 12.8822C1.71438 14.9492 3.43393 16.6248 5.55466 16.6248H11.2161C13.3372 16.6248 15.0563 14.9492 15.0563 12.8822V8.76867H16.1985V6.48661L16.1985 6.48701ZM6.99005 15.1273L7.66001 12.3107H6.71981L7.3894 9.49417L9.89452 9.51908L8.78523 12.3107H10.0508L6.99005 15.1273Z" fill="white"/>
</svg>
