<svg width="34" height="45" viewBox="0 0 34 45" fill="none" xmlns="http://www.w3.org/2000/svg">
<path d="M22.8717 37.2461H11.1885V42.0845H14.6667V44.795H19.3948V42.0845H22.8716L22.8717 37.2461Z" fill="white"/>
<path d="M33.6114 14.3122H26.9605L26.9609 2.93704C26.9609 1.75815 25.9801 0.802378 24.7703 0.802378C23.5605 0.802378 22.5797 1.75812 22.5797 2.93704V14.3122L11.4808 14.3118V2.93666C11.4808 1.75777 10.5 0.802002 9.29021 0.802002C8.07963 0.802002 7.0996 1.75774 7.0996 2.93666V14.3118L0.450684 14.3114V19.1536H2.87303L2.87342 27.884C2.87342 32.2704 6.52262 35.8264 11.0232 35.8264H23.0377C27.5391 35.8264 31.1875 32.2704 31.1875 27.884V19.1543H33.6114V14.3113L33.6114 14.3122ZM14.0693 32.6484L15.4911 26.6712H13.4958L14.9168 20.6939L20.2332 20.7468L17.8791 26.6712H20.5649L14.0693 32.6484Z" fill="white"/>
</svg>
