<svg width="17" height="17" viewBox="0 0 17 17" fill="none" xmlns="http://www.w3.org/2000/svg">
<path fill-rule="evenodd" clip-rule="evenodd" d="M1.29388 0.881714C0.910292 0.881714 0.599121 1.18493 0.599121 1.55873V6.97403C0.599121 7.348 0.910282 7.65105 1.29388 7.65105H6.85113C7.2349 7.65105 7.54589 7.34801 7.54589 6.97403V1.55873C7.54589 1.18494 7.23491 0.881714 6.85113 0.881714H1.29388Z" fill="white"/>
<path fill-rule="evenodd" clip-rule="evenodd" d="M1.29388 9.90686C0.910292 9.90686 0.599121 10.2099 0.599121 10.5837V15.9995C0.599121 16.3732 0.910282 16.6763 1.29388 16.6763H6.85113C7.2349 16.6763 7.54589 16.3732 7.54589 15.9995V10.5837C7.54589 10.2099 7.23491 9.90686 6.85113 9.90686H1.29388Z" fill="white"/>
<path fill-rule="evenodd" clip-rule="evenodd" d="M13.3342 0.881714C11.4159 0.881714 9.86084 2.39726 9.86084 4.26656C9.86084 6.13587 11.4159 7.65123 13.3342 7.65123C15.2525 7.65123 16.8076 6.13587 16.8076 4.26656C16.8076 2.39726 15.2525 0.881714 13.3342 0.881714Z" fill="white"/>
<path fill-rule="evenodd" clip-rule="evenodd" d="M10.5549 9.90686C10.1713 9.90686 9.86035 10.2099 9.86035 10.5837V15.9995C9.86035 16.3732 10.1713 16.6763 10.5549 16.6763H16.1126C16.4962 16.6763 16.8072 16.3732 16.8072 15.9995V10.5837C16.8072 10.2099 16.4962 9.90686 16.1126 9.90686H10.5549Z" fill="white"/>
</svg>
