<svg width="19" height="10" viewBox="0 0 19 10" fill="none" xmlns="http://www.w3.org/2000/svg">
<path d="M1.21152 9.87147H18.1433C18.3159 9.87147 18.4816 9.80633 18.604 9.6907C18.726 9.57476 18.7944 9.4181 18.7944 9.25427V0.617193C18.7944 0.453373 18.726 0.296382 18.604 0.180762C18.4816 0.0651428 18.3159 0 18.1433 0H1.21152C0.851584 0 0.560059 0.276188 0.560059 0.617185V9.25426C0.560059 9.41808 0.628815 9.57475 0.750859 9.69069C0.872899 9.80631 1.0386 9.87146 1.21153 9.87146L1.21152 9.87147ZM3.1652 4.31869H6.09559L7.85398 2.09743C7.98874 1.92546 8.20807 1.83199 8.43359 1.85056C8.6574 1.87107 8.85438 1.9994 8.95442 2.18993L10.98 6.02137L11.703 4.65799L11.7026 4.65766C11.813 4.45019 12.0371 4.31926 12.2822 4.31861H16.1896V5.55268L12.6861 5.55236L11.5595 7.68074L11.5592 7.68106C11.4478 7.8869 11.224 8.01652 10.9799 8.01652C10.7355 8.01652 10.5117 7.8869 10.4003 7.68106L8.26409 3.63367L6.96149 5.3058H6.96183C6.83876 5.46116 6.64555 5.55235 6.44066 5.55235H3.1651L3.1652 4.31869Z" fill="white"/>
</svg>
