<svg width="12" height="16" viewBox="0 0 12 16" fill="none" xmlns="http://www.w3.org/2000/svg">
<path d="M0.937487 13.625H11.0625C11.2763 13.6251 11.482 13.7063 11.6383 13.8522C11.7945 13.9982 11.8894 14.198 11.904 14.4112C11.9186 14.6245 11.8517 14.8354 11.7168 15.0012C11.5818 15.167 11.389 15.2755 11.1772 15.3046L11.0625 15.3125H0.937487C0.72371 15.3124 0.517928 15.2312 0.361721 15.0853C0.205514 14.9393 0.110529 14.7395 0.0959577 14.5263C0.0813867 14.313 0.148316 14.1021 0.283223 13.9363C0.41813 13.7705 0.610956 13.662 0.822737 13.6329L0.937487 13.625H11.0625H0.937487ZM5.88524 0.132875L5.99999 0.125C6.20388 0.125009 6.40087 0.198848 6.55453 0.332863C6.7082 0.466878 6.80813 0.652002 6.83586 0.854L6.84374 0.96875V9.61775L9.38061 7.082C9.52368 6.93898 9.71337 6.85212 9.91512 6.83725C10.1169 6.82238 10.3172 6.8805 10.4797 7.001L10.5742 7.082C10.7173 7.22507 10.8041 7.41476 10.819 7.61651C10.8339 7.81826 10.7757 8.01864 10.6552 8.18113L10.5742 8.27563L6.59624 12.2525C6.45337 12.3954 6.26398 12.4823 6.06248 12.4973C5.86098 12.5124 5.66077 12.4547 5.49824 12.3346L5.40374 12.2525L1.42574 8.27563C1.27477 8.12507 1.1864 7.92295 1.17838 7.70989C1.17037 7.49683 1.24332 7.28864 1.38255 7.12718C1.52178 6.96571 1.71698 6.86294 1.9289 6.83954C2.14082 6.81613 2.35374 6.87382 2.52486 7.001L2.61936 7.082L5.15624 9.62V0.96875C5.15625 0.764858 5.23008 0.567865 5.3641 0.414203C5.49811 0.260541 5.68324 0.160604 5.88524 0.132875L5.99999 0.125L5.88524 0.132875Z" fill="white"/>
</svg>
