<svg width="27" height="28" viewBox="0 0 27 28" fill="none" xmlns="http://www.w3.org/2000/svg">
<path d="M13.0361 12.8919L13.8183 10.0248L11.3408 13.3281L13.7169 14.5133C13.9152 14.6123 14.0206 14.8335 13.9725 15.0496L13.4586 17.3611L15.6453 14.6271L13.286 13.4527C13.0791 13.3499 12.9742 13.1144 13.0361 12.8919L13.0361 12.8919Z" fill="white"/>
<path d="M13.5015 5.30396C11.3276 5.30396 9.24265 6.1676 7.7055 7.70476C6.16834 9.24192 5.30469 11.3268 5.30469 13.5008C5.30469 15.6748 6.16834 17.7597 7.7055 19.2971C9.24265 20.8343 11.3276 21.6979 13.5015 21.6979C15.6755 21.6979 17.7604 20.8343 19.2978 19.2971C20.835 17.7597 21.6987 15.6748 21.6987 13.5008C21.6961 11.3275 20.8317 9.2442 19.295 7.70756C17.7584 6.17067 15.6747 5.30624 13.5015 5.30396ZM16.7711 14.7667L12.9136 19.5884H12.9138C12.7738 19.7643 12.531 19.82 12.3284 19.723C12.1258 19.6258 12.0171 19.4018 12.0662 19.1824L12.9492 15.2104L10.3937 13.9326C10.2649 13.8687 10.1712 13.7509 10.1384 13.6109C10.1053 13.4711 10.1366 13.3238 10.2234 13.2092L14.563 7.42306C14.7017 7.23776 14.9527 7.17744 15.1607 7.279C15.3686 7.38081 15.475 7.61601 15.4139 7.83924L14.0713 12.7643L16.6103 14.0313C16.7406 14.0965 16.8348 14.2169 16.8661 14.3594C16.8972 14.5017 16.8625 14.6506 16.7714 14.7641L16.7711 14.7667Z" fill="white"/>
<path d="M24.2724 10.8616C24.0054 9.76428 23.5712 8.71459 22.985 7.74962C22.8809 7.57857 22.8933 7.36094 23.0163 7.20288L24.4516 5.35802L21.644 2.55074L19.7992 3.98579C19.6411 4.10873 19.4235 4.1212 19.2524 4.0171C18.2873 3.43065 17.2378 2.99641 16.1405 2.72964C15.946 2.68204 15.8012 2.51939 15.7765 2.32085L15.4861 0H11.5158L11.2264 2.32059L11.2266 2.32085C11.2019 2.51939 11.0571 2.68204 10.8626 2.72963C9.76531 2.99639 8.71563 3.43064 7.75065 4.01709C7.5796 4.1212 7.36172 4.10872 7.20366 3.98578L5.35802 2.55073L2.55074 5.35802L3.98579 7.20287C4.10873 7.36094 4.1212 7.57856 4.0171 7.74961C3.43065 8.71459 2.99641 9.76427 2.72964 10.8616C2.68204 11.0561 2.51939 11.2009 2.32085 11.2256L0 11.5157V15.486L2.32059 15.7754H2.32085C2.51939 15.8001 2.68204 15.945 2.72963 16.1394C2.99639 17.2367 3.43064 18.2864 4.01709 19.2514C4.1212 19.4225 4.10872 19.6401 3.98578 19.7981L2.55021 21.644L5.35802 24.4513L7.20287 23.0163C7.36094 22.8933 7.57856 22.8809 7.74961 22.985C8.71459 23.5712 9.76427 24.0054 10.8616 24.2724C11.0561 24.3198 11.2009 24.4827 11.2256 24.6812L11.515 27.0018H15.4853L15.7747 24.6812H15.7744C15.7991 24.4827 15.9439 24.3198 16.1384 24.2724C17.2357 24.0054 18.2854 23.5712 19.2504 22.985C19.4217 22.8816 19.6388 22.8941 19.7971 23.0163L21.642 24.4513L24.4493 21.644L23.0142 19.7992C22.8913 19.6411 22.8788 19.4235 22.9829 19.2524C23.5694 18.2873 24.0036 17.2378 24.2704 16.1405C24.318 15.946 24.4806 15.8012 24.6792 15.7765L26.9997 15.4871L27 11.5158L24.6794 11.2264L24.6792 11.2267C24.4811 11.201 24.3192 11.0559 24.2724 10.8617L24.2724 10.8616ZM3.37516 13.9832H2.4107V13.0188H3.37516V13.9832ZM21.002 5.31805L21.6839 5.99997L21.002 6.68214L20.3201 6.00023L21.002 5.31805ZM13.0184 2.41101H13.9829V3.37546H13.0184V2.41101ZM5.99921 5.31805L6.68112 6.00023L5.99921 6.68214L5.31729 5.99997L5.99921 5.31805ZM5.99921 21.684L5.31729 21.0021L5.99921 20.3199L6.68112 21.0018L5.99921 21.684ZM13.9828 24.591H13.0183V23.6266H13.9828V24.591ZM21.002 21.684L20.3201 21.0018L21.002 20.3199L21.6839 21.0021L21.002 21.684ZM13.5006 22.6625C11.071 22.6625 8.74074 21.697 7.02263 19.9791C5.30452 18.261 4.33929 15.9307 4.33929 13.5009C4.33929 11.0714 5.30446 8.74105 7.02263 7.02294C8.74074 5.30483 11.071 4.33959 13.5006 4.33959C15.9304 4.33959 18.2607 5.30476 19.9788 7.02294C21.6967 8.74105 22.6622 11.0714 22.6622 13.5009C22.6594 15.9299 21.6934 18.2585 19.9757 19.9761C18.2581 21.6936 15.9296 22.6597 13.5006 22.6625ZM24.5911 13.983H23.6266V13.0185H24.5911V13.983Z" fill="white"/>
</svg>
