<svg width="23" height="23" viewBox="0 0 23 23" fill="none" xmlns="http://www.w3.org/2000/svg">
<path fill-rule="evenodd" clip-rule="evenodd" d="M10.467 2.4455e-05H19.6306L12.8798 8.4316H19.1711L3.59295 23L9.26551 12.1153L3.49241 12.2499L10.4675 0L10.467 2.4455e-05ZM18.75 2.57345C21.3436 4.68287 23 7.89825 23 11.4999C23 17.8514 17.8515 22.9999 11.5 22.9999C9.62087 22.9999 7.84703 22.5484 6.27906 21.7487L7.61672 20.4991C8.80757 21.0142 10.1206 21.3003 11.5001 21.3003C16.9129 21.3003 21.3004 16.9128 21.3004 11.5001C21.3004 8.574 19.9579 5.75182 17.6877 3.90047L18.75 2.57345ZM4.00236 20.2195C1.55107 18.1101 0 14.986 0 11.4999C0 5.90606 3.99308 1.24662 9.28396 0.213618L8.09161 2.31071C4.35976 3.69484 1.69978 7.28728 1.69978 11.4999C1.69978 14.327 2.8984 16.8743 4.81298 18.6634L4.00251 20.2192L4.00236 20.2195Z" fill="white"/>
</svg>
