<svg width="22" height="24" viewBox="0 0 22 24" fill="none" xmlns="http://www.w3.org/2000/svg">
<path d="M19.2499 1.41163H16.4996V0.705675C16.4996 0.315809 16.1921 0 15.8124 0C15.4326 0 15.1248 0.315809 15.1248 0.705675V1.41163H6.87513V0.705675C6.87513 0.315809 6.56728 0 6.18757 0C5.80786 0 5.5 0.315809 5.5 0.705675V1.41163H2.75C2.02106 1.41247 1.32208 1.71039 0.806499 2.2397C0.290963 2.76902 0.000836184 3.48674 0 4.23518V21.1765C0.000816603 21.9249 0.290977 22.6426 0.806499 23.1719C1.32203 23.7013 2.02106 23.9991 2.75 24H19.25C19.9789 23.9992 20.6779 23.7012 21.1935 23.1719C21.709 22.6426 21.9992 21.9249 22 21.1765V4.23518C21.9992 3.48674 21.709 2.76906 21.1935 2.2397C20.678 1.71038 19.9789 1.41249 19.25 1.41163H19.2499ZM20.625 21.1761L20.6248 21.1764C20.6245 21.5506 20.4794 21.9094 20.2216 22.1741C19.9639 22.4387 19.6144 22.5877 19.2499 22.588H2.74992C2.38544 22.5877 2.03595 22.4387 1.7782 22.1741C1.52043 21.9094 1.37536 21.5506 1.37508 21.1764V4.2351C1.37535 3.86088 1.52043 3.50204 1.7782 3.23739C2.03597 2.97273 2.38547 2.82378 2.74992 2.82349H5.49992V3.52944V3.52916C5.49992 3.91903 5.80777 4.23512 6.18748 4.23512C6.56719 4.23512 6.87505 3.91903 6.87505 3.52916V2.82349H15.1247V3.52944V3.52916C15.1247 3.91903 15.4326 4.23512 15.8123 4.23512C16.192 4.23512 16.4996 3.91903 16.4996 3.52916V2.82349H19.2498C19.6143 2.82377 19.9638 2.97273 20.2216 3.23739C20.4793 3.50206 20.6244 3.8609 20.6247 4.2351L20.625 21.1761ZM10.9999 5.64713C9.17669 5.64713 7.42782 6.39084 6.1387 7.71465C4.8493 9.03825 4.12503 10.8339 4.12503 12.7058C4.12503 14.578 4.84937 16.3734 6.1387 17.6973C7.42782 19.0211 9.17669 19.7648 10.9999 19.7648C12.8233 19.7648 14.5719 19.0211 15.8613 17.6973C17.1507 16.3735 17.875 14.578 17.875 12.7058C17.8728 10.8345 17.1479 9.04025 15.8591 7.71694C14.5702 6.39363 12.8227 5.64942 10.9999 5.64713ZM10.9999 18.3529V18.3526C9.54113 18.3526 8.14233 17.7579 7.11076 16.6987C6.0794 15.6398 5.49992 14.2033 5.49992 12.7056C5.49992 11.2079 6.07943 9.77167 7.11076 8.71251C8.1424 7.65356 9.5412 7.05859 10.9999 7.05859C12.4585 7.05859 13.8577 7.65359 14.8889 8.71251C15.9206 9.77174 16.4998 11.2079 16.4998 12.7056C16.4984 14.2031 15.9184 15.6384 14.8873 16.6971C13.8562 17.7557 12.4582 18.3513 10.9998 18.3527L10.9999 18.3529ZM14.4374 11.9999C14.8171 11.9999 15.125 12.3157 15.125 12.7056C15.125 13.0954 14.8171 13.4115 14.4374 13.4115H10.9999C10.8175 13.4118 10.6427 13.3374 10.5137 13.205C10.3847 13.0725 10.3123 12.8928 10.3126 12.7056V9.17635C10.3126 8.78648 10.6201 8.47039 10.9999 8.47039C11.3796 8.47039 11.6874 8.78648 11.6874 9.17635V11.9999L14.4374 11.9999Z" fill="#0062A6"/>
</svg>
