<svg width="30" height="19" viewBox="0 0 30 19" fill="none" xmlns="http://www.w3.org/2000/svg">
<path d="M3.46299 18.0051L3.8866 17.0318C2.30432 16.3431 1.22496 14.8536 1.05273 13.1387L0 13.2447C0.205515 15.3434 1.52975 17.1576 3.46299 18.0051V18.0051Z" fill="#90993F"/>
<path d="M10.3414 14.0918L11.3544 14.4098C11.533 13.8469 11.6192 13.2577 11.6192 12.6619V12.344C11.6192 11.0595 11.1955 9.80819 10.414 8.78845L9.57324 9.43743C10.2155 10.2718 10.5597 11.2912 10.5597 12.344V12.6619C10.5597 13.145 10.487 13.6285 10.3413 14.0918L10.3414 14.0918Z" fill="#90993F"/>
<path d="M8.02246 7.4241L8.8621 6.7782L9.87933 8.10079L9.03969 8.74669L8.02246 7.4241Z" fill="#90993F"/>
<path d="M5.79351 16.3695C7.83942 16.3695 9.50116 14.7078 9.50116 12.6618C9.50116 11.8608 9.24308 11.0796 8.75966 10.4373L6.21712 7.04728C6.03845 6.81549 5.70739 6.76264 5.47562 6.94131C5.43592 6.9743 5.40292 7.00758 5.36965 7.04728L2.82711 10.4373C1.59571 12.0727 1.93321 14.3965 3.56861 15.628C4.21088 16.1112 4.99213 16.3695 5.79347 16.3695H5.79351ZM5.52844 13.1185C5.60785 13.1649 5.70068 13.1911 5.79323 13.1911C6.08459 13.1911 6.32281 12.9529 6.32281 12.6616C6.32281 12.4695 6.22355 12.2975 6.05802 12.2047L6.5876 11.2909C7.349 11.7279 7.60734 12.7012 7.17031 13.4626C6.73327 14.224 5.75996 14.4824 4.99856 14.0453L5.52844 13.1185Z" fill="#90993F"/>
<path d="M19.9359 1.69123C19.5123 1.26762 18.9561 0.99612 18.3536 0.929829L10.0639 0.0096631C9.58717 -0.0431833 9.10401 0.122345 8.76622 0.466547L4.88635 4.34642C4.68111 4.55166 4.68111 4.88942 4.88635 5.09465C4.95905 5.16735 5.05188 5.22048 5.15785 5.24033L7.80633 5.76991C7.97857 5.80291 8.15724 5.75006 8.28307 5.62423L10.5144 3.39293C10.6402 3.26039 10.8323 3.20755 11.011 3.25396L16.5923 4.54491L14.3808 8.02079C13.6128 9.21919 13.9374 10.8149 15.1092 11.6224L18.976 14.2972C19.9692 14.9791 21.2934 14.9129 22.2069 14.1316L24.3191 12.3175L29.2716 16.7734L30 11.7681L19.9359 1.69123ZM23.6503 9.86142L22.4785 11.0268C21.3066 12.1987 19.4131 12.1987 18.241 11.0268C17.2081 9.99392 17.0691 8.35852 17.9231 7.16678L19.1346 5.46509C19.3069 5.22687 19.6379 5.17374 19.8761 5.33927C19.9027 5.35912 19.9225 5.37226 19.9424 5.39883L23.65 9.10648C23.8556 9.31842 23.8556 9.64948 23.6503 9.86144L23.6503 9.86142Z" fill="#90993F"/>
</svg>
