<svg width="17" height="15" viewBox="0 0 17 15" fill="none" xmlns="http://www.w3.org/2000/svg">
<path fill-rule="evenodd" clip-rule="evenodd" d="M1.1131 0H12.8593C13.1572 0 13.3996 0.244211 13.3996 0.544366V8.90769C13.3996 9.20785 13.1572 9.45374 12.8593 9.45374H5.5598L2.68 11.8701L1.98822 11.5716V9.45374H1.11306C0.816807 9.45374 0.572754 9.20785 0.572754 8.90769V0.54437C0.572754 0.244211 0.816846 0 1.1131 0ZM15.3655 12.3908V14.5087L14.6737 14.8072L11.7939 12.3908H4.49447C4.23528 12.3908 4.0165 12.2042 3.96429 11.955L5.88133 10.3475H12.8595C13.6472 10.3475 14.2885 9.70141 14.2885 8.90779V2.93706H16.2408C16.537 2.93706 16.7811 3.18295 16.7811 3.48311V11.8464C16.7811 12.1466 16.537 12.3908 16.2408 12.3908L15.3655 12.3908ZM7.54931 6.36603H6.34764C6.34431 6.19134 6.34264 6.0863 6.34264 6.04728C6.34264 5.17059 6.64723 4.77042 7.30708 4.23121C7.66901 3.93608 8.17393 3.61566 8.17393 3.0984C8.17393 2.47261 7.59321 2.16238 7.03279 2.16238C6.28383 2.16238 5.87317 2.62869 5.72337 3.33407L4.51154 3.1798C4.594 1.85539 5.7453 1.14667 6.97724 1.14667C8.15712 1.14667 9.46152 1.8063 9.46152 3.13744C9.46152 3.97513 8.74281 4.55165 8.15879 5.04009C7.61347 5.49619 7.53587 5.65048 7.54931 6.36603ZM6.34764 8.14823V6.82046H7.54931V8.14823H6.34764Z" fill="white"/>
</svg>
