<svg width="39" height="42" viewBox="0 0 39 42" fill="none" xmlns="http://www.w3.org/2000/svg">
<path d="M26.0426 16.6669V7.50514C26.0426 7.20251 25.9095 6.90023 25.6878 6.68422L19.4349 1.06618C19.2132 0.893302 18.9469 0.76355 18.681 0.76355H1.38488C0.763757 0.76355 0.231934 1.23906 0.231934 1.84398V32.0084C0.231934 32.6133 0.764169 33.0888 1.38488 33.0888H19.0349C19.1235 33.0888 19.1681 33.0888 19.2566 33.0456L21.4298 32.5701C19.6561 28.508 19.6561 26.9521 19.6561 26.2605C19.6557 22.0255 22.2723 18.309 26.0418 16.6671L26.0426 16.6669ZM7.99269 3.313C7.99269 3.09699 8.1701 2.92411 8.39177 2.92411H10.9194C11.1411 2.92411 11.3185 3.09699 11.3185 3.313V5.77609C11.3185 5.9921 11.1411 6.16498 10.9194 6.16498H8.39177C8.1701 6.16498 7.99269 5.9921 7.99269 5.77609V3.313ZM7.99269 8.75821C7.99269 8.5422 8.1701 8.36932 8.39177 8.36932H10.9194C11.1411 8.36932 11.3185 8.5422 11.3185 8.75821V11.2213C11.3185 11.4373 11.1411 11.6102 10.9194 11.6102H8.39177C8.1701 11.6102 7.99269 11.4373 7.99269 11.2213V8.75821ZM7.99269 14.1599C7.99269 13.9439 8.1701 13.771 8.39177 13.771H10.9194C11.1411 13.771 11.3185 13.9439 11.3185 14.1599V16.623C11.3185 16.839 11.1411 17.0119 10.9194 17.0119H8.39177C8.1701 17.0119 7.99269 16.839 7.99269 16.623V14.1599ZM7.99269 19.5619C7.99269 19.3459 8.1701 19.1731 8.39177 19.1731H10.9194C11.1411 19.1731 11.3185 19.3459 11.3185 19.5619V22.025C11.3185 22.241 11.1411 22.4139 10.9194 22.4139H8.39177C8.1701 22.4139 7.99269 22.241 7.99269 22.025V19.5619ZM2.44904 3.31264C2.44904 3.09663 2.62645 2.92375 2.84813 2.92375H5.37577C5.59745 2.92375 5.77485 3.09663 5.77485 3.31264V5.77572C5.77485 5.99173 5.59745 6.16461 5.37577 6.16461H2.84813C2.62645 6.16461 2.44904 5.99173 2.44904 5.77572V3.31264ZM2.44904 8.75785C2.44904 8.54184 2.62645 8.36896 2.84813 8.36896H5.37577C5.59745 8.36896 5.77485 8.54184 5.77485 8.75785V11.2209C5.77485 11.4369 5.59745 11.6098 5.37577 11.6098H2.84813C2.62645 11.6098 2.44904 11.4369 2.44904 11.2209V8.75785ZM2.44904 14.1595C2.44904 13.9435 2.62645 13.7706 2.84813 13.7706H5.37577C5.59745 13.7706 5.77485 13.9435 5.77485 14.1595V16.6226C5.77485 16.8386 5.59745 17.0115 5.37577 17.0115H2.84813C2.62645 17.0115 2.44904 16.8386 2.44904 16.6226V14.1595ZM2.44904 22.0247V19.5616C2.44904 19.3456 2.62645 19.1727 2.84813 19.1727H5.37577C5.59745 19.1727 5.77485 19.3456 5.77485 19.5616V22.0247C5.77485 22.2407 5.59745 22.4135 5.37577 22.4135H2.84813C2.62645 22.4139 2.44904 22.241 2.44904 22.0247ZM9.14573 30.6245C9.14573 30.8405 8.96832 31.0134 8.74664 31.0134H5.68673C5.46505 31.0134 5.28764 30.8405 5.28764 30.6245V24.9633C5.28764 24.7472 5.46505 24.5744 5.68673 24.5744H8.74664C8.96832 24.5744 9.14573 24.7472 9.14573 24.9633V30.6245ZM14.0682 30.6245C14.0682 30.8405 13.8908 31.0134 13.6691 31.0134L10.6092 31.0137C10.3876 31.0137 10.2101 30.8408 10.2101 30.6248V24.9633C10.2101 24.7472 10.3876 24.5744 10.6092 24.5744H13.6691C13.8908 24.5744 14.0682 24.7472 14.0682 24.9633V30.6245ZM16.9068 22.0247C16.9068 22.2407 16.7294 22.4135 16.5077 22.4135H13.98C13.7584 22.4135 13.581 22.2407 13.581 22.0247L13.5806 19.5616C13.5806 19.3456 13.758 19.1727 13.9797 19.1727H16.5073C16.729 19.1727 16.9064 19.3456 16.9064 19.5616L16.9068 22.0247ZM16.9068 16.5798C16.9068 16.7958 16.7294 16.9687 16.5077 16.9687H13.98C13.7584 16.9687 13.581 16.7958 13.581 16.5798V14.1167C13.581 13.9007 13.7584 13.7278 13.98 13.7278H16.5077C16.7294 13.7278 16.9068 13.9007 16.9068 14.1167V16.5798ZM16.9068 11.1778C16.9068 11.3938 16.7294 11.5667 16.5077 11.5667H13.98C13.7584 11.5667 13.581 11.3938 13.581 11.1778L13.5806 8.75776C13.5806 8.54174 13.758 8.36887 13.9797 8.36887H16.5073C16.729 8.36887 16.9064 8.54174 16.9064 8.75776L16.9068 11.1778ZM16.9068 5.77572C16.9068 5.99173 16.7294 6.16461 16.5077 6.16461H13.98C13.7584 6.16461 13.581 5.99173 13.581 5.77572L13.5806 3.31264C13.5806 3.09663 13.758 2.92375 13.9797 2.92375H16.5073C16.729 2.92375 16.9064 3.09663 16.9064 3.31264L16.9068 5.77572Z" fill="white"/>
<path d="M30.5665 18.395C26.043 18.395 22.4062 21.9385 22.4062 26.3468C22.4062 29.4584 26.5306 36.891 28.9255 40.9107C29.6794 42.164 31.4978 42.164 32.2074 40.9107C34.6023 36.8917 38.7266 29.4585 38.7266 26.3468C38.7263 21.9385 35.0453 18.395 30.5664 18.395H30.5665ZM30.5665 30.0197C28.4822 30.0197 26.7527 28.3775 26.7527 26.3032C26.7527 24.2721 28.4379 22.5868 30.5665 22.5868C32.6508 22.5868 34.3803 24.229 34.3803 26.3032C34.3803 28.3775 32.6508 30.0197 30.5665 30.0197Z" fill="white"/>
</svg>
