<svg width="10" height="25" viewBox="0 0 10 25" fill="none" xmlns="http://www.w3.org/2000/svg">
<path d="M5.41759 22.4999C5.29716 22.4999 5.18432 22.431 5.07907 22.2932C4.97382 22.1555 4.92103 21.9853 4.92103 21.7824C4.92103 20.7242 5.71618 17.6229 7.30747 12.478C8.28311 9.33327 8.77106 7.55028 8.77106 7.13004C8.77106 6.78233 8.64206 6.50685 8.38734 6.30391C8.13131 6.10164 7.76409 6 7.28239 6C6.41072 6 5.35492 6.33701 4.11465 7.01072C2.87439 7.68473 1.50219 8.81879 0 10.4129L0.993125 11.1521C2.31752 9.90574 3.17136 9.16651 3.55542 8.93482C3.93914 8.7028 4.28161 8.58712 4.5825 8.58712C4.85338 8.58712 4.98898 8.73188 4.98898 9.02175C4.98898 9.28253 4.93619 9.57974 4.83094 9.91307C2.57348 16.9568 1.44479 21.3837 1.44479 23.1956C1.44479 23.7607 1.59919 24.203 1.90769 24.5216C2.21585 24.8405 2.63355 25 3.16012 25C3.76225 25 4.5373 24.7392 5.48516 24.2173C6.43343 23.6954 7.93824 22.4999 10 20.6303L9.11972 19.8042C7.13313 21.6015 5.8992 22.4999 5.4175 22.4999L5.41759 22.4999Z" fill="#0062A6"/>
<path d="M8 2.5C8 3.88083 6.88057 5 5.49983 5C4.11942 5 3 3.88083 3 2.5C3 1.11916 4.11942 0 5.49983 0C6.88057 0 8 1.11916 8 2.5Z" fill="#0062A6"/>
</svg>
