<svg width="19" height="20" viewBox="0 0 19 20" fill="none" xmlns="http://www.w3.org/2000/svg">
<path d="M12.6479 7.96881V3.69199C12.6479 3.55072 12.5857 3.40961 12.4823 3.30877L9.56332 0.686194C9.45984 0.605492 9.33553 0.544922 9.21138 0.544922H1.13733C0.847384 0.544922 0.599121 0.766895 0.599121 1.04928V15.1304C0.599121 15.4128 0.847576 15.6348 1.13733 15.6348H9.37662C9.41795 15.6348 9.43878 15.6348 9.4801 15.6147L10.4946 15.3927C9.66659 13.4964 9.66659 12.7701 9.66659 12.4472C9.66642 10.4703 10.8879 8.7354 12.6475 7.96894L12.6479 7.96881ZM4.22195 1.73504C4.22195 1.6342 4.30476 1.5535 4.40825 1.5535H5.58818C5.69166 1.5535 5.77448 1.6342 5.77448 1.73504V2.88484C5.77448 2.98568 5.69166 3.06638 5.58818 3.06638H4.40825C4.30476 3.06638 4.22195 2.98568 4.22195 2.88484V1.73504ZM4.22195 4.27694C4.22195 4.1761 4.30476 4.0954 4.40825 4.0954H5.58818C5.69166 4.0954 5.77448 4.1761 5.77448 4.27694V5.42674C5.77448 5.52758 5.69166 5.60828 5.58818 5.60828H4.40825C4.30476 5.60828 4.22195 5.52758 4.22195 5.42674V4.27694ZM4.22195 6.79852C4.22195 6.69768 4.30476 6.61698 4.40825 6.61698H5.58818C5.69166 6.61698 5.77448 6.69768 5.77448 6.79852V7.94832C5.77448 8.04916 5.69166 8.12986 5.58818 8.12986H4.40825C4.30476 8.12986 4.22195 8.04916 4.22195 7.94832V6.79852ZM4.22195 9.32027C4.22195 9.21943 4.30476 9.13873 4.40825 9.13873H5.58818C5.69166 9.13873 5.77448 9.21943 5.77448 9.32027V10.4701C5.77448 10.5709 5.69166 10.6516 5.58818 10.6516H4.40825C4.30476 10.6516 4.22195 10.5709 4.22195 10.4701V9.32027ZM1.6341 1.73487C1.6341 1.63403 1.71692 1.55333 1.8204 1.55333H3.00034C3.10382 1.55333 3.18663 1.63403 3.18663 1.73487V2.88467C3.18663 2.98551 3.10382 3.06621 3.00034 3.06621H1.8204C1.71692 3.06621 1.6341 2.98551 1.6341 2.88467V1.73487ZM1.6341 4.27677C1.6341 4.17593 1.71692 4.09523 1.8204 4.09523H3.00034C3.10382 4.09523 3.18663 4.17593 3.18663 4.27677V5.42657C3.18663 5.52741 3.10382 5.60811 3.00034 5.60811H1.8204C1.71692 5.60811 1.6341 5.52741 1.6341 5.42657V4.27677ZM1.6341 6.79835C1.6341 6.69751 1.71692 6.61681 1.8204 6.61681H3.00034C3.10382 6.61681 3.18663 6.69751 3.18663 6.79835V7.94815C3.18663 8.04899 3.10382 8.12969 3.00034 8.12969H1.8204C1.71692 8.12969 1.6341 8.04899 1.6341 7.94815V6.79835ZM1.6341 10.4699V9.3201C1.6341 9.21926 1.71692 9.13856 1.8204 9.13856H3.00034C3.10382 9.13856 3.18663 9.21926 3.18663 9.3201V10.4699C3.18663 10.5707 3.10382 10.6514 3.00034 10.6514H1.8204C1.71692 10.6516 1.6341 10.5709 1.6341 10.4699ZM4.7602 14.4844C4.7602 14.5852 4.67739 14.6659 4.5739 14.6659H3.14549C3.04201 14.6659 2.9592 14.5852 2.9592 14.4844V11.8417C2.9592 11.7408 3.04201 11.6601 3.14549 11.6601H4.5739C4.67739 11.6601 4.7602 11.7408 4.7602 11.8417V14.4844ZM7.05809 14.4844C7.05809 14.5852 6.97528 14.6659 6.8718 14.6659L5.44338 14.6661C5.3399 14.6661 5.25709 14.5854 5.25709 14.4846V11.8417C5.25709 11.7408 5.3399 11.6601 5.44338 11.6601H6.8718C6.97528 11.6601 7.05809 11.7408 7.05809 11.8417V14.4844ZM8.38316 10.4699C8.38316 10.5707 8.30035 10.6514 8.19687 10.6514H7.01693C6.91345 10.6514 6.83063 10.5707 6.83063 10.4699L6.83046 9.3201C6.83046 9.21926 6.91328 9.13856 7.01676 9.13856H8.1967C8.30018 9.13856 8.38299 9.21926 8.38299 9.3201L8.38316 10.4699ZM8.38316 7.92817C8.38316 8.02901 8.30035 8.10971 8.19687 8.10971H7.01693C6.91345 8.10971 6.83063 8.02901 6.83063 7.92817V6.77837C6.83063 6.67753 6.91345 6.59683 7.01693 6.59683H8.19687C8.30035 6.59683 8.38316 6.67753 8.38316 6.77837V7.92817ZM8.38316 5.40642C8.38316 5.50726 8.30035 5.58796 8.19687 5.58796H7.01693C6.91345 5.58796 6.83063 5.50726 6.83063 5.40642L6.83046 4.27673C6.83046 4.17589 6.91328 4.09519 7.01676 4.09519H8.1967C8.30018 4.09519 8.38299 4.17589 8.38299 4.27673L8.38316 5.40642ZM8.38316 2.88467C8.38316 2.98551 8.30035 3.06621 8.19687 3.06621H7.01693C6.91345 3.06621 6.83063 2.98551 6.83063 2.88467L6.83046 1.73487C6.83046 1.63403 6.91328 1.55333 7.01676 1.55333H8.1967C8.30018 1.55333 8.38299 1.63403 8.38299 1.73487L8.38316 2.88467Z" fill="white"/>
<path d="M14.7595 8.77551C12.6479 8.77551 10.9502 10.4297 10.9502 12.4875C10.9502 13.94 12.8755 17.4097 13.9935 19.2861C14.3454 19.8712 15.1943 19.8712 15.5255 19.2861C16.6435 17.41 18.5688 13.9401 18.5688 12.4875C18.5686 10.4297 16.8503 8.77551 14.7595 8.77551H14.7595ZM14.7595 14.2021C13.7865 14.2021 12.9792 13.4355 12.9792 12.4672C12.9792 11.519 13.7658 10.7323 14.7595 10.7323C15.7325 10.7323 16.5399 11.4989 16.5399 12.4672C16.5399 13.4355 15.7325 14.2021 14.7595 14.2021Z" fill="white"/>
</svg>
