<svg width="24" height="23" viewBox="0 0 24 23" fill="none" xmlns="http://www.w3.org/2000/svg">
<path d="M14.7784 22.8554C14.7822 22.851 14.7862 22.8465 14.7894 22.8436C14.7955 22.8361 14.8012 22.8303 14.8069 22.8218C15.8297 21.6139 17.1018 18.6357 17.235 17.0117C17.235 17.0117 17.2882 14.2487 16.5941 11.1348C16.2333 9.6284 15.6009 7.8396 15.0547 6.91097C14.2089 5.29209 13.0161 3.8857 11.3161 3.10619C5.46036 0.421484 0.974875 0.00200629 0.974875 0.00200629C0.775054 -0.0172589 0.589173 0.103927 0.530026 0.292023C0.530026 0.292023 -1.0071 5.08409 1.15399 8.75793C2.68268 11.5769 4.28058 12.8381 6.12588 13.5262C7.97415 14.2156 10.0137 14.3695 12.6013 15.1424C13.9616 15.5 15.3526 16.2546 16.267 17.0536C15.7499 18.8177 15.3071 20.7884 14.1403 22.3143C13.788 22.7304 14.4088 23.2583 14.7789 22.857L14.7784 22.8554ZM23.9938 8.26119C23.6313 3.54247 22.266 0.54037 22.266 0.54037C22.1703 0.330732 21.9187 0.237514 21.7056 0.3328C21.7056 0.3328 20.6313 0.81443 19.4359 1.49599C17.4288 2.6053 16.2246 3.75522 15.4244 5.72852C16.4328 7.36008 17.0367 9.24248 17.4189 10.9567C17.5879 11.7148 17.7097 12.4426 17.8037 13.1229C18.1428 11.8976 18.3597 10.5184 18.173 9.25281C18.0644 8.68686 18.948 8.56113 19.0079 9.13391C19.0483 9.40797 19.069 9.68453 19.0798 9.96146C19.1566 9.83282 19.2329 9.71205 19.31 9.56849C19.815 8.6309 20.2575 7.42115 20.1211 6.37007C20.0489 5.82093 20.8885 5.71466 20.9607 6.2638C21.1346 7.60348 20.6033 8.94167 20.0569 9.95589C19.5698 10.8599 19.1068 11.4395 18.9991 11.5721C18.8239 12.9246 18.4099 14.1905 18.0131 15.1791L18.0124 15.1797C18.0511 15.755 18.0752 16.2596 18.08 16.5706C20.9322 14.5674 24.1629 11.556 23.9936 8.26163L23.9938 8.26119ZM17.0869 16.6847C17.0869 16.6847 16.8976 16.7566 16.3494 16.9625C15.901 16.2716 12.706 11.653 8.64761 10.114C8.12249 9.91349 8.42941 9.14142 8.95431 9.34193C9.4676 9.53645 9.95977 9.78026 10.4371 10.0481C10.2758 9.75 10.092 9.42911 9.8685 9.08441C9.08907 7.88272 7.93744 6.56023 6.54226 6.00425C6.03616 5.78881 6.34751 5.04284 6.86249 5.23736C8.53117 5.90253 9.75461 7.36339 10.5822 8.63942C11.2867 9.7255 11.6874 10.6573 11.7968 10.9241C15.0001 13.2566 17.0864 16.6844 17.0864 16.6844L17.0869 16.6847Z" fill="#90993F"/>
</svg>
