<svg width="15" height="19" viewBox="0 0 15 19" fill="none" xmlns="http://www.w3.org/2000/svg">
<path d="M14.688 3.54162L11.6049 0.102971V0.103136C11.5467 0.0376229 11.4638 0.000164755 11.3767 0H1.51086C1.26559 0 1.03025 0.0986798 0.856761 0.274592C0.683425 0.450503 0.585938 0.688954 0.585938 0.937793V17.818C0.585938 18.0667 0.683425 18.3053 0.856761 18.4812C1.03026 18.6569 1.2656 18.7558 1.51086 18.7558H13.8433C14.0886 18.7558 14.3239 18.6569 14.4972 18.4812C14.6707 18.3053 14.7682 18.0667 14.7682 17.818V3.7513C14.7681 3.67374 14.7394 3.59915 14.688 3.54173L14.688 3.54162ZM1.81929 5.93935C1.81929 5.27615 2.07921 4.63998 2.54176 4.17102C3.00433 3.70202 3.63172 3.4385 4.28582 3.4385C4.36752 3.4385 4.44598 3.4715 4.50375 3.53009C4.56169 3.58867 4.59408 3.6682 4.59408 3.75121V5.93937H6.41939C6.50906 5.93838 6.59484 5.97732 6.65408 6.0458C6.71332 6.11429 6.74018 6.20554 6.72764 6.29564C6.60916 7.13906 6.07533 7.86314 5.3112 8.21728C4.54706 8.57157 3.65776 8.50689 2.95124 8.04599C2.24473 7.58509 1.81816 6.79119 1.81929 5.93936L1.81929 5.93935ZM4.90234 15.6299C4.90234 15.7127 4.86995 15.7923 4.81217 15.8509C4.75423 15.9096 4.67595 15.9424 4.59408 15.9424H3.36088C3.19064 15.9424 3.05262 15.8025 3.05262 15.6299V13.7543C3.05262 13.5817 3.19064 13.4418 3.36088 13.4418H4.59408C4.67595 13.4418 4.75423 13.4746 4.81217 13.5332C4.86995 13.5919 4.90234 13.6713 4.90234 13.7543V15.6299ZM7.36887 15.6299C7.36887 15.7127 7.33632 15.7923 7.27854 15.8509C7.22077 15.9096 7.14232 15.9424 7.06061 15.9424H5.82724C5.657 15.9424 5.51899 15.8025 5.51899 15.6299V12.8165C5.51899 12.6439 5.657 12.5039 5.82724 12.5039H7.06061C7.14232 12.5039 7.22077 12.5368 7.27854 12.5954C7.33632 12.6541 7.36887 12.7336 7.36887 12.8165V15.6299ZM7.33193 5.067C7.30084 5.21353 7.17145 5.31716 7.02351 5.31387H5.51902C5.34879 5.31387 5.21077 5.17393 5.21077 5.00132V3.12573C5.21077 2.95313 5.34879 2.81319 5.51902 2.81319C6.00971 2.81319 6.48024 3.01072 6.8271 3.36254C7.17409 3.7142 7.36891 4.19126 7.36891 4.68882C7.36973 4.81572 7.35736 4.94262 7.33197 5.06704L7.33193 5.067ZM9.83542 15.6299C9.83542 15.7127 9.80287 15.7923 9.74509 15.8509C9.68731 15.9096 9.60886 15.9424 9.52699 15.9424H8.29379C8.12355 15.9424 7.98554 15.8025 7.98554 15.6299V11.5662C7.98554 11.3934 8.12355 11.2535 8.29379 11.2535H9.52699C9.60886 11.2535 9.68731 11.2865 9.74509 11.345C9.80286 11.4036 9.83542 11.4832 9.83542 11.5662V15.6299ZM12.3019 15.6299H12.3018C12.3018 15.7127 12.2694 15.7923 12.2115 15.8509C12.1537 15.9096 12.0752 15.9424 11.9935 15.9424H10.7603C10.5899 15.9424 10.4519 15.8025 10.4519 15.6299V10.3155C10.4519 10.1429 10.5899 10.003 10.7603 10.003H11.9935C12.0752 10.003 12.1537 10.036 12.2115 10.0945C12.2694 10.1531 12.3018 10.2327 12.3018 10.3155L12.3019 15.6299ZM12.9186 8.12764H8.60213C8.43189 8.12764 8.29387 7.9877 8.29387 7.81509C8.29387 7.64248 8.43189 7.50238 8.60213 7.50238H12.9186C13.0889 7.50238 13.2269 7.64248 13.2269 7.81509C13.2269 7.9877 13.0889 8.12764 12.9186 8.12764ZM12.9186 6.87727H8.60213C8.43189 6.87727 8.29387 6.73734 8.29387 6.56456C8.29387 6.39196 8.43189 6.25202 8.60213 6.25202H12.9186C13.0889 6.25202 13.2269 6.39196 13.2269 6.56456C13.2269 6.73734 13.0889 6.87727 12.9186 6.87727ZM12.9186 5.62691L8.60213 5.62674C8.43189 5.62674 8.29387 5.48681 8.29387 5.3142C8.29387 5.14159 8.43189 5.00165 8.60213 5.00165H12.9186C13.0889 5.00165 13.2269 5.14159 13.2269 5.3142C13.2269 5.48681 13.0889 5.62674 12.9186 5.62674V5.62691ZM11.9937 3.43875L11.9935 3.43859C11.8233 3.43859 11.6853 3.29865 11.6853 3.12604V1.1222L13.7632 3.43857L11.9937 3.43875Z" fill="white"/>
</svg>
