<svg width="25" height="25" viewBox="0 0 25 25" fill="none" xmlns="http://www.w3.org/2000/svg">
<path d="M1.20203 20.2401H6.91365C7.43929 20.2401 7.86569 20.7657 7.86569 21.1921V24.0479C7.86569 24.5736 7.43955 25 6.91365 25H1.20203C0.676399 25 0.25 24.4743 0.25 24.0479V21.1921C0.25 20.6665 0.676135 20.2401 1.20203 20.2401Z" fill="white"/>
<path d="M9.76942 20.2401H15.481C16.0067 20.2401 16.4331 20.7657 16.4331 21.1921V24.0479C16.4331 24.5736 16.0069 25 15.481 25H9.76942C9.24378 25 8.81738 24.4743 8.81738 24.0479V21.1921C8.81738 20.6665 9.24352 20.2401 9.76942 20.2401Z" fill="white"/>
<path d="M9.76942 14.5283H15.481C16.0067 14.5283 16.4331 15.054 16.4331 15.4804V18.3361C16.4331 18.8618 16.0069 19.2882 15.481 19.2882H9.76942C9.24378 19.2882 8.81738 18.7625 8.81738 18.3361V15.4804C8.81738 14.9547 9.24352 14.5283 9.76942 14.5283Z" fill="white"/>
<path d="M18.3368 20.2401H24.0484C24.5741 20.2401 25.0005 20.7657 25.0005 21.1921V24.0479C25.0005 24.5736 24.5743 25 24.0484 25H18.3368C17.8112 25 17.3848 24.4743 17.3848 24.0479V21.1921C17.3848 20.6665 17.8109 20.2401 18.3368 20.2401Z" fill="white"/>
<path d="M18.3368 14.5283H24.0484C24.5741 14.5283 25.0005 15.054 25.0005 15.4804V18.3361C25.0005 18.8618 24.5743 19.2882 24.0484 19.2882H18.3368C17.8112 19.2882 17.3848 18.7625 17.3848 18.3361V15.4804C17.3848 14.9547 17.8109 14.5283 18.3368 14.5283Z" fill="white"/>
<path d="M18.3368 8.81653H24.0484C24.5741 8.81653 25.0005 9.34216 25.0005 9.76856V12.6243C25.0005 13.15 24.5743 13.5764 24.0484 13.5764H18.3368C17.8112 13.5764 17.3848 13.0507 17.3848 12.6243V9.76856C17.3848 9.24293 17.8109 8.81653 18.3368 8.81653Z" fill="white"/>
<path d="M1.20198 17.3842C1.455 17.3857 1.69822 17.2865 1.87788 17.1083L10.7209 8.25504L12.9008 10.435C12.9616 10.4877 13.0287 10.5325 13.1008 10.5684C13.134 10.596 13.1689 10.6214 13.2054 10.6445C13.4345 10.737 13.6906 10.737 13.9195 10.6445L14.0147 10.5875V10.5872C14.0861 10.5546 14.1534 10.5129 14.2145 10.4636L22.1441 3.33351V3.69532V3.69507C22.1237 4.03527 22.2863 4.36042 22.5705 4.54811C22.8549 4.7358 23.2177 4.75766 23.5225 4.6054C23.8273 4.45288 24.0276 4.14961 24.0479 3.80941L24.2097 1.12498C24.2293 1.01494 24.2293 0.902121 24.2097 0.791815V0.696586C24.1776 0.621959 24.1361 0.551359 24.0861 0.487287L24.0291 0.411156H24.0288C23.9155 0.32975 23.7853 0.274722 23.6481 0.249346C23.5461 0.201859 23.4366 0.172713 23.3245 0.163669L20.6401 0.00186059C20.3876 -0.0139685 20.1391 0.0717079 19.9497 0.23955C19.7605 0.407644 19.6456 0.643828 19.6311 0.896601C19.6155 1.14912 19.7009 1.39761 19.869 1.58678C20.0369 1.77623 20.2733 1.89081 20.5258 1.90562H20.9542L13.5765 8.45491L11.3584 6.23683C11.1802 6.05969 10.9388 5.95994 10.6872 5.95994C10.436 5.95994 10.1945 6.05969 10.0161 6.23683L0.497043 15.7559V15.7561C0.314381 15.9368 0.212617 16.1838 0.214881 16.4408C0.217142 16.6979 0.323174 16.9431 0.509104 17.1207C0.694783 17.2984 0.944533 17.3933 1.2016 17.3838L1.20198 17.3842Z" fill="white"/>
</svg>
