<svg width="9" height="12" viewBox="0 0 9 12" fill="none" xmlns="http://www.w3.org/2000/svg">
<path d="M0.00280289 11.0518V0.948743C-0.0137832 0.734811 0.0436563 0.521824 0.164102 0.350148C0.284547 0.178479 0.459758 0.0601437 0.656444 0.0175249C0.853139 -0.0252127 1.05763 0.0108581 1.23117 0.118717L8.5948 5.17025H8.59469C8.8486 5.3593 9 5.66918 9 6.00004C9 6.33086 8.84861 6.64075 8.59469 6.82971L1.23106 11.8812H1.23117C1.05763 11.9891 0.853245 12.0252 0.656559 11.9825C0.459975 11.9399 0.284758 11.8216 0.16433 11.65C0.043773 11.4785 -0.0136656 11.2656 0.00280855 11.0517L0.00280289 11.0518Z" fill="#70787F"/>
</svg>
