<svg width="20" height="18" viewBox="0 0 20 18" fill="none" xmlns="http://www.w3.org/2000/svg">
<path d="M4.27948 0.00012207C3.97387 0.00012207 3.70215 0.237944 3.70215 0.577452V2.58113C3.70215 2.88674 3.93997 3.15846 4.27948 3.15846C4.58509 3.15846 4.85681 2.92063 4.85681 2.58113V0.577452C4.85681 0.271842 4.58537 0.00012207 4.27948 0.00012207Z" fill="#0062A6"/>
<path d="M16.097 2.581V0.57733C16.097 0.27172 15.8592 0 15.5197 0C15.1802 0 14.9424 0.237822 14.9424 0.57733V2.581C14.9424 2.88662 15.1802 3.15834 15.5197 3.15834C15.8592 3.15834 16.097 2.88662 16.097 2.581Z" fill="#0062A6"/>
<path d="M19.5954 6.11351C19.7313 5.90986 19.8332 5.63814 19.8332 5.36642V2.64951C19.8332 1.90243 19.222 1.29123 18.475 1.29123H16.6749V2.58174C16.6749 3.19297 16.1653 3.70251 15.5541 3.70251C14.9429 3.70251 14.4333 3.19297 14.4333 2.58174V1.29123L5.3999 1.29095V2.58146C5.3999 3.19269 4.89036 3.70223 4.27913 3.70223C3.66791 3.70223 3.15836 3.19269 3.15836 2.58146V1.29095H1.35828C0.611193 1.29095 0 1.90218 0 2.64923V5.36614C0 5.63786 0.101966 5.90958 0.237823 6.11323L19.5954 6.11351Z" fill="#0062A6"/>
<path d="M4.27977 3.15825C4.58538 3.15825 4.8571 2.92042 4.8571 2.58092V1.29041H3.73633V2.58092C3.73661 2.88653 3.97415 3.15825 4.27976 3.15825H4.27977Z" fill="#0062A6"/>
<path d="M15.52 3.15825C15.8256 3.15825 16.0973 2.92042 16.0973 2.58092V1.29041H14.9766V2.58092C14.9766 2.88653 15.2144 3.15825 15.52 3.15825H15.52Z" fill="#0062A6"/>
<path d="M0.27172 6.69073C0.101966 6.92856 0 7.20028 0 7.50587V16.6755C0 17.3887 0.577331 18 1.32443 18H18.5085C19.2217 18 19.8329 17.4226 19.8329 16.6755V7.50587C19.8329 7.20026 19.731 6.92854 19.5612 6.69073H0.27172ZM4.68639 15.7923H1.79974V12.9056H4.68639V15.7923ZM4.68639 11.3434H1.79974V8.45676H4.68639V11.3434ZM9.13526 15.7923H6.24861V12.9056H9.13526V15.7923ZM9.13526 11.3434H6.24861V8.45676H9.13526V11.3434ZM13.5841 15.7923H10.6975V12.9056H13.5841V15.7923ZM13.5841 11.3434H10.6975V8.45676H13.5841V11.3434ZM17.9991 15.7923H15.1124V12.9056H17.9991V15.7923ZM17.9991 11.3434H15.1124V8.45676H17.9991V11.3434Z" fill="#0062A6"/>
</svg>
