<svg width="25" height="25" viewBox="0 0 25 25" fill="none" xmlns="http://www.w3.org/2000/svg">
<path d="M16.6881 14.7612L15.9589 12.5007H15.8859L13.985 18.2037C13.7559 18.8496 13.1623 19.2713 12.5006 19.2713C11.8393 19.2713 11.2454 18.8494 11.0214 18.2192L9.11534 12.5008H7.81348V16.683C7.87585 16.6882 7.94364 16.7039 8.00628 16.7142C8.49574 16.8029 8.85529 17.2351 8.85529 17.7349V18.0267C9.14165 18.1308 9.42286 18.2559 9.69375 18.4069L13.0166 20.2348C14.902 21.2713 17.1725 21.5576 19.2923 21.0264L23.964 19.8598L23.1725 16.3652H19.0059C17.9275 16.3652 16.9849 15.709 16.688 14.7612L16.6881 14.7612Z" fill="#90993F"/>
<path d="M17.6827 14.4433C17.844 14.9642 18.3858 15.3235 19.0054 15.3235H22.9377L22.3856 12.9068C22.3284 12.6674 22.1201 12.5006 21.8752 12.5006H17.0576L17.6827 14.4433Z" fill="#90993F"/>
<path d="M19.5466 22.0366C18.7705 22.2294 17.9738 22.3284 17.1717 22.3284C15.5312 22.3284 13.9218 21.9222 12.5158 21.1461L9.19292 19.3181C9.08363 19.2558 8.96893 19.1983 8.85449 19.1514V25H24.4788C24.635 25 24.786 24.927 24.885 24.802C24.984 24.6822 25.0203 24.5208 24.9891 24.3646L24.1976 20.8752L19.5466 22.0366Z" fill="#90993F"/>
<path d="M7.81272 24.9999V17.7345C6.76061 17.5365 5.66178 17.5937 4.62538 17.9272L1.22952 19.0103L0.0108637 24.3643C-0.0203242 24.5205 0.0160194 24.6821 0.114993 24.8017C0.213969 24.9267 0.365013 24.9996 0.521203 24.9996L7.81272 24.9999Z" fill="#90993F"/>
<path d="M6.59465 16.5785C6.65187 16.5785 6.70935 16.5785 6.77172 16.5836V12.5004H3.12612C2.88126 12.5004 2.67299 12.6671 2.61577 12.9066L1.49609 17.8283L4.30839 16.9326C5.04246 16.6981 5.81342 16.5785 6.5946 16.5785L6.59465 16.5785Z" fill="#90993F"/>
<path d="M9.60482 10.6729L12.0058 17.8757C12.0787 18.084 12.2764 18.2298 12.5004 18.2298C12.7244 18.2298 12.9223 18.084 12.9953 17.8757L15.3962 10.6729C17.1513 9.64164 18.2294 7.76678 18.2294 5.73032C18.2294 2.56904 15.6617 0.00134277 12.5005 0.00134277C9.33918 0.00134277 6.77148 2.56904 6.77148 5.73032C6.77174 7.76678 7.84966 9.64164 9.60489 10.6729H9.60482ZM12.5004 2.60572C14.2242 2.60572 15.6253 4.00656 15.6253 5.73065C15.6253 7.45448 14.2245 8.85558 12.5004 8.85558C10.7766 8.85558 9.37546 7.45474 9.37546 5.73065C9.37572 4.00656 10.7766 2.60572 12.5004 2.60572Z" fill="#90993F"/>
</svg>
