<svg width="20" height="13" viewBox="0 0 20 13" fill="none" xmlns="http://www.w3.org/2000/svg">
<path fill-rule="evenodd" clip-rule="evenodd" d="M4.29908 0.940819C4.60565 0.579486 5.21862 0.398908 5.67824 0.338704C8.74308 -0.112901 11.6242 -0.112901 14.689 0.338704C15.1182 0.3989 15.7618 0.579486 16.0376 0.940819C16.3748 2.02464 16.6812 3.1085 16.9877 4.22243C17.1409 4.10204 17.3249 4.04184 17.5394 4.04184H18.8573C19.409 4.04184 19.8075 4.46338 19.8075 4.97519C19.8075 5.4569 19.3783 5.87844 18.8573 5.87844H18.2443C18.4282 6.26988 18.5815 6.8118 18.5815 7.62458C18.6122 9.19015 18.6122 10.7556 18.6122 12.3211C18.6122 12.6222 18.367 12.8329 18.0911 12.8329H15.7005C15.4248 12.8329 15.1795 12.6222 15.1795 12.3211V11.6889H5.18801V12.3211C5.18801 12.6222 4.94288 12.8329 4.63633 12.8329H2.27639C1.96983 12.8329 1.72471 12.6222 1.72471 12.3211C1.72471 10.7555 1.75535 9.19011 1.75535 7.62458C1.75535 6.8118 1.90855 6.26985 2.09256 5.87844H1.47959C0.989201 5.87844 0.560059 5.4569 0.560059 4.97519C0.560059 4.46338 0.958544 4.04184 1.47959 4.04184H2.8281C3.01194 4.04184 3.19595 4.10204 3.34914 4.22243C3.6557 3.1085 3.96188 2.02464 4.29908 0.940819ZM8.00753 9.15971H12.3595C12.6353 9.15971 12.8499 9.37039 12.8499 9.64142C12.8499 9.9123 12.6354 10.1231 12.3595 10.1231H8.00753C7.73177 10.1231 7.51714 9.91244 7.51714 9.64142C7.51714 9.37053 7.73162 9.15971 8.00753 9.15971ZM5.18781 1.3624C4.94269 2.26565 4.69742 3.19885 4.42162 4.1322C8.16071 3.74077 12.1758 3.74077 15.9149 4.1322C15.6697 3.19885 15.3938 2.26565 15.1487 1.3624C11.8692 0.79039 8.49812 0.79039 5.18781 1.3624ZM15.7308 6.45055C15.1485 6.45055 14.6581 6.90216 14.6581 7.47421C14.6581 8.04622 15.1485 8.52797 15.7308 8.52797C16.3132 8.52797 16.7729 8.04626 16.7729 7.47421C16.7729 6.9022 16.3132 6.45055 15.7308 6.45055ZM4.63589 6.45055C5.21821 6.45055 5.678 6.90216 5.678 7.47421C5.678 8.04622 5.21825 8.52797 4.63589 8.52797C4.05352 8.52797 3.59378 8.04626 3.59378 7.47421C3.59378 6.9022 4.05352 6.45055 4.63589 6.45055Z" fill="white"/>
</svg>
