<svg width="47" height="46" viewBox="0 0 47 46" fill="none" xmlns="http://www.w3.org/2000/svg">
<path d="M39.236 30.3524C37.8432 30.355 36.477 30.7324 35.28 31.4448C34.0836 32.1573 33.1009 33.1787 32.4348 34.4022C31.3454 36.406 31.1935 38.7881 32.0196 40.9137C32.8458 43.0399 34.566 44.6943 36.7227 45.4369C38.8794 46.1795 41.2534 45.9346 43.2134 44.7678C45.1733 43.6004 46.5196 41.6298 46.8944 39.3802C47.2693 37.1302 46.6343 34.8291 45.1589 33.09C43.6835 31.3504 41.517 30.3493 39.2359 30.3523L39.236 30.3524ZM38.5068 43.0894L34.6237 38.8351L36.2006 37.4005L38.4078 39.8367L43.2058 34.0622L44.8383 35.4285L38.5068 43.0894Z" fill="white"/>
<path d="M29.3634 38.1178C29.37 35.2747 30.5996 32.5712 32.739 30.6985C28.834 27.6269 23.936 26.0985 18.9769 26.4035C14.0178 26.7084 9.34425 28.8259 5.84544 32.3529C2.34664 35.88 0.265684 40.57 0 45.5314H32.7203C30.5896 43.6567 29.3665 40.9568 29.363 38.1182L29.3634 38.1178Z" fill="white"/>
<path d="M20.2312 22.7905C23.2529 22.7869 26.1491 21.5838 28.284 19.4455C30.4183 17.3071 31.6162 14.4083 31.6142 11.3866C31.6117 8.36533 30.4096 5.46866 28.2722 3.33274C26.1343 1.19747 23.2361 -0.00104378 20.2149 6.82081e-07C17.1931 0.00102073 14.2959 1.20204 12.1596 3.33888C10.0238 5.47571 8.82373 8.37343 8.82373 11.3952C8.82373 14.4194 10.0258 17.3197 12.1657 19.4571C14.3052 21.5944 17.2069 22.7935 20.2312 22.7904V22.7905Z" fill="white"/>
</svg>
