<svg width="22" height="16" viewBox="0 0 22 16" fill="none" xmlns="http://www.w3.org/2000/svg">
<path d="M17.25 9.525V6.275H14V4.775H17.25V1.525H18.75V4.775H22V6.275H18.75V9.525H17.25ZM8 7.5C6.9 7.5 6 7.15 5.3 6.45C4.6 5.75 4.25 4.85 4.25 3.75C4.25 2.65 4.6 1.75 5.3 1.05C6 0.35 6.9 0 8 0C9.1 0 10 0.35 10.7 1.05C11.4 1.75 11.75 2.65 11.75 3.75C11.75 4.85 11.4 5.75 10.7 6.45C10 7.15 9.1 7.5 8 7.5ZM0 15.525V13.175C0 12.5917 0.15 12.0625 0.45 11.5875C0.75 11.1125 1.16667 10.7583 1.7 10.525C2.95 9.975 4.0625 9.5875 5.0375 9.3625C6.0125 9.1375 7 9.025 8 9.025C9 9.025 9.9875 9.1375 10.9625 9.3625C11.9375 9.5875 13.0417 9.975 14.275 10.525C14.8083 10.775 15.2292 11.1333 15.5375 11.6C15.8458 12.0667 16 12.5917 16 13.175V15.525H0ZM1.5 14.025H14.5V13.175C14.5 12.9083 14.4333 12.6542 14.3 12.4125C14.1667 12.1708 13.9583 11.9917 13.675 11.875C12.5083 11.3083 11.5125 10.9417 10.6875 10.775C9.8625 10.6083 8.96667 10.525 8 10.525C7.03333 10.525 6.1375 10.6125 5.3125 10.7875C4.4875 10.9625 3.48333 11.325 2.3 11.875C2.05 11.9917 1.85417 12.1708 1.7125 12.4125C1.57083 12.6542 1.5 12.9083 1.5 13.175V14.025ZM8 6C8.65 6 9.1875 5.7875 9.6125 5.3625C10.0375 4.9375 10.25 4.4 10.25 3.75C10.25 3.1 10.0375 2.5625 9.6125 2.1375C9.1875 1.7125 8.65 1.5 8 1.5C7.35 1.5 6.8125 1.7125 6.3875 2.1375C5.9625 2.5625 5.75 3.1 5.75 3.75C5.75 4.4 5.9625 4.9375 6.3875 5.3625C6.8125 5.7875 7.35 6 8 6Z" fill="#70787F"/>
</svg>
