<svg width="20" height="18" viewBox="0 0 20 18" fill="none" xmlns="http://www.w3.org/2000/svg">
<path d="M17.1414 7.58969C17.1414 7.33217 17.3582 7.12264 17.6263 7.12264C17.8944 7.12264 18.1112 7.33215 18.1112 7.58969V15.5998C18.1112 16.2603 17.8308 16.8607 17.3796 17.2953C16.9284 17.7306 16.3048 18 15.6194 18H2.49181C1.80616 18 1.1828 17.73 0.731586 17.2953C0.280363 16.8607 0 16.2601 0 15.5998V2.95609C0 2.29566 0.280345 1.69522 0.731586 1.25991C1.18281 0.825286 1.80634 0.555235 2.49181 0.555235H12.4328C12.7009 0.555235 12.9177 0.764062 12.9177 1.02228C12.9177 1.2805 12.7009 1.48933 12.4328 1.48933H2.49181C2.07352 1.48933 1.69347 1.65461 1.41706 1.92018C1.14134 2.18576 0.969749 2.55248 0.969749 2.9554V15.5992C0.969749 16.0021 1.14134 16.3681 1.41706 16.6344C1.69278 16.9006 2.0735 17.0652 2.49181 17.0652H15.6194C16.0377 17.0652 16.4177 16.9 16.6941 16.6344C16.9698 16.3688 17.1414 16.0021 17.1414 15.5992V7.58901L17.1414 7.58969ZM6.23254 13.2613C6.23254 13.2613 9.19639 13.7907 10.5488 12.4887L17.785 5.51881L14.2715 2.13458L7.03489 9.10451C5.68318 10.4065 6.23281 13.2613 6.23281 13.2613H6.23254ZM18.4706 4.8579L19.6514 3.7198C20.1162 3.27215 20.1162 2.54246 19.6514 2.09481L17.8252 0.335735C17.3604 -0.111912 16.6022 -0.111912 16.1381 0.335735L14.9566 1.47384L18.4706 4.85807V4.8579Z" fill="#7D7D7D"/>
</svg>
