<svg width="47" height="46" viewBox="0 0 47 46" fill="none" xmlns="http://www.w3.org/2000/svg">
<path d="M29.3634 38.1178C29.37 35.2747 30.5996 32.5712 32.739 30.6985C28.834 27.6269 23.936 26.0985 18.9769 26.4035C14.0178 26.7084 9.34425 28.8259 5.84544 32.3529C2.34664 35.88 0.265684 40.57 0 45.5314H32.7203C30.5896 43.6567 29.3665 40.9568 29.363 38.1182L29.3634 38.1178Z" fill="white"/>
<path d="M20.2307 22.7905C23.2524 22.7869 26.1486 21.5838 28.2835 19.4455C30.4178 17.3071 31.6157 14.4083 31.6137 11.3866C31.6112 8.36533 30.4091 5.46866 28.2717 3.33274C26.1338 1.19747 23.2356 -0.00104378 20.2144 6.82081e-07C17.1926 0.00102073 14.2954 1.20204 12.1591 3.33888C10.0233 5.47571 8.82324 8.37343 8.82324 11.3952C8.82324 14.4194 10.0253 17.3197 12.1652 19.4571C14.3047 21.5944 17.2065 22.7935 20.2307 22.7904V22.7905Z" fill="white"/>
<path d="M39.0001 30C36.8783 30 34.8435 30.8431 33.3433 32.3433C31.8431 33.8435 31 35.8783 31 38.0001C31 40.1217 31.8431 42.1565 33.3433 43.6567C34.8435 45.1569 36.8783 46 39.0001 46C41.1217 46 43.1565 45.1569 44.6567 43.6567C46.1572 42.1565 47 40.1217 47 38.0001C46.9971 35.8791 46.1536 33.846 44.6538 32.3462C43.1541 30.8468 41.1209 30.0029 39.0001 30ZM43.4201 41.005L42.0051 42.42L39.0001 39.415L35.9951 42.42L34.5802 41.005L37.5852 38.0003L34.5802 34.9953L35.9951 33.5803L39.0001 36.5853L42.0051 33.5803L43.4201 34.9953L40.4151 38.0003L43.4201 41.005Z" fill="white"/>
</svg>
