<svg width="20" height="22" viewBox="0 0 20 22" fill="none" xmlns="http://www.w3.org/2000/svg">
<path d="M0.55006 8.24976H4.95012C5.25389 8.24976 5.50018 8.55353 5.50018 8.79982V13.1999C5.50018 13.5036 5.25389 13.7499 4.95012 13.7499H0.55006C0.246287 13.7499 0 13.4462 0 13.1999V8.79982C0 8.49604 0.246287 8.24976 0.55006 8.24976Z" fill="white"/>
<path d="M14.8508 0H19.2509C19.5547 0 19.801 0.303773 19.801 0.55006V4.95012C19.801 5.25389 19.5547 5.50018 19.2509 5.50018H14.8508C14.5471 5.50018 14.3008 5.19641 14.3008 4.95012V0.55006C14.3008 0.246287 14.5471 0 14.8508 0Z" fill="white"/>
<path d="M14.8508 16.4998H19.2509C19.5547 16.4998 19.801 16.8035 19.801 17.0498V21.4499C19.801 21.7536 19.5547 21.9999 19.2509 21.9999H14.8508C14.5471 21.9999 14.3008 21.6962 14.3008 21.4499V17.0498C14.3008 16.746 14.5471 16.4998 14.8508 16.4998Z" fill="white"/>
<path d="M14.8508 8.24976H19.2509C19.5547 8.24976 19.801 8.55353 19.801 8.79982V13.1999C19.801 13.5036 19.5547 13.7499 19.2509 13.7499H14.8508C14.5471 13.7499 14.3008 13.4462 14.3008 13.1999V8.79982C14.3008 8.49604 14.5471 8.24976 14.8508 8.24976Z" fill="white"/>
<path d="M12.6506 3.30032C12.9544 3.30032 13.2007 3.05403 13.2007 2.75026C13.2007 2.44648 12.9544 2.2002 12.6506 2.2002H10.4506C10.1468 2.2002 9.9005 2.44648 9.9005 2.75026V10.4505H7.15065C6.84687 10.4505 6.60059 10.6966 6.60059 11.0003C6.60059 11.3041 6.84687 11.5504 7.15065 11.5504H9.90072L9.90051 19.2506C9.90051 19.3965 9.95843 19.5363 10.0616 19.6396C10.1649 19.7426 10.3047 19.8007 10.4506 19.8007H12.6506C12.9544 19.8007 13.2007 19.5544 13.2007 19.2506C13.2007 18.9469 12.9544 18.7006 12.6506 18.7006H11.0006V11.5506H12.6506C12.9544 11.5506 13.2007 11.3043 13.2007 11.0005C13.2007 10.6967 12.9544 10.4507 12.6506 10.4507H11.0006V3.30063L12.6506 3.30032Z" fill="white"/>
</svg>
