<svg width="18" height="15" viewBox="0 0 18 15" fill="none" xmlns="http://www.w3.org/2000/svg">
<path d="M9.17599 3.49766C9.17599 5.32753 7.69261 6.81075 5.8629 6.81075C4.03319 6.81075 2.5498 5.32753 2.5498 3.49766C2.5498 1.66795 4.03319 0.18457 5.8629 0.18457C7.69261 0.18457 9.17599 1.66795 9.17599 3.49766Z" fill="white"/>
<path d="M8.986 3.4976C8.98029 4.78792 8.16331 5.98609 6.94264 6.43123C6.32284 6.65665 5.64103 6.68473 5.00442 6.50452C4.39209 6.33176 3.84942 5.96927 3.4436 5.48085C2.606 4.47224 2.5102 2.9941 3.18629 1.87857C3.86051 0.764781 5.20159 0.171339 6.48066 0.434211C7.75782 0.697229 8.74945 1.74325 8.95043 3.02789C8.97661 3.18208 8.98597 3.33992 8.98597 3.49759C8.98787 3.73982 9.36352 3.73982 9.36161 3.49759C9.35781 2.77642 9.1381 2.05892 8.7155 1.47295C8.30034 0.89441 7.72387 0.453095 7.05522 0.207036C5.68603 -0.296332 4.0859 0.14136 3.16375 1.26815C2.70546 1.82971 2.42752 2.51152 2.3712 3.23459C2.31488 3.95401 2.48954 4.69024 2.86327 5.30622C3.22385 5.90157 3.7667 6.39174 4.40156 6.67922C5.07578 6.98348 5.82894 7.07169 6.55583 6.92717C7.96262 6.64924 9.0989 5.46978 9.31483 4.05365C9.34307 3.86963 9.35988 3.68371 9.35988 3.49777C9.36353 3.25537 8.98788 3.25537 8.98598 3.49761L8.986 3.4976Z" fill="white"/>
<path d="M15.828 4.72758C15.828 6.09376 14.7205 7.20117 13.3544 7.20117C11.9883 7.20117 10.8809 6.09372 10.8809 4.72758C10.8809 3.36156 11.9883 2.25415 13.3544 2.25415C14.7205 2.25415 15.828 3.3616 15.828 4.72758Z" fill="white"/>
<path d="M15.6402 4.72782C15.6345 5.6706 15.0392 6.54957 14.1453 6.87271C13.2344 7.2014 12.2107 6.92157 11.589 6.17965C10.9748 5.44533 10.9036 4.36152 11.3974 3.54455C11.8857 2.73502 12.8624 2.29562 13.7939 2.48344C14.733 2.67126 15.4599 3.4319 15.6138 4.37658C15.6345 4.49302 15.6403 4.61136 15.6403 4.7278C15.6422 4.97003 16.0178 4.97003 16.0159 4.7278C16.0102 3.6121 15.3041 2.60923 14.2579 2.22424C13.223 1.84478 12.0078 2.17538 11.3092 3.02804C10.6011 3.89195 10.4942 5.13728 11.0744 6.09889C11.6547 7.06055 12.7967 7.55454 13.8935 7.33293C14.9547 7.12067 15.8168 6.22487 15.9802 5.15234C16.0009 5.01147 16.014 4.8687 16.0159 4.72593C16.0177 4.4856 15.642 4.4856 15.6403 4.72783L15.6402 4.72782Z" fill="white"/>
<path d="M11.5384 11.7258V13.0799C11.5384 13.51 11.1814 13.8576 10.7514 13.8576H0.971947C0.541881 13.8576 0.194336 13.5101 0.194336 13.0801V11.7259C0.194336 9.63925 1.88666 7.94141 3.97319 7.94141H7.75204C8.61234 7.94141 9.40851 8.2306 10.0453 8.71524C10.9487 9.40643 11.5385 10.4975 11.5385 11.7258H11.5384Z" fill="white"/>
<path d="M11.3414 11.7257V12.9597C11.3414 13.016 11.3452 13.0742 11.3395 13.1325C11.3264 13.2903 11.2456 13.4386 11.1235 13.54C11.0089 13.6339 10.8681 13.6715 10.7215 13.6715C10.1899 13.6734 9.65848 13.6715 9.12688 13.6715H6.07683H2.9384H1.07714H0.971966C0.678969 13.6677 0.423561 13.4537 0.384047 13.1588C0.361521 12.9935 0.38024 12.815 0.38024 12.6497V11.8816C0.38024 11.6543 0.382143 11.429 0.415932 11.2036C0.470342 10.8467 0.57552 10.4938 0.733361 10.1687C1.04698 9.52641 1.54476 8.98353 2.16074 8.62299C2.71487 8.2981 3.34592 8.13473 3.98631 8.13473H4.93668H7.67314C8.36051 8.13473 9.0236 8.29812 9.61323 8.65868C10.3082 9.08128 10.8547 9.74611 11.1271 10.5142C11.2719 10.9032 11.3395 11.3107 11.3414 11.7257C11.3433 11.9679 11.7189 11.9679 11.717 11.7257C11.7132 10.8242 11.4071 9.95647 10.8474 9.25038C10.282 8.53478 9.45567 8.02589 8.56163 7.84359C8.13713 7.75713 7.71453 7.75904 7.28637 7.75904H5.75572H4.30008C3.87001 7.75904 3.4436 7.7703 3.02101 7.87357C1.50733 8.24176 0.305338 9.53401 0.0592782 11.0778C-0.0214678 11.5831 0.00486822 12.1032 0.00486822 12.6142C0.00486822 12.7946 -0.00829854 12.9786 0.00867546 13.1588C0.0462719 13.574 0.352436 13.942 0.767443 14.0246C0.93655 14.0584 1.11485 14.0471 1.28588 14.0471H2.22309H5.2132H8.49807H10.5735H10.7369C11.0073 14.0452 11.274 13.9401 11.458 13.7372C11.659 13.5175 11.7153 13.2525 11.7153 12.9652V12.2103V11.7256C11.7171 11.4834 11.3414 11.4834 11.3414 11.7256L11.3414 11.7257Z" fill="white"/>
<path d="M17.5861 10.7381V12.0078C17.5861 12.2464 17.404 12.4492 17.1709 12.468L12.4024 12.4679V11.6171C12.4024 10.2573 11.7733 9.04409 10.791 8.25328C11.1065 8.12368 11.4503 8.0542 11.8128 8.0542H14.8985C16.3822 8.0542 17.5861 9.25444 17.5861 10.7382L17.5861 10.7381Z" fill="white"/>
<path d="M17.3982 10.738C17.3982 11.1587 17.4113 11.5832 17.3982 12.0058C17.3925 12.1711 17.2686 12.2744 17.1109 12.2744H16.6995H13.379H12.4005L12.5883 12.4622C12.5883 12.0585 12.607 11.6472 12.5714 11.2451C12.5038 10.4639 12.2389 9.7013 11.7882 9.05709C11.544 8.70588 11.2529 8.39035 10.9205 8.11988C10.8922 8.22505 10.866 8.32833 10.8378 8.4335C11.1571 8.3039 11.4895 8.24013 11.8332 8.24013H12.2127H13.6871H14.8385C15.4058 8.24013 15.9484 8.40162 16.4048 8.74536C17.0301 9.21096 17.3945 9.96035 17.3982 10.738C17.4001 10.9802 17.7757 10.9802 17.7738 10.738C17.77 9.96222 17.4564 9.20918 16.8967 8.67015C16.3615 8.15363 15.6402 7.86444 14.8965 7.86253C14.0551 7.85872 13.2118 7.86253 12.3704 7.86253H11.8596C11.4765 7.86253 11.099 7.92646 10.742 8.06907C10.6256 8.11603 10.5372 8.28323 10.6593 8.3827C11.2171 8.8353 11.666 9.42318 11.9272 10.0956C12.0606 10.4394 12.1545 10.8019 12.1919 11.1699C12.2164 11.399 12.2145 11.6282 12.2145 11.8592V12.462C12.2145 12.5634 12.3009 12.6499 12.4023 12.6499H13.2231H14.9923H16.6394H17.0939C17.3342 12.6499 17.5597 12.5485 17.6854 12.3343C17.8112 12.1202 17.7736 11.8348 17.7736 11.5943V10.7924V10.7397C17.7738 10.4956 17.3981 10.4956 17.3981 10.738L17.3982 10.738Z" fill="white"/>
</svg>
