<svg width="17" height="17" viewBox="0 0 17 17" fill="none" xmlns="http://www.w3.org/2000/svg">
<path d="M12.042 10.5875C11.9276 10.7383 11.9435 10.9688 12.0811 11.1067L16.7982 15.8235C17.0673 16.0925 17.0673 16.5287 16.7982 16.7982C16.5287 17.0673 16.0925 17.0673 15.8235 16.7982L11.1067 12.0811C10.9707 11.9454 10.738 11.9291 10.586 12.0428C10.586 12.0428 10.5292 12.0917 10.3545 12.2084C9.29745 12.9133 8.02796 13.3241 6.66204 13.3241C2.98253 13.3241 0 10.3416 0 6.66206C0 2.98254 2.98253 0 6.66204 0C10.3416 0 13.3241 2.98254 13.3241 6.66206C13.3241 8.03322 12.9099 9.30736 12.2 10.367C12.086 10.5372 12.042 10.5875 12.042 10.5875ZM6.6621 11.9458C9.58021 11.9458 11.9458 9.58017 11.9458 6.66205C11.9458 3.74393 9.58021 1.37833 6.6621 1.37833C3.74399 1.37833 1.37839 3.74393 1.37839 6.66205C1.37839 9.58017 3.74399 11.9458 6.6621 11.9458Z" fill="white"/>
</svg>
