<svg width="52" height="41" viewBox="0 0 52 41" fill="none" xmlns="http://www.w3.org/2000/svg">
<path d="M27.0386 10.3545C27.0386 15.6379 22.7556 19.9205 17.4727 19.9205C12.1897 19.9205 7.90674 15.6379 7.90674 10.3545C7.90674 5.07157 12.1897 0.788574 17.4727 0.788574C22.7556 0.788574 27.0386 5.07157 27.0386 10.3545Z" fill="white"/>
<path d="M26.4903 10.3543C26.4738 14.0799 24.1149 17.5394 20.5905 18.8246C18.8009 19.4755 16.8323 19.5566 14.9942 19.0362C13.2262 18.5374 11.6593 17.4908 10.4876 16.0806C8.06919 13.1684 7.79258 8.90053 9.74467 5.67964C11.6913 2.46378 15.5635 0.750325 19.2566 1.50932C22.9441 2.26874 25.8073 5.28894 26.3876 8.99809C26.4632 9.4433 26.4902 9.89903 26.4902 10.3543C26.4957 11.0537 27.5803 11.0537 27.5748 10.3543C27.5638 8.27204 26.9294 6.20037 25.7093 4.50849C24.5106 2.83806 22.8461 1.56385 20.9155 0.853393C16.9622 -0.599991 12.3421 0.663767 9.67959 3.91717C8.35636 5.53858 7.55386 7.50718 7.39123 9.59492C7.22863 11.6721 7.73292 13.7978 8.81202 15.5764C9.85312 17.2953 11.4205 18.7106 13.2535 19.5407C15.2002 20.4192 17.3748 20.6738 19.4736 20.2566C23.5355 19.4541 26.8163 16.0486 27.4397 11.9598C27.5213 11.4285 27.5698 10.8917 27.5698 10.3548C27.5803 9.65492 26.4957 9.65492 26.4902 10.3543L26.4903 10.3543Z" fill="white"/>
<path d="M46.2445 13.905C46.2445 17.8496 43.0466 21.047 39.1025 21.047C35.1579 21.047 31.9604 17.8495 31.9604 13.905C31.9604 9.96087 35.158 6.76343 39.1025 6.76343C43.0466 6.76343 46.2445 9.96099 46.2445 13.905Z" fill="white"/>
<path d="M45.7029 13.9063C45.6864 16.6283 43.9674 19.1662 41.3865 20.0992C38.7565 21.0483 35.8008 20.2403 34.0058 18.0981C32.2324 15.9779 32.0267 12.8486 33.4525 10.4898C34.8623 8.15241 37.6824 6.8837 40.372 7.42601C43.0836 7.96832 45.1822 10.1645 45.6265 12.8921C45.6865 13.2283 45.703 13.57 45.703 13.9062C45.7085 14.6056 46.7931 14.6056 46.7876 13.9062C46.7711 10.6848 44.7325 7.7892 41.7117 6.67761C38.7236 5.582 35.215 6.53654 33.1979 8.99845C31.1532 11.4928 30.8446 15.0885 32.52 17.865C34.1955 20.6416 37.4928 22.0679 40.6597 21.428C43.7235 20.8152 46.2128 18.2287 46.6846 15.132C46.7442 14.7252 46.7822 14.313 46.7877 13.9008C46.7927 13.2069 45.7081 13.2069 45.7031 13.9063L45.7029 13.9063Z" fill="white"/>
<path d="M33.8588 34.1119V38.0217C33.8588 39.2634 32.8283 40.2669 31.5865 40.2669H3.35019C2.10845 40.2669 1.10498 39.2638 1.10498 38.022V34.1122C1.10498 28.0873 5.99126 23.1851 12.0157 23.1851H22.9265C25.4104 23.1851 27.7092 24.0201 29.5478 25.4194C32.1563 27.4151 33.8593 30.5654 33.8593 34.1119H33.8588Z" fill="white"/>
<path d="M33.2908 34.1107V37.6737C33.2908 37.8363 33.3018 38.0044 33.2853 38.1725C33.2473 38.6282 33.0141 39.0565 32.6615 39.3491C32.3308 39.6203 31.924 39.7289 31.5008 39.7289C29.9659 39.7344 28.4315 39.7289 26.8967 39.7289H18.0902H9.02854H3.65448H3.35081C2.50483 39.7179 1.76739 39.1 1.6533 38.2485C1.58826 37.7712 1.64231 37.256 1.64231 36.7787V34.5609C1.64231 33.9046 1.6478 33.2541 1.74536 32.6034C1.90246 31.5728 2.20614 30.5537 2.66188 29.6152C3.56741 27.7607 5.00465 26.1932 6.78318 25.1522C8.38314 24.2142 10.2052 23.7425 12.0542 23.7425H14.7982H22.6992C24.6839 23.7425 26.5985 24.2142 28.3009 25.2553C30.3075 26.4755 31.8854 28.395 32.6718 30.6128C33.09 31.7359 33.2851 32.9126 33.2906 34.1108C33.2961 34.8102 34.3807 34.8102 34.3752 34.1108C34.3642 31.5078 33.4802 29.0024 31.8643 26.9637C30.2319 24.8975 27.846 23.4282 25.2646 22.9019C24.0389 22.6522 22.8188 22.6577 21.5825 22.6577H17.163H12.9601C11.7184 22.6577 10.4872 22.6902 9.26705 22.9884C4.89657 24.0515 1.42604 27.7827 0.715589 32.2401C0.482449 33.6989 0.55849 35.2008 0.55849 36.6761C0.55849 37.1969 0.520473 37.7282 0.569482 38.2485C0.678035 39.4473 1.56203 40.5098 2.76029 40.7484C3.24855 40.846 3.76338 40.8135 4.25717 40.8135H6.9632H15.5966H25.0811H31.0734H31.5452C32.3261 40.808 33.0961 40.5043 33.6274 39.9185C34.2077 39.2841 34.3703 38.5192 34.3703 37.6897V35.5099V34.1106C34.3754 33.4112 33.2908 33.4112 33.2908 34.1106L33.2908 34.1107Z" fill="white"/>
<path d="M51.3212 31.2586V34.9247C51.3212 35.6136 50.7954 36.1989 50.1225 36.2535L36.3544 36.253V33.7966C36.3544 29.8704 34.5378 26.3674 31.7017 24.0841C32.6127 23.7099 33.6052 23.5093 34.6518 23.5093H43.5614C47.8453 23.5093 51.3213 26.9748 51.3213 31.2587L51.3212 31.2586Z" fill="white"/>
<path d="M50.7782 31.2611C50.7782 32.4758 50.8162 33.7014 50.7782 34.9217C50.7617 35.399 50.4039 35.6972 49.9487 35.6972H48.761H39.1735H36.3483L36.8906 36.2395C36.8906 35.0738 36.9447 33.8862 36.8416 32.7254C36.6465 30.4697 35.8816 28.2678 34.5803 26.4078C33.8754 25.3937 33.0349 24.4827 32.0749 23.7018C31.9934 24.0055 31.9178 24.3036 31.8363 24.6073C32.7583 24.2331 33.7179 24.049 34.7105 24.049H35.8061H40.063H43.3875C45.0254 24.049 46.5923 24.5153 47.91 25.5078C49.7155 26.8521 50.7677 29.0158 50.7782 31.261C50.7837 31.9604 51.8683 31.9604 51.8628 31.261C51.8518 29.0212 50.9463 26.8469 49.3303 25.2906C47.7849 23.7992 45.7023 22.9643 43.555 22.9587C41.1256 22.9478 38.6908 22.9587 36.2614 22.9587H34.7865C33.6804 22.9587 32.5903 23.1433 31.5597 23.5551C31.2235 23.6907 30.9683 24.1734 31.321 24.4606C32.9314 25.7674 34.2277 27.4648 34.9816 29.4065C35.3668 30.399 35.638 31.4457 35.7461 32.5082C35.8166 33.1696 35.8111 33.8315 35.8111 34.4984V36.239C35.8111 36.5316 36.0607 36.7813 36.3534 36.7813H38.7233H43.8316H48.5874H49.8996C50.5935 36.7813 51.2444 36.4886 51.6076 35.8702C51.9708 35.2519 51.8622 34.4279 51.8622 33.7335V31.4182V31.2661C51.8627 30.5612 50.7781 30.5612 50.7781 31.2611L50.7782 31.2611Z" fill="white"/>
<path d="M21.5468 15.2652C21.5468 17.9361 19.3818 20.1019 16.7107 20.1019C14.0393 20.1019 11.874 17.9362 11.874 15.2652C11.874 12.5941 14.0391 10.4285 16.7107 10.4285C19.3816 10.4285 21.5468 12.5941 21.5468 15.2652Z" fill="#F8F8F8"/>
</svg>
