<svg width="20" height="14" viewBox="0 0 20 14" fill="none" xmlns="http://www.w3.org/2000/svg">
<path d="M19.8431 6.46062C14.3153 -2.15354 5.68433 -2.15354 0.156509 6.46062C-0.0521697 6.78351 -0.0521697 7.21648 0.156509 7.53938C5.68859 16.1535 14.3153 16.1535 19.847 7.53938C20.0517 7.21665 20.0517 6.78352 19.843 6.46062H19.8431ZM9.99983 11.9999C7.24375 11.9999 4.99942 9.75583 4.99942 6.99992C4.99942 4.244 7.24371 1.99988 9.99983 1.99988C12.7559 1.99988 15.0002 4.244 15.0002 6.99992C15.0004 9.75578 12.7561 11.9999 9.99983 11.9999Z" fill="#70787F"/>
<path d="M9.99967 4C8.34601 4 6.99951 5.34644 6.99951 6.99993C6.99951 8.65343 8.34605 9.99987 9.99967 9.99987C11.6533 9.99987 12.9998 8.65343 12.9998 6.99993C13 5.3464 11.6535 4 9.99967 4ZM9.99967 8.00007C9.44847 8.00007 8.99968 7.55131 8.99968 7.00015C8.99968 6.44898 9.44847 6.00023 9.99967 6.00023C10.5509 6.00023 10.9997 6.44898 10.9997 7.00015C10.9998 7.55114 10.5509 8.00007 9.99967 8.00007Z" fill="#70787F"/>
</svg>
