<svg width="47" height="46" viewBox="0 0 47 46" fill="none" xmlns="http://www.w3.org/2000/svg">
<path d="M44.676 28.7653H26.1139V10.2032C26.1139 9.043 24.9537 7.88281 23.7935 7.88281C22.4014 7.88281 21.4732 9.043 21.4732 10.2032V28.7653H2.91108C1.51895 28.7653 0.590698 29.9255 0.590698 31.0856V40.3667C0.590698 41.5269 1.51892 42.6871 2.91108 42.6871H5.23146V45.0074H12.1925V42.6871H35.3953V45.0074H42.3564V42.6871H44.6768C46.0689 42.6871 46.9971 41.5269 46.9971 40.3667V31.0856C46.9968 29.6935 46.0685 28.7653 44.6764 28.7653H44.676ZM9.87124 38.0467C8.47911 38.0467 7.55086 36.8865 7.55086 35.7263C7.55086 34.5661 8.47908 33.4059 9.87124 33.4059C11.2634 33.4059 12.1916 34.5661 12.1916 35.7263C12.1916 36.8865 11.2634 38.0467 9.87124 38.0467ZM19.1527 38.0467C17.7605 38.0467 16.8323 36.8865 16.8323 35.7263C16.8323 34.5661 17.7605 33.4059 19.1527 33.4059C20.5448 33.4059 21.4731 34.5661 21.4731 35.7263C21.4731 36.8865 20.5448 38.0467 19.1527 38.0467ZM28.4337 38.0467C27.0416 38.0467 26.1133 36.8865 26.1133 35.7263C26.1133 34.5661 27.0415 33.4059 28.4337 33.4059C29.8259 33.4059 30.7541 34.5661 30.7541 35.7263C30.7541 36.8865 29.8259 38.0467 28.4337 38.0467Z" fill="white"/>
<path d="M19.3279 17.299C20.224 16.3638 20.224 14.9613 19.3279 14.0262C16.6396 11.2211 16.6396 6.77973 19.3279 3.97423C20.224 3.03906 20.224 1.63648 19.3279 0.701377C18.4318 -0.233792 17.0879 -0.233792 16.1918 0.701377C11.9361 5.14271 11.9361 12.6231 16.1918 17.2986C16.8636 18.2338 18.4319 18.2338 19.3279 17.2986V17.299Z" fill="white"/>
<path d="M28.6721 17.2986C29.5682 18.2338 30.9121 18.2338 31.8082 17.2986C36.0639 12.8573 36.0639 5.37688 31.8082 0.701377C30.9121 -0.233792 29.5681 -0.233792 28.6721 0.701377C27.776 1.63655 27.776 3.03913 28.6721 3.97423C31.36 6.77933 31.36 11.2211 28.6721 13.7925C27.776 14.961 27.776 16.3635 28.6721 17.2987V17.2986Z" fill="white"/>
</svg>
