<svg width="20" height="19" viewBox="0 0 20 19" fill="none" xmlns="http://www.w3.org/2000/svg">
<path d="M17.1414 7.73024C17.1414 7.46795 17.3582 7.25455 17.6263 7.25455C17.8944 7.25455 18.1112 7.46794 18.1112 7.73024V15.8887C18.1112 16.5614 17.8308 17.173 17.3796 17.6156C16.9284 18.059 16.3048 18.3333 15.6194 18.3333H2.49181C1.80616 18.3333 1.1828 18.0583 0.731586 17.6156C0.280363 17.1729 0 16.5612 0 15.8887V3.01083C0 2.33817 0.280345 1.72662 0.731586 1.28324C1.18281 0.840569 1.80634 0.565517 2.49181 0.565517H12.4328C12.7009 0.565517 12.9177 0.778211 12.9177 1.04121C12.9177 1.30422 12.7009 1.51691 12.4328 1.51691H2.49181C2.07352 1.51691 1.69347 1.68525 1.41706 1.95574C1.14134 2.22624 0.969749 2.59975 0.969749 3.01013V15.888C0.969749 16.2984 1.14134 16.6713 1.41706 16.9424C1.69278 17.2136 2.0735 17.3813 2.49181 17.3813H15.6194C16.0377 17.3813 16.4177 17.2129 16.6941 16.9424C16.9698 16.6719 17.1414 16.2984 17.1414 15.888V7.72954L17.1414 7.73024ZM6.23254 13.5069C6.23254 13.5069 9.19639 14.0461 10.5488 12.72L17.785 5.62101L14.2715 2.1741L7.03489 9.27311C5.68318 10.5992 6.23281 13.5069 6.23281 13.5069H6.23254ZM18.4706 4.94786L19.6514 3.78868C20.1162 3.33275 20.1162 2.58954 19.6514 2.1336L17.8252 0.341953C17.3604 -0.113984 16.6022 -0.113984 16.1381 0.341953L14.9566 1.50113L18.4706 4.94804V4.94786Z" fill="#70787F"/>
</svg>
