<svg width="19" height="19" viewBox="0 0 19 19" fill="none" xmlns="http://www.w3.org/2000/svg">
<path d="M2.78046 2.78061C-0.926819 6.48786 -0.926819 12.5121 2.78046 16.2196C6.48773 19.9268 12.5121 19.9268 16.2195 16.2196C19.9268 12.5123 19.9268 6.48804 16.2195 2.78061C12.512 -0.926871 6.48792 -0.926871 2.78046 2.78061ZM4.25757 14.7426C1.62174 12.1068 1.39025 7.93627 3.59149 5.03981L13.9604 15.4086C11.0637 17.6098 6.89285 17.3781 4.25751 14.7423L4.25757 14.7426ZM15.4087 13.9607L5.01044 3.59188C7.90687 1.39067 12.0774 1.6224 14.7133 4.25796C17.3491 6.89376 17.6097 11.0643 15.4085 13.9607L15.4087 13.9607Z" fill="#7D7D7D"/>
</svg>
