<svg width="51" height="35" viewBox="0 0 51 35" fill="none" xmlns="http://www.w3.org/2000/svg">
<path fill-rule="evenodd" clip-rule="evenodd" d="M9.90733 2.56596C10.7196 1.58047 12.3438 1.08797 13.5617 0.92377C21.6826 -0.307923 29.3168 -0.307923 37.4377 0.92377C38.5748 1.08794 40.2802 1.58047 41.0109 2.56596C41.9044 5.52193 42.7163 8.47802 43.5286 11.5161C43.9345 11.1877 44.4221 11.0236 44.9903 11.0236H48.4823C49.9441 11.0236 51 12.1733 51 13.5692C51 14.883 49.8629 16.0327 48.4823 16.0327H46.8581C47.3453 17.1002 47.7516 18.5783 47.7516 20.795C47.8328 25.0649 47.8328 29.3343 47.8328 33.6041C47.8328 34.4254 47.1833 35 46.4522 35H40.1179C39.3872 35 38.7373 34.4254 38.7373 33.6041V31.8798H12.2627V33.6041C12.2627 34.4254 11.6132 35 10.8009 35H4.54778C3.73547 35 3.08599 34.4254 3.08599 33.6041C3.08599 29.3342 3.16718 25.0648 3.16718 20.795C3.16718 18.5783 3.57312 17.1002 4.06068 16.0327H2.43649C1.1371 16.0327 0 14.883 0 13.5692C0 12.1733 1.05587 11.0236 2.43649 11.0236H6.00965C6.49678 11.0236 6.98434 11.1877 7.39024 11.5161C8.20255 8.47802 9.01382 5.52193 9.90733 2.56596ZM19.7336 24.9819H31.2651C31.9958 24.9819 32.5645 25.5565 32.5645 26.2957C32.5645 27.0345 31.9962 27.6094 31.2651 27.6094H19.7336C19.0029 27.6094 18.4342 27.0348 18.4342 26.2957C18.4342 25.5569 19.0026 24.9819 19.7336 24.9819ZM12.2622 3.71577C11.6127 6.17926 10.9628 8.72442 10.232 11.27C20.1395 10.2024 30.7782 10.2024 40.6857 11.27C40.0362 8.72442 39.3052 6.17926 38.6556 3.71577C29.9659 2.15568 21.0336 2.15568 12.2622 3.71577ZM40.1981 17.593C38.6551 17.593 37.3556 18.8247 37.3556 20.3849C37.3556 21.945 38.655 23.2589 40.1981 23.2589C41.7411 23.2589 42.9594 21.9451 42.9594 20.3849C42.9594 18.8248 41.7412 17.593 40.1981 17.593ZM10.7998 17.593C12.3427 17.593 13.561 18.8247 13.561 20.3849C13.561 21.945 12.3429 23.2589 10.7998 23.2589C9.25666 23.2589 8.03847 21.9451 8.03847 20.3849C8.03847 18.8248 9.25666 17.593 10.7998 17.593Z" fill="white"/>
</svg>
