<svg width="23" height="23" viewBox="0 0 23 23" fill="none" xmlns="http://www.w3.org/2000/svg">
<path d="M11.5 0C17.8418 0 23 5.15817 23 11.5C23 17.8418 17.8418 23 11.5 23C5.15817 23 0 17.8418 0 11.5C0 5.15817 5.15817 0 11.5 0ZM11.5 1.6046C6.02553 1.6046 1.60438 6.0253 1.60438 11.5002C1.60438 16.9747 6.02508 21.3958 11.5 21.3958C16.9745 21.3958 21.3956 16.9751 21.3956 11.5002C21.3956 6.02575 16.9747 1.6046 11.5 1.6046ZM11.5 3.2092C11.9432 3.2092 12.3023 3.56833 12.3023 4.0115V11.4997C12.3023 11.7212 12.2134 11.9228 12.0683 12.0679L7.15404 16.9821C6.84079 17.2954 6.33079 17.2954 6.01731 16.9821C5.70407 16.6689 5.70407 16.1589 6.01731 15.8454L10.6974 11.1653V4.01139C10.6974 3.56821 11.0566 3.20909 11.4997 3.20909L11.5 3.2092Z" fill="#0062A6"/>
</svg>
