<svg width="156" height="164" viewBox="0 0 156 164" fill="none" xmlns="http://www.w3.org/2000/svg">
<path fill-rule="evenodd" clip-rule="evenodd" d="M54.5392 153.161C54.5392 152.362 54.6196 151.581 54.9792 150.902L57.7189 142.678C49.8689 139.922 42.7192 135.707 36.601 130.2L30.9702 136.81C30.5302 137.354 29.986 137.908 29.3094 138.313C27.1612 139.575 24.5681 139.219 22.86 137.571C18.3033 132.864 14.3097 127.473 10.8697 121.537C7.46281 115.534 4.92185 109.237 3.10959 102.931C2.6506 100.618 3.64901 98.1132 5.81142 96.8702C6.48807 96.4655 7.19783 96.2535 7.94545 96.1379L16.2923 94.4468C15.5447 90.4529 15.1141 86.2565 15.1141 82.012C15.1141 77.7483 15.5447 73.5279 16.2923 69.5628L7.94545 67.8573C7.19783 67.7851 6.47387 67.5153 5.81142 67.1491C3.64901 65.8628 2.6506 63.4394 3.10959 61.0931C4.92185 54.7433 7.46281 48.4608 10.8697 42.5205C14.3097 36.5368 18.3033 31.1167 22.86 26.3712C24.5681 24.7909 27.1612 24.4681 29.3094 25.7063C29.986 26.0773 30.5302 26.6265 30.9702 27.2625L36.601 33.8099C42.7192 28.3609 49.8689 24.0875 57.7189 21.3029L54.9792 13.0885C54.6196 12.3995 54.5297 11.6239 54.5297 10.8193C54.5297 8.31886 56.0628 6.18939 58.3104 5.49562H58.2725C64.5658 3.84312 71.1713 3 77.9567 3C84.7562 3 91.357 3.84312 97.6219 5.49562C99.8411 6.18939 101.45 8.31886 101.45 10.8193C101.45 11.6239 101.284 12.3995 100.977 13.0885L98.166 21.3029C106.125 24.0875 113.279 28.3609 119.379 33.8243L125.071 27.2625C125.535 26.6265 126.069 26.0773 126.736 25.7063C128.87 24.4681 131.492 24.7909 133.224 26.3712C137.733 31.1167 141.76 36.5368 145.143 42.5205C148.555 48.4608 151.124 54.7433 152.879 61.0931C153.367 63.4105 152.354 65.8628 150.244 67.1491C149.525 67.5442 148.848 67.7851 148.072 67.8573L139.683 69.5628C140.487 73.5279 140.932 77.7483 140.932 82.012C140.932 86.2565 140.487 90.4529 139.683 94.4468L148.072 96.1379C148.848 96.2535 149.525 96.4655 150.244 96.8702C152.354 98.1132 153.367 100.618 152.879 102.931C151.124 109.237 148.555 115.534 145.19 121.489C141.76 127.473 137.743 132.864 133.224 137.571C131.492 139.219 128.87 139.556 126.736 138.274C126.069 137.908 125.487 137.354 125.071 136.81L119.379 130.176C113.279 135.707 106.125 139.922 98.2228 142.625L100.977 150.902C101.284 151.581 101.45 152.362 101.45 153.161C101.45 155.7 99.86 157.791 97.6219 158.553V158.524C91.357 160.133 84.7562 161 77.9567 161C71.1713 161 64.5658 160.133 58.2725 158.524C56.0912 157.791 54.5392 155.667 54.5392 153.161ZM78.5 113C95.897 113 110 98.897 110 81.5C110 64.103 95.897 50 78.5 50C61.1031 50 47 64.103 47 81.5C47 98.897 61.1031 113 78.5 113Z" fill="#8E1537"/>
<path d="M54.9792 150.902L57.1887 152.072L57.2856 151.888L57.3511 151.692L54.9792 150.902ZM57.7189 142.678L60.0907 143.468L60.8683 141.134L58.547 140.319L57.7189 142.678ZM36.601 130.2L38.2735 128.342L36.3639 126.623L34.6979 128.579L36.601 130.2ZM30.9702 136.81L29.0671 135.189L29.0462 135.213L29.026 135.238L30.9702 136.81ZM29.3094 138.313L30.5759 140.468L30.5843 140.463L30.5926 140.458L29.3094 138.313ZM22.86 137.571L21.0638 139.31L21.0935 139.341L21.1244 139.37L22.86 137.571ZM10.8697 121.537L8.69543 122.771L8.70102 122.781L8.70669 122.791L10.8697 121.537ZM3.10959 102.931L0.657417 103.418L0.677845 103.521L0.706826 103.621L3.10959 102.931ZM5.81142 96.8702L7.05731 99.0376L7.07608 99.0268L7.09467 99.0157L5.81142 96.8702ZM7.94545 96.1379L8.32755 98.6085L8.38494 98.5996L8.44186 98.5881L7.94545 96.1379ZM16.2923 94.4468L16.7887 96.897L19.2028 96.4079L18.7496 93.9868L16.2923 94.4468ZM16.2923 69.5628L18.749 70.026L19.2052 67.6064L16.7928 67.1134L16.2923 69.5628ZM7.94545 67.8573L8.44593 65.4079L8.31699 65.3816L8.18598 65.3689L7.94545 67.8573ZM5.81142 67.1491L4.5333 69.2977L4.56736 69.318L4.60206 69.3371L5.81142 67.1491ZM3.10959 61.0931L0.705578 60.407L0.676459 60.509L0.65609 60.6132L3.10959 61.0931ZM10.8697 42.5205L8.70231 41.2745L8.70102 41.2767L10.8697 42.5205ZM22.86 26.3712L21.1623 24.536L21.1079 24.5863L21.0567 24.6397L22.86 26.3712ZM29.3094 25.7063L28.061 27.8723L28.0841 27.8856L28.1075 27.8985L29.3094 25.7063ZM30.9702 27.2625L28.9144 28.685L28.9891 28.793L29.0748 28.8926L30.9702 27.2625ZM36.601 33.8099L34.7056 35.44L36.3642 37.3686L38.2637 35.6768L36.601 33.8099ZM57.7189 21.3029L58.5547 23.659L60.8666 22.8389L60.0905 20.5119L57.7189 21.3029ZM54.9792 13.0885L57.3508 12.2975L57.2877 12.1084L57.1955 11.9317L54.9792 13.0885ZM58.3104 5.49562L59.0477 7.88441L58.3104 2.99562V5.49562ZM58.2725 5.49562L57.6376 3.0776L58.2725 7.99562V5.49562ZM97.6219 5.49562L98.3678 3.10951L98.314 3.09268L98.2595 3.0783L97.6219 5.49562ZM100.977 13.0885L98.6939 12.0694L98.6479 12.1724L98.6113 12.2791L100.977 13.0885ZM98.166 21.3029L95.8007 20.4935L94.9969 22.8426L97.3404 23.6626L98.166 21.3029ZM119.379 33.8243L117.711 35.6865L119.603 37.3813L121.267 35.4625L119.379 33.8243ZM125.071 27.2625L126.959 28.9007L127.029 28.8208L127.091 28.7354L125.071 27.2625ZM126.736 25.7063L127.951 27.8913L127.971 27.8802L127.991 27.8687L126.736 25.7063ZM133.224 26.3712L135.036 24.6491L134.975 24.5845L134.909 24.5244L133.224 26.3712ZM145.143 42.5205L142.967 43.7509L142.971 43.7582L142.975 43.7655L145.143 42.5205ZM152.879 61.0931L155.326 60.5786L155.31 60.5022L155.289 60.427L152.879 61.0931ZM150.244 67.1491L151.447 69.3403L151.497 69.3132L151.545 69.2838L150.244 67.1491ZM148.072 67.8573L147.84 65.3681L147.706 65.3806L147.574 65.4074L148.072 67.8573ZM139.683 69.5628L139.185 67.1129L136.736 67.6108L137.232 70.0599L139.683 69.5628ZM139.683 94.4468L137.232 93.9532L136.738 96.4036L139.189 96.8975L139.683 94.4468ZM148.072 96.1379L147.578 98.5886L147.64 98.6012L147.704 98.6106L148.072 96.1379ZM150.244 96.8702L151.513 94.716L151.491 94.7035L151.47 94.6914L150.244 96.8702ZM152.879 102.931L155.288 103.601L155.309 103.525L155.326 103.447L152.879 102.931ZM145.19 121.489L147.359 122.733L147.363 122.726L147.367 122.719L145.19 121.489ZM133.224 137.571L134.947 139.382L134.988 139.343L135.027 139.302L133.224 137.571ZM126.736 138.274L128.024 136.131L127.982 136.106L127.939 136.083L126.736 138.274ZM125.071 136.81L127.057 135.291L127.014 135.235L126.968 135.182L125.071 136.81ZM119.379 130.176L121.276 128.548L119.603 126.598L117.699 128.324L119.379 130.176ZM98.2228 142.625L97.4137 140.259L95.068 141.062L95.8507 143.414L98.2228 142.625ZM100.977 150.902L98.6046 151.691L98.6456 151.815L98.6993 151.933L100.977 150.902ZM97.6219 158.553H95.1219V162.043L98.4269 160.919L97.6219 158.553ZM97.6219 158.524H100.122V155.3L96.9999 156.102L97.6219 158.524ZM58.2725 158.524L57.4769 160.894L57.5641 160.923L57.6532 160.946L58.2725 158.524ZM52.7697 149.732C52.1184 150.963 52.0392 152.245 52.0392 153.161H57.0392C57.0392 152.478 57.1208 152.2 57.1887 152.072L52.7697 149.732ZM55.347 141.888L52.6074 150.112L57.3511 151.692L60.0907 143.468L55.347 141.888ZM34.9285 132.058C41.2968 137.79 48.7348 142.174 56.8908 145.037L58.547 140.319C51.003 137.671 44.1416 133.623 38.2735 128.342L34.9285 132.058ZM32.8733 138.431L38.5041 131.821L34.6979 128.579L29.0671 135.189L32.8733 138.431ZM30.5926 140.458C31.615 139.847 32.3732 139.051 32.9145 138.381L29.026 135.238C28.6871 135.657 28.357 135.969 28.0261 136.167L30.5926 140.458ZM21.1244 139.37C23.6315 141.789 27.4503 142.305 30.5759 140.468L28.0429 136.157C26.8721 136.845 25.5048 136.649 24.5956 135.772L21.1244 139.37ZM8.70669 122.791C12.2379 128.884 16.3513 134.442 21.0638 139.31L24.6562 135.832C20.2553 131.286 16.3814 126.062 13.0327 120.284L8.70669 122.791ZM0.706826 103.621C2.56805 110.098 5.18184 116.58 8.69543 122.771L13.0439 120.303C9.74378 114.488 7.27565 108.377 5.51235 102.241L0.706826 103.621ZM4.56554 94.7027C1.4073 96.5181 0.00490526 100.13 0.657417 103.418L5.56175 102.444C5.2963 101.107 5.89071 99.7082 7.05731 99.0376L4.56554 94.7027ZM7.56335 93.6672C6.5889 93.8179 5.55125 94.1127 4.52818 94.7246L7.09467 99.0157C7.42488 98.8182 7.80677 98.689 8.32755 98.6085L7.56335 93.6672ZM15.7959 91.9966L7.44904 93.6876L8.44186 98.5881L16.7887 96.897L15.7959 91.9966ZM12.6141 82.012C12.6141 86.4237 13.0614 90.7743 13.835 94.9068L18.7496 93.9868C18.0279 90.1314 17.6141 86.0894 17.6141 82.012H12.6141ZM13.8356 69.0996C13.0611 73.2073 12.6141 77.5829 12.6141 82.012H17.6141C17.6141 77.9137 18.0283 73.8485 18.749 70.026L13.8356 69.0996ZM7.44497 70.3067L15.7918 72.0122L16.7928 67.1134L8.44593 65.4079L7.44497 70.3067ZM4.60206 69.3371C5.47087 69.8173 6.52566 70.2317 7.70492 70.3457L8.18598 65.3689C7.87 65.3384 7.47687 65.2132 7.02079 64.9611L4.60206 69.3371ZM0.65609 60.6132C0.00145012 63.9596 1.43182 67.4527 4.5333 69.2977L7.08955 65.0005C5.8662 64.2728 5.29976 62.9192 5.56308 61.5731L0.65609 60.6132ZM8.70102 41.2767C5.18289 47.4111 2.5673 53.8839 0.705578 60.407L5.51359 61.7792C7.2764 55.6027 9.74273 49.5106 13.0383 43.7642L8.70102 41.2767ZM21.0567 24.6397C16.3465 29.5451 12.2338 35.1317 8.70232 41.2745L13.037 43.7665C16.3856 37.9419 20.2601 32.6884 24.6633 28.1027L21.0567 24.6397ZM30.5578 23.5403C27.4719 21.7617 23.6833 22.2038 21.1623 24.536L24.5577 28.2063C25.453 27.3781 26.8504 27.1746 28.061 27.8723L30.5578 23.5403ZM33.026 25.8399C32.4245 24.9706 31.6096 24.1164 30.5112 23.5142L28.1075 27.8985C28.3624 28.0382 28.6358 28.2824 28.9144 28.685L33.026 25.8399ZM38.4965 32.1798L32.8657 25.6324L29.0748 28.8926L34.7056 35.44L38.4965 32.1798ZM56.8831 18.9467C48.7237 21.8411 41.2941 26.2824 34.9383 31.943L38.2637 35.6768C44.1443 30.4395 51.0141 26.3339 58.5547 23.659L56.8831 18.9467ZM52.6076 13.8795L55.3473 22.0938L60.0905 20.5119L57.3508 12.2975L52.6076 13.8795ZM52.0297 10.8193C52.0297 11.7734 52.1272 13.0274 52.763 14.2453L57.1955 11.9317C57.112 11.7717 57.0297 11.4744 57.0297 10.8193H52.0297ZM57.573 3.10683C54.2136 4.14379 52.0297 7.29058 52.0297 10.8193H57.0297C57.0297 9.34714 57.912 8.23499 59.0477 7.88441L57.573 3.10683ZM58.2725 7.99562H58.3104V2.99562H58.2725V7.99562ZM77.9567 0.5C70.964 0.5 64.1448 1.36891 57.6376 3.0776L58.9075 7.91365C64.9868 6.31732 71.3786 5.5 77.9567 5.5V0.5ZM98.2595 3.0783C91.7785 1.36877 84.9629 0.5 77.9567 0.5V5.5C84.5495 5.5 90.9356 6.31746 96.9843 7.91294L98.2595 3.0783ZM103.95 10.8193C103.95 7.24073 101.645 4.13403 98.3678 3.10951L96.8759 7.88174C98.0371 8.24475 98.9499 9.39699 98.9499 10.8193H103.95ZM103.26 14.1076C103.715 13.0883 103.95 11.9643 103.95 10.8193H98.9499C98.9499 11.2835 98.8539 11.7108 98.6939 12.0694L103.26 14.1076ZM100.531 22.1122L103.342 13.8978L98.6113 12.2791L95.8007 20.4935L100.531 22.1122ZM121.047 31.9622C114.705 26.2814 107.265 21.8377 98.9917 18.9431L97.3404 23.6626C104.985 26.3374 111.854 30.4405 117.711 35.6865L121.047 31.9622ZM123.182 25.6243L117.49 32.1861L121.267 35.4625L126.959 28.9007L123.182 25.6243ZM125.522 23.5214C124.431 24.1278 123.642 24.9786 123.051 25.7895L127.091 28.7354C127.427 28.2745 127.708 28.0268 127.951 27.8913L125.522 23.5214ZM134.909 24.5244C132.374 22.2116 128.563 21.756 125.482 23.5439L127.991 27.8687C129.178 27.1803 130.61 27.3702 131.539 28.2179L134.909 24.5244ZM147.319 41.29C143.836 35.13 139.688 29.5445 135.036 24.6491L131.411 28.0933C135.778 32.6889 139.683 37.9435 142.967 43.7509L147.319 41.29ZM155.289 60.427C153.48 53.8828 150.831 47.4049 147.311 41.2754L142.975 43.7655C146.278 49.5167 148.768 55.6037 150.47 61.7593L155.289 60.427ZM151.545 69.2838C154.57 67.4398 156.029 63.9206 155.326 60.5786L150.433 61.6076C150.705 62.9004 150.138 64.2857 148.943 65.0144L151.545 69.2838ZM148.304 70.3466C149.497 70.2354 150.504 69.8585 151.447 69.3403L149.04 64.9579C148.545 65.2298 148.198 65.3347 147.84 65.3681L148.304 70.3466ZM140.181 72.0127L148.57 70.3072L147.574 65.4074L139.185 67.1129L140.181 72.0127ZM143.432 82.012C143.432 77.5774 142.969 73.1905 142.133 69.0658L137.232 70.0599C138.004 73.8653 138.432 77.9192 138.432 82.012H143.432ZM142.133 94.9404C142.969 90.791 143.432 86.4294 143.432 82.012H138.432C138.432 86.0837 138.005 90.1147 137.232 93.9532L142.133 94.9404ZM148.566 93.6872L140.177 91.9961L139.189 96.8975L147.578 98.5886L148.566 93.6872ZM151.47 94.6914C150.456 94.1209 149.483 93.8205 148.44 93.6652L147.704 98.6106C148.213 98.6865 148.593 98.81 149.018 99.0489L151.47 94.6914ZM155.326 103.447C156.024 100.135 154.593 96.5302 151.513 94.716L148.975 99.0243C150.116 99.6961 150.71 101.102 150.433 102.415L155.326 103.447ZM147.367 122.719C150.833 116.584 153.479 110.098 155.288 103.601L150.471 102.261C148.769 108.377 146.276 114.485 143.014 120.259L147.367 122.719ZM135.027 139.302C139.694 134.441 143.832 128.885 147.359 122.733L143.021 120.246C139.688 126.061 135.791 131.287 131.42 135.84L135.027 139.302ZM125.449 140.418C128.561 142.286 132.412 141.794 134.947 139.382L131.5 135.76C130.571 136.644 129.18 136.825 128.024 136.131L125.449 140.418ZM123.085 138.329C123.665 139.087 124.5 139.899 125.534 140.466L127.939 136.083C127.639 135.918 127.309 135.621 127.057 135.291L123.085 138.329ZM117.481 131.804L123.174 138.438L126.968 135.182L121.276 128.548L117.481 131.804ZM99.0319 144.99C107.253 142.179 114.704 137.789 121.058 132.028L117.699 128.324C111.855 133.624 104.997 137.666 97.4137 140.259L99.0319 144.99ZM103.349 150.113L100.595 141.836L95.8507 143.414L98.6046 151.691L103.349 150.113ZM103.95 153.161C103.95 152.025 103.716 150.891 103.254 149.871L98.6993 151.933C98.8526 152.272 98.9499 152.698 98.9499 153.161H103.95ZM98.4269 160.919C101.658 159.82 103.95 156.792 103.95 153.161H98.9499C98.9499 154.608 98.062 155.762 96.8169 156.186L98.4269 160.919ZM95.1219 158.524V158.553H100.122V158.524H95.1219ZM77.9567 163.5C84.969 163.5 91.7787 162.606 98.2438 160.945L96.9999 156.102C90.9353 157.66 84.5434 158.5 77.9567 158.5V163.5ZM57.6532 160.946C64.1445 162.605 70.958 163.5 77.9567 163.5V158.5C71.3847 158.5 64.9871 157.66 58.8918 156.102L57.6532 160.946ZM52.0392 153.161C52.0392 156.705 54.2435 159.808 57.4769 160.894L59.0682 156.154C57.9389 155.775 57.0392 154.629 57.0392 153.161H52.0392ZM107.5 81.5C107.5 97.5163 94.5163 110.5 78.5 110.5V115.5C97.2777 115.5 112.5 100.278 112.5 81.5H107.5ZM78.5 52.5C94.5163 52.5 107.5 65.4837 107.5 81.5H112.5C112.5 62.7223 97.2777 47.5 78.5 47.5V52.5ZM49.5 81.5C49.5 65.4837 62.4838 52.5 78.5 52.5V47.5C59.7223 47.5 44.5 62.7223 44.5 81.5H49.5ZM78.5 110.5C62.4838 110.5 49.5 97.5163 49.5 81.5H44.5C44.5 100.278 59.7223 115.5 78.5 115.5V110.5Z" fill="white"/>
</svg>
