<svg width="22" height="17" viewBox="0 0 22 17" fill="none" xmlns="http://www.w3.org/2000/svg">
<path d="M11 9.23389C10.0423 9.23389 9.26318 10.0132 9.26318 10.9707C9.26318 11.9284 10.0425 12.7075 11 12.7075C11.9577 12.7075 12.7368 11.9282 12.7368 10.9707C12.7368 10.8735 12.724 10.7795 12.7079 10.6858C12.5713 9.86379 11.8605 9.23392 11 9.23392L11 9.23389Z" fill="#70787F"/>
<path d="M19.1647 3.62535L17.1999 5.59019C17.0862 5.70388 16.9381 5.7605 16.7898 5.7605C16.6415 5.7605 16.4934 5.70365 16.38 5.59134C16.1542 5.36555 16.1542 4.99855 16.38 4.77281L18.3448 2.80796C16.5303 1.17296 14.174 0.136666 11.5778 0.00117385V2.8657C11.579 3.18546 11.3197 3.44471 11 3.44471C10.6804 3.44471 10.421 3.18523 10.421 2.8657L10.4212 0C7.82507 0.136613 5.46982 1.17178 3.6542 2.80679L5.61904 4.77163C5.84483 4.99742 5.84483 5.36442 5.61904 5.59016C5.50695 5.70386 5.35865 5.76047 5.21058 5.76047C5.06228 5.76047 4.9142 5.70385 4.8005 5.59153L2.83566 3.62528C1.20065 5.4409 0.165478 7.79615 0.0288709 10.3923H2.89481C3.21434 10.3923 3.47382 10.6518 3.47382 10.9713C3.47359 11.2908 3.21434 11.5503 2.89481 11.5503H0V13.2871C0 14.8839 1.29924 16.1819 2.89481 16.1819H19.1052C20.7008 16.1819 22 14.8839 22 13.2871V10.9713C22 8.14731 20.9208 5.57548 19.1643 3.62572L19.1647 3.62535ZM18.0427 10.3841L13.8847 11.0777C13.8267 12.6247 12.5601 13.866 11.0002 13.866C9.40466 13.866 8.10542 12.5679 8.10542 10.9712C8.10565 9.37441 9.40466 8.07635 11.0002 8.07635C12.23 8.07635 13.2766 8.85087 13.6947 9.93487L17.8527 9.24127C18.1665 9.18809 18.4663 9.40104 18.5186 9.71713C18.5718 10.0332 18.3577 10.3321 18.0428 10.3841L18.0427 10.3841Z" fill="#70787F"/>
</svg>
