<svg width="60" height="60" viewBox="0 0 60 60" fill="none" xmlns="http://www.w3.org/2000/svg">
<rect y="-0.000976562" width="60" height="60" rx="8" fill="#8E1537"/>
<path d="M20.6875 17.1084V19.2178H19.9082C18.5664 19.2178 17.834 19.4873 17.0547 20.2725C16.5449 20.7764 16.2871 21.2275 16.1172 21.8896C16 22.3291 16 22.5752 16 32.1084C16 41.6416 16 41.8877 16.1172 42.3271C16.2871 42.9893 16.5449 43.4404 17.0547 43.9443C17.5586 44.4541 18.0098 44.7119 18.6719 44.8818C19.1055 44.9932 19.3398 44.999 24.1855 44.999H29.2422L28.5273 44.2783C28.1289 43.8857 27.6602 43.3584 27.4844 43.1123L27.1621 42.6611L23.1426 42.6436L19.1289 42.626L18.8887 42.4678C18.7598 42.3799 18.5898 42.21 18.5137 42.0869L18.373 41.8643V32.1084V22.3525L18.5137 22.1299C18.5898 22.0068 18.7598 21.8369 18.8887 21.749L19.1289 21.5908H24.2031H29.2773L29.5176 21.749C29.6465 21.8369 29.8164 22.0068 29.8926 22.1299L30.0332 22.3525L30.0508 25.1826L30.0684 28.0127L30.3145 27.8604C30.625 27.667 31.8262 27.0693 32.1602 26.9404L32.4062 26.8467V24.5908C32.4062 22.5459 32.3945 22.2998 32.2891 21.8896C32.1191 21.2275 31.8613 20.7764 31.3516 20.2725C30.5723 19.4873 29.8398 19.2178 28.498 19.2178H27.7188V17.1084V14.999H24.2031H20.6875V17.1084ZM25.375 18.2803V19.2178H24.2031H23.0312V18.2803V17.3428H24.2031H25.375V18.2803Z" fill="white"/>
<path d="M24.2324 24.796C24.2148 24.837 23.5703 26.7647 22.8027 29.0733L21.4023 33.2804H22.5684C23.207 33.2804 23.7344 33.2862 23.7344 33.2979C23.7344 33.3038 23.3242 34.5343 22.8262 36.0284C22.3281 37.5284 21.9238 38.753 21.9355 38.7589C22.0234 38.8292 24.1211 39.4796 24.1504 39.4444C24.168 39.421 24.8242 37.4991 25.5977 35.1671L27.0039 30.9366H25.8379C25.1992 30.9366 24.6719 30.9308 24.6719 30.919C24.6719 30.9132 25.082 29.6827 25.5801 28.1886C26.0781 26.6886 26.4766 25.4581 26.4648 25.4464C26.4355 25.4171 24.3613 24.7257 24.3027 24.7257C24.2793 24.7257 24.2441 24.7608 24.2324 24.796Z" fill="white"/>
<path d="M34.8789 28.657C33.8535 28.7977 32.7695 29.1609 31.9082 29.6531C31.1523 30.0867 30.625 30.5027 29.998 31.159C28.9023 32.3016 28.2227 33.5848 27.8828 35.1727C27.7012 36.0281 27.7012 37.5633 27.8828 38.4188C28.2227 39.9949 28.8965 41.284 29.9746 42.409C31.0879 43.5809 32.3945 44.3543 33.8945 44.7352C36.1914 45.3152 38.5176 44.9051 40.5684 43.5516C41.1191 43.1883 42.3203 41.9871 42.6895 41.4246C43.6621 39.9598 44.0898 38.5477 44.0898 36.7957C44.0898 35.3836 43.8496 34.3348 43.2637 33.1629C42.8184 32.284 42.4492 31.7801 41.6934 31.0242C40.4746 29.7996 39.2207 29.1141 37.5742 28.7684C36.9062 28.6277 35.5234 28.5691 34.8789 28.657ZM37.2988 31.1063C40.0234 31.7801 41.9043 34.2938 41.7637 37.0594C41.6465 39.2156 40.4395 41.0731 38.5176 42.034C36.9414 42.825 35.0605 42.8484 33.4844 42.1043C32.7754 41.7703 32.2891 41.4305 31.791 40.9266C29.8223 38.9637 29.5059 35.9285 31.0293 33.5965C31.9023 32.2547 33.3027 31.3289 34.9082 31.0242C35.5176 30.907 36.6719 30.9481 37.2988 31.1063Z" fill="white"/>
<path d="M33.5723 34.4463L32.7285 35.2607L33.4902 36.0283L34.252 36.7959L33.4961 37.5518L32.7402 38.3135L33.584 39.1338L34.4277 39.9541L35.1777 39.21L35.9219 38.4658L36.6719 39.21L37.416 39.9482L38.2598 39.1338L39.1094 38.3135L38.3535 37.5576L37.5918 36.7959L38.3535 36.0283L39.1152 35.2666L38.2715 34.4463L37.4277 33.626L36.6719 34.376L35.9219 35.126L35.1719 34.376L34.4219 33.626L33.5723 34.4463Z" fill="white"/>
</svg>
