<svg width="34" height="27" viewBox="0 0 34 27" fill="none" xmlns="http://www.w3.org/2000/svg">
<path d="M0.984248 17.857H5.35358C5.73716 17.857 6.08163 17.6424 6.24931 17.2913L9.23113 10.9782L13.1479 26.268C13.2561 26.6972 13.6499 27 14.1025 27H14.1224C14.5751 26.9904 14.9688 26.668 15.0668 26.2293L19.6232 4.95758L24.3269 20.862C24.455 21.2817 24.8386 21.5648 25.2714 21.5648C25.7043 21.5648 26.0884 21.2817 26.2159 20.862L28.7253 12.4216H33.0159C33.5569 12.4216 34 11.9823 34 11.4459C34 10.9094 33.5569 10.4701 33.0159 10.4701H27.9972C27.5643 10.4701 27.1802 10.7532 27.0527 11.1728L25.2714 17.1443L20.4 0.702755C20.272 0.273569 19.8686 0 19.4159 0C18.9632 0.0196535 18.5796 0.331987 18.4907 0.770746L14.0034 21.7297L10.451 7.85405C10.3525 7.45407 10.008 7.16139 9.59494 7.12209C9.19154 7.08331 8.78814 7.30747 8.61081 7.67823L4.72355 15.9035H0.984131C0.443049 15.9035 0 16.3428 0 16.8793C0 17.4168 0.442514 17.8556 0.984131 17.8556L0.984248 17.857Z" fill="white"/>
</svg>
