<svg width="30" height="30" viewBox="0 0 30 30" fill="none" xmlns="http://www.w3.org/2000/svg">
<path d="M29.7171 0H0.281896C0.206888 0 0.135728 0.0296734 0.082427 0.0827018C0.0291251 0.135729 0 0.207163 0 0.28217V24.523C0 24.6788 0.126114 24.8055 0.28217 24.8055H11.631V26.7815H7.33716C7.18138 26.7815 7.05472 26.9082 7.05472 27.064V29.0966C7.05472 29.2529 7.18138 29.379 7.33716 29.379H22.6628C22.8186 29.379 22.945 29.2529 22.945 29.0966V27.064C22.945 26.9082 22.8189 26.7815 22.6628 26.7815H18.3687V24.8055H29.7176C29.8739 24.8055 30 24.6788 30 24.523V0.28217C29.9997 0.126388 29.8736 0 29.7176 0H29.7171ZM27.4021 22.2081H2.5971V2.59754H27.4021L27.4024 22.2081H27.4021Z" fill="white"/>
<path d="M7.41087 15.1324H12.2438V19.2877C12.2438 19.3501 12.2795 19.4059 12.3358 19.4325C12.3573 19.4424 12.3803 19.4476 12.4034 19.4476C12.44 19.4476 12.4765 19.4353 12.5059 19.4111L17.6539 15.1326H22.5885C22.6769 15.1326 22.7481 15.0609 22.7481 14.973V5.51342C22.7481 5.42522 22.6769 5.35352 22.5885 5.35352L7.41048 5.35379C7.32229 5.35379 7.25086 5.4255 7.25086 5.51369V14.9726C7.25058 15.0605 7.32229 15.1322 7.41048 15.1322L7.41087 15.1324ZM9.96852 7.85743H20.0316C20.1495 7.85743 20.2448 7.95305 20.2448 8.07064C20.2448 8.18851 20.1495 8.28384 20.0316 8.28384H9.96852C9.85065 8.28384 9.75532 8.18823 9.75532 8.07064C9.75532 7.95277 9.85039 7.85743 9.96852 7.85743ZM9.96852 10.0296H20.0316C20.1495 10.0296 20.2448 10.1253 20.2448 10.2429C20.2448 10.3607 20.1495 10.4561 20.0316 10.4561H9.96852C9.85065 10.4561 9.75532 10.3604 9.75532 10.2429C9.75532 10.125 9.85039 10.0296 9.96852 10.0296ZM9.96852 12.2019H20.0316C20.1495 12.2019 20.2448 12.2975 20.2448 12.4151C20.2448 12.5329 20.1495 12.6283 20.0316 12.6283H9.96852C9.85065 12.6283 9.75532 12.5327 9.75532 12.4151C9.75532 12.2972 9.85039 12.2019 9.96852 12.2019Z" fill="white"/>
</svg>
