<svg width="29" height="29" viewBox="0 0 29 29" fill="none" xmlns="http://www.w3.org/2000/svg">
<path d="M0.681066 16.3125L3.65731 16.6578C3.91239 18.0387 4.50775 19.4196 5.27302 20.6281L3.40227 22.9581C3.23237 23.217 3.23237 23.5623 3.48745 23.8212L5.27346 25.5475C5.52853 25.8064 5.8688 25.8064 6.12389 25.634L8.50484 23.7353C9.69555 24.512 10.971 25.1162 12.4168 25.3751L12.757 28.3958C12.757 28.7411 13.0973 29 13.3524 29H15.8185C16.1588 29 16.4139 28.7411 16.4139 28.3958L16.7541 25.3751C18.1147 25.1162 19.4753 24.512 20.6661 23.7353L23.047 25.634C23.3021 25.8064 23.6423 25.8064 23.8974 25.5475L25.6834 23.8212C25.9385 23.5623 25.9385 23.217 25.7686 22.9581L23.8979 20.5416C24.6631 19.3332 25.2584 18.0387 25.5136 16.5714L28.4898 16.226C28.8301 16.226 29 15.8807 29 15.6218V13.1188C29 12.7735 28.7449 12.5146 28.4898 12.5146L25.2576 12.1697C25.0025 10.7889 24.4072 9.40794 23.6419 8.19946L25.5126 5.86899C25.6825 5.61011 25.6825 5.26477 25.4275 5.00587L23.7265 3.27958C23.4715 3.0207 23.1312 3.0207 22.8761 3.27958L20.4952 5.17823C19.3044 4.40157 18.029 3.79739 16.5832 3.53843L16.243 0.517778C16.243 0.172435 15.9027 0 15.6476 0H13.1815C12.8412 0 12.5861 0.258882 12.5861 0.517778L12.2459 3.53843C10.8853 3.79731 9.52466 4.40155 8.33395 5.17823L5.953 3.27958C5.69792 3.10714 5.35765 3.10714 5.10256 3.27958L3.31655 5.00587C3.06147 5.26475 3.06147 5.6101 3.23137 5.86899L5.10212 8.28546C4.33687 9.49394 3.74157 10.7884 3.48641 12.2557L0.510166 12.6011C0.1699 12.6011 0 12.9464 0 13.2053L0.000925892 15.6218C0.170828 15.9671 0.340727 16.226 0.680993 16.3125L0.681066 16.3125ZM14.4572 6.99111C18.5389 6.99111 21.7708 10.3571 21.7708 14.4138C21.7708 18.5565 18.4543 21.8366 14.4572 21.8366C10.46 21.8366 7.14352 18.4706 7.14352 14.4138C7.14399 10.2707 10.3754 6.99111 14.4572 6.99111Z" fill="white"/>
</svg>
