<svg width="60" height="60" viewBox="0 0 60 60" fill="none" xmlns="http://www.w3.org/2000/svg">
<rect width="60" height="60" rx="8" fill="#8E1537"/>
<path d="M29.1935 40.4229H27.6721C27.419 40.4229 27.1763 40.3222 26.9973 40.1431C26.8186 39.9645 26.7179 39.7215 26.7182 39.4686V36.6076C26.7182 36.0807 27.1452 35.6538 27.6721 35.6538H29.8737H29.8733C30.8737 33.4313 32.7549 31.7263 35.0645 30.9479V28.6587V28.659C35.0645 28.1321 35.4914 27.7051 36.0184 27.7051H38.8794C39.1325 27.7048 39.3752 27.8055 39.5542 27.9842C39.7329 28.1632 39.8336 28.4059 39.8336 28.659V30.7228V30.7225C41.5071 31.1134 43.0282 31.99 44.2052 33.2425V24.9229H14V41.6148C14 42.6687 14.4186 43.6796 15.1641 44.4251C15.9092 45.1703 16.9201 45.5892 17.9744 45.5892H31.8582C30.4047 44.223 29.4637 42.3991 29.1934 40.4228L29.1935 40.4229ZM26.7183 28.6588C26.7183 28.1318 27.1452 27.7049 27.6721 27.7049H30.5335C31.0604 27.7049 31.4874 28.1318 31.4874 28.6588V31.5198C31.4874 31.7729 31.387 32.0156 31.208 32.1946C31.0293 32.3733 30.7866 32.474 30.5335 32.474H27.6721C27.419 32.474 27.1763 32.3733 26.9972 32.1946C26.8186 32.0156 26.7179 31.7729 26.7182 31.5198L26.7183 28.6588ZM23.1415 39.4686C23.1415 39.7218 23.0411 39.9645 22.8621 40.1435C22.6831 40.3225 22.4404 40.4229 22.1872 40.4229H19.3262C19.0731 40.4229 18.8304 40.3222 18.6514 40.1435C18.4727 39.9645 18.3723 39.7218 18.3723 39.4686V36.6073C18.3723 36.0803 18.7993 35.6534 19.3262 35.6534H22.1872C22.4404 35.6531 22.683 35.7538 22.8621 35.9325C23.0408 36.1115 23.1415 36.3541 23.1415 36.6073L23.1415 39.4686ZM23.1415 31.5199C23.1415 31.7731 23.0411 32.0158 22.8621 32.1948C22.6831 32.3738 22.4404 32.4742 22.1872 32.4742H19.3262C19.0731 32.4742 18.8304 32.3738 18.6514 32.1948C18.4727 32.0158 18.3723 31.7731 18.3723 31.5199V28.6586C18.3723 28.1316 18.7993 27.7047 19.3262 27.7047H22.1872C22.4404 27.7044 22.683 27.8051 22.8621 27.9838C23.0408 28.1628 23.1415 28.4054 23.1415 28.6586L23.1415 31.5199Z" fill="white"/>
<path d="M40.2307 16.1797H39.4359V17.7693C39.4359 18.9053 38.8299 19.9551 37.8459 20.523C36.8623 21.0908 35.6504 21.0908 34.6667 20.523C33.6827 19.9551 33.0767 18.9054 33.0767 17.7693V16.1797H25.128V17.7693C25.128 18.9053 24.522 19.9551 23.5384 20.523C22.5548 21.0909 21.3429 21.0908 20.3588 20.523C19.3752 19.9551 18.7692 18.9054 18.7692 17.7693V16.1797H17.9744C16.9205 16.1807 15.9103 16.6 15.1655 17.3452C14.4203 18.0903 14.0011 19.1005 14 20.1541V23.3337H44.2052V20.1541C44.2038 19.1005 43.7849 18.0903 43.0397 17.3452C42.2945 16.6 41.2844 16.1808 40.2308 16.1797H40.2307Z" fill="white"/>
<path d="M21.9492 13C22.8273 13 23.5388 13.878 23.5388 14.5896V17.7692C23.5388 18.6472 22.8273 19.3588 21.9492 19.3588C21.0712 19.3588 20.3596 18.4808 20.3596 17.7692V14.5896C20.3596 13.7116 21.0712 13 21.9492 13Z" fill="white"/>
<path d="M36.2561 13C37.1341 13 37.8457 13.878 37.8457 14.5896V17.7692C37.8457 18.6472 37.1342 19.3588 36.2561 19.3588C35.3781 19.3588 34.6665 18.4808 34.6665 17.7692V14.5896C34.6665 13.7116 35.3781 13 36.2561 13Z" fill="white"/>
<path d="M37.8462 32.0767C35.9489 32.0767 34.1295 32.8302 32.7878 34.1719C31.4462 35.5135 30.6926 37.3328 30.6926 39.2302C30.6926 41.1275 31.4462 42.9471 32.7878 44.2889C34.1295 45.6306 35.9488 46.3841 37.8462 46.3841C39.7434 46.3841 41.5631 45.6305 42.9049 44.2889C44.2466 42.9472 45.0001 41.1276 45.0001 39.2302C45.0001 37.3329 44.2465 35.5135 42.9049 34.1719C41.5632 32.8302 39.7435 32.0767 37.8462 32.0767ZM40.2309 40.0254H37.8462C37.6353 40.0254 37.4332 39.9418 37.2842 39.7925C37.1349 39.6435 37.0514 39.4411 37.0514 39.2302V35.2559C37.0514 34.8171 37.4073 34.4611 37.8462 34.4611C38.2853 34.4611 38.6413 34.8171 38.6413 35.2559V38.4355H40.2309C40.6698 38.4355 41.0257 38.7915 41.0257 39.2303C41.0257 39.6695 40.6698 40.0254 40.2309 40.0254L40.2309 40.0254Z" fill="white"/>
</svg>
