<svg width="43" height="43" viewBox="0 0 43 43" fill="none" xmlns="http://www.w3.org/2000/svg">
<path d="M1.49286 0.00274129C0.645321 0.0861491 -0.000446898 0.799267 2.32052e-07 1.6508V41.3519C0.00349343 42.2616 0.740995 42.9983 1.65103 43H41.3517C42.2603 42.9965 42.9961 42.2607 42.9996 41.3519L43 14.5797C42.4585 14.7635 41.9014 14.8513 41.3521 14.8513C40.2146 14.8513 39.0239 14.4889 38.0401 13.6299C37.8087 13.4277 37.6768 13.0582 37.5301 12.5085L31.6301 18.4056C30.6542 19.3816 29.1731 19.9602 27.8465 19.8825C26.52 19.8043 25.4222 19.2187 24.6087 18.4056C23.7957 17.5924 23.2101 16.4845 23.132 15.1579C23.0538 13.8312 23.6197 12.3465 24.5956 11.3709L30.434 5.53189C30.2183 5.47381 29.7725 5.45853 29.4682 5.15372C28.5582 4.21527 28.1346 3.0558 28.0757 1.91909C28.0443 1.28764 28.1381 0.634809 28.3503 0.00284193H1.65223C1.60202 0.000221835 1.54657 0.000221835 1.49416 0.00284193L1.49286 0.00274129ZM32.9115 0.00274129C30.7563 0.1617 30.9221 3.37621 33.0827 3.3116H37.3444L26.9404 13.7166C25.3768 15.2804 27.7224 17.6264 29.286 16.0625L39.69 5.64785V9.91959C39.7403 12.0769 42.951 12.0769 42.9986 9.91959V1.86701C42.9986 0.560813 42.486 0.00229266 41.0953 0.00229266H33.0823C33.0259 -0.000764219 32.9679 -0.000764219 32.9111 0.00229266L32.9115 0.00274129ZM8.26799 18.1926H16.5364C18.7446 18.1926 18.7446 21.505 16.5364 21.505H8.26799C6.05984 21.505 6.05984 18.1926 8.26799 18.1926ZM8.09682 24.8138C8.15315 24.8108 8.21166 24.8108 8.26799 24.8138H28.1138C30.3692 24.7636 30.3692 28.1694 28.1138 28.1195H8.26911C6.01691 28.2859 5.84041 24.881 8.09794 24.8138H8.09682ZM8.09682 31.4284C8.15315 31.4253 8.21166 31.4253 8.26799 31.4284H34.7302C36.937 31.4271 36.937 34.7394 34.7302 34.7407L8.26799 34.7403C6.06118 34.8556 5.89004 31.5432 8.09682 31.428V31.4284Z" fill="#8E1537"/>
</svg>
