<svg width="60" height="60" viewBox="0 0 60 60" fill="none" xmlns="http://www.w3.org/2000/svg">
<rect width="60" height="60" rx="8" fill="#8E1537"/>
<path fill-rule="evenodd" clip-rule="evenodd" d="M12 21.9998C12 16.4769 16.477 12 21.9998 12C27.5227 12 31.9997 16.4773 31.9997 21.9998C31.9997 27.5231 27.5223 32.0005 21.9998 32.0005C16.4766 32.0005 12 27.5232 12 21.9998ZM21.9998 14.4999C17.8574 14.4999 14.4996 17.8577 14.4996 21.9998C14.4996 26.1423 17.8574 29.5001 21.9998 29.5001C26.1419 29.5001 29.5001 26.1423 29.5001 21.9998C29.5001 17.8577 26.1419 14.4999 21.9998 14.4999Z" fill="white"/>
<path d="M19.4998 32.9722V40.7512C19.4998 44.2031 22.2983 47.0013 25.7502 47.0013H35.75C39.2018 47.0013 42.0001 44.2031 42.0001 40.7512V18.2506C42.0001 16.1792 40.3213 14.5005 38.25 14.5005H30.3852C31.0563 15.2501 31.6281 16.0901 32.0804 17.0005H38.25C38.9406 17.0005 39.5002 17.5601 39.5002 18.2507V40.7513C39.5002 42.8227 37.8211 44.5014 35.7501 44.5014H25.7503C23.6789 44.5014 22.0002 42.8227 22.0002 40.7513V33.2511C21.1407 33.2511 20.3039 33.1547 19.4998 32.9723L19.4998 32.9722Z" fill="white"/>
<path d="M23.8911 33.0927C24.0713 33.1934 24.2791 33.2508 24.5002 33.2508H28.2503C28.9405 33.2508 29.5004 32.6912 29.5004 32.001V30.3862C27.955 31.7693 26.0251 32.7315 23.8911 33.0927L23.8911 33.0927Z" fill="white"/>
<path fill-rule="evenodd" clip-rule="evenodd" d="M32.6609 25.6029C32.8364 25.697 33.037 25.7501 33.2502 25.7501H37.0003C37.6905 25.7501 38.2501 25.1905 38.2501 24.5003V20.7502C38.2501 20.0596 37.6905 19.5 37.0003 19.5H33.2502C33.1565 19.5 33.0654 19.5102 32.978 19.5297C33.1561 20.3249 33.2502 21.1513 33.2502 22C33.2502 23.26 33.043 24.4719 32.6609 25.6029V25.6029ZM34.4999 23.2502V22H35.7501V23.2502H34.4999Z" fill="white"/>
<path fill-rule="evenodd" clip-rule="evenodd" d="M24.4999 34.5005C23.8097 34.5005 23.2498 35.0601 23.2498 35.7507V39.5007C23.2498 40.191 23.8097 40.7506 24.4999 40.7506H28.25C28.9402 40.7506 29.5002 40.191 29.5002 39.5007V35.7507C29.5002 35.0601 28.9403 34.5005 28.25 34.5005H24.4999ZM25.7501 38.2506V37.0004H26.9999V38.2506H25.7501Z" fill="white"/>
<path fill-rule="evenodd" clip-rule="evenodd" d="M33.2507 27.0005C32.5601 27.0005 32.0005 27.5601 32.0005 28.2507V32.0007C32.0005 32.691 32.5601 33.2506 33.2507 33.2506H37.0007C37.691 33.2506 38.2506 32.691 38.2506 32.0007V28.2507C38.2506 27.5601 37.691 27.0005 37.0007 27.0005H33.2507ZM34.5005 30.7506V29.5004H35.7507V30.7506H34.5005Z" fill="white"/>
<path fill-rule="evenodd" clip-rule="evenodd" d="M33.2507 34.5005C32.5601 34.5005 32.0005 35.0601 32.0005 35.7507V39.5007C32.0005 40.191 32.5601 40.7506 33.2507 40.7506H37.0007C37.691 40.7506 38.2506 40.191 38.2506 39.5007V35.7507C38.2506 35.0601 37.691 34.5005 37.0007 34.5005H33.2507ZM34.5005 38.2506V37.0004H35.7507V38.2506H34.5005Z" fill="white"/>
<rect x="18" y="18" width="8" height="8" rx="1" fill="white"/>
</svg>
