<svg width="18" height="36" viewBox="0 0 18 36" fill="none" xmlns="http://www.w3.org/2000/svg">
<path d="M0.46372 6.27351C0.909981 6.5556 1.50047 6.42665 1.78804 5.9842C3.31771 3.4738 6.04487 1.94195 8.98465 1.94195C11.9243 1.94195 14.652 3.47369 16.1816 5.9842C16.3093 6.21285 16.5248 6.37955 16.7784 6.44615C17.0317 6.51275 17.3015 6.4733 17.525 6.33713C17.749 6.20054 17.9077 5.9791 17.9645 5.72332C18.0218 5.46752 17.9721 5.19986 17.8275 4.98139C15.9529 1.89403 12.6056 0.00642548 8.99391 1.83602e-05C5.38225 -0.00676885 2.02807 1.86862 0.142093 4.94914C-0.134488 5.40346 0.00973446 5.99607 0.46363 6.27346L0.46372 6.27351Z" fill="white"/>
<path d="M13.1787 8.69095C13.2678 8.93529 13.4519 9.13296 13.689 9.23986C13.9262 9.34634 14.1964 9.35271 14.4382 9.25726C14.68 9.16181 14.8734 8.97304 14.9739 8.73295C15.0745 8.49328 15.0736 8.22306 14.9722 7.98381C14.3351 6.37823 13.079 5.0967 11.4866 4.42775C9.89411 3.75878 8.09968 3.75878 6.50724 4.42775C4.9148 5.09672 3.65835 6.37823 3.02155 7.98381C2.84212 8.47503 3.08688 9.01971 3.57343 9.21148C4.05999 9.40322 4.6106 9.17246 4.81511 8.69099C5.26264 7.57072 6.1416 6.67687 7.25427 6.21067C8.36694 5.74447 9.62002 5.74447 10.7327 6.21067C11.8454 6.67687 12.7243 7.57061 13.1723 8.69099L13.1787 8.69095Z" fill="white"/>
<path d="M11.8096 12.0204C11.8096 13.579 10.5459 14.8426 8.98746 14.8426C7.4289 14.8426 6.16528 13.5789 6.16528 12.0204C6.16528 10.4619 7.429 9.19824 8.98746 9.19824C10.546 9.19824 11.8096 10.462 11.8096 12.0204Z" fill="white"/>
<path d="M15.088 10.4836H12.5165C13.0361 11.676 12.9203 13.0501 12.2072 14.1385C11.4946 15.2267 10.2814 15.8825 8.98075 15.8825C7.67978 15.8825 6.46656 15.2266 5.75385 14.1385C5.04119 13.0501 4.92496 11.676 5.44502 10.4836H2.91215C2.13968 10.4836 1.39898 10.7903 0.85307 11.3367C0.306706 11.8827 0 12.6234 0 13.3958V32.6432C0 33.4153 0.306695 34.1564 0.85307 34.7023C1.39901 35.2482 2.13971 35.5554 2.91215 35.5554H15.0879C15.8599 35.5554 16.601 35.2482 17.1469 34.7023C17.6933 34.1564 18 33.4152 18 32.6432V13.3958C18 12.6233 17.6933 11.8826 17.1469 11.3367C16.601 10.7903 15.8599 10.4836 15.0879 10.4836H15.088ZM5.14307 31.9616C4.623 31.9616 4.15426 31.6486 3.95493 31.1679C3.75598 30.6877 3.86627 30.1346 4.23363 29.7668C4.60141 29.3991 5.15457 29.2892 5.63473 29.4882C6.11535 29.6871 6.42883 30.1563 6.42883 30.676C6.42883 31.017 6.29309 31.3441 6.05213 31.5855C5.81076 31.8264 5.4837 31.9617 5.14307 31.9617V31.9616ZM5.14307 28.1043V28.1047C4.623 28.1047 4.15426 27.7913 3.95493 27.3111C3.75598 26.8304 3.86627 26.2773 4.23363 25.9095C4.60141 25.5422 5.15457 25.4319 5.63473 25.6308C6.11535 25.8302 6.42883 26.2989 6.42883 26.819C6.42883 27.16 6.29309 27.4867 6.05213 27.728C5.81076 27.969 5.4837 28.1047 5.14307 28.1047V28.1043ZM5.14307 24.247V24.2474C4.623 24.2474 4.15426 23.934 3.95493 23.4538C3.75598 22.9731 3.86627 22.4204 4.23363 22.0527C4.60141 21.6849 5.15457 21.575 5.63473 21.774C6.11535 21.9729 6.42883 22.4416 6.42883 22.9618C6.42883 23.3028 6.29309 23.6299 6.05213 23.8708C5.81076 24.1122 5.4837 24.2475 5.14307 24.2475V24.247ZM9.00038 31.9615H8.99996C8.47988 31.9615 8.01114 31.6485 7.81214 31.1678C7.61319 30.6876 7.72306 30.1345 8.09084 29.7667C8.45862 29.399 9.01178 29.2891 9.49194 29.488C9.97256 29.687 10.2856 30.1562 10.2856 30.6759C10.2856 31.0169 10.1503 31.344 9.90935 31.5853C9.66798 31.8263 9.34092 31.9616 8.99987 31.9616L9.00038 31.9615ZM9.00038 28.1042L8.99996 28.1046C8.47988 28.1046 8.01114 27.7912 7.81214 27.311C7.61319 26.8303 7.72306 26.2772 8.09084 25.9094C8.45862 25.5421 9.01178 25.4318 9.49194 25.6307C9.97256 25.8301 10.2856 26.2988 10.2856 26.8189C10.2856 27.1599 10.1503 27.4866 9.90935 27.7279C9.66798 27.9689 9.34092 28.1046 8.99987 28.1046L9.00038 28.1042ZM9.00038 24.2469L8.99996 24.2473C8.47988 24.2473 8.01114 23.9338 7.81214 23.4537C7.61319 22.973 7.72306 22.4203 8.09084 22.0526C8.45862 21.6848 9.01178 21.5749 9.49194 21.7739C9.97256 21.9728 10.2856 22.4415 10.2856 22.9617C10.2856 23.3027 10.1503 23.6298 9.90935 23.8707C9.66798 24.1121 9.34092 24.2474 8.99987 24.2474L9.00038 24.2469ZM8.99996 20.1267H5.14308C4.43297 20.1267 3.85731 19.551 3.85731 18.8409C3.85731 18.1308 4.43296 17.5552 5.14308 17.5552H9.00039H8.99997C9.71008 17.5552 10.2857 18.1308 10.2857 18.8409C10.2857 19.551 9.71009 20.1267 8.99997 20.1267H8.99996ZM12.8573 31.9614V31.961C12.3372 31.961 11.8684 31.6479 11.6694 31.1673C11.4705 30.6871 11.5804 30.134 11.9481 29.7662C12.3159 29.3984 12.8687 29.2886 13.3492 29.4875C13.8299 29.6865 14.1429 30.1556 14.1429 30.6753C14.1429 31.0164 14.0076 31.3434 13.7662 31.5848C13.5253 31.8258 13.1982 31.9611 12.8572 31.9611L12.8573 31.9614ZM12.8573 28.1041C12.3372 28.1041 11.8684 27.7906 11.6694 27.3104C11.4705 26.8298 11.5804 26.2766 11.9481 25.9089C12.3159 25.5415 12.8687 25.4312 13.3492 25.6302C13.8299 25.8296 14.1429 26.2983 14.1429 26.8183C14.1429 27.1594 14.0076 27.486 13.7662 27.7274C13.5253 27.9683 13.1982 28.1041 12.8572 28.1041L12.8573 28.1041ZM12.8573 24.2468C12.3372 24.2468 11.8684 23.9333 11.6694 23.4531C11.4705 22.9725 11.5804 22.4198 11.9481 22.052C12.3159 21.6842 12.8687 21.5744 13.3492 21.7733C13.8299 21.9723 14.1429 22.441 14.1429 22.9611C14.1429 23.3022 14.0076 23.6292 13.7662 23.8702C13.5253 24.1116 13.1982 24.2469 12.8572 24.2469L12.8573 24.2468Z" fill="white"/>
</svg>
