<svg width="31" height="31" viewBox="0 0 31 31" fill="none" xmlns="http://www.w3.org/2000/svg">
<path d="M11.883 1.03345C11.883 0.462592 11.4207 0 10.8496 0H9.81611C9.24525 0 8.78265 0.462305 8.78265 1.03345V1.55003H11.8827L11.883 1.03345Z" fill="white"/>
<path d="M6.2006 7.75049H4.13397V12.9171H16.5339L16.5336 7.75049H14.467V9.30049C14.467 10.155 13.7715 10.8505 12.917 10.8505L7.75033 10.8502C6.89583 10.8502 6.20032 10.1547 6.20032 9.30022L6.2006 7.75049Z" fill="white"/>
<path d="M7.23309 6.71729H13.4332V7.75074H7.23309V6.71729Z" fill="white"/>
<path d="M7.75085 9.81712H12.9175C13.2022 9.81712 13.4341 9.58502 13.4341 9.30054V8.78396L7.23425 8.78369V9.30027C7.23425 9.58502 7.46608 9.81712 7.75083 9.81712H7.75085Z" fill="white"/>
<path d="M7.23309 4.65039H13.4332V5.68384H7.23309V4.65039Z" fill="white"/>
<path d="M13.4329 3.1001C13.4329 2.81536 13.2008 2.58352 12.9163 2.58352L7.74967 2.58325C7.46493 2.58325 7.23309 2.81536 7.23309 3.09983V3.61641H13.4332L13.4329 3.1001Z" fill="white"/>
<path d="M19.1168 28.4167H1.55C0.695508 28.4167 0 29.1123 0 29.9668V30.4833H20.6669V29.9668C20.6669 29.1123 19.9714 28.4167 19.1169 28.4167H19.1168Z" fill="white"/>
<path d="M30.9999 17.0499V16.0165H28.9333V15.4999H26.8666C25.9066 15.4999 25.1042 16.1607 24.8734 17.0499H24.2832C23.9984 17.0499 23.7666 16.8183 23.7666 16.5333V13.4333C23.7666 12.5788 23.0711 11.8833 22.2166 11.8833C21.3621 11.8833 20.6666 12.5788 20.6666 13.4333V20.667C20.6666 20.9523 20.4345 21.1836 20.15 21.1836H18.6V7.2336C18.6 6.3791 17.9045 5.68359 17.05 5.68359H14.4666V6.71705H16.5332C17.103 6.71705 17.5666 7.18044 17.5666 7.7505V12.9171C17.5666 13.4869 17.1032 13.9506 16.5332 13.9506L4.1333 13.9503C3.56353 13.9503 3.09985 13.4869 3.09985 12.9169V7.7505C3.09985 7.18073 3.56324 6.71705 4.1333 6.71705H6.19993V5.6836H3.61647C2.76198 5.6836 2.06647 6.3791 2.06647 7.2336V27.3839H18.5999L18.6002 22.2172H20.1502C21.0047 22.2172 21.7002 21.5217 21.7002 20.6672V13.4335C21.7002 13.1488 21.9323 12.917 22.2167 12.917C22.5015 12.917 22.7333 13.1491 22.7333 13.4335V16.5336C22.7333 17.388 23.4288 18.0836 24.2833 18.0836H24.8733C25.1043 18.9727 25.9067 19.6336 26.8665 19.6336H28.9331V19.117H30.9998V18.0835H28.9331V17.0501L30.9999 17.0499ZM12.9164 16.5333C12.9164 15.9625 13.3787 15.4999 13.9499 15.4999H14.9833C15.5542 15.4999 16.0168 15.9622 16.0168 16.5333V18.6C16.0168 19.1708 15.5545 19.6334 14.9833 19.6334H13.9499C13.379 19.6334 12.9164 19.1711 12.9164 18.6V16.5333ZM4.65005 16.5333C4.65005 15.9625 5.11236 15.4999 5.68351 15.4999H6.71696C7.28782 15.4999 7.75041 15.9622 7.75041 16.5333V18.6C7.75041 19.1708 7.28811 19.6334 6.71696 19.6334H5.68351C5.11265 19.6334 4.65005 19.1711 4.65005 18.6V16.5333ZM17.0499 25.8338H3.61667V23.7672H17.0499V25.8338Z" fill="white"/>
<path d="M29.21 21.977L28.4793 21.2463C27.8749 21.8507 26.8917 21.8507 26.287 21.2463L25.5563 21.977C26.0601 22.4808 26.7215 22.7325 27.3832 22.7325C28.0457 22.7322 28.7063 22.4808 29.21 21.977Z" fill="white"/>
<path d="M24.8261 22.7078L24.0954 23.4385C25.0017 24.3453 26.1925 24.7984 27.3834 24.7984C28.5742 24.7984 29.7647 24.3454 30.6713 23.4385L29.9412 22.7078C28.5308 24.1178 26.2367 24.1178 24.8261 22.7078Z" fill="white"/>
<path d="M25.5563 13.1566L26.287 13.8873C26.8914 13.2834 27.8747 13.2834 28.4793 13.8873L29.21 13.1566C28.2028 12.1496 26.5639 12.1496 25.5563 13.1566Z" fill="white"/>
<path d="M27.3834 11.3667C28.3494 11.3667 29.2574 11.7428 29.9409 12.4258L30.6716 11.6951C29.7931 10.8168 28.6255 10.3333 27.3834 10.3333C26.1413 10.3333 24.9736 10.8168 24.0954 11.6951L24.8261 12.4258C25.5093 11.7428 26.4173 11.3667 27.3834 11.3667Z" fill="white"/>
</svg>
