<svg width="59" height="48" viewBox="0 0 59 48" fill="none" xmlns="http://www.w3.org/2000/svg">
<path d="M52.1858 23.419C52.1858 23.477 53.0577 22.6636 53.0577 22.7216H58.1138L49.338 32.8917L40.4468 22.7216H45.5028C45.5028 22.6636 46.6068 23.477 46.6068 23.419C46.6068 13.7138 39.1099 5.86898 29.8703 5.86898C25.6861 5.86898 21.8506 7.49637 18.9448 10.1696L15.2256 5.75302C19.1772 2.14988 24.2913 1.63891e-08 29.8698 1.63891e-08C42.1899 -0.000479412 52.1859 10.5176 52.1859 23.4192L52.1858 23.419Z" fill="#8E1537"/>
<path d="M5.92745 24.5811C5.92745 24.5231 5.05554 25.3365 5.05554 25.2785H0L8.77525 15.1089L17.6665 25.2785H12.6104C12.6104 25.3365 11.5065 24.5231 11.5065 24.5811C11.5065 34.2862 19.0034 42.1311 28.243 42.1311C32.4271 42.1311 36.2627 40.5037 39.1685 37.8304L42.8877 42.247C38.9361 45.8502 33.822 48 28.2435 48C15.9234 48.0005 5.92738 37.4819 5.92738 24.5808L5.92745 24.5811Z" fill="#8E1537"/>
</svg>
