<svg width="33" height="33" viewBox="0 0 33 33" fill="none" xmlns="http://www.w3.org/2000/svg">
<path d="M16.5002 5.68945C15.2302 5.68945 14.0799 7.04766 13.3446 9.10326H19.6563C18.9207 7.04766 17.7701 5.68945 16.5002 5.68945Z" fill="white"/>
<path d="M9.6889 9.10244H12.1401C12.5144 7.95146 13.0097 6.9621 13.6001 6.20703C12.0302 6.77711 10.677 7.79168 9.6889 9.10244Z" fill="white"/>
<path d="M12.9963 18.2063H20.0054C20.2682 17.17 20.4298 16.0113 20.4697 14.7925H12.5315C12.5712 16.0114 12.7334 17.1704 12.9962 18.2063H12.9963Z" fill="white"/>
<path d="M7.99405 13.6543H11.3938C11.4295 12.4373 11.577 11.2875 11.8218 10.2405H8.9576C8.41065 11.2713 8.07543 12.4279 7.99408 13.6543H7.99405Z" fill="white"/>
<path d="M22.7592 29.5859H23.8972V32.9997H22.7592V29.5859Z" fill="white"/>
<path d="M20.0046 10.241H12.9959C12.7331 11.2772 12.5715 12.436 12.5315 13.6548H20.469C20.4293 12.4359 20.2671 11.2768 20.0043 10.241H20.0046Z" fill="white"/>
<path d="M16.5 26.1721C9.91134 26.1721 4.55188 20.812 4.55188 14.2241C4.55218 7.63604 9.91172 2.27597 16.5 2.27597C23.0882 2.27597 28.4481 7.63612 28.4481 14.2241V14.7929H27.0929L29.5861 19.7795L32.0794 14.7929H30.7239V14.2241C30.7239 6.38118 24.3432 0 16.4998 0C8.65694 0 2.27576 6.38103 2.27576 14.2241C2.27576 22.0671 8.65678 28.4481 16.4998 28.4481C19.5028 28.4481 22.3483 27.535 24.7671 25.8008L23.2446 24.0887C21.2541 25.4529 18.934 26.1723 16.4998 26.1723L16.5 26.1721Z" fill="white"/>
<path d="M0 31.2926C0 32.2336 0.765902 32.9995 1.7069 32.9995H21.6209V29.5857H1.7069C0.76591 29.5857 0 30.3516 0 31.2926ZM19.345 30.7234H20.4831V31.8615H19.345V30.7234ZM17.0692 30.7234H18.2072V31.8615H17.0692V30.7234ZM14.793 30.7234H15.9311V31.8615H14.793V30.7234ZM12.5172 30.7234H13.6553V31.8615H12.5172V30.7234ZM10.2414 30.7234H11.3795V31.8615H10.2414V30.7234ZM7.9656 30.7234H9.10366V31.8615H7.9656V30.7234ZM5.68947 30.7234H6.82753V31.8615H5.68947V30.7234ZM3.41365 30.7234H4.55171V31.8615H3.41365V30.7234ZM2.27559 31.8615H1.13783V30.7234H2.2759L2.27559 31.8615Z" fill="white"/>
<path d="M19.4018 6.20752C19.9923 6.96261 20.4872 7.95202 20.8618 9.10293H23.313C22.3245 7.79217 20.9714 6.77759 19.4018 6.20752Z" fill="white"/>
<path d="M21.1784 10.241C21.4232 11.288 21.5704 12.4377 21.6064 13.6548H25.0061C24.9247 12.4287 24.5895 11.2721 24.0429 10.241H21.1784Z" fill="white"/>
<path d="M21.1784 18.2063H24.0426C24.5893 17.1752 24.9245 16.0185 25.0058 14.7925H21.6061C21.5707 16.0095 21.4232 17.1596 21.1784 18.2063H21.1784Z" fill="white"/>
<path d="M8.9576 18.2063H11.8218C11.577 17.1593 11.4298 16.0095 11.3938 14.7925H7.99405C8.07575 16.0188 8.41094 17.1755 8.95757 18.2063H8.9576Z" fill="white"/>
<path d="M31.2929 29.5859H25.0341V32.9997H31.2929C32.2339 32.9997 32.9998 32.2338 32.9998 31.2928C32.9998 30.3518 32.2339 29.5859 31.2929 29.5859Z" fill="white"/>
<path d="M13.6001 22.2396C13.0096 21.4846 12.5146 20.4951 12.1401 19.3442H9.6889C10.6773 20.6553 12.0305 21.6696 13.6001 22.2396Z" fill="white"/>
<path d="M23.3122 19.344H20.8609C20.4867 20.495 19.9914 21.4843 19.4009 22.2394C20.9709 21.6693 22.324 20.6551 23.3122 19.344Z" fill="white"/>
<path d="M16.5002 22.758C17.7701 22.758 18.9205 21.3998 19.6557 19.3442H13.3446C14.0799 21.3998 15.2302 22.758 16.5002 22.758Z" fill="white"/>
</svg>
